<?xml version="1.0" standalone="no"?>
<!DOCTYPE svg PUBLIC "-//W3C//DTD SVG 20010904//EN"
 "http://www.w3.org/TR/2001/REC-SVG-20010904/DTD/svg10.dtd">
<svg version="1.0" xmlns="http://www.w3.org/2000/svg"
 width="1200.000000pt" height="1320.000000pt" viewBox="0 0 1200.000000 1320.000000"
 preserveAspectRatio="xMidYMid meet">

<g transform="translate(0.000000,1320.000000) scale(0.100000,-0.100000)"
fill="#000000" stroke="none">
<path d="M5755 13150 c-233 -18 -452 -40 -485 -50 -19 -5 -100 -21 -180 -35
-80 -14 -176 -35 -215 -47 -38 -11 -104 -29 -145 -38 -41 -10 -100 -27 -130
-38 -30 -11 -75 -27 -100 -35 -131 -44 -353 -131 -390 -153 -14 -8 -45 -24
-70 -35 -25 -11 -56 -27 -70 -35 -14 -8 -45 -24 -70 -35 -25 -11 -56 -26 -70
-34 -14 -8 -50 -28 -80 -45 -78 -43 -163 -95 -271 -167 -282 -187 -374 -260
-681 -543 -194 -178 -453 -490 -638 -765 -108 -161 -117 -176 -140 -225 -11
-25 -30 -59 -43 -77 -46 -67 -78 -122 -91 -160 -7 -21 -25 -55 -39 -76 -14
-21 -29 -52 -32 -70 -4 -18 -20 -55 -36 -83 -16 -28 -29 -58 -29 -66 0 -8 -16
-45 -35 -84 -19 -38 -35 -77 -35 -87 0 -10 -12 -49 -27 -85 -15 -37 -37 -101
-49 -142 -13 -41 -32 -102 -43 -135 -28 -82 -70 -258 -92 -390 -10 -60 -28
-157 -39 -215 -41 -219 -57 -594 -41 -950 11 -220 32 -437 46 -459 2 -4 13
-75 25 -158 11 -83 32 -183 45 -222 14 -39 25 -81 25 -93 0 -50 146 -512 185
-589 9 -17 23 -54 31 -80 8 -27 23 -64 34 -82 10 -17 26 -52 36 -77 10 -25 26
-56 36 -70 10 -14 27 -52 38 -84 11 -33 26 -67 34 -75 8 -9 48 -83 91 -166 42
-82 87 -163 99 -180 13 -16 33 -50 46 -75 29 -58 223 -351 271 -410 35 -43 58
-75 148 -200 22 -30 70 -89 106 -130 37 -41 79 -91 93 -110 14 -19 56 -67 92
-105 36 -39 108 -117 160 -175 122 -134 218 -230 355 -355 60 -55 139 -128
175 -162 36 -34 84 -75 107 -92 23 -16 80 -65 126 -108 83 -75 106 -94 230
-185 31 -24 90 -70 131 -103 41 -33 96 -75 122 -93 27 -18 63 -43 81 -55 18
-12 58 -42 90 -67 50 -38 118 -85 220 -151 12 -8 59 -39 105 -70 138 -93 181
-119 195 -119 7 0 30 -15 50 -33 21 -18 54 -40 73 -50 19 -9 64 -35 100 -57
36 -22 92 -54 125 -70 33 -17 74 -41 92 -53 70 -48 123 -78 161 -91 23 -8 54
-24 70 -36 15 -12 89 -36 167 -56 126 -31 149 -34 225 -29 110 9 270 55 367
107 43 23 85 47 93 53 8 7 35 20 60 29 43 17 83 39 168 95 20 14 62 37 92 53
30 16 78 43 106 61 28 18 76 47 105 65 30 19 81 51 114 73 33 22 73 47 89 57
15 9 63 40 105 69 73 50 213 144 257 174 12 8 55 39 95 69 41 30 88 65 104 78
36 26 184 141 275 213 36 28 93 76 128 106 35 31 87 74 115 96 29 22 86 72
127 111 41 39 129 121 194 181 159 147 226 214 316 315 41 47 113 126 161 175
47 50 101 110 120 135 19 24 57 70 85 102 85 95 337 436 423 573 21 33 67 105
103 160 36 55 71 115 78 133 7 18 22 45 34 59 25 32 39 57 140 259 43 87 89
185 101 219 13 33 32 77 44 96 11 18 25 56 32 84 7 27 25 74 41 103 15 30 28
64 28 76 0 11 12 46 26 76 14 30 32 84 40 120 9 36 28 104 45 151 16 48 29 98
29 112 0 15 11 61 25 104 14 43 32 132 41 198 8 66 24 160 35 209 36 167 55
607 40 931 -12 264 -23 369 -51 490 -10 44 -21 113 -25 154 -3 40 -19 115 -35
166 -16 50 -32 114 -35 141 -4 27 -18 74 -30 104 -13 30 -28 82 -35 115 -7 33
-22 80 -35 105 -12 25 -28 68 -35 95 -7 28 -26 76 -42 107 -15 32 -28 65 -28
75 0 20 -220 462 -279 559 -66 111 -76 126 -97 153 -12 14 -29 42 -39 61 -18
36 -33 58 -138 199 -34 46 -71 96 -82 111 -73 99 -98 131 -109 138 -6 4 -64
66 -128 137 -120 135 -164 179 -284 282 -39 34 -98 87 -130 119 -32 31 -77 68
-99 82 -22 14 -69 49 -105 78 -129 106 -216 166 -295 206 -22 11 -49 28 -60
37 -49 42 -490 275 -570 301 -22 7 -65 26 -96 42 -31 15 -63 28 -72 28 -8 0
-40 13 -70 29 -31 16 -80 34 -109 40 -29 6 -77 22 -106 36 -29 13 -90 31 -135
39 -45 8 -104 23 -132 34 -27 11 -84 25 -125 31 -41 7 -123 23 -181 36 -210
48 -804 85 -1064 65z m460 -620 c333 -28 466 -43 515 -56 30 -8 102 -24 160
-35 58 -11 134 -32 169 -45 35 -14 100 -32 144 -40 45 -9 93 -24 107 -34 15
-10 49 -24 76 -31 27 -7 77 -27 112 -46 35 -18 72 -33 83 -33 17 0 114 -44
189 -86 14 -7 52 -27 85 -44 33 -16 89 -48 125 -70 36 -22 88 -51 117 -65 28
-14 57 -32 64 -41 7 -8 26 -22 43 -31 35 -18 163 -112 216 -159 19 -17 61 -48
93 -69 33 -21 61 -44 64 -50 2 -7 53 -54 113 -104 60 -50 138 -124 173 -164
36 -39 84 -92 107 -117 44 -47 224 -268 250 -306 8 -13 51 -75 95 -138 79
-114 102 -151 159 -257 15 -30 34 -61 41 -69 20 -22 115 -211 115 -227 0 -7
13 -39 29 -71 15 -31 34 -75 41 -97 7 -22 24 -62 37 -88 13 -26 28 -71 33
-100 6 -28 19 -69 31 -90 11 -22 26 -68 35 -103 8 -36 23 -86 33 -112 10 -26
24 -78 30 -117 7 -38 25 -133 41 -210 43 -206 64 -524 56 -825 -7 -271 -29
-533 -51 -605 -9 -27 -25 -105 -36 -172 -11 -67 -28 -141 -39 -165 -10 -24
-24 -74 -31 -113 -6 -38 -22 -95 -34 -125 -13 -30 -31 -84 -40 -120 -9 -36
-25 -78 -35 -95 -10 -16 -26 -56 -35 -89 -10 -32 -25 -73 -36 -90 -10 -17 -25
-51 -33 -74 -9 -24 -25 -56 -36 -72 -11 -16 -27 -47 -35 -70 -8 -23 -24 -54
-35 -70 -11 -16 -27 -47 -35 -70 -8 -23 -24 -54 -35 -70 -11 -16 -27 -47 -35
-69 -7 -22 -38 -75 -68 -118 -30 -43 -64 -96 -76 -118 -32 -59 -81 -136 -118
-186 -18 -24 -57 -77 -85 -118 -29 -41 -72 -96 -95 -123 -24 -27 -43 -52 -43
-57 0 -4 -33 -47 -72 -94 -40 -47 -95 -114 -123 -149 -67 -85 -680 -697 -779
-778 -44 -36 -110 -93 -148 -127 -38 -35 -74 -63 -79 -63 -5 0 -44 -30 -86
-68 -43 -37 -88 -74 -99 -82 -20 -13 -122 -90 -213 -159 -18 -14 -66 -47 -105
-73 -39 -26 -100 -69 -135 -95 -59 -44 -123 -87 -195 -131 -63 -38 -162 -102
-186 -119 -13 -10 -61 -39 -105 -65 -44 -25 -99 -58 -123 -73 -42 -27 -97 -57
-177 -97 -22 -11 -53 -30 -70 -42 -16 -11 -63 -38 -103 -58 -97 -51 -145 -51
-250 -2 -42 20 -84 40 -92 45 -8 5 -42 23 -75 39 -33 17 -98 55 -145 85 -47
30 -90 54 -96 55 -6 0 -29 13 -51 29 -22 16 -55 37 -74 46 -89 47 -573 371
-659 443 -19 16 -46 35 -60 42 -14 7 -39 25 -56 39 -17 14 -53 42 -79 61 -26
19 -66 51 -88 70 -23 20 -71 57 -107 84 -36 27 -87 70 -115 96 -27 26 -67 59
-88 72 -51 34 -497 467 -681 663 -143 152 -216 236 -314 364 -58 74 -91 117
-123 155 -14 17 -39 51 -55 75 -120 183 -191 288 -226 336 -15 22 -40 63 -54
90 -13 28 -42 79 -63 115 -57 94 -211 403 -211 421 0 9 -12 38 -26 65 -14 27
-36 78 -49 114 -12 36 -32 88 -43 115 -31 79 -63 175 -78 240 -8 33 -28 101
-44 150 -15 50 -31 115 -35 145 -4 30 -13 80 -20 110 -88 369 -98 1134 -19
1506 14 66 32 157 40 203 8 47 26 116 39 155 13 39 29 98 36 131 6 33 20 78
31 99 11 22 28 67 38 100 26 90 104 273 156 366 8 14 43 84 79 155 77 155 255
437 335 528 19 22 44 55 55 73 11 18 63 79 115 136 52 58 119 132 148 166 57
65 319 298 443 394 116 89 414 285 453 298 20 6 38 16 42 21 3 5 33 23 67 41
34 17 73 39 86 49 12 10 39 21 60 25 20 4 56 20 81 36 24 16 56 31 70 35 14 3
45 16 70 28 25 13 74 32 110 43 36 11 88 30 115 41 74 30 281 89 355 101 36 6
108 22 160 35 52 12 149 28 215 35 66 7 174 18 240 25 143 15 381 17 520 5z"/>
<path d="M5756 10669 c-38 -5 -95 -16 -127 -24 -32 -9 -97 -22 -144 -30 -48
-9 -105 -25 -128 -37 -23 -11 -69 -27 -102 -35 -33 -8 -76 -24 -95 -37 -19
-13 -52 -29 -72 -35 -20 -7 -48 -21 -62 -32 -13 -11 -43 -26 -65 -33 -40 -15
-120 -64 -176 -109 -16 -13 -41 -30 -55 -37 -36 -19 -141 -111 -250 -220 -156
-157 -239 -258 -300 -370 -17 -30 -46 -82 -65 -115 -20 -33 -42 -73 -49 -90
-69 -148 -90 -197 -101 -240 -8 -27 -23 -77 -34 -110 -11 -33 -34 -126 -51
-207 -52 -244 -54 -579 -4 -763 7 -27 20 -91 28 -142 9 -51 26 -116 39 -145
13 -29 29 -74 35 -99 6 -26 25 -75 42 -110 16 -35 30 -70 30 -77 0 -14 58
-117 92 -162 10 -14 29 -45 42 -70 71 -132 316 -411 446 -508 41 -30 89 -68
106 -84 17 -16 69 -51 115 -78 46 -26 100 -58 119 -70 19 -13 53 -29 75 -37
22 -7 56 -25 75 -38 19 -13 57 -29 84 -35 27 -6 72 -22 101 -35 29 -14 79 -30
111 -36 33 -6 96 -21 141 -34 129 -38 367 -52 606 -37 172 11 210 17 362 56
94 24 195 56 225 70 30 14 62 26 70 26 9 0 31 11 50 24 19 12 53 29 75 36 39
12 63 26 183 101 77 48 100 63 149 102 22 17 66 51 97 75 75 57 242 224 297
296 160 212 317 493 354 635 8 33 25 82 36 108 24 55 76 317 89 443 12 118 12
288 0 395 -18 153 -69 381 -119 526 -31 90 -154 351 -180 382 -14 17 -62 90
-99 151 -26 44 -153 189 -245 279 -139 137 -227 208 -346 282 -27 17 -59 37
-72 46 -64 42 -149 89 -162 89 -8 0 -40 14 -71 30 -31 17 -85 37 -119 46 -34
8 -87 26 -117 39 -30 13 -77 26 -105 30 -27 4 -86 16 -130 27 -139 34 -462 48
-629 27z m509 -633 c147 -33 271 -69 323 -96 32 -15 68 -31 82 -35 14 -4 39
-18 55 -30 17 -13 41 -26 55 -30 14 -4 36 -18 50 -30 14 -13 44 -34 67 -47 87
-49 309 -283 383 -404 19 -32 50 -80 68 -107 17 -27 39 -73 48 -102 8 -30 24
-65 34 -78 11 -14 26 -53 35 -88 8 -35 25 -100 38 -144 49 -161 44 -569 -7
-706 -13 -35 -27 -84 -31 -109 -4 -25 -17 -61 -30 -81 -13 -20 -27 -53 -30
-73 -4 -20 -18 -53 -31 -72 -14 -20 -35 -57 -48 -82 -14 -26 -49 -80 -80 -121
-31 -41 -56 -77 -56 -81 0 -9 -121 -131 -188 -189 -32 -28 -89 -70 -127 -95
-39 -25 -88 -59 -111 -75 -22 -17 -60 -38 -84 -46 -24 -8 -49 -20 -56 -26 -7
-6 -39 -19 -71 -29 -32 -10 -89 -30 -128 -43 -135 -49 -444 -66 -660 -39 -137
18 -320 74 -395 121 -8 6 -40 21 -70 35 -289 135 -527 376 -678 688 -40 81
-76 168 -82 194 -6 26 -24 91 -39 143 -23 77 -30 125 -35 241 -8 171 5 356 33
449 10 36 26 96 34 132 17 74 140 329 190 397 129 173 296 338 420 415 38 23
95 59 127 80 31 20 64 37 72 37 9 0 42 14 74 30 32 17 88 37 124 45 36 8 101
26 145 40 74 22 96 24 300 24 149 0 239 -4 280 -13z"/>
<path d="M1120 3690 c-52 -12 -182 -69 -205 -89 -11 -9 -58 -42 -105 -72 -159
-101 -284 -204 -420 -346 -58 -60 -118 -129 -135 -153 -67 -96 -86 -128 -115
-185 -17 -33 -39 -76 -50 -95 -11 -19 -20 -42 -20 -51 0 -8 -7 -39 -16 -68
-10 -36 -19 -51 -29 -47 -7 2 -16 -2 -19 -10 -8 -20 -8 -518 0 -538 3 -8 11
-13 18 -10 8 3 19 -17 30 -53 33 -107 132 -295 210 -398 58 -77 263 -282 341
-340 39 -29 81 -65 94 -79 14 -14 30 -26 36 -26 6 0 27 -12 46 -26 19 -14 54
-37 79 -50 25 -14 72 -43 105 -64 65 -43 275 -150 292 -150 7 0 24 -11 40 -24
15 -12 58 -33 95 -45 37 -13 70 -26 73 -31 3 -5 29 -16 58 -25 28 -10 70 -28
93 -40 22 -13 71 -31 107 -39 37 -9 86 -25 108 -37 23 -11 71 -29 107 -39 37
-10 94 -27 127 -39 167 -56 229 -75 325 -95 58 -13 116 -28 128 -35 13 -7 76
-23 140 -36 64 -12 155 -32 202 -44 138 -33 365 -79 507 -101 72 -11 144 -25
159 -30 14 -6 88 -17 163 -25 237 -25 235 -25 406 -54 33 -6 128 -15 210 -21
172 -12 296 -23 480 -44 225 -26 832 -39 1500 -33 614 6 814 16 1103 51 65 8
176 18 247 21 116 6 176 13 390 45 33 5 107 14 165 20 58 6 173 24 255 40 83
16 182 32 220 35 39 4 111 17 160 31 50 13 135 30 190 39 55 9 136 25 180 37
44 11 112 26 150 33 39 7 84 19 100 25 17 6 75 23 130 36 55 14 123 33 150 43
28 10 77 24 110 31 33 7 77 21 97 31 21 11 68 26 104 35 37 8 85 24 106 35 21
11 72 28 113 38 41 11 88 29 105 41 17 12 50 26 73 31 23 5 78 27 122 48 44
21 105 50 135 64 125 56 271 130 276 139 3 5 29 20 57 34 29 13 67 34 85 47
58 39 185 125 247 169 78 54 327 298 371 363 19 28 54 77 79 109 24 33 50 75
56 95 7 19 24 54 39 78 15 23 30 62 34 85 9 59 26 108 37 108 5 0 9 -5 9 -11
0 -5 4 -7 10 -4 14 8 14 565 0 565 -5 0 -10 -4 -10 -10 0 -5 -4 -10 -9 -10 -5
0 -17 30 -26 68 -19 69 -96 236 -143 308 -70 106 -106 148 -233 274 -208 207
-372 327 -589 431 -74 35 -165 53 -228 45 -23 -3 -76 -20 -117 -37 -61 -25
-89 -45 -150 -106 -63 -64 -79 -87 -106 -156 -46 -115 -46 -198 1 -317 29 -76
42 -94 114 -166 53 -52 101 -90 138 -107 31 -15 69 -37 85 -50 15 -12 42 -31
58 -42 57 -36 232 -216 271 -278 34 -55 38 -69 38 -127 0 -58 -4 -72 -37 -125
-58 -93 -187 -222 -309 -308 -97 -69 -345 -207 -371 -207 -4 0 -24 -11 -45
-25 -20 -13 -53 -30 -72 -36 -19 -7 -51 -23 -70 -35 -19 -13 -57 -28 -85 -34
-27 -6 -64 -19 -80 -29 -17 -10 -64 -28 -105 -40 -41 -13 -91 -31 -110 -41
-19 -9 -60 -23 -90 -30 -30 -6 -84 -22 -120 -35 -36 -12 -85 -26 -109 -30 -24
-4 -76 -18 -115 -32 -39 -13 -109 -32 -156 -42 -47 -11 -110 -26 -140 -35 -30
-9 -96 -23 -147 -31 -50 -8 -107 -22 -125 -30 -19 -7 -99 -23 -179 -34 -79
-11 -186 -30 -237 -41 -51 -11 -148 -27 -215 -34 -67 -8 -198 -26 -292 -40
-93 -14 -249 -30 -345 -36 -96 -6 -218 -17 -270 -25 -226 -33 -458 -40 -1255
-40 -767 0 -1071 9 -1232 36 -32 5 -173 18 -313 29 -140 11 -301 28 -357 39
-56 11 -157 25 -225 31 -68 6 -186 24 -263 40 -77 16 -180 34 -230 40 -49 5
-119 19 -155 30 -36 11 -110 27 -165 35 -55 8 -122 23 -150 34 -27 10 -81 24
-120 31 -38 7 -90 19 -115 27 -25 8 -79 24 -120 34 -74 19 -264 76 -350 106
-143 48 -178 62 -210 82 -19 11 -44 21 -55 21 -11 0 -49 14 -85 31 -36 17 -90
40 -119 50 -30 11 -65 26 -78 34 -12 8 -45 24 -73 35 -29 11 -88 44 -133 74
-45 29 -101 63 -124 75 -23 11 -45 25 -48 31 -3 6 -23 19 -43 29 -55 28 -241
217 -287 292 -36 58 -40 70 -39 129 1 57 5 73 38 126 50 82 212 240 316 308
166 109 184 122 252 186 65 61 71 71 99 155 47 141 47 161 8 282 -33 103 -36
108 -110 182 -64 64 -88 81 -155 108 -85 34 -183 48 -244 33z"/>
</g>
</svg>
