<svg width="158" height="157" viewBox="0 0 158 157" fill="none" xmlns="http://www.w3.org/2000/svg">
<path d="M81.592 116.2L80.0911 113.306L81.592 116.2ZM76.4021 116.2L74.9013 119.093L74.9013 119.093L76.4021 116.2ZM121.373 58.8041C121.373 73.9743 113.641 86.2919 104.423 95.5901C95.2072 104.885 84.7787 110.875 80.0911 113.306L83.0928 119.093C88.073 116.51 99.1646 110.153 109.052 100.18C118.937 90.2098 127.892 76.3368 127.892 58.8041H121.373ZM78.9971 16.4286C102.4 16.4286 121.373 35.4007 121.373 58.8041H127.892C127.892 31.8002 106.001 9.90929 78.9971 9.90929V16.4286ZM36.6216 58.8041C36.6216 35.4007 55.5937 16.4286 78.9971 16.4286V9.90929C51.9932 9.90929 30.1023 31.8002 30.1023 58.8041H36.6216ZM77.903 113.306C73.2154 110.875 62.7869 104.885 53.5715 95.5902C44.353 86.2919 36.6216 73.9743 36.6216 58.8041H30.1023C30.1023 76.3368 39.0571 90.2098 48.9418 100.18C58.8296 110.153 69.9212 116.51 74.9013 119.093L77.903 113.306ZM80.0911 113.306C79.3837 113.673 78.6104 113.673 77.903 113.306L74.9013 119.093C77.4908 120.437 80.5033 120.437 83.0928 119.093L80.0911 113.306ZM95.2953 58.8044C95.2953 67.8057 87.9983 75.1026 78.9971 75.1026V81.6219C91.5988 81.6219 101.815 71.4062 101.815 58.8044H95.2953ZM78.9971 42.5061C87.9983 42.5061 95.2953 49.8031 95.2953 58.8044H101.815C101.815 46.2026 91.5988 35.9868 78.9971 35.9868V42.5061ZM62.6988 58.8044C62.6988 49.8031 69.9958 42.5061 78.9971 42.5061V35.9868C66.3953 35.9868 56.1795 46.2026 56.1795 58.8044H62.6988ZM78.9971 75.1026C69.9958 75.1026 62.6988 67.8057 62.6988 58.8044H56.1795C56.1795 71.4062 66.3953 81.6219 78.9971 81.6219V75.1026Z" fill="black"/>
<path d="M129.81 114.218C134.96 117.192 137.671 120.564 137.671 123.997C137.671 127.43 134.96 130.803 129.81 133.776C124.66 136.749 117.253 139.218 108.334 140.935C99.4144 142.652 89.2965 143.555 78.9971 143.555C68.6977 143.555 58.5797 142.652 49.6602 140.935C40.7407 139.218 33.3338 136.749 28.1841 133.776C23.0344 130.803 20.3233 127.43 20.3233 123.997C20.3233 120.564 23.0344 117.192 28.1841 114.218" stroke="black" stroke-width="6.5193" stroke-linecap="round"/>
</svg>
