<?xml version="1.0" standalone="no"?>
<!DOCTYPE svg PUBLIC "-//W3C//DTD SVG 20010904//EN"
 "http://www.w3.org/TR/2001/REC-SVG-20010904/DTD/svg10.dtd">
<svg version="1.0" xmlns="http://www.w3.org/2000/svg"
 width="1025.000000pt" height="1480.000000pt" viewBox="0 0 1025.000000 1480.000000"
 preserveAspectRatio="xMidYMid meet">

<g transform="translate(0.000000,1480.000000) scale(0.100000,-0.100000)"
fill="#000000" stroke="none">
<path d="M1303 14776 c-44 -36 -68 -46 -118 -46 -39 0 -51 -5 -89 -40 -31 -29
-57 -43 -90 -49 -35 -6 -57 -19 -85 -47 -50 -52 -108 -97 -156 -122 -63 -32
-282 -264 -347 -367 -14 -22 -36 -49 -48 -60 -13 -11 -36 -47 -52 -80 -49
-101 -83 -154 -119 -184 -32 -27 -34 -31 -40 -120 -6 -89 -7 -92 -48 -136
l-41 -45 0 -99 c0 -167 -18 -300 -46 -343 l-24 -38 0 -5569 c0 -4959 2 -5573
15 -5612 33 -92 48 -179 54 -314 7 -144 13 -165 61 -225 13 -16 23 -50 28 -92
6 -46 16 -78 35 -105 14 -21 33 -56 42 -78 9 -22 30 -54 47 -72 19 -20 35 -50
42 -82 12 -55 63 -116 281 -335 214 -216 275 -268 319 -274 29 -3 53 -16 83
-43 26 -24 52 -39 68 -39 36 0 90 -24 106 -47 21 -30 53 -43 103 -43 54 0 89
-12 128 -45 l30 -25 3701 0 3702 0 44 35 c35 28 53 35 88 35 49 0 81 13 101
42 19 26 66 48 102 48 21 0 43 11 73 39 30 28 54 40 85 44 34 4 52 15 85 49
55 56 191 178 249 222 25 20 59 57 76 83 17 26 62 82 102 123 39 41 80 95 91
119 11 23 28 54 38 68 11 13 28 48 37 76 9 29 32 74 51 101 21 31 33 60 33 81
0 49 17 86 53 116 l31 26 8 174 c7 156 10 179 33 225 l25 51 -3 5659 -3 5659
-27 105 c-20 78 -27 130 -27 203 l0 97 -39 43 c-33 35 -41 52 -46 97 -9 76
-19 104 -53 147 -17 21 -37 63 -46 94 -9 31 -23 62 -32 69 -8 8 -22 27 -30 42
-8 16 -30 46 -49 67 -19 21 -43 57 -54 82 -10 24 -40 64 -66 89 -26 25 -64 70
-85 101 -22 31 -54 66 -72 77 -18 11 -67 47 -109 80 -42 33 -92 68 -110 77
-19 10 -50 35 -70 56 -31 33 -43 39 -79 39 -35 0 -48 6 -83 40 -43 42 -51 46
-131 53 -33 3 -62 15 -92 36 l-45 31 -3784 0 -3783 0 -29 -24z m5434 -1091
c24 -16 39 -71 28 -104 -3 -12 -36 -50 -72 -85 -54 -53 -73 -65 -109 -71 -30
-4 -55 -17 -79 -40 -24 -22 -48 -34 -73 -36 -20 -2 -623 -3 -1339 -1 l-1302 3
-29 28 c-15 16 -43 36 -61 46 -57 29 -104 67 -159 128 -40 43 -52 65 -52 89 0
69 -142 63 1626 60 1384 -2 1601 -4 1621 -17z m-4473 3 c34 -15 36 -23 40
-174 5 -144 14 -185 51 -224 27 -28 45 -77 45 -123 0 -18 11 -39 30 -59 39
-38 50 -60 50 -95 0 -29 33 -93 49 -93 4 0 20 -17 33 -38 35 -53 446 -462 475
-473 13 -5 38 -9 54 -9 22 0 41 -11 69 -40 31 -32 46 -40 75 -40 40 0 68 -12
101 -42 33 -30 127 -47 258 -48 101 0 124 -3 151 -20 23 -14 60 -22 136 -27
57 -5 651 -8 1319 -8 996 0 1227 3 1280 14 36 8 94 15 130 16 36 0 75 6 87 13
12 7 38 12 58 12 60 0 127 21 179 57 35 24 59 33 88 33 33 0 47 6 74 35 35 38
70 55 110 55 15 0 38 13 57 32 18 18 53 44 79 58 79 44 319 286 345 349 8 20
33 55 54 78 23 25 39 52 39 67 0 40 19 79 51 106 26 21 32 35 38 88 6 48 14
69 34 90 39 41 48 80 53 231 2 74 6 142 9 151 11 34 51 40 258 39 111 -1 246
-4 300 -8 92 -6 100 -8 118 -33 11 -15 41 -40 67 -57 111 -72 144 -105 247
-242 22 -29 57 -71 78 -93 20 -21 37 -44 37 -50 0 -6 0 -2612 0 -5790 l0
-5780 -34 -35 c-25 -25 -37 -49 -42 -80 -5 -32 -17 -55 -43 -81 -20 -20 -45
-47 -57 -61 -11 -13 -62 -62 -112 -109 -80 -74 -98 -86 -139 -92 -34 -5 -56
-16 -82 -42 l-37 -36 -3349 0 -3350 0 -35 21 c-46 29 -136 59 -172 59 -44 0
-58 11 -207 159 -126 125 -138 141 -145 181 -5 32 -17 55 -42 81 l-34 35 0
5789 0 5789 33 36 c18 19 42 49 52 65 54 87 165 201 252 258 39 26 80 60 91
75 19 25 27 27 109 33 171 11 511 10 537 -3z"/>
<path d="M5000 3575 c-19 -7 -48 -14 -64 -14 -30 -1 -173 -69 -241 -115 -42
-28 -155 -142 -155 -156 0 -5 -20 -32 -44 -60 -43 -50 -44 -54 -47 -129 -4
-74 -6 -80 -42 -120 -37 -41 -37 -41 -37 -129 1 -135 14 -205 49 -254 20 -29
32 -61 37 -97 6 -44 14 -61 45 -94 22 -22 39 -42 39 -46 0 -3 30 -35 66 -71
37 -36 82 -82 101 -102 28 -29 45 -38 84 -43 31 -4 61 -17 79 -32 86 -72 439
-75 514 -4 25 23 68 41 101 41 39 0 118 76 276 263 18 22 35 57 41 85 6 26 25
70 44 98 31 44 36 62 45 145 13 127 -2 224 -46 304 -18 33 -38 80 -45 105 -6
25 -24 61 -38 80 -15 19 -39 54 -54 77 -15 24 -31 43 -35 43 -5 0 -18 15 -30
33 -12 17 -59 54 -103 81 -66 40 -92 50 -145 55 -44 5 -72 13 -87 28 -13 11
-33 26 -45 32 -30 15 -219 13 -263 -4z"/>
</g>
</svg>
