<svg width="186" height="187" viewBox="0 0 186 187" fill="none" xmlns="http://www.w3.org/2000/svg">
<circle cx="93" cy="93.4995" r="62" stroke="black" stroke-width="7.75"/>
<path d="M141.108 53.0826C135.429 58.3218 128.297 62.5706 120.207 65.5337C112.117 68.4967 103.264 70.1028 94.2632 70.2403C85.2622 70.3779 76.3293 69.0437 68.0853 66.3303C59.8413 63.617 52.4841 59.5896 46.5251 54.5282" stroke="black" stroke-width="7.75"/>
<path d="M141.997 134.757C136.265 129.212 128.934 124.712 120.554 121.594C112.174 118.476 102.961 116.821 93.6067 116.752C84.2524 116.684 74.9985 118.203 66.5385 121.198C58.0785 124.192 50.6316 128.584 44.7558 134.043" stroke="black" stroke-width="7.75"/>
<path d="M93 31.4995V155.5" stroke="black" stroke-width="7.75"/>
<path d="M155 93.5H31" stroke="black" stroke-width="7.75"/>
</svg>
