<?xml version="1.0" standalone="no"?>
<!DOCTYPE svg PUBLIC "-//W3C//DTD SVG 20010904//EN"
 "http://www.w3.org/TR/2001/REC-SVG-20010904/DTD/svg10.dtd">
<svg version="1.0" xmlns="http://www.w3.org/2000/svg"
 width="184.000000pt" height="184.000000pt" viewBox="0 0 184.000000 184.000000"
 preserveAspectRatio="xMidYMid meet">

<g transform="translate(0.000000,184.000000) scale(0.100000,-0.100000)"
fill="#000000" stroke="none">
<path d="M759 1824 c-293 -53 -542 -245 -669 -517 -60 -127 -83 -237 -83 -387
0 -150 23 -260 83 -387 98 -211 278 -381 491 -466 122 -49 192 -61 344 -61
163 1 249 20 383 84 106 51 161 88 246 169 185 178 279 400 279 661 0 279
-107 515 -320 701 -196 172 -490 251 -754 203z m81 -324 l0 -180 -34 0 c-84 0
-281 65 -374 124 l-43 27 53 44 c69 58 194 120 288 145 121 31 110 47 110
-160z m317 145 c84 -26 179 -78 246 -134 l48 -40 -43 -27 c-93 -59 -290 -124
-374 -124 l-34 0 0 181 0 181 43 -7 c23 -4 74 -17 114 -30z m-716 -380 c90
-44 243 -87 352 -100 l47 -6 0 -80 0 -79 -340 0 c-187 0 -340 3 -340 8 0 4 9
44 20 88 21 88 57 177 90 225 l22 29 28 -20 c15 -11 70 -40 121 -65z m1179
-42 c23 -56 60 -189 60 -219 0 -2 -153 -4 -340 -4 l-340 0 0 79 0 80 48 6
c112 13 256 55 354 103 57 27 112 57 123 66 19 14 21 14 43 -12 12 -15 36 -59
52 -99z m-780 -462 l0 -80 -47 -6 c-164 -21 -323 -73 -432 -140 l-71 -44 -25
37 c-35 53 -73 151 -90 233 -8 39 -15 72 -15 75 0 2 153 4 340 4 l340 0 0 -79z
m840 72 c0 -5 -9 -44 -19 -88 -21 -86 -50 -157 -88 -217 l-23 -38 -57 37
c-109 69 -284 128 -445 148 l-48 6 0 80 0 79 340 0 c187 0 340 -3 340 -7z
m-840 -494 l0 -181 -42 7 c-128 21 -277 90 -362 167 -40 37 -41 38 -21 54 65
52 297 132 388 134 l37 0 0 -181z m322 157 c94 -24 224 -78 263 -110 20 -16
19 -17 -21 -54 -84 -75 -241 -148 -361 -167 l-43 -7 0 181 0 181 34 0 c18 0
76 -11 128 -24z"/>
</g>
</svg>
