<svg width="1063" height="654" viewBox="0 0 1063 654" fill="none" xmlns="http://www.w3.org/2000/svg">
<mask id="mask0_796_1000" style="mask-type:alpha" maskUnits="userSpaceOnUse" x="0" y="0" width="1063" height="654">
<path d="M742.7 234.87C753.007 263.674 750.971 303.224 750.726 307.982L750.715 308.201C750.313 316.169 749.053 324.04 747.323 331.853C774.616 303.316 806.173 270.485 826.975 250.135C834.426 242.846 840.448 233.25 850.284 229.166C855.5 227 845.869 239.103 842.749 243.586C831.365 259.942 818.903 275.616 806.862 291.553C790.263 313.521 773.082 335.105 756.83 357.3C713.315 416.727 725.822 412.156 733.742 381.036C737.918 364.627 743.669 348.366 747.323 331.853C731.997 347.878 718.015 362.549 708.036 372.896C681.378 400.539 623.171 462.253 589.229 491.304C585.919 494.137 582.093 499.098 578.251 502.8C575.754 507.95 573.713 512.455 572.22 516.172C566.156 531.274 555.718 551.793 566.553 564.256C576.452 575.642 598.479 567.722 613.608 563.779C644.368 555.763 672.892 541.413 701.95 528.97C732.42 515.922 762.17 501.43 792.114 487.344C792.151 487.327 792.187 487.309 792.224 487.292C808.738 479.524 823.81 468.546 841.427 463.362C846.393 461.901 836.326 472.07 832.541 475.43C817.562 488.729 801.518 500.941 785.503 513.131L784.601 513.818C783.814 514.417 719.292 566.721 760.828 520.115C769.495 510.39 780.311 499.061 792.114 487.344C762.17 501.43 732.42 515.922 701.95 528.97C672.892 541.413 644.368 555.763 613.608 563.779C598.479 567.722 576.452 575.642 566.553 564.256C555.718 551.793 566.156 531.274 572.22 516.172C573.713 512.455 575.754 507.95 578.251 502.8C574.164 506.737 570.059 509.251 566.536 506.266C559.352 500.18 572.061 488.667 576.604 480.608C589.242 458.192 603.623 436.664 617.915 415.137C639.434 382.722 661.708 350.725 684.098 318.789C690.81 307.811 696.179 299.119 699.497 293.807C707.482 281.019 723.133 256.54 740.697 229.784C763.926 194.397 790.501 155.027 807.109 133.457C809.037 130.954 805.701 139.593 804.03 142.253C784.356 173.557 763.729 204.327 742.7 234.87Z" fill="#1E1E1E"/>
<path d="M118.966 128.702C114.743 146.207 105.773 183.246 103.801 192.845C98.5556 218.363 92.9181 243.855 89.4372 269.631C85.5995 298.05 74.6277 364.263 103.329 354.477C121.447 348.3 132.757 330.836 145.325 317.097C179.899 279.299 204.904 234.279 240.245 197.111C245.787 191.282 255.834 178.592 261.266 184.471C269.869 193.781 263.844 209.175 262.77 221.487C260.43 248.303 255.138 274.83 251.059 301.468C241.285 365.29 235.049 402.721 224.11 464.567C221.495 479.354 217.914 494.007 215.974 508.884C215.73 510.755 216.625 515.955 217.623 514.316C223.555 504.574 227.059 493.7 231.551 483.305C271.423 391.029 311.136 299.045 356.379 208.888C369.006 183.725 381.223 158.315 395.784 134.085C417.957 97.1858 418.371 111.978 412.896 144.386C407.275 177.648 378.889 292.19 371.953 319.399C364.547 348.452 356.664 377.398 348.846 406.358C343.357 426.691 336.882 446.801 332.035 467.274C330.275 474.706 324.29 483.801 329.057 489.934C332.323 494.137 338.511 483.985 341.693 479.702C365.247 448.01 409.401 369.095 423.848 342.47C442.823 307.499 460.891 272.099 478.86 236.665C502.837 189.382 523.304 140.488 549.503 94.2494C551.536 90.6601 557.864 80.9114 557.939 84.9693C558.157 96.8199 553.217 108.296 549.972 119.763C522.299 217.567 482.641 311.916 453.486 409.232C447.315 429.829 438.477 450.664 439.352 472.019C439.599 478.062 450.98 483.775 456.406 480.494C476.285 468.476 490.598 449.613 505.242 432.182C528.234 404.815 547.804 375.066 569.012 346.461C584.778 325.195 652.826 216.113 698.995 205.576C757.276 192.274 751.018 302.183 750.715 308.201C749.463 333.009 739.895 356.862 733.742 381.036C725.822 412.156 713.315 416.727 756.83 357.3C773.082 335.105 790.263 313.521 806.862 291.553C818.903 275.616 831.365 259.942 842.749 243.586C845.869 239.103 855.5 227 850.284 229.166C840.448 233.25 834.426 242.846 826.975 250.135C794.492 281.912 735.785 344.123 708.036 372.896C681.378 400.539 623.171 462.253 589.229 491.304C582.398 497.151 573.372 512.057 566.536 506.266C559.352 500.18 572.061 488.667 576.604 480.608C589.242 458.192 603.623 436.664 617.915 415.137C678.735 323.522 745.586 235.247 804.03 142.253C805.701 139.593 809.037 130.954 807.109 133.457C777.943 171.337 718.042 264.107 699.497 293.807C679.98 325.061 589.459 473.239 572.22 516.172C566.156 531.274 555.718 551.793 566.553 564.256C576.452 575.642 598.479 567.722 613.608 563.779C644.368 555.763 672.892 541.413 701.95 528.97C732.457 515.906 762.243 501.395 792.224 487.292C808.738 479.524 823.81 468.546 841.427 463.362C846.393 461.901 836.326 472.07 832.541 475.43C817.281 488.979 800.915 501.4 784.601 513.818C783.814 514.417 719.292 566.721 760.828 520.115C788.167 489.438 836.888 442.806 870.492 418.385C881.146 410.642 892.335 399.279 905.765 399.874C913.286 400.207 912.54 413.168 912.047 420.225C910.956 435.843 905.106 450.866 901.139 466.079C896.619 483.413 890.675 500.42 886.591 517.847C883.959 529.077 879.753 540.513 881.019 551.935C881.346 554.89 888.22 551.613 890.064 549.192C898.756 537.781 904.889 524.806 911.323 512.15C938.474 458.741 952.565 420.995 978.556 365.934" stroke="#C87532" stroke-width="167.506" stroke-linecap="round"/>
</mask>
<g mask="url(#mask0_796_1000)">
<path d="M724.849 475.602C725.118 474.187 725.445 472.691 725.831 471.108C727.893 462.666 731.824 452.652 736.836 441.941C752.244 409.014 777.876 369.503 790.873 348.85C792.147 346.826 835.274 279.267 847.37 265.817C858.974 252.913 834.27 295.959 825.275 311.632L824.861 312.353C789.82 373.416 786.788 375.091 749.598 436.068C746.298 441.48 740.973 449.291 735.704 457.472C735.39 463.416 734.898 471.876 740.467 472.033C750.545 472.317 757.715 462.219 765.321 456.12C782.086 442.678 797.093 427.496 813.38 413.569L814.804 412.35C846.095 385.59 884.005 353.168 920.124 331.156C929.868 325.217 939.838 317.326 951.501 316.739C956.205 316.503 953.121 326.107 950.392 329.633C927.654 359.021 867.157 403.343 842.434 421.602C838.794 424.29 752.592 489.072 727.068 494.831C726.951 494.857 726.835 494.883 726.72 494.907C716.082 497.128 718.368 487.857 724.849 475.602Z" fill="#0F478D"/>
<rect x="-158.628" y="-58.8249" width="1211.32" height="808.117" transform="rotate(-1.80779 -158.628 -58.8249)" fill="#0F478D" stroke="#CC8A54" stroke-width="0.751149"/>
</g>
</svg>
