<svg width="1029" height="300" viewBox="0 0 1029 300" fill="none" xmlns="http://www.w3.org/2000/svg">
    <g clip-path="url(#clip0_7_16)">
        <mask id="mask0_7_16" style="mask-type:alpha" maskUnits="userSpaceOnUse" x="-199" y="-151" width="1427" height="447">
            <path d="M812.31 19.413C826.788 35.9228 823.876 58.5997 823.526 61.3274L823.51 61.4524C822.935 66.0215 821.153 70.5343 818.709 75.0152C857.165 58.6406 901.625 39.8025 930.932 28.1253C941.431 23.9425 949.919 18.4378 963.77 16.0917C971.114 14.8478 957.543 21.7911 953.147 24.363C937.102 33.7457 919.542 42.7382 902.57 51.881C879.179 64.484 854.968 76.8672 832.065 89.6C770.739 123.693 788.349 121.066 799.534 103.22C805.433 93.8098 813.545 84.4841 818.709 75.0152C797.115 84.21 777.415 92.6281 763.356 98.565C725.798 114.426 643.787 149.837 595.972 166.509C591.308 168.135 585.916 170.981 580.503 173.105C576.98 176.059 574.102 178.643 571.998 180.775C563.443 189.436 548.726 201.205 563.965 208.346C577.887 214.869 608.906 210.318 630.208 208.05C673.52 203.44 713.691 195.199 754.612 188.051C797.521 180.556 839.419 172.233 881.588 164.143C881.641 164.133 881.691 164.123 881.744 164.113C904.999 159.652 926.23 153.35 951.036 150.37C958.029 149.53 943.845 155.364 938.514 157.293C917.414 164.925 894.815 171.933 872.258 178.929L870.983 179.325C869.875 179.668 778.983 209.687 837.509 182.946C849.721 177.366 864.959 170.866 881.588 164.143C839.419 172.233 797.521 180.556 754.612 188.051C713.691 195.199 673.52 203.44 630.208 208.05C608.906 210.318 577.887 214.869 563.965 208.346C548.726 201.205 563.443 189.436 571.998 180.775C574.102 178.643 576.98 176.059 580.503 173.105C574.745 175.364 568.964 176.807 564.005 175.098C553.9 171.612 571.804 165.005 578.208 160.383C596.027 147.524 616.295 135.175 636.438 122.826C666.769 104.231 698.163 85.8753 729.718 67.5548C739.18 61.2572 746.749 56.2716 751.425 53.224C762.679 45.8887 784.74 31.8463 809.496 16.4977C842.238 -3.80193 879.693 -26.3865 903.099 -38.7615C905.815 -40.1975 901.108 -35.2427 898.754 -33.7171C871.021 -15.7595 841.948 1.8919 812.31 19.413Z" fill="#1E1E1E"/>
            <path d="M-65.6406 -41.1627C-71.6054 -31.1244 -84.2741 -9.88423 -87.0622 -4.38017C-94.4746 10.2528 -102.44 24.8713 -107.369 39.6515C-112.804 55.9464 -128.324 93.9145 -87.9089 88.2903C-62.3954 84.7398 -46.4536 74.7217 -28.7459 66.8387C19.9694 45.1515 55.2209 19.3281 105.014 -1.99867C112.823 -5.3432 126.981 -12.6234 134.621 -9.2555C146.722 -3.92179 138.223 4.90693 136.697 11.9666C133.373 27.342 125.893 42.5539 120.12 57.8282C106.288 94.4248 97.4671 115.888 81.9986 151.352C78.3 159.831 73.2426 168.234 70.4947 176.764C70.1491 177.837 71.4026 180.818 72.8097 179.878C81.1721 174.29 86.117 168.054 92.4519 162.092C148.686 109.167 204.698 56.4107 268.491 4.69913C286.295 -9.73386 303.522 -24.3082 324.047 -38.2074C355.305 -59.3734 355.87 -50.8924 348.126 -32.3091C340.176 -13.2361 300.086 52.4487 290.291 68.0516C279.832 84.7124 268.702 101.312 257.663 117.919C249.914 129.58 240.775 141.113 233.928 152.853C231.442 157.115 223.007 162.332 229.71 165.846C234.303 168.254 243.026 162.431 247.511 159.974C280.705 141.792 342.952 96.527 363.319 81.2547C390.073 61.1954 415.547 40.8911 440.884 20.5669C474.691 -6.55376 503.558 -34.5961 540.494 -61.119C543.361 -63.1779 552.28 -68.7702 552.38 -66.4436C552.674 -59.6493 545.706 -53.0674 541.126 -46.4912C502.057 9.59682 446.123 63.7091 404.968 119.518C396.257 131.33 383.792 143.28 385 155.523C385.342 158.987 401.356 162.258 409 160.374C436.996 153.474 457.167 142.652 477.802 132.652C510.201 116.95 537.785 99.885 567.674 83.4743C589.893 71.2745 685.81 8.70142 750.817 2.63805C832.878 -5.01594 823.945 58.0019 823.51 61.4524C821.72 75.6768 808.223 89.3569 799.534 103.22C788.349 121.066 770.739 123.693 832.065 89.6C854.968 76.8672 879.179 64.484 902.57 51.881C919.539 42.7382 937.102 33.7457 953.147 24.363C957.543 21.7912 971.114 14.8478 963.77 16.0917C949.919 18.4378 941.431 23.9425 930.932 28.1253C885.168 46.3596 802.454 82.0552 763.356 98.565C725.798 114.426 643.786 149.837 595.971 166.509C586.347 169.865 573.623 178.415 564.005 175.098C553.9 171.612 571.804 165.005 578.208 160.383C596.026 147.524 616.295 135.175 636.437 122.826C722.163 70.2709 816.374 19.628 898.754 -33.7171C901.108 -35.2427 905.815 -40.1975 903.099 -38.7615C861.997 -17.0298 777.566 36.1873 751.425 53.224C723.914 71.1527 596.314 156.151 571.998 180.775C563.443 189.436 548.726 201.205 563.965 208.346C577.887 214.869 608.906 210.318 630.208 208.05C673.52 203.44 713.691 195.199 754.612 188.051C797.574 180.547 839.521 172.213 881.744 164.113C904.999 159.652 926.23 153.35 951.036 150.37C958.029 149.53 943.845 155.364 938.514 157.293C917.017 165.068 893.963 172.197 870.983 179.325C869.875 179.668 778.983 209.687 837.509 182.946C876.029 165.345 944.671 138.586 992.005 124.569C1007.01 120.124 1022.78 113.605 1041.68 113.939C1052.27 114.127 1051.2 121.558 1050.5 125.604C1048.95 134.559 1040.7 143.175 1035.09 151.899C1028.71 161.839 1020.32 171.593 1014.55 181.587C1010.84 188.027 1004.9 194.585 1006.67 201.133C1007.13 202.827 1016.81 200.945 1019.41 199.556C1031.66 193.01 1040.31 185.568 1049.38 178.309C1087.66 147.674 1107.54 126.026 1144.19 94.4456" stroke="#C87532" stroke-width="167.506" stroke-linecap="round"/>
        </mask>
        <g mask="url(#mask0_7_16)">
            <path d="M764.148 157.742C764.519 156.932 764.967 156.073 765.498 155.166C768.326 150.326 773.718 144.585 780.595 138.444C801.735 119.566 836.901 96.914 854.734 85.0729C856.481 83.9124 915.651 45.1792 932.244 37.468C948.167 30.0695 914.27 54.7505 901.929 63.7356L901.364 64.148C853.288 99.157 849.127 100.117 798.105 135.077C793.575 138.18 786.269 142.658 779.042 147.348C778.612 150.756 777.937 155.606 785.578 155.696C799.405 155.859 809.24 150.07 819.676 146.573C842.675 138.866 863.267 130.162 885.611 122.177L887.566 121.479C930.495 106.137 982.507 87.5486 1032.06 74.9282C1045.43 71.5235 1059.11 66.9992 1075.11 66.6628C1081.56 66.5271 1077.33 72.0333 1073.59 74.0552C1042.39 90.9039 959.393 116.315 925.472 126.783C920.48 128.324 802.212 165.466 767.195 168.767C767.032 168.782 766.874 168.797 766.716 168.81C752.121 170.084 755.258 164.769 764.148 157.742Z" fill="#0F478D"/>
            <path d="M1212.75 -170.4L-447.566 -148.502L-412.614 314.26L1247.7 292.361L1212.75 -170.4Z" fill="#0F478D" stroke="#CC8A54" stroke-width="0.751149"/>
        </g>
    </g>
    <defs>
        <clipPath id="clip0_7_16">
            <rect width="1029" height="300" fill="white"/>
        </clipPath>
    </defs>
</svg>
