<?xml version="1.0" standalone="no"?>
<!DOCTYPE svg PUBLIC "-//W3C//DTD SVG 20010904//EN"
 "http://www.w3.org/TR/2001/REC-SVG-20010904/DTD/svg10.dtd">
<svg version="1.0" xmlns="http://www.w3.org/2000/svg"
 width="197.000000pt" height="183.000000pt" viewBox="0 0 197.000000 183.000000"
 preserveAspectRatio="xMidYMid meet">

<g transform="translate(0.000000,183.000000) scale(0.100000,-0.100000)"
fill="#000000" stroke="none">
<path d="M932 1808 c-67 -37 -900 -691 -911 -716 -16 -34 -14 -192 2 -192 6 0
214 158 461 350 303 236 460 352 482 356 20 4 43 0 62 -10 17 -9 226 -167 464
-353 238 -185 441 -338 450 -341 16 -4 18 5 18 85 0 76 -3 94 -21 117 -11 14
-85 76 -165 138 l-144 111 0 181 c0 100 -4 188 -10 196 -14 22 -143 27 -175 6
-23 -15 -24 -22 -27 -115 l-3 -100 -180 141 c-161 125 -226 168 -253 168 -5 0
-27 -10 -50 -22z"/>
<path d="M634 1279 c-333 -237 -377 -274 -396 -328 -19 -53 -19 -856 0 -889
25 -44 66 -52 277 -52 l195 0 0 239 0 239 28 53 c21 42 40 61 82 87 52 31 58
32 160 32 81 0 114 -5 145 -19 47 -22 99 -74 114 -114 7 -17 11 -125 11 -273
l0 -244 199 0 c119 0 211 4 230 11 61 21 61 25 61 486 0 386 -2 421 -19 458
-10 22 -31 52 -47 66 -33 30 -510 373 -598 431 -101 65 -88 70 -442 -183z"/>
</g>
</svg>
