<svg width="194" height="194" viewBox="0 0 194 194" fill="none" xmlns="http://www.w3.org/2000/svg">
<path d="M40.4167 103.14C40.4167 92.165 40.4167 86.6774 42.6353 81.8537C44.8539 77.0301 49.0204 73.4588 57.3534 66.3162L65.4367 59.3877C80.4985 46.4775 88.0294 40.0225 97.0001 40.0225C105.971 40.0225 113.502 46.4775 128.563 59.3877L136.647 66.3162C144.98 73.4588 149.146 77.0301 151.365 81.8537C153.583 86.6774 153.583 92.165 153.583 103.14V137.417C153.583 152.659 153.583 160.28 148.848 165.015C144.113 169.75 136.492 169.75 121.25 169.75H72.7501C57.508 169.75 49.887 169.75 45.1519 165.015C40.4167 160.28 40.4167 152.659 40.4167 137.417V103.14Z" stroke="black" stroke-width="6.59864"/>
<path d="M117.208 169.75V122.57C117.208 121.841 116.618 121.25 115.889 121.25H78.1115C77.3826 121.25 76.7917 121.841 76.7917 122.57V169.75" stroke="black" stroke-width="6.59864" stroke-linecap="round" stroke-linejoin="round"/>
</svg>
