<?xml version="1.0" standalone="no"?>
<!DOCTYPE svg PUBLIC "-//W3C//DTD SVG 20010904//EN"
 "http://www.w3.org/TR/2001/REC-SVG-20010904/DTD/svg10.dtd">
<svg version="1.0" xmlns="http://www.w3.org/2000/svg"
 width="234.000000pt" height="197.000000pt" viewBox="0 0 234.000000 197.000000"
 preserveAspectRatio="xMidYMid meet">

<g transform="translate(0.000000,197.000000) scale(0.100000,-0.100000)"
fill="#000000" stroke="none">
<path d="M1799 1934 c-23 -25 -24 -32 -27 -195 -2 -93 -6 -169 -8 -169 -2 0
-112 77 -244 171 -257 183 -300 205 -379 193 -52 -8 -55 -9 -659 -439 -253
-180 -455 -330 -461 -343 -18 -37 -13 -68 15 -101 38 -46 84 -43 157 9 30 22
58 40 61 40 3 0 6 -210 8 -468 3 -459 3 -468 25 -508 29 -54 84 -101 130 -111
21 -4 364 -8 763 -8 669 0 729 1 771 18 54 20 91 57 116 112 16 36 18 83 21
503 2 254 5 462 7 462 2 0 30 -18 61 -40 72 -50 113 -53 155 -11 20 20 29 39
29 62 0 43 -36 76 -228 209 l-151 105 -1 233 c0 288 -5 302 -99 302 -27 0 -44
-7 -62 -26z m-254 -439 l354 -250 0 -515 c1 -389 -2 -519 -11 -528 -8 -8 -58
-12 -160 -12 l-148 0 0 270 c0 248 -2 274 -21 325 -30 81 -85 145 -160 185
l-64 35 -160 0 c-189 0 -222 -10 -309 -97 -90 -91 -96 -117 -96 -444 l0 -275
-157 3 -158 3 -2 525 -2 525 357 253 c196 139 363 251 370 250 8 -2 173 -115
367 -253z m-264 -676 c49 -15 98 -66 110 -115 4 -22 9 -146 9 -276 l0 -238
-225 0 -225 0 0 252 c0 233 1 255 20 294 21 43 53 71 99 84 40 12 169 11 212
-1z"/>
</g>
</svg>
