<?xml version="1.0" standalone="no"?>
<!DOCTYPE svg PUBLIC "-//W3C//DTD SVG 20010904//EN"
 "http://www.w3.org/TR/2001/REC-SVG-20010904/DTD/svg10.dtd">
<svg version="1.0" xmlns="http://www.w3.org/2000/svg"
 width="240.000000pt" height="274.000000pt" viewBox="0 0 240.000000 274.000000"
 preserveAspectRatio="xMidYMid meet">

<g transform="translate(0.000000,274.000000) scale(0.100000,-0.100000)"
fill="#000000" stroke="none">
<path d="M1044 2706 c-110 -41 -210 -111 -469 -331 -477 -404 -517 -449 -556
-621 -20 -83 -20 -1316 -1 -1417 19 -99 52 -165 109 -218 59 -55 131 -84 245
-99 111 -14 1545 -14 1656 0 152 19 248 74 308 176 56 96 59 129 59 849 0 732
1 720 -67 847 -44 82 -111 149 -406 401 -363 310 -459 379 -581 417 -89 28
-216 27 -297 -4z m270 -126 c66 -25 156 -83 256 -164 161 -130 560 -478 595
-518 63 -72 85 -132 95 -260 13 -148 12 -1028 0 -1187 -21 -265 -86 -310 -457
-311 l-133 0 0 456 0 456 -29 29 -29 29 -412 0 -412 0 -29 -29 -29 -29 0 -458
0 -457 -182 6 c-109 3 -204 11 -235 20 -95 25 -140 77 -164 184 -16 68 -24
1123 -10 1281 12 139 32 197 96 271 45 50 496 440 635 547 93 72 186 128 239
144 51 16 148 11 205 -10z m226 -2020 l0 -420 -340 0 -340 0 0 420 0 420 340
0 340 0 0 -420z"/>
</g>
</svg>
