<svg width="194" height="195" viewBox="0 0 194 195" fill="none" xmlns="http://www.w3.org/2000/svg">
<path d="M44.4629 81.4746V141.954C44.4629 149.557 44.4629 153.359 46.8248 155.72C49.1867 158.082 52.988 158.082 60.5908 158.082H133.167C140.769 158.082 144.571 158.082 146.933 155.72C149.294 153.359 149.294 149.557 149.294 141.954V81.4746" stroke="black" stroke-width="8.06397"/>
<path d="M165.422 93.5708L101.529 48.4696C98.7409 46.5017 95.016 46.5017 92.2281 48.4696L28.3347 93.5708" stroke="black" stroke-width="8.06397" stroke-linecap="round"/>
<path d="M117.038 154.05V121.794C117.038 112.887 109.818 105.667 100.91 105.667H92.8464C83.9392 105.667 76.7185 112.887 76.7185 121.794V154.05" stroke="black" stroke-width="8.06397" stroke-linejoin="round"/>
<path d="M141.23 73.4109V45.187" stroke="black" stroke-width="8.06397" stroke-linecap="round"/>
</svg>
