<svg width="167" height="167" viewBox="0 0 167 167" fill="none" xmlns="http://www.w3.org/2000/svg">
<path d="M35.1177 97.8251C35.1177 90.8501 35.1177 87.3627 36.6498 84.3854C38.182 81.4082 41.0198 79.3812 46.6956 75.3271L75.4665 54.7764C79.3465 52.005 81.2864 50.6193 83.5015 50.6193C85.7165 50.6193 87.6565 52.005 91.5365 54.7764L120.307 75.3271C125.983 79.3812 128.821 81.4082 130.353 84.3854C131.885 87.3627 131.885 90.8501 131.885 97.8251V131.981C131.885 138.497 131.885 141.756 129.861 143.78C127.836 145.805 124.578 145.805 118.061 145.805H48.9416C42.425 145.805 39.1666 145.805 37.1421 143.78C35.1177 141.756 35.1177 138.497 35.1177 131.981V97.8251Z" fill="black"/>
<path d="M21.2937 86.2693C21.2937 88.1139 21.2937 89.0362 21.875 89.3205C22.4563 89.6048 23.1843 89.0386 24.6404 87.9061L75.0144 48.7263C79.0914 45.5553 81.1299 43.9698 83.5015 43.9698C85.873 43.9698 87.9115 45.5553 91.9885 48.7263L142.363 87.9061C143.819 89.0386 144.547 89.6048 145.128 89.3205C145.709 89.0362 145.709 88.1139 145.709 86.2693V83.4461C145.709 80.126 145.709 78.4659 145.006 77.0288C144.304 75.5918 142.993 74.5726 140.372 72.5342L91.9885 34.9023C87.9115 31.7313 85.873 30.1458 83.5015 30.1458C81.1299 30.1458 79.0914 31.7313 75.0144 34.9023L26.6306 72.5342C24.0098 74.5726 22.6994 75.5918 21.9965 77.0288C21.2937 78.4659 21.2937 80.126 21.2937 83.4461V86.2693Z" fill="black"/>
<path d="M86.9578 104.333H80.0459C72.4111 104.333 66.2219 110.523 66.2219 118.157V144.769C66.2219 145.341 66.6861 145.805 67.2587 145.805H99.745C100.318 145.805 100.782 145.341 100.782 144.769V118.157C100.782 110.523 94.5926 104.333 86.9578 104.333Z" fill="white"/>
<rect x="111.149" y="35.2134" width="13.8239" height="27.6479" rx="3.45599" fill="black"/>
</svg>
