<svg width="103" height="191" viewBox="0 0 103 191" fill="none" xmlns="http://www.w3.org/2000/svg">
    <rect x="4.5" y="97.5" width="98" height="93" rx="1.63659" stroke="black"/>
    <path d="M60.8638 151.598L60.8638 190.017" stroke="black" stroke-width="0.541111" stroke-linecap="round"/>
    <path d="M61.1343 151.598L100.094 151.598" stroke="black" stroke-width="0.541111" stroke-linecap="round"/>
    <path d="M61.1343 184.98L68.3058 184.98" stroke="black" stroke-width="0.512252" stroke-linecap="round"/>
    <path d="M6.13672 64.9824L13.3082 64.9824" stroke="black" stroke-width="0.512252" stroke-linecap="round"/>
    <path d="M68.3062 184.98L68.3062 178.833" stroke="black" stroke-width="0.512252" stroke-linecap="round"/>
    <path d="M13.3086 65.2598L13.3086 59.1127" stroke="black" stroke-width="0.512252" stroke-linecap="round"/>
    <path d="M68.3062 178.834H74.9654" stroke="black" stroke-width="0.512252" stroke-linecap="round"/>
    <path d="M13.3086 58.8359H19.9679" stroke="black" stroke-width="0.512252" stroke-linecap="round"/>
    <path d="M75.2222 178.834L75.2222 172.175" stroke="black" stroke-width="0.512252" stroke-linecap="round"/>
    <path d="M20.2231 58.8359L20.2231 52.1767" stroke="black" stroke-width="0.512252" stroke-linecap="round"/>
    <path d="M75.478 172.174H82.1373" stroke="black" stroke-width="0.512252" stroke-linecap="round"/>
    <path d="M20.48 52.1758H27.1393" stroke="black" stroke-width="0.512252" stroke-linecap="round"/>
    <path d="M82.3926 172.174L82.3926 165.515" stroke="black" stroke-width="0.512252" stroke-linecap="round"/>
    <path d="M27.3955 52.1758L27.3955 45.5165" stroke="black" stroke-width="0.512252" stroke-linecap="round"/>
    <path d="M82.6484 165.516L89.82 165.516" stroke="black" stroke-width="0.512252" stroke-linecap="round"/>
    <path d="M27.6514 45.5176L34.8229 45.5176" stroke="black" stroke-width="0.512252" stroke-linecap="round"/>
    <path d="M89.8208 165.516L89.8208 159.881" stroke="black" stroke-width="0.512252" stroke-linecap="round"/>
    <path d="M34.8223 45.5176L34.8223 39.8828" stroke="black" stroke-width="0.512252" stroke-linecap="round"/>
    <path d="M90 160H101" stroke="black" stroke-width="0.512252" stroke-linecap="round"/>
    <path d="M34.8223 39.8828L44.555 39.8828" stroke="black" stroke-width="0.512252" stroke-linecap="round"/>
    <rect x="4.5" y="0.5" width="97.9954" height="96.8705" rx="1.63659" stroke="black"/>
    <path d="M62.4004 40.3145C62.2451 40.3145 62.1192 40.4404 62.1192 40.5957C62.1192 40.751 62.2451 40.8769 62.4004 40.8769L62.4004 40.3145ZM62.4004 40.8769L102.283 40.8769L102.283 40.3145L62.4004 40.3145L62.4004 40.8769Z" fill="black"/>
    <path d="M61.6875 40.595C61.6875 40.7503 61.8134 40.8762 61.9687 40.8762C62.1241 40.8762 62.25 40.7503 62.25 40.595L61.6875 40.595ZM61.6875 0.711914L61.6875 40.595L62.25 40.595L62.25 0.711914L61.6875 0.711914Z" fill="black"/>
    <path d="M4 29.6309L46.0196 29.6309" stroke="black" stroke-width="0.562474" stroke-linecap="round"/>
    <path d="M46.0195 70.5078L46.0195 29.9126" stroke="black" stroke-width="0.562474" stroke-linecap="round"/>
    <line x1="4.99315" y1="70.9375" x2="45.7381" y2="70.9375" stroke="black" stroke-width="0.562474" stroke-linecap="round"/>
    <path d="M40.2583 114.714L40.2136 113.73L42.5578 111.297H43.4903L41.5422 113.366L41.0823 113.871L40.2583 114.714ZM39.5174 115.768V111.297H40.3478V115.768H39.5174ZM42.6344 115.768L40.9226 113.73L41.4719 113.123L43.6053 115.768H42.6344ZM44.1706 115.768V111.297H45.001V115.768H44.1706ZM47.1173 115.768V111.999H45.6354V111.297H49.4295V111.999H47.9476V115.768H47.1173ZM52.0597 115.831C51.7191 115.831 51.4018 115.776 51.108 115.665C50.8185 115.55 50.5651 115.391 50.3479 115.186C50.135 114.978 49.9689 114.733 49.8497 114.452C49.7305 114.171 49.6709 113.864 49.6709 113.532C49.6709 113.2 49.7305 112.893 49.8497 112.612C49.9689 112.331 50.1371 112.089 50.3543 111.884C50.5715 111.675 50.8248 111.516 51.1144 111.405C51.4039 111.29 51.7212 111.233 52.0661 111.233C52.4323 111.233 52.7666 111.297 53.0689 111.424C53.3712 111.548 53.6267 111.733 53.8354 111.98L53.2988 112.485C53.137 112.31 52.956 112.18 52.7559 112.095C52.5558 112.005 52.3386 111.961 52.1044 111.961C51.8702 111.961 51.6552 111.999 51.4593 112.076C51.2677 112.152 51.0995 112.261 50.9547 112.402C50.8142 112.542 50.7035 112.708 50.6226 112.9C50.5459 113.091 50.5076 113.302 50.5076 113.532C50.5076 113.762 50.5459 113.973 50.6226 114.164C50.7035 114.356 50.8142 114.522 50.9547 114.663C51.0995 114.803 51.2677 114.912 51.4593 114.988C51.6552 115.065 51.8702 115.103 52.1044 115.103C52.3386 115.103 52.5558 115.061 52.7559 114.976C52.956 114.886 53.137 114.752 53.2988 114.573L53.8354 115.084C53.6267 115.327 53.3712 115.512 53.0689 115.64C52.7666 115.768 52.4302 115.831 52.0597 115.831ZM57.7735 111.297H58.6038V115.768H57.7735V111.297ZM55.4613 115.768H54.631V111.297H55.4613V115.768ZM57.8374 113.851H55.391V113.142H57.8374V113.851ZM60.5683 113.155H62.7911V113.839H60.5683V113.155ZM60.6322 115.071H63.1552V115.768H59.8019V111.297H63.0657V111.993H60.6322V115.071ZM64.0808 115.768V111.297H64.7643L67.5682 114.739H67.2297V111.297H68.0537V115.768H67.3702L64.5662 112.325H64.9048V115.768H64.0808Z" fill="black"/>
    <rect x="0.625744" y="149.2" width="8.58314" height="27.522" rx="0.774348" stroke="black" stroke-width="0.615747"/>
    <path d="M42.9145 140.618V137.834L43.1586 138.087H42.2806V137.62H43.4712V140.618H42.9145ZM46.3931 140.661C46.159 140.661 45.9348 140.628 45.7207 140.562C45.5066 140.494 45.3367 140.407 45.211 140.301L45.4038 139.869C45.5237 139.963 45.6722 140.041 45.8492 140.104C46.0262 140.167 46.2075 140.198 46.3931 140.198C46.5501 140.198 46.6772 140.181 46.7743 140.147C46.8713 140.113 46.9427 140.067 46.9884 140.01C47.0341 139.95 47.0569 139.883 47.0569 139.809C47.0569 139.717 47.0241 139.645 46.9584 139.59C46.8928 139.533 46.8071 139.489 46.7015 139.458C46.5987 139.423 46.483 139.392 46.3546 139.363C46.2289 139.335 46.1019 139.302 45.9734 139.265C45.8478 139.225 45.7321 139.175 45.6265 139.115C45.5237 139.052 45.4395 138.969 45.3738 138.866C45.3081 138.764 45.2753 138.632 45.2753 138.472C45.2753 138.31 45.3181 138.161 45.4038 138.027C45.4923 137.89 45.625 137.781 45.8021 137.702C45.9819 137.619 46.2089 137.577 46.483 137.577C46.6629 137.577 46.8414 137.6 47.0184 137.646C47.1954 137.692 47.3496 137.757 47.4809 137.843L47.3053 138.275C47.1711 138.196 47.0327 138.137 46.8899 138.1C46.7471 138.06 46.6101 138.04 46.4788 138.04C46.3246 138.04 46.1989 138.058 46.1019 138.096C46.0076 138.133 45.9377 138.181 45.892 138.241C45.8492 138.301 45.8278 138.37 45.8278 138.447C45.8278 138.538 45.8592 138.612 45.922 138.669C45.9877 138.724 46.0719 138.767 46.1747 138.798C46.2803 138.829 46.3974 138.861 46.5259 138.892C46.6544 138.921 46.7814 138.954 46.907 138.991C47.0355 139.028 47.1512 139.076 47.2539 139.136C47.3596 139.196 47.4438 139.278 47.5066 139.38C47.5723 139.483 47.6051 139.613 47.6051 139.77C47.6051 139.93 47.5609 140.079 47.4724 140.216C47.3867 140.35 47.2539 140.458 47.0741 140.541C46.8942 140.621 46.6672 140.661 46.3931 140.661ZM48.7236 140.618V138.091H47.7299V137.62H50.274V138.091H49.2803V140.618H48.7236ZM51.8754 140.618V137.62H52.4322V140.147H53.9997V140.618H51.8754ZM55.7897 140.661C55.5555 140.661 55.34 140.622 55.143 140.545C54.946 140.468 54.7746 140.361 54.629 140.224C54.4834 140.084 54.3706 139.921 54.2907 139.736C54.2107 139.547 54.1708 139.342 54.1708 139.119C54.1708 138.896 54.2107 138.692 54.2907 138.507C54.3706 138.318 54.4834 138.156 54.629 138.018C54.7746 137.879 54.946 137.77 55.143 137.693C55.34 137.616 55.5541 137.577 55.7854 137.577C56.0195 137.577 56.2337 137.616 56.4278 137.693C56.6248 137.77 56.7961 137.879 56.9418 138.018C57.0874 138.156 57.2002 138.318 57.2801 138.507C57.36 138.692 57.4 138.896 57.4 139.119C57.4 139.342 57.36 139.547 57.2801 139.736C57.2002 139.924 57.0874 140.087 56.9418 140.224C56.7961 140.361 56.6248 140.468 56.4278 140.545C56.2337 140.622 56.0209 140.661 55.7897 140.661ZM55.7854 140.173C55.9367 140.173 56.0766 140.147 56.2051 140.096C56.3336 140.044 56.4449 139.971 56.5392 139.877C56.6334 139.78 56.7062 139.669 56.7576 139.543C56.8118 139.415 56.839 139.273 56.839 139.119C56.839 138.965 56.8118 138.825 56.7576 138.699C56.7062 138.571 56.6334 138.46 56.5392 138.365C56.4449 138.268 56.3336 138.194 56.2051 138.143C56.0766 138.091 55.9367 138.066 55.7854 138.066C55.6341 138.066 55.4942 138.091 55.3657 138.143C55.24 138.194 55.1287 138.268 55.0316 138.365C54.9374 138.46 54.8632 138.571 54.8089 138.699C54.7575 138.825 54.7318 138.965 54.7318 139.119C54.7318 139.27 54.7575 139.41 54.8089 139.539C54.8632 139.667 54.9374 139.78 55.0316 139.877C55.1258 139.971 55.2372 140.044 55.3657 140.096C55.4942 140.147 55.6341 140.173 55.7854 140.173ZM58.4998 138.999H59.9945V139.47H58.4998V138.999ZM58.5469 140.618H57.9902V137.62H60.1787V138.087H58.5469V140.618ZM61.3462 140.618V138.091H60.3526V137.62H62.8966V138.091H61.903V140.618H61.3462Z" fill="black"/>
    <path d="M60.0743 54.5664V54.1938L61.265 53.0631C61.3649 52.9689 61.4391 52.8861 61.4877 52.8147C61.5362 52.7433 61.5676 52.6777 61.5819 52.6177C61.599 52.5549 61.6076 52.4964 61.6076 52.4421C61.6076 52.3051 61.5605 52.1994 61.4663 52.1252C61.372 52.0481 61.2336 52.0096 61.0508 52.0096C60.9052 52.0096 60.7724 52.0353 60.6525 52.0866C60.5355 52.138 60.4341 52.2166 60.3484 52.3222L59.9587 52.0224C60.0758 51.8654 60.2328 51.744 60.4298 51.6584C60.6297 51.5698 60.8524 51.5256 61.0979 51.5256C61.3149 51.5256 61.5034 51.5613 61.6633 51.6327C61.826 51.7012 61.9502 51.7997 62.0359 51.9282C62.1244 52.0567 62.1686 52.2094 62.1686 52.3864C62.1686 52.4835 62.1558 52.5806 62.1301 52.6777C62.1044 52.7719 62.0559 52.8718 61.9845 52.9775C61.9131 53.0831 61.8089 53.2016 61.6718 53.3329L60.6482 54.3052L60.5326 54.0953H62.2843V54.5664H60.0743ZM64.9328 54.6092C64.6987 54.6092 64.4745 54.5764 64.2604 54.5107C64.0462 54.4422 63.8763 54.3551 63.7507 54.2495L63.9434 53.8169C64.0634 53.9111 64.2118 53.9897 64.3889 54.0525C64.5659 54.1153 64.7472 54.1467 64.9328 54.1467C65.0898 54.1467 65.2169 54.1296 65.314 54.0953C65.411 54.061 65.4824 54.0153 65.5281 53.9582C65.5738 53.8983 65.5966 53.8312 65.5966 53.757C65.5966 53.6656 65.5638 53.5928 65.4981 53.5385C65.4324 53.4814 65.3468 53.4372 65.2411 53.4058C65.1384 53.3715 65.0227 53.3401 64.8942 53.3115C64.7686 53.283 64.6415 53.2501 64.5131 53.213C64.3874 53.1731 64.2718 53.1231 64.1662 53.0631C64.0634 53.0003 63.9791 52.9175 63.9135 52.8147C63.8478 52.7119 63.815 52.5806 63.815 52.4207C63.815 52.258 63.8578 52.1095 63.9434 51.9753C64.032 51.8382 64.1647 51.7297 64.3417 51.6498C64.5216 51.567 64.7486 51.5256 65.0227 51.5256C65.2026 51.5256 65.381 51.5484 65.5581 51.5941C65.7351 51.6398 65.8893 51.7055 66.0206 51.7911L65.845 52.2237C65.7108 52.1437 65.5723 52.0852 65.4296 52.0481C65.2868 52.0081 65.1498 51.9881 65.0184 51.9881C64.8643 51.9881 64.7386 52.0067 64.6415 52.0438C64.5473 52.0809 64.4774 52.1295 64.4317 52.1894C64.3889 52.2494 64.3674 52.3179 64.3674 52.395C64.3674 52.4864 64.3989 52.5606 64.4617 52.6177C64.5273 52.672 64.6116 52.7148 64.7144 52.7462C64.82 52.7776 64.9371 52.809 65.0655 52.8404C65.194 52.869 65.3211 52.9018 65.4467 52.9389C65.5752 52.976 65.6908 53.0246 65.7936 53.0845C65.8993 53.1445 65.9835 53.2259 66.0463 53.3287C66.112 53.4315 66.1448 53.5614 66.1448 53.7184C66.1448 53.8783 66.1006 54.0268 66.0121 54.1638C65.9264 54.298 65.7936 54.4065 65.6137 54.4893C65.4339 54.5693 65.2069 54.6092 64.9328 54.6092ZM67.2632 54.5664V52.0395H66.2696V51.5684H68.8136V52.0395H67.82V54.5664H67.2632ZM70.4151 54.5664V51.5684H70.9719V54.0953H72.5394V54.5664H70.4151ZM74.3294 54.6092C74.0952 54.6092 73.8797 54.5707 73.6826 54.4936C73.4856 54.4165 73.3143 54.3094 73.1687 54.1724C73.0231 54.0325 72.9103 53.8697 72.8304 53.6841C72.7504 53.4957 72.7104 53.2901 72.7104 53.0674C72.7104 52.8447 72.7504 52.6406 72.8304 52.455C72.9103 52.2665 73.0231 52.1038 73.1687 51.9667C73.3143 51.8268 73.4856 51.7183 73.6826 51.6412C73.8797 51.5641 74.0938 51.5256 74.3251 51.5256C74.5592 51.5256 74.7733 51.5641 74.9675 51.6412C75.1645 51.7183 75.3358 51.8268 75.4814 51.9667C75.627 52.1038 75.7398 52.2665 75.8198 52.455C75.8997 52.6406 75.9397 52.8447 75.9397 53.0674C75.9397 53.2901 75.8997 53.4957 75.8198 53.6841C75.7398 53.8726 75.627 54.0353 75.4814 54.1724C75.3358 54.3094 75.1645 54.4165 74.9675 54.4936C74.7733 54.5707 74.5606 54.6092 74.3294 54.6092ZM74.3251 54.121C74.4764 54.121 74.6163 54.0953 74.7448 54.0439C74.8733 53.9925 74.9846 53.9197 75.0788 53.8255C75.1731 53.7284 75.2459 53.617 75.2973 53.4914C75.3515 53.3629 75.3786 53.2216 75.3786 53.0674C75.3786 52.9132 75.3515 52.7733 75.2973 52.6477C75.2459 52.5192 75.1731 52.4079 75.0788 52.3136C74.9846 52.2166 74.8733 52.1423 74.7448 52.0909C74.6163 52.0395 74.4764 52.0138 74.3251 52.0138C74.1737 52.0138 74.0338 52.0395 73.9054 52.0909C73.7797 52.1423 73.6684 52.2166 73.5713 52.3136C73.4771 52.4079 73.4028 52.5192 73.3486 52.6477C73.2972 52.7733 73.2715 52.9132 73.2715 53.0674C73.2715 53.2187 73.2972 53.3586 73.3486 53.4871C73.4028 53.6156 73.4771 53.7284 73.5713 53.8255C73.6655 53.9197 73.7769 53.9925 73.9054 54.0439C74.0338 54.0953 74.1737 54.121 74.3251 54.121ZM77.0395 52.9475H78.5342V53.4186H77.0395V52.9475ZM77.0866 54.5664H76.5299V51.5684H78.7184V52.0353H77.0866V54.5664ZM79.8859 54.5664V52.0395H78.8923V51.5684H81.4363V52.0395H80.4427V54.5664H79.8859Z" fill="black"/>
</svg>
