<svg width="307" height="191" viewBox="0 0 307 191" fill="none" xmlns="http://www.w3.org/2000/svg">
    <path d="M2 1L306 0.999973" stroke="black" stroke-width="1.53054" stroke-linecap="round"/>
    <path d="M1.64502 1.06055L1.64503 190.082" stroke="black" stroke-width="1.53054" stroke-linecap="round"/>
    <path d="M306.222 1.06055L306.222 189.317" stroke="black" stroke-width="1.53054" stroke-linecap="round"/>
    <path d="M174.596 189.316H306.222" stroke="black" stroke-width="1.53054" stroke-linecap="round"/>
    <path d="M140.924 190.082L1.64485 190.082" stroke="black" stroke-width="1.53054" stroke-linecap="round"/>
    <path d="M85.0592 141.105C85.0592 140.682 84.7166 140.34 84.2939 140.34C83.8713 140.34 83.5287 140.682 83.5287 141.105L85.0592 141.105ZM85.0592 190.082L85.0592 141.105L83.5287 141.105L83.5287 190.082L85.0592 190.082Z" fill="black"/>
    <path d="M84.2939 140.339C83.8713 140.339 83.5287 140.682 83.5287 141.104C83.5287 141.527 83.8713 141.87 84.2939 141.87L84.2939 140.339ZM84.2939 141.87L125.618 141.87L125.618 140.339L84.2939 140.339L84.2939 141.87Z" fill="black"/>
    <path d="M125.619 154.114L125.619 116.616" stroke="black" stroke-width="1.53054" stroke-linecap="round"/>
    <path d="M188.371 137.279C188.371 136.856 188.028 136.513 187.605 136.513C187.183 136.513 186.84 136.856 186.84 137.279L188.371 137.279ZM188.371 188.552L188.371 137.279L186.84 137.279L186.84 188.552L188.371 188.552Z" fill="black"/>
    <path d="M235.052 146.079C235.263 146.079 235.435 145.908 235.435 145.696C235.435 145.485 235.263 145.314 235.052 145.314V146.079ZM187.605 146.079H235.052V145.314H187.605V146.079Z" fill="black"/>
    <path d="M235.052 145.696L235.052 188.551" stroke="black" stroke-width="0.765269" stroke-linecap="round"/>
    <path d="M235.052 71.4652C234.63 71.4652 234.287 71.8078 234.287 72.2305C234.287 72.6531 234.63 72.9957 235.052 72.9957V71.4652ZM235.052 72.9957H305.457V71.4652H235.052V72.9957Z" fill="black"/>
    <path d="M196.789 72.2301C197.211 72.2301 197.554 71.8875 197.554 71.4648C197.554 71.0422 197.211 70.6996 196.789 70.6996L196.789 72.2301ZM186.84 70.6996L186.075 70.6996L186.075 72.2301L186.84 72.2301L186.84 70.6996ZM196.789 70.6996L186.84 70.6996L186.84 72.2301L196.789 72.2301L196.789 70.6996Z" fill="black"/>
    <path d="M186.075 105.137C186.075 105.559 186.418 105.902 186.84 105.902C187.263 105.902 187.606 105.559 187.606 105.137L186.075 105.137ZM187.606 105.137L187.606 1.82539L186.075 1.82539L186.075 105.137L187.606 105.137Z" fill="black"/>
    <path d="M124.088 81.4141C124.088 81.8367 124.431 82.1793 124.854 82.1793C125.276 82.1793 125.619 81.8367 125.619 81.4141L124.088 81.4141ZM125.619 81.4141L125.619 0.29554L124.088 0.29554L124.088 81.4141L125.619 81.4141Z" fill="black"/>
    <path d="M147.046 62.2819C147.469 62.2819 147.811 61.9392 147.811 61.5166C147.811 61.094 147.469 60.7513 147.046 60.7513L147.046 62.2819ZM125.618 60.7513L124.853 60.7513L124.853 62.2819L125.618 62.2819L125.618 60.7513ZM147.046 60.7513L125.618 60.7513L125.618 62.2819L147.046 62.2819L147.046 60.7513Z" fill="black"/>
    <path d="M171.535 61.517C171.112 61.517 170.769 61.8596 170.769 62.2822C170.769 62.7049 171.112 63.0475 171.535 63.0475V61.517ZM171.535 63.0475H186.075V61.517H171.535V63.0475Z" fill="black"/>
    <path d="M124.853 180.134C124.853 179.711 124.511 179.369 124.088 179.369C123.665 179.369 123.323 179.711 123.323 180.134L124.853 180.134ZM123.323 180.134L123.323 190.082L124.853 190.082L124.853 180.134L123.323 180.134Z" fill="black"/>
    <path d="M149.081 35.6299L146.745 28.5814H148.105L150.189 34.9552H149.514L151.679 28.5814H152.888L154.992 34.9552H154.338L156.472 28.5814H157.721L155.385 35.6299H153.995L152.072 29.8803H152.435L150.481 35.6299H149.081ZM161.981 35.7306C161.444 35.7306 160.944 35.6433 160.481 35.4688C160.024 35.2875 159.625 35.0358 159.282 34.7136C158.947 34.3846 158.685 33.9987 158.497 33.5556C158.309 33.1126 158.215 32.6292 158.215 32.1056C158.215 31.582 158.309 31.0987 158.497 30.6556C158.685 30.2126 158.95 29.8299 159.292 29.5077C159.635 29.1788 160.034 28.9271 160.491 28.7525C160.947 28.5713 161.447 28.4807 161.991 28.4807C162.568 28.4807 163.095 28.5814 163.572 28.7827C164.049 28.9774 164.451 29.2694 164.78 29.6588L163.934 30.4542C163.679 30.179 163.394 29.9743 163.079 29.84C162.763 29.699 162.421 29.6286 162.051 29.6286C161.682 29.6286 161.343 29.689 161.034 29.8098C160.732 29.9306 160.467 30.1018 160.239 30.3233C160.017 30.5449 159.843 30.8067 159.715 31.1088C159.595 31.4108 159.534 31.7431 159.534 32.1056C159.534 32.4681 159.595 32.8004 159.715 33.1025C159.843 33.4046 160.017 33.6664 160.239 33.8879C160.467 34.1094 160.732 34.2806 161.034 34.4014C161.343 34.5223 161.682 34.5827 162.051 34.5827C162.421 34.5827 162.763 34.5155 163.079 34.3813C163.394 34.2403 163.679 34.0289 163.934 33.7469L164.78 34.5525C164.451 34.9351 164.049 35.2271 163.572 35.4285C163.095 35.6299 162.565 35.7306 161.981 35.7306Z" fill="black"/>
    <path d="M98.6096 170.491L96.4604 164.007H97.711L99.6286 169.871H99.0079L101 164.007H102.111L104.047 169.871H103.445L105.409 164.007H106.558L104.409 170.491H103.13L101.361 165.202H101.694L99.8973 170.491H98.6096ZM110.477 170.584C109.983 170.584 109.523 170.504 109.097 170.343C108.677 170.176 108.309 169.945 107.994 169.648C107.686 169.346 107.445 168.99 107.272 168.583C107.099 168.175 107.013 167.731 107.013 167.249C107.013 166.767 107.099 166.323 107.272 165.915C107.445 165.507 107.689 165.155 108.004 164.859C108.319 164.556 108.686 164.325 109.106 164.164C109.526 163.997 109.986 163.914 110.486 163.914C111.018 163.914 111.502 164.007 111.941 164.192C112.379 164.371 112.75 164.64 113.052 164.998L112.274 165.73C112.04 165.476 111.777 165.288 111.487 165.165C111.197 165.035 110.882 164.97 110.542 164.97C110.202 164.97 109.89 165.026 109.606 165.137C109.328 165.248 109.085 165.405 108.875 165.609C108.671 165.813 108.51 166.054 108.393 166.332C108.282 166.61 108.226 166.915 108.226 167.249C108.226 167.582 108.282 167.888 108.393 168.166C108.51 168.444 108.671 168.685 108.875 168.889C109.085 169.092 109.328 169.25 109.606 169.361C109.89 169.472 110.202 169.528 110.542 169.528C110.882 169.528 111.197 169.466 111.487 169.343C111.777 169.213 112.04 169.018 112.274 168.759L113.052 169.5C112.75 169.852 112.379 170.121 111.941 170.306C111.502 170.491 111.014 170.584 110.477 170.584Z" fill="black"/>
    <path d="M196.65 170.106C196.276 170.106 195.919 170.054 195.577 169.949C195.235 169.84 194.964 169.701 194.764 169.532L195.071 168.842C195.263 168.992 195.5 169.118 195.782 169.218C196.065 169.318 196.354 169.368 196.65 169.368C196.901 169.368 197.103 169.341 197.258 169.286C197.413 169.232 197.527 169.159 197.6 169.068C197.673 168.972 197.709 168.865 197.709 168.746C197.709 168.601 197.657 168.485 197.552 168.398C197.447 168.307 197.311 168.236 197.142 168.186C196.978 168.131 196.793 168.081 196.588 168.036C196.388 167.99 196.185 167.938 195.98 167.879C195.78 167.815 195.595 167.735 195.427 167.639C195.263 167.539 195.128 167.407 195.023 167.243C194.919 167.079 194.866 166.869 194.866 166.614C194.866 166.355 194.935 166.118 195.071 165.904C195.213 165.685 195.424 165.512 195.707 165.384C195.994 165.252 196.356 165.186 196.793 165.186C197.081 165.186 197.365 165.222 197.648 165.295C197.93 165.368 198.176 165.473 198.386 165.61L198.106 166.3C197.891 166.172 197.671 166.079 197.443 166.02C197.215 165.956 196.996 165.924 196.787 165.924C196.541 165.924 196.34 165.954 196.185 166.013C196.035 166.072 195.923 166.15 195.85 166.245C195.782 166.341 195.748 166.45 195.748 166.573C195.748 166.719 195.798 166.838 195.898 166.929C196.003 167.015 196.137 167.084 196.301 167.134C196.47 167.184 196.657 167.234 196.862 167.284C197.067 167.33 197.27 167.382 197.47 167.441C197.675 167.5 197.86 167.578 198.024 167.674C198.192 167.769 198.327 167.899 198.427 168.063C198.532 168.227 198.584 168.434 198.584 168.685C198.584 168.94 198.513 169.177 198.372 169.396C198.235 169.61 198.024 169.783 197.737 169.915C197.45 170.043 197.087 170.106 196.65 170.106ZM200.369 170.038V166.006H198.783V165.254H202.842V166.006H201.257V170.038H200.369ZM205.684 170.106C205.31 170.106 204.966 170.045 204.652 169.922C204.338 169.799 204.064 169.628 203.832 169.409C203.6 169.186 203.42 168.926 203.292 168.63C203.165 168.33 203.101 168.002 203.101 167.646C203.101 167.291 203.165 166.965 203.292 166.669C203.42 166.368 203.6 166.109 203.832 165.89C204.064 165.667 204.338 165.494 204.652 165.371C204.966 165.247 205.308 165.186 205.677 165.186C206.051 165.186 206.392 165.247 206.702 165.371C207.017 165.494 207.29 165.667 207.522 165.89C207.755 166.109 207.935 166.368 208.062 166.669C208.19 166.965 208.254 167.291 208.254 167.646C208.254 168.002 208.19 168.33 208.062 168.63C207.935 168.931 207.755 169.191 207.522 169.409C207.29 169.628 207.017 169.799 206.702 169.922C206.392 170.045 206.053 170.106 205.684 170.106ZM205.677 169.327C205.919 169.327 206.142 169.286 206.347 169.204C206.552 169.122 206.73 169.006 206.88 168.856C207.03 168.701 207.146 168.523 207.228 168.323C207.315 168.118 207.358 167.892 207.358 167.646C207.358 167.4 207.315 167.177 207.228 166.976C207.146 166.771 207.03 166.594 206.88 166.443C206.73 166.289 206.552 166.17 206.347 166.088C206.142 166.006 205.919 165.965 205.677 165.965C205.436 165.965 205.212 166.006 205.007 166.088C204.807 166.17 204.629 166.289 204.474 166.443C204.324 166.594 204.206 166.771 204.119 166.976C204.037 167.177 203.996 167.4 203.996 167.646C203.996 167.888 204.037 168.111 204.119 168.316C204.206 168.521 204.324 168.701 204.474 168.856C204.625 169.006 204.802 169.122 205.007 169.204C205.212 169.286 205.436 169.327 205.677 169.327ZM209.195 170.038V165.254H211.163C211.587 165.254 211.949 165.323 212.25 165.459C212.555 165.596 212.79 165.792 212.954 166.047C213.118 166.302 213.2 166.605 213.2 166.956C213.2 167.307 213.118 167.61 212.954 167.865C212.79 168.115 212.555 168.309 212.25 168.446C211.949 168.578 211.587 168.644 211.163 168.644H209.687L210.084 168.241V170.038H209.195ZM212.325 170.038L211.116 168.302H212.066L213.282 170.038H212.325ZM210.084 168.336L209.687 167.913H211.122C211.514 167.913 211.808 167.828 212.004 167.66C212.204 167.491 212.305 167.257 212.305 166.956C212.305 166.651 212.204 166.416 212.004 166.252C211.808 166.088 211.514 166.006 211.122 166.006H209.687L210.084 165.569V168.336ZM213.517 170.038L215.67 165.254H216.545L218.704 170.038H217.775L215.923 165.726H216.278L214.433 170.038H213.517ZM214.508 168.931L214.747 168.234H217.331L217.57 168.931H214.508ZM221.481 170.106C221.107 170.106 220.763 170.047 220.449 169.929C220.139 169.806 219.868 169.635 219.635 169.416C219.403 169.193 219.223 168.931 219.096 168.63C218.968 168.33 218.904 168.002 218.904 167.646C218.904 167.291 218.968 166.963 219.096 166.662C219.223 166.361 219.403 166.102 219.635 165.883C219.872 165.66 220.148 165.489 220.462 165.371C220.777 165.247 221.121 165.186 221.494 165.186C221.9 165.186 222.264 165.252 222.588 165.384C222.916 165.516 223.191 165.71 223.415 165.965L222.854 166.512C222.667 166.325 222.465 166.188 222.246 166.102C222.032 166.011 221.795 165.965 221.535 165.965C221.285 165.965 221.052 166.006 220.838 166.088C220.624 166.17 220.44 166.286 220.285 166.437C220.13 166.587 220.009 166.765 219.923 166.97C219.841 167.175 219.8 167.4 219.8 167.646C219.8 167.888 219.841 168.111 219.923 168.316C220.009 168.521 220.13 168.701 220.285 168.856C220.44 169.006 220.622 169.122 220.831 169.204C221.041 169.286 221.273 169.327 221.529 169.327C221.765 169.327 221.993 169.291 222.212 169.218C222.435 169.141 222.647 169.013 222.847 168.835L223.353 169.498C223.103 169.699 222.811 169.851 222.478 169.956C222.15 170.056 221.818 170.106 221.481 170.106ZM222.513 169.382V167.592H223.353V169.498L222.513 169.382ZM225.345 167.243H227.723V167.974H225.345V167.243ZM225.413 169.293H228.113V170.038H224.525V165.254H228.017V165.999H225.413V169.293Z" fill="black"/>
    <path d="M31.4912 34.8447V29.4878H32.486V34.0029H35.2869V34.8447H31.4912ZM36.0723 34.8447V29.4878H37.0672V34.8447H36.0723ZM40.0628 34.8447L37.7211 29.4878H38.8001L40.8893 34.332H40.2695L42.3816 29.4878H43.3765L41.0424 34.8447H40.0628ZM43.9417 34.8447V29.4878H44.9366V34.8447H43.9417ZM46.3855 34.8447V29.4878H47.2044L50.5639 33.6126H50.1583V29.4878H51.1455V34.8447H50.3267L46.9671 30.7199H47.3727V34.8447H46.3855ZM55.0833 34.9213C54.665 34.9213 54.2798 34.8549 53.9278 34.7223C53.5809 34.5845 53.2773 34.3932 53.0171 34.1483C52.7569 33.8983 52.5554 33.605 52.4126 33.2683C52.2697 32.9316 52.1983 32.5642 52.1983 32.1663C52.1983 31.7683 52.2697 31.401 52.4126 31.0643C52.5554 30.7276 52.7569 30.4368 53.0171 30.1919C53.2824 29.9419 53.5911 29.7506 53.9431 29.6179C54.2951 29.4802 54.6803 29.4113 55.0986 29.4113C55.5527 29.4113 55.9608 29.4853 56.3231 29.6332C56.6904 29.7812 56.9991 29.998 57.2491 30.2837L56.6215 30.8959C56.4124 30.6868 56.1853 30.5337 55.9404 30.4368C55.7007 30.3347 55.4354 30.2837 55.1446 30.2837C54.864 30.2837 54.6038 30.3296 54.364 30.4215C54.1242 30.5133 53.9176 30.6434 53.7441 30.8118C53.5707 30.9801 53.4355 31.1791 53.3385 31.4087C53.2467 31.6382 53.2008 31.8908 53.2008 32.1663C53.2008 32.4367 53.2467 32.6867 53.3385 32.9162C53.4355 33.1458 53.5707 33.3474 53.7441 33.5208C53.9176 33.6892 54.1217 33.8193 54.3563 33.9111C54.591 34.0029 54.8512 34.0488 55.1369 34.0488C55.4022 34.0488 55.6573 34.008 55.9022 33.9264C56.1522 33.8397 56.3894 33.6968 56.6139 33.4979L57.1802 34.2402C56.8996 34.4646 56.5731 34.6356 56.2006 34.7529C55.8333 34.8651 55.4609 34.9213 55.0833 34.9213ZM56.2389 34.1101V32.1051H57.1802V34.2402L56.2389 34.1101ZM60.6073 34.8447V29.4878H62.8112C63.2857 29.4878 63.6913 29.5644 64.028 29.7174C64.3698 29.8705 64.6326 30.0899 64.8162 30.3756C64.9999 30.6613 65.0917 31.0005 65.0917 31.3934C65.0917 31.7862 64.9999 32.1255 64.8162 32.4112C64.6326 32.6918 64.3698 32.9086 64.028 33.0616C63.6913 33.2096 63.2857 33.2836 62.8112 33.2836H61.1583L61.6021 32.8321V34.8447H60.6073ZM64.1122 34.8447L62.7577 32.9009H63.8214L65.1836 34.8447H64.1122ZM61.6021 32.9392L61.1583 32.4647H62.7653C63.2041 32.4647 63.5331 32.3704 63.7525 32.1816C63.977 31.9928 64.0892 31.7301 64.0892 31.3934C64.0892 31.0515 63.977 30.7888 63.7525 30.6051C63.5331 30.4215 63.2041 30.3296 62.7653 30.3296H61.1583L61.6021 29.8399V32.9392ZM68.7149 34.9213C68.2965 34.9213 67.9113 34.8524 67.5593 34.7146C67.2073 34.5769 66.9012 34.3856 66.641 34.1407C66.3808 33.8907 66.1793 33.5999 66.0364 33.2683C65.8936 32.9316 65.8222 32.5642 65.8222 32.1663C65.8222 31.7683 65.8936 31.4036 66.0364 31.0719C66.1793 30.7352 66.3808 30.4444 66.641 30.1995C66.9012 29.9496 67.2073 29.7557 67.5593 29.6179C67.9113 29.4802 68.294 29.4113 68.7072 29.4113C69.1256 29.4113 69.5082 29.4802 69.8551 29.6179C70.2071 29.7557 70.5133 29.9496 70.7734 30.1995C71.0336 30.4444 71.2352 30.7352 71.378 31.0719C71.5209 31.4036 71.5923 31.7683 71.5923 32.1663C71.5923 32.5642 71.5209 32.9316 71.378 33.2683C71.2352 33.605 71.0336 33.8958 70.7734 34.1407C70.5133 34.3856 70.2071 34.5769 69.8551 34.7146C69.5082 34.8524 69.1281 34.9213 68.7149 34.9213ZM68.7072 34.0488C68.9776 34.0488 69.2276 34.0029 69.4572 33.9111C69.6868 33.8193 69.8857 33.6892 70.0541 33.5208C70.2225 33.3474 70.3525 33.1484 70.4444 32.9239C70.5413 32.6943 70.5898 32.4418 70.5898 32.1663C70.5898 31.8908 70.5413 31.6408 70.4444 31.4163C70.3525 31.1867 70.2225 30.9878 70.0541 30.8194C69.8857 30.646 69.6868 30.5133 69.4572 30.4215C69.2276 30.3296 68.9776 30.2837 68.7072 30.2837C68.4368 30.2837 68.1868 30.3296 67.9573 30.4215C67.7328 30.5133 67.5338 30.646 67.3603 30.8194C67.192 30.9878 67.0593 31.1867 66.9624 31.4163C66.8706 31.6408 66.8247 31.8908 66.8247 32.1663C66.8247 32.4367 66.8706 32.6867 66.9624 32.9162C67.0593 33.1458 67.192 33.3474 67.3603 33.5208C67.5287 33.6892 67.7277 33.8193 67.9573 33.9111C68.1868 34.0029 68.4368 34.0488 68.7072 34.0488ZM75.1569 34.9213C74.7385 34.9213 74.3534 34.8524 74.0013 34.7146C73.6493 34.5769 73.3432 34.3856 73.083 34.1407C72.8228 33.8907 72.6213 33.5999 72.4784 33.2683C72.3356 32.9316 72.2642 32.5642 72.2642 32.1663C72.2642 31.7683 72.3356 31.4036 72.4784 31.0719C72.6213 30.7352 72.8228 30.4444 73.083 30.1995C73.3432 29.9496 73.6493 29.7557 74.0013 29.6179C74.3534 29.4802 74.736 29.4113 75.1492 29.4113C75.5676 29.4113 75.9502 29.4802 76.2971 29.6179C76.6492 29.7557 76.9553 29.9496 77.2155 30.1995C77.4757 30.4444 77.6772 30.7352 77.82 31.0719C77.9629 31.4036 78.0343 31.7683 78.0343 32.1663C78.0343 32.5642 77.9629 32.9316 77.82 33.2683C77.6772 33.605 77.4757 33.8958 77.2155 34.1407C76.9553 34.3856 76.6492 34.5769 76.2971 34.7146C75.9502 34.8524 75.5701 34.9213 75.1569 34.9213ZM75.1492 34.0488C75.4196 34.0488 75.6696 34.0029 75.8992 33.9111C76.1288 33.8193 76.3277 33.6892 76.4961 33.5208C76.6645 33.3474 76.7946 33.1484 76.8864 32.9239C76.9833 32.6943 77.0318 32.4418 77.0318 32.1663C77.0318 31.8908 76.9833 31.6408 76.8864 31.4163C76.7946 31.1867 76.6645 30.9878 76.4961 30.8194C76.3277 30.646 76.1288 30.5133 75.8992 30.4215C75.6696 30.3296 75.4196 30.2837 75.1492 30.2837C74.8788 30.2837 74.6289 30.3296 74.3993 30.4215C74.1748 30.5133 73.9758 30.646 73.8024 30.8194C73.634 30.9878 73.5014 31.1867 73.4044 31.4163C73.3126 31.6408 73.2667 31.8908 73.2667 32.1663C73.2667 32.4367 73.3126 32.6867 73.4044 32.9162C73.5014 33.1458 73.634 33.3474 73.8024 33.5208C73.9707 33.6892 74.1697 33.8193 74.3993 33.9111C74.6289 34.0029 74.8788 34.0488 75.1492 34.0488ZM79.0888 34.8447V29.4878H79.9077L82.2494 33.3984H81.8208L84.1243 29.4878H84.9431L84.9508 34.8447H84.0095L84.0018 30.9648H84.2008L82.2417 34.2325H81.7979L79.8082 30.9648H80.0377V34.8447H79.0888Z" fill="black"/>
    <path d="M24.6781 154.736L24.6149 153.345L27.9301 149.903H29.2489L26.4938 152.83L25.8434 153.544L24.6781 154.736ZM23.6303 156.227V149.903H24.8046V156.227H23.6303ZM28.0385 156.227L25.6176 153.345L26.3944 152.487L29.4115 156.227H28.0385ZM30.2111 156.227V149.903H31.3854V156.227H30.2111ZM34.3784 156.227V150.897H32.2827V149.903H37.6484V150.897H35.5527V156.227H34.3784ZM41.3683 156.317C40.8865 156.317 40.4379 156.239 40.0223 156.082C39.6128 155.919 39.2545 155.694 38.9474 155.405C38.6463 155.109 38.4114 154.763 38.2428 154.366C38.0742 153.968 37.9899 153.535 37.9899 153.065C37.9899 152.595 38.0742 152.162 38.2428 151.764C38.4114 151.367 38.6493 151.023 38.9564 150.734C39.2635 150.439 39.6219 150.213 40.0314 150.057C40.4409 149.894 40.8895 149.813 41.3773 149.813C41.8952 149.813 42.3679 149.903 42.7955 150.084C43.2231 150.259 43.5844 150.521 43.8795 150.87L43.1207 151.584C42.8919 151.337 42.6359 151.153 42.3529 151.032C42.0699 150.906 41.7627 150.843 41.4315 150.843C41.1003 150.843 40.7962 150.897 40.5192 151.005C40.2482 151.114 40.0103 151.267 39.8055 151.466C39.6068 151.665 39.4502 151.9 39.3358 152.171C39.2274 152.442 39.1732 152.74 39.1732 153.065C39.1732 153.39 39.2274 153.688 39.3358 153.959C39.4502 154.23 39.6068 154.465 39.8055 154.664C40.0103 154.863 40.2482 155.016 40.5192 155.125C40.7962 155.233 41.1003 155.287 41.4315 155.287C41.7627 155.287 42.0699 155.227 42.3529 155.106C42.6359 154.98 42.8919 154.79 43.1207 154.537L43.8795 155.26C43.5844 155.603 43.2231 155.865 42.7955 156.046C42.3679 156.227 41.8922 156.317 41.3683 156.317ZM49.449 149.903H50.6233V156.227H49.449V149.903ZM46.179 156.227H45.0047V149.903H46.179V156.227ZM49.5393 153.517H46.0796V152.514H49.5393V153.517ZM53.4017 152.532H56.5452V153.499H53.4017V152.532ZM53.492 155.242H57.0601V156.227H52.3177V149.903H56.9336V150.888H53.492V155.242ZM58.3692 156.227V149.903H59.3358L63.3013 154.772H62.8226V149.903H63.9878V156.227H63.0213L59.0557 151.358H59.5345V156.227H58.3692Z" fill="black"/>
</svg>
