<svg width="217" height="212" viewBox="0 0 217 212" fill="none" xmlns="http://www.w3.org/2000/svg">
    <rect x="1.22187" y="132.555" width="14.6661" height="47.0272" rx="1.32314" stroke="black" stroke-width="1.05213"/>
    <rect x="69.593" y="154.633" width="14.6661" height="47.0272" rx="1.32314" stroke="black" stroke-width="1.05213"/>
    <path d="M165.009 172.367L162.793 165.68H164.082L166.06 171.727H165.42L167.474 165.68H168.62L170.617 171.727H169.996L172.021 165.68H173.205L170.989 172.367H169.671L167.846 166.912H168.19L166.337 172.367H165.009ZM177.247 172.463C176.738 172.463 176.263 172.38 175.824 172.214C175.391 172.042 175.012 171.804 174.687 171.498C174.368 171.186 174.12 170.82 173.942 170.399C173.763 169.979 173.674 169.52 173.674 169.024C173.674 168.527 173.763 168.068 173.942 167.648C174.12 167.228 174.372 166.865 174.696 166.559C175.021 166.247 175.4 166.008 175.833 165.842C176.266 165.67 176.741 165.584 177.257 165.584C177.804 165.584 178.304 165.68 178.756 165.871C179.209 166.056 179.591 166.333 179.903 166.702L179.1 167.457C178.858 167.196 178.588 167.002 178.288 166.874C177.989 166.74 177.664 166.674 177.314 166.674C176.964 166.674 176.642 166.731 176.349 166.846C176.063 166.96 175.811 167.123 175.594 167.333C175.384 167.543 175.219 167.791 175.098 168.078C174.983 168.364 174.926 168.68 174.926 169.024C174.926 169.368 174.983 169.683 175.098 169.969C175.219 170.256 175.384 170.504 175.594 170.715C175.811 170.925 176.063 171.087 176.349 171.202C176.642 171.316 176.964 171.374 177.314 171.374C177.664 171.374 177.989 171.31 178.288 171.183C178.588 171.049 178.858 170.848 179.1 170.581L179.903 171.345C179.591 171.708 179.209 171.985 178.756 172.176C178.304 172.367 177.801 172.463 177.247 172.463Z" fill="black"/>
    <rect x="8.17376" y="2.05365" width="207.249" height="208.674" rx="1.0683" stroke="black" stroke-width="2.13659"/>
    <path d="M126.042 121.346C126.042 120.953 125.723 120.634 125.33 120.634C124.937 120.634 124.618 120.953 124.618 121.346L126.042 121.346ZM126.042 210.371L126.042 121.346L124.618 121.346L124.618 210.371L126.042 210.371Z" fill="black"/>
    <path d="M125.33 120.635C124.937 120.635 124.618 120.954 124.618 121.348C124.618 121.741 124.937 122.06 125.33 122.06L125.33 120.635ZM216.492 120.635L125.33 120.635L125.33 122.06L216.492 122.06L216.492 120.635Z" fill="black"/>
    <line x1="76.1887" y1="210.371" x2="76.1887" y2="0.985077" stroke="black" stroke-width="1.42439"/>
</svg>
