<svg width="180" height="164" viewBox="0 0 180 164" fill="none" xmlns="http://www.w3.org/2000/svg">
    <path d="M126.706 1.44629H178.744" stroke="black" stroke-width="1.53054" stroke-linecap="round"/>
    <path d="M178.745 1.44629L178.745 162.918" stroke="black" stroke-width="1.53054" stroke-linecap="round"/>
    <path d="M178.745 162.918L1.20221 162.918" stroke="black" stroke-width="1.53054" stroke-linecap="round"/>
    <path d="M1.20215 1.44629L86.9123 1.44628" stroke="black" stroke-width="1.53054" stroke-linecap="round"/>
    <path d="M134.359 1.44629L134.359 59.6067" stroke="black" stroke-width="1.53054" stroke-linecap="round"/>
    <path d="M135.124 81.7988C135.124 81.3762 134.782 81.0336 134.359 81.0336C133.936 81.0336 133.594 81.3762 133.594 81.7988L135.124 81.7988ZM133.594 81.7988L133.594 94.8084L135.124 94.8084L135.124 81.7988L133.594 81.7988Z" fill="black"/>
    <line x1="133.594" y1="94.0433" x2="177.979" y2="94.0433" stroke="black" stroke-width="1.53054"/>
    <path d="M87.6774 1.44629C87.6774 1.02364 87.3348 0.68102 86.9121 0.68102C86.4895 0.68102 86.1468 1.02364 86.1468 1.44629L87.6774 1.44629ZM86.1468 1.44629L86.1468 93.2786L87.6774 93.2786L87.6774 1.44629L86.1468 1.44629Z" fill="black"/>
    <path d="M28.752 92.5127L86.1471 92.5127" stroke="black" stroke-width="1.53054" stroke-linecap="round"/>
    <path d="M28.752 76.4424L28.752 64.1981" stroke="black" stroke-width="1.53054" stroke-linecap="round"/>
    <path d="M28.752 92.5127L28.752 87.9211" stroke="black" stroke-width="1.53054" stroke-linecap="round"/>
    <path d="M28.752 64.1982L86.1471 64.1982" stroke="black" stroke-width="1.53054" stroke-linecap="round"/>
    <path d="M0.436879 162.918C0.436879 163.341 0.779502 163.683 1.20215 163.683C1.62479 163.683 1.96742 163.341 1.96742 162.918L0.436879 162.918ZM1.96742 162.918L1.96742 1.4462L0.436886 1.4462L0.436879 162.918L1.96742 162.918Z" fill="black"/>
    <path d="M38.8368 80.8914L38.7736 79.5003L42.0888 76.0586H43.4076L40.6525 78.9854L40.0021 79.699L38.8368 80.8914ZM37.789 82.3818V76.0586H38.9633V82.3818H37.789ZM42.1972 82.3818L39.7763 79.5003L40.5531 78.6421L43.5702 82.3818H42.1972ZM44.3698 82.3818V76.0586H45.5441V82.3818H44.3698ZM48.5371 82.3818V77.0523H46.4414V76.0586H51.8071V77.0523H49.7114V82.3818H48.5371ZM55.527 82.4722C55.0452 82.4722 54.5966 82.3939 54.181 82.2373C53.7715 82.0747 53.4132 81.8489 53.1061 81.5598C52.805 81.2647 52.5701 80.9185 52.4015 80.521C52.2329 80.1235 52.1486 79.6899 52.1486 79.2202C52.1486 78.7505 52.2329 78.3169 52.4015 77.9194C52.5701 77.522 52.808 77.1787 53.1151 76.8897C53.4222 76.5946 53.7806 76.3688 54.1901 76.2122C54.5996 76.0496 55.0482 75.9683 55.536 75.9683C56.0539 75.9683 56.5266 76.0586 56.9542 76.2393C57.3818 76.4139 57.7431 76.6759 58.0382 77.0252L57.2794 77.7388C57.0506 77.4919 56.7946 77.3082 56.5116 77.1878C56.2285 77.0613 55.9214 76.9981 55.5902 76.9981C55.259 76.9981 54.9549 77.0523 54.6779 77.1607C54.4069 77.2691 54.169 77.4226 53.9642 77.6214C53.7655 77.8201 53.6089 78.0549 53.4945 78.3259C53.3861 78.5969 53.3319 78.895 53.3319 79.2202C53.3319 79.5454 53.3861 79.8435 53.4945 80.1145C53.6089 80.3855 53.7655 80.6204 53.9642 80.8191C54.169 81.0178 54.4069 81.1714 54.6779 81.2798C54.9549 81.3882 55.259 81.4424 55.5902 81.4424C55.9214 81.4424 56.2285 81.3822 56.5116 81.2617C56.7946 81.1353 57.0506 80.9456 57.2794 80.6926L58.0382 81.4153C57.7431 81.7585 57.3818 82.0205 56.9542 82.2012C56.5266 82.3818 56.0509 82.4722 55.527 82.4722ZM63.6077 76.0586H64.782V82.3818H63.6077V76.0586ZM60.3377 82.3818H59.1634V76.0586H60.3377V82.3818ZM63.698 79.6719H60.2383V78.6692H63.698V79.6719ZM67.5604 78.6873H70.7039V79.6538H67.5604V78.6873ZM67.6507 81.3972H71.2188V82.3818H66.4764V76.0586H71.0923V77.0432H67.6507V81.3972ZM72.5279 82.3818V76.0586H73.4944L77.46 80.9275H76.9813V76.0586H78.1465V82.3818H77.18L73.2144 77.513H73.6932V82.3818H72.5279Z" fill="black"/>
</svg>
