<svg width="213" height="200" viewBox="0 0 213 200" fill="none" xmlns="http://www.w3.org/2000/svg">
    <rect x="1.49281" y="1.3141" width="210.449" height="197.439" rx="1.53054" stroke="black" stroke-width="1.53054"/>
    <path d="M100.213 1.31445L100.213 64.0665" stroke="black" stroke-width="1.53054" stroke-linecap="square"/>
    <path d="M1.49316 90.0859H100.213" stroke="black" stroke-width="1.53054" stroke-linecap="round"/>
    <path d="M211.941 38.8125L131.588 38.8125" stroke="black" stroke-width="1.53054" stroke-linecap="round"/>
    <path d="M138.551 23.364L138.487 21.9729L141.803 18.5313H143.121L140.366 21.458L139.716 22.1716L138.551 23.364ZM137.503 24.8545V18.5313H138.677V24.8545H137.503ZM141.911 24.8545L139.49 21.9729L140.267 21.1148L143.284 24.8545H141.911ZM144.084 24.8545V18.5313H145.258V24.8545H144.084ZM148.251 24.8545V19.5249H146.155V18.5313H151.521V19.5249H149.425V24.8545H148.251ZM155.241 24.9448C154.759 24.9448 154.31 24.8665 153.895 24.71C153.485 24.5474 153.127 24.3215 152.82 24.0325C152.519 23.7374 152.284 23.3911 152.115 22.9937C151.947 22.5962 151.862 22.1626 151.862 21.6929C151.862 21.2232 151.947 20.7896 152.115 20.3921C152.284 19.9946 152.522 19.6514 152.829 19.3623C153.136 19.0672 153.494 18.8414 153.904 18.6848C154.313 18.5222 154.762 18.4409 155.25 18.4409C155.768 18.4409 156.241 18.5313 156.668 18.7119C157.096 18.8866 157.457 19.1485 157.752 19.4978L156.993 20.2114C156.764 19.9645 156.508 19.7809 156.225 19.6604C155.942 19.534 155.635 19.4707 155.304 19.4707C154.973 19.4707 154.669 19.5249 154.392 19.6333C154.121 19.7417 153.883 19.8953 153.678 20.094C153.479 20.2927 153.323 20.5276 153.208 20.7986C153.1 21.0696 153.046 21.3677 153.046 21.6929C153.046 22.0181 153.1 22.3162 153.208 22.5872C153.323 22.8582 153.479 23.093 153.678 23.2918C153.883 23.4905 154.121 23.644 154.392 23.7524C154.669 23.8608 154.973 23.915 155.304 23.915C155.635 23.915 155.942 23.8548 156.225 23.7344C156.508 23.6079 156.764 23.4182 156.993 23.1653L157.752 23.8879C157.457 24.2312 157.096 24.4932 156.668 24.6738C156.241 24.8545 155.765 24.9448 155.241 24.9448ZM163.322 18.5313H164.496V24.8545H163.322V18.5313ZM160.052 24.8545H158.877V18.5313H160.052V24.8545ZM163.412 22.1445H159.952V21.1419H163.412V22.1445ZM167.274 21.1599H170.418V22.1265H167.274V21.1599ZM167.365 23.8699H170.933V24.8545H166.19V18.5313H170.806V19.5159H167.365V23.8699ZM172.242 24.8545V18.5313H173.208L177.174 23.4002H176.695V18.5313H177.86V24.8545H176.894L172.928 19.9856H173.407V24.8545H172.242Z" fill="black"/>
    <path d="M32.2637 44.8125V40.527H34.2718C34.786 40.527 35.1779 40.629 35.4472 40.8331C35.7166 41.0331 35.8513 41.3025 35.8513 41.6412C35.8513 41.8698 35.7982 42.0657 35.6921 42.229C35.586 42.3881 35.4431 42.5126 35.2636 42.6024C35.0881 42.6881 34.8962 42.731 34.6881 42.731L34.7983 42.5106C35.0391 42.5106 35.2554 42.5555 35.4472 42.6453C35.6391 42.731 35.7901 42.8575 35.9003 43.0248C36.0145 43.1922 36.0717 43.4003 36.0717 43.6493C36.0717 44.0166 35.9309 44.3023 35.6493 44.5064C35.3676 44.7105 34.9493 44.8125 34.3942 44.8125H32.2637ZM33.0596 44.188H34.3452C34.6432 44.188 34.8717 44.1391 35.0309 44.0411C35.1901 43.9432 35.2697 43.786 35.2697 43.5697C35.2697 43.3575 35.1901 43.2024 35.0309 43.1044C34.8717 43.0024 34.6432 42.9514 34.3452 42.9514H32.9984V42.333H34.1861C34.4636 42.333 34.6758 42.2841 34.8228 42.1861C34.9738 42.0881 35.0493 41.9412 35.0493 41.7453C35.0493 41.5453 34.9738 41.3963 34.8228 41.2984C34.6758 41.2004 34.4636 41.1515 34.1861 41.1515H33.0596V44.188ZM36.315 44.8125L38.2435 40.527H39.0271L40.9617 44.8125H40.1291L38.47 40.9494H38.7883L37.1354 44.8125H36.315ZM37.2027 43.8207L37.417 43.1963H39.7312L39.9454 43.8207H37.2027ZM42.1608 44.8125V41.2004H40.7405V40.527H44.3771V41.2004H42.9567V44.8125H42.1608ZM47.9865 40.527H48.7823V44.8125H47.9865V40.527ZM45.7702 44.8125H44.9744V40.527H45.7702V44.8125ZM48.0477 42.9759H45.7029V42.2963H48.0477V42.9759ZM49.9307 44.8125V40.527H51.6938C52.0734 40.527 52.3979 40.5882 52.6673 40.7107C52.9407 40.8331 53.1509 41.0086 53.2978 41.2372C53.4448 41.4657 53.5182 41.7371 53.5182 42.0514C53.5182 42.3657 53.4448 42.6371 53.2978 42.8657C53.1509 43.0901 52.9407 43.2636 52.6673 43.386C52.3979 43.5044 52.0734 43.5636 51.6938 43.5636H50.3715L50.7265 43.2024V44.8125H49.9307ZM52.7346 44.8125L51.651 43.2575H52.502L53.5917 44.8125H52.7346ZM50.7265 43.2881L50.3715 42.9085H51.6571C52.0081 42.9085 52.2714 42.833 52.4469 42.682C52.6265 42.531 52.7162 42.3208 52.7162 42.0514C52.7162 41.778 52.6265 41.5678 52.4469 41.4208C52.2714 41.2739 52.0081 41.2004 51.6571 41.2004H50.3715L50.7265 40.8086V43.2881ZM56.4168 44.8737C56.0821 44.8737 55.7739 44.8186 55.4923 44.7084C55.2107 44.5982 54.9658 44.4452 54.7576 44.2493C54.5495 44.0493 54.3883 43.8166 54.274 43.5513C54.1597 43.282 54.1026 42.9881 54.1026 42.6697C54.1026 42.3514 54.1597 42.0596 54.274 41.7943C54.3883 41.5249 54.5495 41.2923 54.7576 41.0964C54.9658 40.8964 55.2107 40.7413 55.4923 40.6311C55.7739 40.5209 56.08 40.4658 56.4106 40.4658C56.7453 40.4658 57.0514 40.5209 57.329 40.6311C57.6106 40.7413 57.8555 40.8964 58.0636 41.0964C58.2718 41.2923 58.433 41.5249 58.5473 41.7943C58.6615 42.0596 58.7187 42.3514 58.7187 42.6697C58.7187 42.9881 58.6615 43.282 58.5473 43.5513C58.433 43.8207 58.2718 44.0534 58.0636 44.2493C57.8555 44.4452 57.6106 44.5982 57.329 44.7084C57.0514 44.8186 56.7473 44.8737 56.4168 44.8737ZM56.4106 44.1758C56.6269 44.1758 56.8269 44.1391 57.0106 44.0656C57.1943 43.9921 57.3534 43.8881 57.4881 43.7534C57.6228 43.6146 57.7269 43.4554 57.8004 43.2758C57.8779 43.0922 57.9167 42.8901 57.9167 42.6697C57.9167 42.4493 57.8779 42.2494 57.8004 42.0698C57.7269 41.8861 57.6228 41.7269 57.4881 41.5922C57.3534 41.4535 57.1943 41.3474 57.0106 41.2739C56.8269 41.2004 56.6269 41.1637 56.4106 41.1637C56.1943 41.1637 55.9943 41.2004 55.8107 41.2739C55.6311 41.3474 55.4719 41.4535 55.3331 41.5922C55.1984 41.7269 55.0923 41.8861 55.0148 42.0698C54.9413 42.2494 54.9046 42.4493 54.9046 42.6697C54.9046 42.8861 54.9413 43.0861 55.0148 43.2697C55.0923 43.4534 55.1984 43.6146 55.3331 43.7534C55.4678 43.8881 55.627 43.9921 55.8107 44.0656C55.9943 44.1391 56.1943 44.1758 56.4106 44.1758ZM61.5704 44.8737C61.2357 44.8737 60.9275 44.8186 60.6459 44.7084C60.3643 44.5982 60.1194 44.4452 59.9113 44.2493C59.7031 44.0493 59.5419 43.8166 59.4276 43.5513C59.3133 43.282 59.2562 42.9881 59.2562 42.6697C59.2562 42.3514 59.3133 42.0596 59.4276 41.7943C59.5419 41.5249 59.7031 41.2923 59.9113 41.0964C60.1194 40.8964 60.3643 40.7413 60.6459 40.6311C60.9275 40.5209 61.2336 40.4658 61.5642 40.4658C61.8989 40.4658 62.205 40.5209 62.4826 40.6311C62.7642 40.7413 63.0091 40.8964 63.2172 41.0964C63.4254 41.2923 63.5866 41.5249 63.7009 41.7943C63.8151 42.0596 63.8723 42.3514 63.8723 42.6697C63.8723 42.9881 63.8151 43.282 63.7009 43.5513C63.5866 43.8207 63.4254 44.0534 63.2172 44.2493C63.0091 44.4452 62.7642 44.5982 62.4826 44.7084C62.205 44.8186 61.901 44.8737 61.5704 44.8737ZM61.5642 44.1758C61.7806 44.1758 61.9805 44.1391 62.1642 44.0656C62.3479 43.9921 62.507 43.8881 62.6417 43.7534C62.7764 43.6146 62.8805 43.4554 62.954 43.2758C63.0315 43.0922 63.0703 42.8901 63.0703 42.6697C63.0703 42.4493 63.0315 42.2494 62.954 42.0698C62.8805 41.8861 62.7764 41.7269 62.6417 41.5922C62.507 41.4535 62.3479 41.3474 62.1642 41.2739C61.9805 41.2004 61.7806 41.1637 61.5642 41.1637C61.3479 41.1637 61.1479 41.2004 60.9643 41.2739C60.7847 41.3474 60.6255 41.4535 60.4867 41.5922C60.3521 41.7269 60.2459 41.8861 60.1684 42.0698C60.0949 42.2494 60.0582 42.4493 60.0582 42.6697C60.0582 42.8861 60.0949 43.0861 60.1684 43.2697C60.2459 43.4534 60.3521 43.6146 60.4867 43.7534C60.6214 43.8881 60.7806 43.9921 60.9643 44.0656C61.1479 44.1391 61.3479 44.1758 61.5642 44.1758ZM64.7159 44.8125V40.527H65.371L67.2444 43.6554H66.9015L68.7443 40.527H69.3993L69.4055 44.8125H68.6524L68.6463 41.7086H68.8055L67.2382 44.3227H66.8831L65.2914 41.7086H65.475V44.8125H64.7159Z" fill="black"/>
</svg>
