<svg width="340" height="146" viewBox="0 0 340 146" fill="none" xmlns="http://www.w3.org/2000/svg">
    <path d="M46.3639 35.9766V32.0395L46.7091 32.3969H45.4674V31.7366H47.1513V35.9766H46.3639ZM50.8959 36.019C50.6254 36.019 50.3649 35.9846 50.1145 35.916C49.8682 35.8433 49.6724 35.7565 49.527 35.6555L49.8178 35.0801C49.9631 35.173 50.1368 35.2497 50.3387 35.3103C50.5406 35.3709 50.7425 35.4011 50.9444 35.4011C51.1826 35.4011 51.3542 35.3688 51.4592 35.3042C51.5682 35.2396 51.6227 35.1528 51.6227 35.0438C51.6227 34.9549 51.5864 34.8883 51.5137 34.8439C51.441 34.7954 51.3461 34.7591 51.229 34.7349C51.1119 34.7106 50.9807 34.6884 50.8353 34.6682C50.694 34.6481 50.5507 34.6218 50.4053 34.5895C50.264 34.5532 50.1347 34.5027 50.0176 34.4381C49.9005 34.3694 49.8056 34.2786 49.733 34.1655C49.6603 34.0524 49.6239 33.903 49.6239 33.7173C49.6239 33.5114 49.6825 33.3337 49.7996 33.1843C49.9167 33.0308 50.0802 32.9137 50.2902 32.833C50.5042 32.7482 50.7566 32.7058 51.0473 32.7058C51.2654 32.7058 51.4855 32.73 51.7075 32.7785C51.9296 32.8269 52.1134 32.8956 52.2587 32.9844L51.968 33.5598C51.8146 33.4669 51.6591 33.4043 51.5016 33.372C51.3482 33.3357 51.1947 33.3175 51.0413 33.3175C50.8111 33.3175 50.6395 33.3519 50.5264 33.4205C50.4174 33.4891 50.3629 33.576 50.3629 33.681C50.3629 33.7779 50.3992 33.8505 50.4719 33.899C50.5446 33.9475 50.6395 33.9858 50.7566 34.0141C50.8737 34.0424 51.0029 34.0666 51.1442 34.0868C51.2896 34.1029 51.433 34.1292 51.5743 34.1655C51.7156 34.2019 51.8448 34.2523 51.9619 34.3169C52.0831 34.3775 52.18 34.4643 52.2527 34.5774C52.3254 34.6905 52.3617 34.8378 52.3617 35.0196C52.3617 35.2215 52.3011 35.3971 52.18 35.5465C52.0629 35.6959 51.8953 35.813 51.6773 35.8978C51.4592 35.9786 51.1988 36.019 50.8959 36.019ZM54.2312 36.019C53.8759 36.019 53.6013 35.9281 53.4074 35.7464C53.2136 35.5606 53.1167 35.2881 53.1167 34.9287V32.0274H53.8738V34.9105C53.8738 35.064 53.9122 35.1831 53.9889 35.2679C54.0697 35.3527 54.1807 35.3951 54.3221 35.3951C54.4916 35.3951 54.633 35.3507 54.746 35.2618L54.958 35.8009C54.8692 35.8736 54.7602 35.9281 54.631 35.9644C54.5017 36.0008 54.3685 36.019 54.2312 36.019ZM52.5837 33.372V32.7663H54.74V33.372H52.5837ZM57.3275 35.9766V31.7366H58.1149V35.3103H60.3318V35.9766H57.3275ZM62.3049 36.019C61.9738 36.019 61.679 35.9483 61.4206 35.807C61.1621 35.6616 60.9582 35.4637 60.8088 35.2134C60.6594 34.963 60.5847 34.6783 60.5847 34.3593C60.5847 34.0363 60.6594 33.7516 60.8088 33.5053C60.9582 33.2549 61.1621 33.0591 61.4206 32.9178C61.679 32.7764 61.9738 32.7058 62.3049 32.7058C62.64 32.7058 62.9368 32.7764 63.1953 32.9178C63.4577 33.0591 63.6616 33.2529 63.807 33.4992C63.9564 33.7456 64.0311 34.0323 64.0311 34.3593C64.0311 34.6783 63.9564 34.963 63.807 35.2134C63.6616 35.4637 63.4577 35.6616 63.1953 35.807C62.9368 35.9483 62.64 36.019 62.3049 36.019ZM62.3049 35.3709C62.4906 35.3709 62.6562 35.3305 62.8016 35.2497C62.9469 35.169 63.06 35.0519 63.1407 34.8984C63.2255 34.745 63.2679 34.5653 63.2679 34.3593C63.2679 34.1494 63.2255 33.9697 63.1407 33.8203C63.06 33.6668 62.9469 33.5497 62.8016 33.469C62.6562 33.3882 62.4926 33.3478 62.3109 33.3478C62.1252 33.3478 61.9596 33.3882 61.8143 33.469C61.6729 33.5497 61.5599 33.6668 61.4751 33.8203C61.3903 33.9697 61.3479 34.1494 61.3479 34.3593C61.3479 34.5653 61.3903 34.745 61.4751 34.8984C61.5599 35.0519 61.6729 35.169 61.8143 35.2497C61.9596 35.3305 62.1232 35.3709 62.3049 35.3709ZM64.8581 35.9766V32.5604C64.8581 32.2212 64.957 31.9507 65.1549 31.7488C65.3568 31.5428 65.6435 31.4399 66.015 31.4399C66.1482 31.4399 66.2734 31.454 66.3905 31.4823C66.5117 31.5105 66.6126 31.5549 66.6934 31.6155L66.4874 32.1849C66.4309 32.1404 66.3663 32.1081 66.2936 32.088C66.2209 32.0637 66.1462 32.0516 66.0695 32.0516C65.912 32.0516 65.7929 32.096 65.7121 32.1849C65.6314 32.2697 65.591 32.3989 65.591 32.5725V32.9359L65.6152 33.2751V35.9766H64.8581ZM64.3251 33.372V32.7663H66.4814V33.372H64.3251ZM68.2085 36.019C67.8531 36.019 67.5786 35.9281 67.3847 35.7464C67.1909 35.5606 67.094 35.2881 67.094 34.9287V32.0274H67.8511V34.9105C67.8511 35.064 67.8895 35.1831 67.9662 35.2679C68.047 35.3527 68.158 35.3951 68.2993 35.3951C68.4689 35.3951 68.6103 35.3507 68.7233 35.2618L68.9353 35.8009C68.8465 35.8736 68.7375 35.9281 68.6082 35.9644C68.479 36.0008 68.3458 36.019 68.2085 36.019ZM66.561 33.372V32.7663H68.7173V33.372H66.561Z" fill="black"/>
    <path d="M30.2161 112.504V111.977L31.8999 110.378C32.0412 110.245 32.1462 110.128 32.2149 110.027C32.2835 109.926 32.3279 109.833 32.3481 109.748C32.3724 109.659 32.3845 109.576 32.3845 109.5C32.3845 109.306 32.3179 109.156 32.1846 109.051C32.0513 108.942 31.8555 108.888 31.5971 108.888C31.3911 108.888 31.2034 108.924 31.0338 108.997C30.8682 109.07 30.7249 109.181 30.6037 109.33L30.0525 108.906C30.2181 108.684 30.4402 108.512 30.7188 108.391C31.0015 108.266 31.3164 108.203 31.6637 108.203C31.9706 108.203 32.2371 108.254 32.4632 108.355C32.6934 108.452 32.869 108.591 32.9902 108.773C33.1154 108.954 33.1779 109.171 33.1779 109.421C33.1779 109.558 33.1598 109.695 33.1234 109.833C33.0871 109.966 33.0184 110.107 32.9175 110.257C32.8165 110.406 32.6692 110.574 32.4753 110.759L31.0277 112.134L30.8642 111.838H33.3415V112.504H30.2161ZM36.6995 112.546C36.4289 112.546 36.1685 112.512 35.9181 112.443C35.6718 112.371 35.476 112.284 35.3306 112.183L35.6213 111.607C35.7667 111.7 35.9403 111.777 36.1422 111.838C36.3441 111.898 36.546 111.928 36.7479 111.928C36.9862 111.928 37.1578 111.896 37.2628 111.832C37.3718 111.767 37.4263 111.68 37.4263 111.571C37.4263 111.482 37.39 111.416 37.3173 111.371C37.2446 111.323 37.1497 111.286 37.0326 111.262C36.9155 111.238 36.7843 111.216 36.6389 111.196C36.4976 111.175 36.3542 111.149 36.2089 111.117C36.0675 111.081 35.9383 111.03 35.8212 110.965C35.7041 110.897 35.6092 110.806 35.5365 110.693C35.4639 110.58 35.4275 110.43 35.4275 110.245C35.4275 110.039 35.4861 109.861 35.6032 109.712C35.7203 109.558 35.8838 109.441 36.0938 109.36C36.3078 109.276 36.5602 109.233 36.8509 109.233C37.069 109.233 37.289 109.257 37.5111 109.306C37.7332 109.354 37.917 109.423 38.0623 109.512L37.7716 110.087C37.6181 109.994 37.4627 109.932 37.3052 109.899C37.1518 109.863 36.9983 109.845 36.8449 109.845C36.6147 109.845 36.4431 109.879 36.33 109.948C36.221 110.016 36.1665 110.103 36.1665 110.208C36.1665 110.305 36.2028 110.378 36.2755 110.426C36.3482 110.475 36.4431 110.513 36.5602 110.541C36.6773 110.57 36.8065 110.594 36.9478 110.614C37.0932 110.63 37.2365 110.657 37.3779 110.693C37.5192 110.729 37.6484 110.78 37.7655 110.844C37.8867 110.905 37.9836 110.992 38.0563 111.105C38.1289 111.218 38.1653 111.365 38.1653 111.547C38.1653 111.749 38.1047 111.924 37.9836 112.074C37.8665 112.223 37.6989 112.34 37.4808 112.425C37.2628 112.506 37.0023 112.546 36.6995 112.546ZM40.0348 112.546C39.6794 112.546 39.4049 112.455 39.211 112.274C39.0172 112.088 38.9203 111.815 38.9203 111.456V108.555H39.6774V111.438C39.6774 111.591 39.7158 111.71 39.7925 111.795C39.8733 111.88 39.9843 111.922 40.1256 111.922C40.2952 111.922 40.4366 111.878 40.5496 111.789L40.7616 112.328C40.6728 112.401 40.5638 112.455 40.4345 112.492C40.3053 112.528 40.1721 112.546 40.0348 112.546ZM38.3873 109.899V109.294H40.5436V109.899H38.3873ZM43.1311 112.504V108.264H43.9185V111.838H46.1354V112.504H43.1311ZM48.1085 112.546C47.7773 112.546 47.4826 112.476 47.2241 112.334C46.9657 112.189 46.7618 111.991 46.6124 111.741C46.463 111.49 46.3883 111.206 46.3883 110.887C46.3883 110.564 46.463 110.279 46.6124 110.033C46.7618 109.782 46.9657 109.586 47.2241 109.445C47.4826 109.304 47.7773 109.233 48.1085 109.233C48.4436 109.233 48.7404 109.304 48.9988 109.445C49.2613 109.586 49.4652 109.78 49.6106 110.027C49.76 110.273 49.8347 110.56 49.8347 110.887C49.8347 111.206 49.76 111.49 49.6106 111.741C49.4652 111.991 49.2613 112.189 48.9988 112.334C48.7404 112.476 48.4436 112.546 48.1085 112.546ZM48.1085 111.898C48.2942 111.898 48.4598 111.858 48.6051 111.777C48.7505 111.696 48.8636 111.579 48.9443 111.426C49.0291 111.272 49.0715 111.093 49.0715 110.887C49.0715 110.677 49.0291 110.497 48.9443 110.348C48.8636 110.194 48.7505 110.077 48.6051 109.996C48.4598 109.916 48.2962 109.875 48.1145 109.875C47.9288 109.875 47.7632 109.916 47.6178 109.996C47.4765 110.077 47.3634 110.194 47.2786 110.348C47.1939 110.497 47.1515 110.677 47.1515 110.887C47.1515 111.093 47.1939 111.272 47.2786 111.426C47.3634 111.579 47.4765 111.696 47.6178 111.777C47.7632 111.858 47.9268 111.898 48.1085 111.898ZM50.6617 112.504V109.088C50.6617 108.749 50.7606 108.478 50.9585 108.276C51.1604 108.07 51.4471 107.967 51.8186 107.967C51.9518 107.967 52.077 107.981 52.1941 108.01C52.3153 108.038 52.4162 108.082 52.497 108.143L52.291 108.712C52.2345 108.668 52.1699 108.635 52.0972 108.615C52.0245 108.591 51.9498 108.579 51.8731 108.579C51.7156 108.579 51.5965 108.623 51.5157 108.712C51.435 108.797 51.3946 108.926 51.3946 109.1V109.463L51.4188 109.802V112.504H50.6617ZM50.1287 109.899V109.294H52.285V109.899H50.1287ZM54.0121 112.546C53.6567 112.546 53.3821 112.455 53.1883 112.274C52.9945 112.088 52.8976 111.815 52.8976 111.456V108.555H53.6547V111.438C53.6547 111.591 53.6931 111.71 53.7698 111.795C53.8506 111.88 53.9616 111.922 54.1029 111.922C54.2725 111.922 54.4139 111.878 54.5269 111.789L54.7389 112.328C54.6501 112.401 54.5411 112.455 54.4118 112.492C54.2826 112.528 54.1494 112.546 54.0121 112.546ZM52.3646 109.899V109.294H54.5209V109.899H52.3646Z" fill="black"/>
    <rect x="1.23713" y="0.513494" width="153.819" height="68.1089" rx="1.91317" stroke="black" stroke-width="0.765269"/>
    <rect x="1.23713" y="77.0408" width="139.279" height="68.1089" rx="1.91317" stroke="black" stroke-width="0.765269"/>
    <rect x="167.977" y="0.424691" width="171.598" height="104.604" rx="2.00198" stroke="black" stroke-width="0.587664"/>
    <path d="M220.842 29.6357V26.3798H221.447V29.1241H223.149V29.6357H220.842ZM223.571 29.6357V27.1519H224.152V29.6357H223.571ZM223.864 26.7426C223.755 26.7426 223.665 26.7085 223.594 26.6403C223.526 26.5721 223.492 26.4899 223.492 26.3938C223.492 26.2946 223.526 26.2124 223.594 26.1473C223.665 26.0791 223.755 26.0449 223.864 26.0449C223.972 26.0449 224.061 26.0775 224.129 26.1426C224.2 26.2046 224.236 26.2837 224.236 26.3798C224.236 26.4822 224.202 26.569 224.134 26.6403C224.065 26.7085 223.975 26.7426 223.864 26.7426ZM225.576 29.6357L224.511 27.1519H225.115L226.032 29.3427H225.734L226.683 27.1519H227.241L226.176 29.6357H225.576ZM227.604 29.6357V27.1519H228.186V29.6357H227.604ZM227.897 26.7426C227.789 26.7426 227.699 26.7085 227.628 26.6403C227.559 26.5721 227.525 26.4899 227.525 26.3938C227.525 26.2946 227.559 26.2124 227.628 26.1473C227.699 26.0791 227.789 26.0449 227.897 26.0449C228.006 26.0449 228.094 26.0775 228.163 26.1426C228.234 26.2046 228.269 26.2837 228.269 26.3798C228.269 26.4822 228.235 26.569 228.167 26.6403C228.099 26.7085 228.009 26.7426 227.897 26.7426ZM230.358 27.124C230.557 27.124 230.733 27.1628 230.888 27.2403C231.047 27.3178 231.171 27.4372 231.261 27.5985C231.35 27.7566 231.395 27.9613 231.395 28.2124V29.6357H230.814V28.2869C230.814 28.0667 230.761 27.9024 230.656 27.7938C230.554 27.6853 230.409 27.631 230.223 27.631C230.087 27.631 229.966 27.6589 229.861 27.7148C229.755 27.7706 229.673 27.8543 229.614 27.9659C229.558 28.0745 229.53 28.2124 229.53 28.3799V29.6357H228.949V27.1519H229.502V27.8217L229.405 27.6171C229.492 27.4589 229.617 27.338 229.781 27.2543C229.949 27.1675 230.141 27.124 230.358 27.124ZM233.263 30.5707C233.034 30.5707 232.809 30.5396 232.589 30.4776C232.372 30.4187 232.193 30.3319 232.054 30.2172L232.314 29.7799C232.423 29.8699 232.559 29.9412 232.724 29.9939C232.891 30.0497 233.06 30.0776 233.231 30.0776C233.503 30.0776 233.703 30.014 233.831 29.8869C233.958 29.7629 234.021 29.5753 234.021 29.3241V28.8822L234.068 28.3194L234.049 27.7566V27.1519H234.603V29.259C234.603 29.7086 234.488 30.0389 234.259 30.2497C234.029 30.4637 233.697 30.5707 233.263 30.5707ZM233.189 29.5241C232.953 29.5241 232.739 29.4745 232.547 29.3753C232.358 29.2729 232.207 29.1319 232.096 28.952C231.987 28.7722 231.933 28.5613 231.933 28.3194C231.933 28.0807 231.987 27.8714 232.096 27.6915C232.207 27.5116 232.358 27.3721 232.547 27.2729C232.739 27.1737 232.953 27.124 233.189 27.124C233.4 27.124 233.589 27.1659 233.756 27.2496C233.924 27.3334 234.057 27.4636 234.156 27.6403C234.259 27.8171 234.31 28.0434 234.31 28.3194C234.31 28.5954 234.259 28.8233 234.156 29.0032C234.057 29.1799 233.924 29.3117 233.756 29.3985C233.589 29.4822 233.4 29.5241 233.189 29.5241ZM233.277 29.0311C233.423 29.0311 233.553 29.0016 233.668 28.9427C233.783 28.8807 233.871 28.797 233.933 28.6915C233.998 28.583 234.031 28.459 234.031 28.3194C234.031 28.1799 233.998 28.0574 233.933 27.952C233.871 27.8434 233.783 27.7613 233.668 27.7055C233.553 27.6465 233.423 27.6171 233.277 27.6171C233.131 27.6171 233 27.6465 232.882 27.7055C232.767 27.7613 232.677 27.8434 232.612 27.952C232.55 28.0574 232.519 28.1799 232.519 28.3194C232.519 28.459 232.55 28.583 232.612 28.6915C232.677 28.797 232.767 28.8807 232.882 28.9427C233 29.0016 233.131 29.0311 233.277 29.0311ZM236.708 29.6357V26.3798H238.048C238.336 26.3798 238.583 26.4263 238.788 26.5194C238.995 26.6124 239.155 26.7457 239.267 26.9194C239.378 27.093 239.434 27.2992 239.434 27.538C239.434 27.7768 239.378 27.983 239.267 28.1566C239.155 28.3272 238.995 28.459 238.788 28.552C238.583 28.6419 238.336 28.6869 238.048 28.6869H237.043L237.313 28.4125V29.6357H236.708ZM238.839 29.6357L238.015 28.4543H238.662L239.49 29.6357H238.839ZM237.313 28.4776L237.043 28.1892H238.02C238.287 28.1892 238.487 28.1318 238.62 28.0171C238.757 27.9024 238.825 27.7427 238.825 27.538C238.825 27.3302 238.757 27.1706 238.62 27.0589C238.487 26.9473 238.287 26.8915 238.02 26.8915H237.043L237.313 26.5938V28.4776ZM241.171 29.6683C240.917 29.6683 240.69 29.614 240.492 29.5055C240.294 29.3939 240.137 29.2419 240.022 29.0497C239.907 28.8574 239.85 28.6388 239.85 28.3938C239.85 28.1458 239.907 27.9272 240.022 27.738C240.137 27.5458 240.294 27.3954 240.492 27.2868C240.69 27.1783 240.917 27.124 241.171 27.124C241.428 27.124 241.656 27.1783 241.855 27.2868C242.056 27.3954 242.213 27.5442 242.325 27.7334C242.439 27.9225 242.497 28.1427 242.497 28.3938C242.497 28.6388 242.439 28.8574 242.325 29.0497C242.213 29.2419 242.056 29.3939 241.855 29.5055C241.656 29.614 241.428 29.6683 241.171 29.6683ZM241.171 29.1706C241.314 29.1706 241.441 29.1396 241.552 29.0776C241.664 29.0156 241.751 28.9256 241.813 28.8078C241.878 28.69 241.911 28.552 241.911 28.3938C241.911 28.2326 241.878 28.0946 241.813 27.9799C241.751 27.862 241.664 27.7721 241.552 27.7101C241.441 27.6481 241.315 27.6171 241.176 27.6171C241.033 27.6171 240.906 27.6481 240.794 27.7101C240.686 27.7721 240.599 27.862 240.534 27.9799C240.469 28.0946 240.436 28.2326 240.436 28.3938C240.436 28.552 240.469 28.69 240.534 28.8078C240.599 28.9256 240.686 29.0156 240.794 29.0776C240.906 29.1396 241.032 29.1706 241.171 29.1706ZM244.169 29.6683C243.915 29.6683 243.688 29.614 243.49 29.5055C243.291 29.3939 243.135 29.2419 243.02 29.0497C242.905 28.8574 242.848 28.6388 242.848 28.3938C242.848 28.1458 242.905 27.9272 243.02 27.738C243.135 27.5458 243.291 27.3954 243.49 27.2868C243.688 27.1783 243.915 27.124 244.169 27.124C244.426 27.124 244.654 27.1783 244.853 27.2868C245.054 27.3954 245.211 27.5442 245.322 27.7334C245.437 27.9225 245.495 28.1427 245.495 28.3938C245.495 28.6388 245.437 28.8574 245.322 29.0497C245.211 29.2419 245.054 29.3939 244.853 29.5055C244.654 29.614 244.426 29.6683 244.169 29.6683ZM244.169 29.1706C244.312 29.1706 244.439 29.1396 244.55 29.0776C244.662 29.0156 244.749 28.9256 244.811 28.8078C244.876 28.69 244.909 28.552 244.909 28.3938C244.909 28.2326 244.876 28.0946 244.811 27.9799C244.749 27.862 244.662 27.7721 244.55 27.7101C244.439 27.6481 244.313 27.6171 244.174 27.6171C244.031 27.6171 243.904 27.6481 243.792 27.7101C243.684 27.7721 243.597 27.862 243.532 27.9799C243.467 28.0946 243.434 28.2326 243.434 28.3938C243.434 28.552 243.467 28.69 243.532 28.8078C243.597 28.9256 243.684 29.0156 243.792 29.0776C243.904 29.1396 244.029 29.1706 244.169 29.1706ZM249.186 27.124C249.384 27.124 249.559 27.1628 249.711 27.2403C249.866 27.3178 249.987 27.4372 250.074 27.5985C250.161 27.7566 250.204 27.9613 250.204 28.2124V29.6357H249.623V28.2869C249.623 28.0667 249.575 27.9024 249.479 27.7938C249.382 27.6853 249.244 27.631 249.065 27.631C248.937 27.631 248.824 27.6589 248.725 27.7148C248.629 27.7706 248.553 27.8527 248.497 27.9613C248.444 28.0698 248.418 28.2078 248.418 28.3752V29.6357H247.837V28.2869C247.837 28.0667 247.789 27.9024 247.692 27.7938C247.596 27.6853 247.458 27.631 247.278 27.631C247.151 27.631 247.038 27.6589 246.939 27.7148C246.843 27.7706 246.767 27.8527 246.711 27.9613C246.658 28.0698 246.632 28.2078 246.632 28.3752V29.6357H246.051V27.1519H246.604V27.8124L246.506 27.6171C246.59 27.4558 246.711 27.3334 246.869 27.2496C247.03 27.1659 247.213 27.124 247.418 27.124C247.651 27.124 247.852 27.1814 248.023 27.2961C248.196 27.4109 248.311 27.5845 248.367 27.8171L248.139 27.738C248.22 27.552 248.353 27.4031 248.539 27.2915C248.725 27.1799 248.941 27.124 249.186 27.124Z" fill="black"/>
    <path d="M190.303 83.9513L190.27 83.235L191.977 81.4628H192.656L191.238 82.9699L190.903 83.3373L190.303 83.9513ZM189.763 84.7188V81.4628H190.368V84.7188H189.763ZM192.033 84.7188L190.786 83.235L191.186 82.7931L192.74 84.7188H192.033ZM193.096 84.7188V82.235H193.677V84.7188H193.096ZM193.389 81.8256C193.28 81.8256 193.19 81.7915 193.119 81.7233C193.051 81.6551 193.017 81.5729 193.017 81.4768C193.017 81.3776 193.051 81.2954 193.119 81.2303C193.19 81.1621 193.28 81.1279 193.389 81.1279C193.497 81.1279 193.586 81.1605 193.654 81.2256C193.725 81.2876 193.761 81.3667 193.761 81.4628C193.761 81.5652 193.727 81.652 193.659 81.7233C193.59 81.7915 193.501 81.8256 193.389 81.8256ZM195.375 84.7513C195.102 84.7513 194.892 84.6815 194.743 84.542C194.594 84.3994 194.519 84.1901 194.519 83.9141V81.6861H195.101V83.9001C195.101 84.018 195.13 84.1094 195.189 84.1745C195.251 84.2397 195.337 84.2722 195.445 84.2722C195.575 84.2722 195.684 84.2381 195.771 84.1699L195.933 84.5839C195.865 84.6397 195.782 84.6815 195.682 84.7094C195.583 84.7374 195.481 84.7513 195.375 84.7513ZM194.11 82.7187V82.2536H195.766V82.7187H194.11ZM197.47 84.7513C197.209 84.7513 196.977 84.697 196.772 84.5885C196.57 84.4769 196.412 84.3249 196.297 84.1327C196.183 83.9404 196.125 83.7218 196.125 83.4769C196.125 83.2288 196.183 83.0102 196.297 82.821C196.412 82.6288 196.57 82.4784 196.772 82.3698C196.977 82.2613 197.209 82.207 197.47 82.207C197.711 82.207 197.924 82.2567 198.107 82.3559C198.293 82.452 198.434 82.5947 198.53 82.7838L198.084 83.0443C198.009 82.9265 197.918 82.8396 197.809 82.7838C197.704 82.728 197.589 82.7001 197.465 82.7001C197.322 82.7001 197.194 82.7311 197.079 82.7931C196.964 82.8551 196.874 82.9451 196.809 83.0629C196.744 83.1776 196.711 83.3156 196.711 83.4769C196.711 83.6381 196.744 83.7776 196.809 83.8955C196.874 84.0102 196.964 84.0986 197.079 84.1606C197.194 84.2226 197.322 84.2536 197.465 84.2536C197.589 84.2536 197.704 84.2257 197.809 84.1699C197.918 84.1141 198.009 84.0273 198.084 83.9094L198.53 84.1699C198.434 84.3559 198.293 84.5001 198.107 84.6025C197.924 84.7017 197.711 84.7513 197.47 84.7513ZM200.419 82.207C200.618 82.207 200.794 82.2458 200.95 82.3233C201.108 82.4009 201.232 82.5202 201.322 82.6815C201.412 82.8396 201.457 83.0443 201.457 83.2955V84.7188H200.875V83.3699C200.875 83.1497 200.822 82.9854 200.717 82.8768C200.615 82.7683 200.47 82.714 200.284 82.714C200.148 82.714 200.027 82.7419 199.922 82.7978C199.816 82.8536 199.734 82.9373 199.675 83.0489C199.619 83.1575 199.591 83.2955 199.591 83.4629V84.7188H199.01V81.2675H199.591V82.9047L199.466 82.7001C199.553 82.5419 199.678 82.421 199.843 82.3373C200.01 82.2505 200.202 82.207 200.419 82.207ZM203.366 84.7513C203.09 84.7513 202.848 84.697 202.64 84.5885C202.436 84.4769 202.276 84.3249 202.161 84.1327C202.05 83.9404 201.994 83.7218 201.994 83.4769C201.994 83.2288 202.048 83.0102 202.157 82.821C202.268 82.6288 202.42 82.4784 202.613 82.3698C202.808 82.2613 203.03 82.207 203.278 82.207C203.52 82.207 203.735 82.2598 203.924 82.3652C204.113 82.4706 204.262 82.6195 204.371 82.8117C204.479 83.004 204.534 83.2303 204.534 83.4908C204.534 83.5156 204.532 83.5435 204.529 83.5745C204.529 83.6055 204.527 83.635 204.524 83.6629H202.454V83.2768H204.217L203.989 83.3978C203.992 83.2551 203.963 83.1296 203.901 83.021C203.839 82.9125 203.754 82.8272 203.645 82.7652C203.54 82.7032 203.417 82.6722 203.278 82.6722C203.135 82.6722 203.009 82.7032 202.901 82.7652C202.796 82.8272 202.712 82.914 202.65 83.0257C202.591 83.1342 202.561 83.2629 202.561 83.4117V83.5048C202.561 83.6536 202.596 83.7854 202.664 83.9001C202.732 84.0149 202.828 84.1032 202.952 84.1652C203.076 84.2273 203.219 84.2583 203.38 84.2583C203.52 84.2583 203.645 84.2366 203.757 84.1932C203.868 84.1497 203.968 84.0815 204.054 83.9885L204.366 84.3466C204.254 84.4769 204.113 84.5777 203.943 84.649C203.775 84.7172 203.583 84.7513 203.366 84.7513ZM206.501 82.207C206.7 82.207 206.877 82.2458 207.032 82.3233C207.19 82.4009 207.314 82.5202 207.404 82.6815C207.494 82.8396 207.539 83.0443 207.539 83.2955V84.7188H206.957V83.3699C206.957 83.1497 206.904 82.9854 206.799 82.8768C206.697 82.7683 206.553 82.714 206.366 82.714C206.23 82.714 206.109 82.7419 206.004 82.7978C205.898 82.8536 205.816 82.9373 205.757 83.0489C205.701 83.1575 205.673 83.2955 205.673 83.4629V84.7188H205.092V82.235H205.646V82.9047L205.548 82.7001C205.635 82.5419 205.76 82.421 205.925 82.3373C206.092 82.2505 206.284 82.207 206.501 82.207Z" fill="black"/>
    <path d="M266.277 84.7188L265.198 81.4628H265.826L266.789 84.4071H266.477L267.478 81.4628H268.036L269.008 84.4071H268.705L269.692 81.4628H270.268L269.189 84.7188H268.547L267.659 82.0629H267.826L266.924 84.7188H266.277ZM272.236 84.7653C271.988 84.7653 271.757 84.725 271.543 84.6443C271.332 84.5606 271.148 84.4443 270.99 84.2955C270.835 84.1435 270.714 83.9652 270.627 83.7606C270.54 83.5559 270.497 83.3327 270.497 83.0908C270.497 82.8489 270.54 82.6257 270.627 82.421C270.714 82.2164 270.836 82.0396 270.994 81.8908C271.152 81.7388 271.337 81.6225 271.548 81.5419C271.759 81.4582 271.99 81.4163 272.241 81.4163C272.507 81.4163 272.751 81.4628 272.971 81.5559C273.191 81.6458 273.377 81.7807 273.529 81.9605L273.138 82.328C273.021 82.2008 272.889 82.1063 272.743 82.0443C272.597 81.9791 272.439 81.9466 272.269 81.9466C272.098 81.9466 271.942 81.9745 271.799 82.0303C271.659 82.0861 271.537 82.1652 271.431 82.2675C271.329 82.3698 271.248 82.4908 271.19 82.6303C271.134 82.7699 271.106 82.9233 271.106 83.0908C271.106 83.2582 271.134 83.4117 271.19 83.5513C271.248 83.6908 271.329 83.8117 271.431 83.9141C271.537 84.0164 271.659 84.0955 271.799 84.1513C271.942 84.2071 272.098 84.235 272.269 84.235C272.439 84.235 272.597 84.204 272.743 84.142C272.889 84.0769 273.021 83.9792 273.138 83.849L273.529 84.2211C273.377 84.3978 273.191 84.5327 272.971 84.6257C272.751 84.7188 272.506 84.7653 272.236 84.7653Z" fill="black"/>
    <path d="M306.197 56.2899C306.36 56.2899 306.491 56.1584 306.491 55.9961C306.491 55.8338 306.36 55.7023 306.197 55.7023V56.2899ZM167.684 56.2899H306.197V55.7023H167.684V56.2899Z" fill="black"/>
    <path d="M305.903 104.973L305.903 105.266L306.491 105.266L306.491 104.973L305.903 104.973ZM306.491 55.9954C306.491 55.8332 306.36 55.7016 306.197 55.7016C306.035 55.7016 305.903 55.8332 305.903 55.9954L306.491 55.9954ZM306.491 104.973L306.491 55.9954L305.903 55.9954L305.903 104.973L306.491 104.973Z" fill="black"/>
    <line x1="234.971" y1="105.323" x2="234.971" y2="55.9595" stroke="black" stroke-width="0.587664"/>
</svg>
