<svg width="340" height="146" viewBox="0 0 340 146" fill="none" xmlns="http://www.w3.org/2000/svg">
    <path d="M43.572 36.9766V33.0395L43.9172 33.3969H42.6755V32.7366H44.3594V36.9766H43.572ZM48.4916 37.0371C48.1605 37.0371 47.8435 36.9907 47.5407 36.8978C47.2378 36.8009 46.9976 36.6777 46.8199 36.5283L47.0925 35.9166C47.2621 36.0498 47.472 36.1609 47.7224 36.2497C47.9728 36.3386 48.2292 36.383 48.4916 36.383C48.7137 36.383 48.8934 36.3587 49.0307 36.3103C49.168 36.2618 49.269 36.1972 49.3336 36.1165C49.3982 36.0317 49.4305 35.9368 49.4305 35.8318C49.4305 35.7026 49.384 35.5996 49.2912 35.5229C49.1983 35.4421 49.0772 35.3795 48.9278 35.3351C48.7824 35.2867 48.6188 35.2422 48.4371 35.2019C48.2595 35.1615 48.0798 35.115 47.8981 35.0625C47.7204 35.006 47.5568 34.9353 47.4074 34.8505C47.2621 34.7617 47.1429 34.6446 47.0501 34.4992C46.9572 34.3539 46.9108 34.1681 46.9108 33.942C46.9108 33.7118 46.9713 33.5019 47.0925 33.3121C47.2177 33.1182 47.4054 32.9648 47.6558 32.8517C47.9102 32.7346 48.2312 32.6761 48.6188 32.6761C48.8732 32.6761 49.1256 32.7084 49.376 32.773C49.6263 32.8376 49.8444 32.9305 50.0301 33.0516L49.7818 33.6634C49.592 33.5503 49.3962 33.4675 49.1943 33.415C48.9924 33.3585 48.7985 33.3302 48.6128 33.3302C48.3947 33.3302 48.2171 33.3565 48.0798 33.409C47.9465 33.4615 47.8476 33.5301 47.783 33.6149C47.7224 33.6997 47.6921 33.7966 47.6921 33.9057C47.6921 34.0349 47.7365 34.1399 47.8254 34.2206C47.9182 34.2973 48.0374 34.3579 48.1827 34.4023C48.3321 34.4467 48.4977 34.4912 48.6794 34.5356C48.8611 34.576 49.0408 34.6224 49.2185 34.6749C49.4002 34.7274 49.5637 34.796 49.7091 34.8808C49.8585 34.9656 49.9776 35.0807 50.0665 35.2261C50.1593 35.3715 50.2058 35.5552 50.2058 35.7773C50.2058 36.0034 50.1432 36.2134 50.018 36.4072C49.8969 36.597 49.7091 36.7504 49.4547 36.8675C49.2003 36.9806 48.8793 37.0371 48.4916 37.0371ZM51.7875 36.9766V33.4029H50.3823V32.7366H53.9802V33.4029H52.5749V36.9766H51.7875ZM56.2451 36.9766V32.7366H57.0325V36.3103H59.2493V36.9766H56.2451ZM61.7808 37.0371C61.4497 37.0371 61.1448 36.9826 60.8662 36.8736C60.5876 36.7646 60.3453 36.6131 60.1393 36.4193C59.9334 36.2215 59.7739 35.9913 59.6608 35.7288C59.5478 35.4623 59.4912 35.1716 59.4912 34.8566C59.4912 34.5416 59.5478 34.2529 59.6608 33.9905C59.7739 33.7239 59.9334 33.4938 60.1393 33.2999C60.3453 33.1021 60.5876 32.9486 60.8662 32.8396C61.1448 32.7306 61.4477 32.6761 61.7747 32.6761C62.1059 32.6761 62.4087 32.7306 62.6833 32.8396C62.9619 32.9486 63.2042 33.1021 63.4101 33.2999C63.6161 33.4938 63.7756 33.7239 63.8886 33.9905C64.0017 34.2529 64.0582 34.5416 64.0582 34.8566C64.0582 35.1716 64.0017 35.4623 63.8886 35.7288C63.7756 35.9953 63.6161 36.2255 63.4101 36.4193C63.2042 36.6131 62.9619 36.7646 62.6833 36.8736C62.4087 36.9826 62.1079 37.0371 61.7808 37.0371ZM61.7747 36.3466C61.9888 36.3466 62.1866 36.3103 62.3683 36.2376C62.55 36.1649 62.7075 36.062 62.8408 35.9287C62.974 35.7914 63.077 35.6339 63.1497 35.4562C63.2264 35.2745 63.2648 35.0747 63.2648 34.8566C63.2648 34.6386 63.2264 34.4407 63.1497 34.263C63.077 34.0813 62.974 33.9238 62.8408 33.7906C62.7075 33.6533 62.55 33.5483 62.3683 33.4756C62.1866 33.4029 61.9888 33.3666 61.7747 33.3666C61.5607 33.3666 61.3629 33.4029 61.1812 33.4756C61.0035 33.5483 60.846 33.6533 60.7087 33.7906C60.5755 33.9238 60.4705 34.0813 60.3937 34.263C60.3211 34.4407 60.2847 34.6386 60.2847 34.8566C60.2847 35.0706 60.3211 35.2685 60.3937 35.4502C60.4705 35.6319 60.5755 35.7914 60.7087 35.9287C60.842 36.062 60.9994 36.1649 61.1812 36.2376C61.3629 36.3103 61.5607 36.3466 61.7747 36.3466ZM65.6137 34.687H67.7276V35.3533H65.6137V34.687ZM65.6803 36.9766H64.8929V32.7366H67.988V33.3969H65.6803V36.9766ZM69.6392 36.9766V33.4029H68.2339V32.7366H71.8318V33.4029H70.4266V36.9766H69.6392Z" fill="black"/>
    <path d="M27.4242 112.504V111.977L29.108 110.378C29.2493 110.245 29.3543 110.128 29.423 110.027C29.4916 109.926 29.536 109.833 29.5562 109.748C29.5805 109.659 29.5926 109.576 29.5926 109.5C29.5926 109.306 29.5259 109.156 29.3927 109.051C29.2594 108.942 29.0636 108.888 28.8052 108.888C28.5992 108.888 28.4115 108.924 28.2419 108.997C28.0763 109.07 27.9329 109.181 27.8118 109.33L27.2606 108.906C27.4262 108.684 27.6483 108.512 27.9269 108.391C28.2095 108.266 28.5245 108.203 28.8718 108.203C29.1787 108.203 29.4452 108.254 29.6713 108.355C29.9015 108.452 30.0771 108.591 30.1983 108.773C30.3235 108.954 30.386 109.171 30.386 109.421C30.386 109.558 30.3679 109.695 30.3315 109.833C30.2952 109.966 30.2265 110.107 30.1256 110.257C30.0246 110.406 29.8773 110.574 29.6834 110.759L28.2358 112.134L28.0723 111.838H30.5496V112.504H27.4242ZM34.2952 112.564C33.9641 112.564 33.6471 112.518 33.3443 112.425C33.0414 112.328 32.8012 112.205 32.6235 112.056L32.8961 111.444C33.0657 111.577 33.2756 111.688 33.526 111.777C33.7763 111.866 34.0328 111.91 34.2952 111.91C34.5173 111.91 34.697 111.886 34.8343 111.838C34.9716 111.789 35.0726 111.725 35.1372 111.644C35.2018 111.559 35.2341 111.464 35.2341 111.359C35.2341 111.23 35.1876 111.127 35.0948 111.05C35.0019 110.969 34.8807 110.907 34.7313 110.862C34.586 110.814 34.4224 110.77 34.2407 110.729C34.063 110.689 33.8834 110.642 33.7016 110.59C33.524 110.533 33.3604 110.463 33.211 110.378C33.0657 110.289 32.9465 110.172 32.8537 110.027C32.7608 109.881 32.7143 109.695 32.7143 109.469C32.7143 109.239 32.7749 109.029 32.8961 108.839C33.0212 108.646 33.209 108.492 33.4594 108.379C33.7138 108.262 34.0348 108.203 34.4224 108.203C34.6768 108.203 34.9292 108.236 35.1796 108.3C35.4299 108.365 35.648 108.458 35.8337 108.579L35.5854 109.191C35.3956 109.078 35.1997 108.995 34.9978 108.942C34.7959 108.886 34.6021 108.858 34.4164 108.858C34.1983 108.858 34.0206 108.884 33.8834 108.936C33.7501 108.989 33.6512 109.057 33.5866 109.142C33.526 109.227 33.4957 109.324 33.4957 109.433C33.4957 109.562 33.5401 109.667 33.629 109.748C33.7218 109.825 33.841 109.885 33.9863 109.93C34.1357 109.974 34.3013 110.019 34.483 110.063C34.6647 110.103 34.8444 110.15 35.0221 110.202C35.2038 110.255 35.3673 110.323 35.5127 110.408C35.6621 110.493 35.7812 110.608 35.8701 110.753C35.9629 110.899 36.0094 111.083 36.0094 111.305C36.0094 111.531 35.9468 111.741 35.8216 111.935C35.7005 112.124 35.5127 112.278 35.2583 112.395C35.0039 112.508 34.6829 112.564 34.2952 112.564ZM37.5911 112.504V108.93H36.1859V108.264H39.7837V108.93H38.3785V112.504H37.5911ZM42.0486 112.504V108.264H42.8361V111.838H45.0529V112.504H42.0486ZM47.5844 112.564C47.2533 112.564 46.9484 112.51 46.6698 112.401C46.3912 112.292 46.1489 112.14 45.9429 111.947C45.737 111.749 45.5775 111.519 45.4644 111.256C45.3514 110.99 45.2948 110.699 45.2948 110.384C45.2948 110.069 45.3514 109.78 45.4644 109.518C45.5775 109.251 45.737 109.021 45.9429 108.827C46.1489 108.629 46.3912 108.476 46.6698 108.367C46.9484 108.258 47.2513 108.203 47.5783 108.203C47.9094 108.203 48.2123 108.258 48.4869 108.367C48.7655 108.476 49.0078 108.629 49.2137 108.827C49.4197 109.021 49.5792 109.251 49.6922 109.518C49.8053 109.78 49.8618 110.069 49.8618 110.384C49.8618 110.699 49.8053 110.99 49.6922 111.256C49.5792 111.523 49.4197 111.753 49.2137 111.947C49.0078 112.14 48.7655 112.292 48.4869 112.401C48.2123 112.51 47.9115 112.564 47.5844 112.564ZM47.5783 111.874C47.7923 111.874 47.9902 111.838 48.1719 111.765C48.3536 111.692 48.5111 111.589 48.6444 111.456C48.7776 111.319 48.8806 111.161 48.9533 110.984C49.03 110.802 49.0684 110.602 49.0684 110.384C49.0684 110.166 49.03 109.968 48.9533 109.79C48.8806 109.609 48.7776 109.451 48.6444 109.318C48.5111 109.181 48.3536 109.076 48.1719 109.003C47.9902 108.93 47.7923 108.894 47.5783 108.894C47.3643 108.894 47.1665 108.93 46.9847 109.003C46.8071 109.076 46.6496 109.181 46.5123 109.318C46.379 109.451 46.2741 109.609 46.1973 109.79C46.1246 109.968 46.0883 110.166 46.0883 110.384C46.0883 110.598 46.1246 110.796 46.1973 110.978C46.2741 111.159 46.379 111.319 46.5123 111.456C46.6455 111.589 46.803 111.692 46.9847 111.765C47.1665 111.838 47.3643 111.874 47.5783 111.874ZM51.4173 110.214H53.5312V110.881H51.4173V110.214ZM51.4839 112.504H50.6965V108.264H53.7916V108.924H51.4839V112.504ZM55.4428 112.504V108.93H54.0375V108.264H57.6354V108.93H56.2302V112.504H55.4428Z" fill="black"/>
    <rect x="1.23713" y="0.513494" width="153.819" height="68.1089" rx="1.91317" stroke="black" stroke-width="0.765269"/>
    <rect x="1.23713" y="77.0408" width="139.279" height="68.1089" rx="1.91317" stroke="black" stroke-width="0.765269"/>
    <rect x="167.977" y="0.424691" width="171.598" height="104.604" rx="2.00198" stroke="black" stroke-width="0.587664"/>
    <path d="M218.737 29.6357V26.3798H219.341V29.1241H221.044V29.6357H218.737ZM221.521 29.6357V26.3798H222.126V29.6357H221.521ZM223.946 29.6357L222.523 26.3798H223.179L224.449 29.3241H224.072L225.356 26.3798H225.96L224.542 29.6357H223.946ZM226.304 29.6357V26.3798H226.909V29.6357H226.304ZM227.789 29.6357V26.3798H228.287L230.329 28.8869H230.082V26.3798H230.682V29.6357H230.185L228.143 27.1287H228.389V29.6357H227.789ZM233.076 29.6823C232.822 29.6823 232.587 29.6419 232.373 29.5613C232.163 29.4776 231.978 29.3613 231.82 29.2125C231.662 29.0605 231.539 28.8822 231.452 28.6776C231.366 28.4729 231.322 28.2497 231.322 28.0078C231.322 27.7659 231.366 27.5427 231.452 27.338C231.539 27.1333 231.662 26.9566 231.82 26.8078C231.981 26.6558 232.169 26.5395 232.383 26.4589C232.597 26.3752 232.831 26.3333 233.085 26.3333C233.361 26.3333 233.609 26.3783 233.829 26.4682C234.053 26.5581 234.24 26.6899 234.392 26.8636L234.011 27.2357C233.884 27.1085 233.746 27.0155 233.597 26.9566C233.451 26.8946 233.29 26.8636 233.113 26.8636C232.942 26.8636 232.784 26.8915 232.639 26.9473C232.493 27.0031 232.367 27.0822 232.262 27.1845C232.156 27.2868 232.074 27.4078 232.015 27.5473C231.959 27.6868 231.932 27.8403 231.932 28.0078C231.932 28.1721 231.959 28.3241 232.015 28.4636C232.074 28.6032 232.156 28.7256 232.262 28.8311C232.367 28.9334 232.491 29.0125 232.634 29.0683C232.777 29.1241 232.935 29.152 233.108 29.152C233.27 29.152 233.425 29.1272 233.573 29.0776C233.725 29.0249 233.87 28.938 234.006 28.8171L234.35 29.2683C234.18 29.4047 233.981 29.5086 233.755 29.5799C233.532 29.6481 233.305 29.6823 233.076 29.6823ZM233.778 29.1892V27.9706H234.35V29.2683L233.778 29.1892ZM236.433 29.6357V26.3798H237.773C238.061 26.3798 238.308 26.4263 238.512 26.5194C238.72 26.6124 238.88 26.7457 238.991 26.9194C239.103 27.093 239.159 27.2992 239.159 27.538C239.159 27.7768 239.103 27.983 238.991 28.1566C238.88 28.3272 238.72 28.459 238.512 28.552C238.308 28.6419 238.061 28.6869 237.773 28.6869H236.768L237.038 28.4125V29.6357H236.433ZM238.564 29.6357L237.74 28.4543H238.387L239.215 29.6357H238.564ZM237.038 28.4776L236.768 28.1892H237.745C238.012 28.1892 238.212 28.1318 238.345 28.0171C238.481 27.9024 238.55 27.7427 238.55 27.538C238.55 27.3302 238.481 27.1706 238.345 27.0589C238.212 26.9473 238.012 26.8915 237.745 26.8915H236.768L237.038 26.5938V28.4776ZM241.361 29.6823C241.107 29.6823 240.873 29.6404 240.659 29.5567C240.445 29.4729 240.259 29.3567 240.101 29.2078C239.942 29.0559 239.82 28.8791 239.733 28.6776C239.646 28.4729 239.603 28.2497 239.603 28.0078C239.603 27.7659 239.646 27.5442 239.733 27.3427C239.82 27.138 239.942 26.9612 240.101 26.8124C240.259 26.6605 240.445 26.5426 240.659 26.4589C240.873 26.3752 241.105 26.3333 241.356 26.3333C241.611 26.3333 241.843 26.3752 242.054 26.4589C242.268 26.5426 242.454 26.6605 242.612 26.8124C242.77 26.9612 242.893 27.138 242.98 27.3427C243.067 27.5442 243.11 27.7659 243.11 28.0078C243.11 28.2497 243.067 28.4729 242.98 28.6776C242.893 28.8822 242.77 29.059 242.612 29.2078C242.454 29.3567 242.268 29.4729 242.054 29.5567C241.843 29.6404 241.612 29.6823 241.361 29.6823ZM241.356 29.152C241.521 29.152 241.673 29.1241 241.812 29.0683C241.952 29.0125 242.073 28.9334 242.175 28.8311C242.277 28.7256 242.356 28.6047 242.412 28.4683C242.471 28.3287 242.501 28.1752 242.501 28.0078C242.501 27.8403 242.471 27.6884 242.412 27.552C242.356 27.4124 242.277 27.2915 242.175 27.1892C242.073 27.0837 241.952 27.0031 241.812 26.9473C241.673 26.8915 241.521 26.8636 241.356 26.8636C241.192 26.8636 241.04 26.8915 240.901 26.9473C240.764 27.0031 240.643 27.0837 240.538 27.1892C240.435 27.2915 240.355 27.4124 240.296 27.552C240.24 27.6884 240.212 27.8403 240.212 28.0078C240.212 28.1721 240.24 28.3241 240.296 28.4636C240.355 28.6032 240.435 28.7256 240.538 28.8311C240.64 28.9334 240.761 29.0125 240.901 29.0683C241.04 29.1241 241.192 29.152 241.356 29.152ZM245.276 29.6823C245.022 29.6823 244.788 29.6404 244.574 29.5567C244.36 29.4729 244.174 29.3567 244.016 29.2078C243.858 29.0559 243.735 28.8791 243.649 28.6776C243.562 28.4729 243.518 28.2497 243.518 28.0078C243.518 27.7659 243.562 27.5442 243.649 27.3427C243.735 27.138 243.858 26.9612 244.016 26.8124C244.174 26.6605 244.36 26.5426 244.574 26.4589C244.788 26.3752 245.021 26.3333 245.272 26.3333C245.526 26.3333 245.759 26.3752 245.97 26.4589C246.183 26.5426 246.37 26.6605 246.528 26.8124C246.686 26.9612 246.808 27.138 246.895 27.3427C246.982 27.5442 247.025 27.7659 247.025 28.0078C247.025 28.2497 246.982 28.4729 246.895 28.6776C246.808 28.8822 246.686 29.059 246.528 29.2078C246.37 29.3567 246.183 29.4729 245.97 29.5567C245.759 29.6404 245.528 29.6823 245.276 29.6823ZM245.272 29.152C245.436 29.152 245.588 29.1241 245.728 29.0683C245.867 29.0125 245.988 28.9334 246.09 28.8311C246.193 28.7256 246.272 28.6047 246.328 28.4683C246.387 28.3287 246.416 28.1752 246.416 28.0078C246.416 27.8403 246.387 27.6884 246.328 27.552C246.272 27.4124 246.193 27.2915 246.09 27.1892C245.988 27.0837 245.867 27.0031 245.728 26.9473C245.588 26.8915 245.436 26.8636 245.272 26.8636C245.107 26.8636 244.956 26.8915 244.816 26.9473C244.68 27.0031 244.559 27.0837 244.453 27.1892C244.351 27.2915 244.27 27.4124 244.211 27.552C244.156 27.6884 244.128 27.8403 244.128 28.0078C244.128 28.1721 244.156 28.3241 244.211 28.4636C244.27 28.6032 244.351 28.7256 244.453 28.8311C244.556 28.9334 244.676 29.0125 244.816 29.0683C244.956 29.1241 245.107 29.152 245.272 29.152ZM247.666 29.6357V26.3798H248.164L249.587 28.7566H249.327L250.727 26.3798H251.225L251.229 29.6357H250.657L250.652 27.2775H250.773L249.583 29.2636H249.313L248.104 27.2775H248.243V29.6357H247.666Z" fill="black"/>
    <path d="M188.261 83.9513L188.228 83.235L189.935 81.4628H190.614L189.196 82.9699L188.861 83.3373L188.261 83.9513ZM187.721 84.7188V81.4628H188.326V84.7188H187.721ZM189.991 84.7188L188.744 83.235L189.144 82.7931L190.698 84.7188H189.991ZM191.11 84.7188V81.4628H191.714V84.7188H191.11ZM193.255 84.7188V81.9745H192.176V81.4628H194.939V81.9745H193.86V84.7188H193.255ZM196.855 84.7653C196.606 84.7653 196.375 84.725 196.162 84.6443C195.951 84.5606 195.766 84.4443 195.608 84.2955C195.453 84.1435 195.332 83.9652 195.245 83.7606C195.158 83.5559 195.115 83.3327 195.115 83.0908C195.115 82.8489 195.158 82.6257 195.245 82.421C195.332 82.2164 195.455 82.0396 195.613 81.8908C195.771 81.7388 195.955 81.6225 196.166 81.5419C196.377 81.4582 196.608 81.4163 196.859 81.4163C197.126 81.4163 197.369 81.4628 197.589 81.5559C197.81 81.6458 197.996 81.7807 198.148 81.9605L197.757 82.328C197.639 82.2008 197.507 82.1063 197.362 82.0443C197.216 81.9791 197.058 81.9466 196.887 81.9466C196.717 81.9466 196.56 81.9745 196.417 82.0303C196.278 82.0861 196.155 82.1652 196.05 82.2675C195.948 82.3698 195.867 82.4908 195.808 82.6303C195.752 82.7699 195.724 82.9233 195.724 83.0908C195.724 83.2582 195.752 83.4117 195.808 83.5513C195.867 83.6908 195.948 83.8117 196.05 83.9141C196.155 84.0164 196.278 84.0955 196.417 84.1513C196.56 84.2071 196.717 84.235 196.887 84.235C197.058 84.235 197.216 84.204 197.362 84.142C197.507 84.0769 197.639 83.9792 197.757 83.849L198.148 84.2211C197.996 84.3978 197.81 84.5327 197.589 84.6257C197.369 84.7188 197.124 84.7653 196.855 84.7653ZM201.015 81.4628H201.62V84.7188H201.015V81.4628ZM199.332 84.7188H198.727V81.4628H199.332V84.7188ZM201.062 83.3234H199.28V82.8071H201.062V83.3234ZM203.051 82.8164H204.669V83.3141H203.051V82.8164ZM203.097 84.2118H204.934V84.7188H202.493V81.4628H204.869V81.9698H203.097V84.2118ZM205.609 84.7188V81.4628H206.106L208.148 83.9699H207.902V81.4628H208.502V84.7188H208.004L205.962 82.2117H206.209V84.7188H205.609Z" fill="black"/>
    <path d="M266.277 84.7188L265.198 81.4628H265.826L266.789 84.4071H266.477L267.478 81.4628H268.036L269.008 84.4071H268.705L269.692 81.4628H270.268L269.189 84.7188H268.547L267.659 82.0629H267.826L266.924 84.7188H266.277ZM272.236 84.7653C271.988 84.7653 271.757 84.725 271.543 84.6443C271.332 84.5606 271.148 84.4443 270.99 84.2955C270.835 84.1435 270.714 83.9652 270.627 83.7606C270.54 83.5559 270.497 83.3327 270.497 83.0908C270.497 82.8489 270.54 82.6257 270.627 82.421C270.714 82.2164 270.836 82.0396 270.994 81.8908C271.152 81.7388 271.337 81.6225 271.548 81.5419C271.759 81.4582 271.99 81.4163 272.241 81.4163C272.507 81.4163 272.751 81.4628 272.971 81.5559C273.191 81.6458 273.377 81.7807 273.529 81.9605L273.138 82.328C273.021 82.2008 272.889 82.1063 272.743 82.0443C272.597 81.9791 272.439 81.9466 272.269 81.9466C272.098 81.9466 271.942 81.9745 271.799 82.0303C271.659 82.0861 271.537 82.1652 271.431 82.2675C271.329 82.3698 271.248 82.4908 271.19 82.6303C271.134 82.7699 271.106 82.9233 271.106 83.0908C271.106 83.2582 271.134 83.4117 271.19 83.5513C271.248 83.6908 271.329 83.8117 271.431 83.9141C271.537 84.0164 271.659 84.0955 271.799 84.1513C271.942 84.2071 272.098 84.235 272.269 84.235C272.439 84.235 272.597 84.204 272.743 84.142C272.889 84.0769 273.021 83.9792 273.138 83.849L273.529 84.2211C273.377 84.3978 273.191 84.5327 272.971 84.6257C272.751 84.7188 272.506 84.7653 272.236 84.7653Z" fill="black"/>
    <path d="M306.197 56.2899C306.36 56.2899 306.491 56.1584 306.491 55.9961C306.491 55.8338 306.36 55.7023 306.197 55.7023V56.2899ZM167.684 56.2899H306.197V55.7023H167.684V56.2899Z" fill="black"/>
    <path d="M305.903 104.973L305.903 105.266L306.491 105.266L306.491 104.973L305.903 104.973ZM306.491 55.9954C306.491 55.8332 306.36 55.7016 306.197 55.7016C306.035 55.7016 305.903 55.8332 305.903 55.9954L306.491 55.9954ZM306.491 104.973L306.491 55.9954L305.903 55.9954L305.903 104.973L306.491 104.973Z" fill="black"/>
    <line x1="234.971" y1="105.323" x2="234.971" y2="55.9595" stroke="black" stroke-width="0.587664"/>
</svg>
