<svg width="203" height="158" viewBox="0 0 203 158" fill="none" xmlns="http://www.w3.org/2000/svg">
    <line x1="5.26953" y1="156.196" x2="201.09" y2="156.196" stroke="black" stroke-width="1.72529"/>
    <line x1="201.952" y1="0.919922" x2="201.952" y2="157.059" stroke="black" stroke-width="1.72529"/>
    <line x1="5.26953" y1="0.919582" x2="202.815" y2="0.919582" stroke="black" stroke-width="1.72529"/>
    <path d="M6.99497 1.78223C6.99497 1.3058 6.60875 0.919582 6.13232 0.919582C5.6559 0.919582 5.26968 1.3058 5.26968 1.78223L6.99497 1.78223ZM5.26968 1.78223L5.26967 156.196L6.99496 156.196L6.99497 1.78223L5.26968 1.78223Z" fill="black"/>
    <path d="M68.2427 0.919922L68.2427 74.2447" stroke="black" stroke-width="1.72529" stroke-linecap="round"/>
    <path d="M68.2427 74.2441L6.13228 74.2441" stroke="black" stroke-width="1.72529" stroke-linecap="round"/>
    <path d="M66.5174 116.514C66.5174 116.037 66.1312 115.651 65.6548 115.651C65.1784 115.651 64.7921 116.037 64.7921 116.514L66.5174 116.514ZM64.7921 116.514L64.7921 156.195L66.5174 156.195L66.5174 116.514L64.7921 116.514Z" fill="black"/>
    <line x1="64.792" y1="128.591" x2="136.391" y2="128.591" stroke="black" stroke-width="1.72529"/>
    <path d="M147.606 85.4593C148.082 85.4593 148.469 85.0731 148.469 84.5967C148.469 84.1203 148.082 83.734 147.606 83.734L147.606 85.4593ZM147.606 83.734L137.254 83.734L137.254 85.4593L147.606 85.4593L147.606 83.734Z" fill="black"/>
    <path d="M138.117 84.5967C138.117 84.1203 137.731 83.734 137.254 83.734C136.778 83.734 136.392 84.1203 136.392 84.5967L138.117 84.5967ZM136.392 84.5967L136.392 156.196L138.117 156.196L138.117 84.5967L136.392 84.5967Z" fill="black"/>
    <path d="M29.4381 41.3867L26.6362 32.9328H28.2666L30.7666 40.5776H29.9574L32.554 32.9328H34.0032L36.5273 40.5776H35.7423L38.3026 32.9328H39.8002L36.9983 41.3867H35.3317L33.025 34.4907H33.4598L31.1168 41.3867H29.4381ZM44.9096 41.5075C44.2655 41.5075 43.6657 41.4028 43.1101 41.1935C42.5627 40.9761 42.0836 40.6742 41.673 40.2877C41.2704 39.8932 40.9564 39.4302 40.731 38.8989C40.5055 38.3675 40.3928 37.7878 40.3928 37.1598C40.3928 36.5318 40.5055 35.9521 40.731 35.4207C40.9564 34.8893 41.2744 34.4304 41.6851 34.0439C42.0957 33.6494 42.5747 33.3474 43.1222 33.1381C43.6697 32.9207 44.2695 32.812 44.9217 32.812C45.6141 32.812 46.2461 32.9328 46.8178 33.1743C47.3894 33.4078 47.8725 33.7581 48.267 34.225L47.2526 35.1791C46.9466 34.849 46.6044 34.6035 46.226 34.4424C45.8476 34.2734 45.437 34.1888 44.9942 34.1888C44.5513 34.1888 44.1447 34.2613 43.7744 34.4062C43.4121 34.5511 43.094 34.7564 42.8203 35.0221C42.5546 35.2878 42.3453 35.6018 42.1923 35.9641C42.0474 36.3264 41.9749 36.725 41.9749 37.1598C41.9749 37.5945 42.0474 37.9931 42.1923 38.3554C42.3453 38.7177 42.5546 39.0317 42.8203 39.2974C43.094 39.5631 43.4121 39.7684 43.7744 39.9133C44.1447 40.0582 44.5513 40.1307 44.9942 40.1307C45.437 40.1307 45.8476 40.0502 46.226 39.8892C46.6044 39.7201 46.9466 39.4665 47.2526 39.1283L48.267 40.0945C47.8725 40.5534 47.3894 40.9036 46.8178 41.1452C46.2461 41.3867 45.6101 41.5075 44.9096 41.5075Z" fill="black"/>
    <path d="M85.289 145.825L85.2177 144.257L88.9547 140.377H90.4414L87.3357 143.676L86.6026 144.481L85.289 145.825ZM84.1078 147.505V140.377H85.4316V147.505H84.1078ZM89.0769 147.505L86.348 144.257L87.2237 143.289L90.6247 147.505H89.0769ZM91.4038 147.505V142.067H92.6766V147.505H91.4038ZM92.0453 141.171C91.8077 141.171 91.6108 141.097 91.4547 140.947C91.3054 140.798 91.2307 140.618 91.2307 140.408C91.2307 140.19 91.3054 140.01 91.4547 139.868C91.6108 139.719 91.8077 139.644 92.0453 139.644C92.2829 139.644 92.4764 139.715 92.6257 139.858C92.7818 139.994 92.8599 140.167 92.8599 140.377C92.8599 140.601 92.7852 140.791 92.6359 140.947C92.4865 141.097 92.2897 141.171 92.0453 141.171ZM96.8419 147.576C96.2717 147.576 95.7626 147.457 95.3145 147.22C94.8733 146.975 94.5271 146.643 94.2759 146.222C94.0248 145.801 93.8992 145.322 93.8992 144.786C93.8992 144.243 94.0248 143.764 94.2759 143.35C94.5271 142.93 94.8733 142.6 95.3145 142.363C95.7626 142.125 96.2717 142.006 96.8419 142.006C97.3714 142.006 97.8364 142.115 98.237 142.332C98.6443 142.543 98.9531 142.855 99.1636 143.269L98.186 143.839C98.0231 143.581 97.8229 143.391 97.5853 143.269C97.3545 143.147 97.1033 143.086 96.8318 143.086C96.5195 143.086 96.2378 143.154 95.9866 143.289C95.7354 143.425 95.5386 143.622 95.396 143.88C95.2535 144.131 95.1822 144.433 95.1822 144.786C95.1822 145.139 95.2535 145.445 95.396 145.703C95.5386 145.954 95.7354 146.147 95.9866 146.283C96.2378 146.419 96.5195 146.487 96.8318 146.487C97.1033 146.487 97.3545 146.426 97.5853 146.303C97.8229 146.181 98.0231 145.991 98.186 145.733L99.1636 146.303C98.9531 146.711 98.6443 147.026 98.237 147.25C97.8364 147.468 97.3714 147.576 96.8419 147.576ZM103.299 142.006C103.734 142.006 104.121 142.091 104.46 142.261C104.806 142.431 105.078 142.692 105.275 143.045C105.472 143.391 105.57 143.839 105.57 144.389V147.505H104.297V144.552C104.297 144.07 104.182 143.71 103.951 143.473C103.727 143.235 103.411 143.116 103.004 143.116C102.705 143.116 102.441 143.177 102.21 143.299C101.979 143.422 101.799 143.605 101.67 143.849C101.548 144.087 101.487 144.389 101.487 144.756V147.505H100.214V139.949H101.487V143.534L101.212 143.086C101.402 142.739 101.677 142.475 102.037 142.291C102.403 142.101 102.824 142.006 103.299 142.006ZM109.751 147.576C109.146 147.576 108.617 147.457 108.162 147.22C107.714 146.975 107.364 146.643 107.113 146.222C106.869 145.801 106.747 145.322 106.747 144.786C106.747 144.243 106.866 143.764 107.103 143.35C107.348 142.93 107.68 142.6 108.101 142.363C108.529 142.125 109.014 142.006 109.557 142.006C110.087 142.006 110.558 142.122 110.973 142.352C111.387 142.583 111.712 142.909 111.95 143.33C112.188 143.751 112.306 144.246 112.306 144.817C112.306 144.871 112.303 144.932 112.296 145C112.296 145.068 112.293 145.132 112.286 145.193H107.755V144.348H111.614L111.115 144.613C111.122 144.301 111.057 144.026 110.922 143.788C110.786 143.551 110.599 143.364 110.362 143.228C110.131 143.092 109.863 143.025 109.557 143.025C109.245 143.025 108.97 143.092 108.732 143.228C108.502 143.364 108.318 143.554 108.182 143.798C108.053 144.036 107.989 144.318 107.989 144.644V144.847C107.989 145.173 108.064 145.462 108.213 145.713C108.362 145.964 108.573 146.157 108.844 146.293C109.116 146.429 109.428 146.497 109.781 146.497C110.087 146.497 110.362 146.449 110.606 146.354C110.85 146.259 111.068 146.11 111.258 145.906L111.94 146.69C111.695 146.975 111.387 147.196 111.013 147.352C110.647 147.501 110.226 147.576 109.751 147.576ZM116.614 142.006C117.049 142.006 117.436 142.091 117.775 142.261C118.121 142.431 118.393 142.692 118.59 143.045C118.787 143.391 118.885 143.839 118.885 144.389V147.505H117.612V144.552C117.612 144.07 117.497 143.71 117.266 143.473C117.042 143.235 116.726 143.116 116.319 143.116C116.02 143.116 115.756 143.177 115.525 143.299C115.294 143.422 115.114 143.605 114.985 143.849C114.863 144.087 114.802 144.389 114.802 144.756V147.505H113.529V142.067H114.741V143.534L114.527 143.086C114.717 142.739 114.992 142.475 115.352 142.291C115.718 142.101 116.139 142.006 116.614 142.006Z" fill="black"/>
    <rect x="1.38787" y="110.045" width="9.48909" height="25.8793" rx="2.15661" stroke="black" stroke-width="0.862644"/>
</svg>
