<svg width="210" height="211" viewBox="0 0 210 211" fill="none" xmlns="http://www.w3.org/2000/svg">
    <path d="M64.5167 105.27L62.3004 98.5824H63.5901L65.5676 104.629H64.9275L66.9814 98.5824H68.1278L70.1244 104.629H69.5034L71.5287 98.5824H72.7133L70.497 105.27H69.1786L67.354 99.8147H67.6979L65.8446 105.27H64.5167ZM76.7549 105.365C76.2454 105.365 75.7709 105.282 75.3315 105.117C74.8984 104.945 74.5195 104.706 74.1947 104.4C73.8762 104.088 73.6279 103.722 73.4495 103.302C73.2712 102.881 73.1821 102.423 73.1821 101.926C73.1821 101.429 73.2712 100.971 73.4495 100.55C73.6279 100.13 73.8794 99.767 74.2042 99.4613C74.529 99.1492 74.908 98.9104 75.3411 98.7448C75.7741 98.5728 76.2486 98.4868 76.7645 98.4868C77.3122 98.4868 77.8121 98.5824 78.2643 98.7734C78.7165 98.9581 79.0986 99.2352 79.4107 99.6045L78.6082 100.359C78.3662 100.098 78.0955 99.9039 77.7962 99.7765C77.4969 99.6428 77.1721 99.5759 76.8218 99.5759C76.4715 99.5759 76.1499 99.6332 75.8569 99.7478C75.5703 99.8625 75.3188 100.025 75.1022 100.235C74.8921 100.445 74.7265 100.694 74.6055 100.98C74.4908 101.267 74.4335 101.582 74.4335 101.926C74.4335 102.27 74.4908 102.585 74.6055 102.872C74.7265 103.158 74.8921 103.407 75.1022 103.617C75.3188 103.827 75.5703 103.989 75.8569 104.104C76.1499 104.219 76.4715 104.276 76.8218 104.276C77.1721 104.276 77.4969 104.212 77.7962 104.085C78.0955 103.951 78.3662 103.751 78.6082 103.483L79.4107 104.247C79.0986 104.61 78.7165 104.887 78.2643 105.078C77.8121 105.27 77.309 105.365 76.7549 105.365Z" fill="black"/>
    <rect x="1.69183" y="1.19037" width="207.249" height="208.674" rx="1.0683" stroke="black" stroke-width="2.13659"/>
    <path d="M148.268 2.00293L158.019 65.6442" stroke="black" stroke-width="0.894812" stroke-linecap="square"/>
    <path d="M160.156 66.3566C160.403 66.3566 160.603 66.1563 160.603 65.9092C160.603 65.6621 160.403 65.4618 160.156 65.4618L160.156 66.3566ZM36.2334 66.3566L160.156 66.3566L160.156 65.4618L36.2334 65.4618L36.2334 66.3566Z" fill="black"/>
    <path d="M36.2334 0.833984L36.2334 209.508" stroke="black" stroke-width="0.894812" stroke-linecap="round"/>
    <line x1="36.2334" y1="130.719" x2="207.161" y2="130.719" stroke="black" stroke-width="0.894812"/>
    <line x1="101.29" y1="66.4297" x2="101.29" y2="130.856" stroke="black" stroke-width="0.894812"/>
    <path d="M168.288 86.4672C168.382 86.6959 168.643 86.8055 168.872 86.7119C169.1 86.6183 169.21 86.3571 169.116 86.1284L168.288 86.4672ZM159.917 66.0063L168.288 86.4672L169.116 86.1284L160.745 65.6675L159.917 66.0063Z" fill="black"/>
    <path d="M168.702 87.0098L168.702 131.166" stroke="black" stroke-width="0.894812" stroke-linecap="round"/>
    <path d="M168.702 86.2979H209.297" stroke="black" stroke-width="0.894812" stroke-linecap="round"/>
    <path d="M168.702 124.93L175.874 124.93" stroke="black" stroke-width="0.512252" stroke-linecap="round"/>
    <path d="M175.874 124.93L175.874 118.783" stroke="black" stroke-width="0.512252" stroke-linecap="round"/>
    <path d="M175.874 118.783H182.533" stroke="black" stroke-width="0.512252" stroke-linecap="round"/>
    <path d="M182.79 118.783L182.79 112.124" stroke="black" stroke-width="0.512252" stroke-linecap="round"/>
    <path d="M183.045 112.123H189.705" stroke="black" stroke-width="0.512252" stroke-linecap="round"/>
    <path d="M189.96 112.123L189.96 105.464" stroke="black" stroke-width="0.512252" stroke-linecap="round"/>
    <path d="M190.216 105.465L197.388 105.465" stroke="black" stroke-width="0.512252" stroke-linecap="round"/>
    <path d="M197.388 105.465L197.388 99.8301" stroke="black" stroke-width="0.512252" stroke-linecap="round"/>
    <path d="M197.388 99.8301L207.121 99.8301" stroke="black" stroke-width="0.512252" stroke-linecap="round"/>
</svg>
