<svg width="222" height="183" viewBox="0 0 222 183" fill="none" xmlns="http://www.w3.org/2000/svg">
    <path d="M2 1H220" stroke="black" stroke-width="1.36" stroke-linecap="round"/>
    <path d="M1.64209 178.108L220.462 178.108" stroke="black" stroke-width="1.36336" stroke-linecap="round"/>
    <path d="M220.462 1L220.462 178.107" stroke="black" stroke-width="1.36336" stroke-linecap="round"/>
    <path d="M137.297 177.426L137.297 178.107L138.66 178.107L138.66 177.426L137.297 177.426ZM138.66 118.119C138.66 117.743 138.355 117.438 137.979 117.438C137.602 117.438 137.297 117.743 137.297 118.119L138.66 118.119ZM138.66 177.426L138.66 118.119L137.297 118.119L137.297 177.426L138.66 177.426Z" fill="black"/>
    <path d="M114.801 118.12C115.178 118.12 115.483 117.815 115.483 117.438C115.483 117.062 115.178 116.757 114.801 116.757V118.12ZM82.0806 118.12H114.801V116.757H82.0806V118.12Z" fill="black"/>
    <path d="M52.7683 74.4922C53.1448 74.4922 53.45 74.187 53.45 73.8105C53.45 73.4341 53.1448 73.1289 52.7683 73.1289V74.4922ZM1.64209 74.4922H52.7683V73.1289H1.64209V74.4922Z" fill="black"/>
    <path d="M82.0806 1.55176L82.0806 74.4918" stroke="black" stroke-width="1.36336" stroke-linecap="round"/>
    <path d="M82.7622 105.85C82.7622 105.473 82.457 105.168 82.0806 105.168C81.7041 105.168 81.3989 105.473 81.3989 105.85L82.7622 105.85ZM81.3989 178.79L81.3989 179.471L82.7622 179.471L82.7622 178.79L81.3989 178.79ZM81.3989 105.85L81.3989 178.79L82.7622 178.79L82.7622 105.85L81.3989 105.85Z" fill="black"/>
    <path d="M1.64209 178.108L1.6421 0.870983" stroke="black" stroke-width="1.36336" stroke-linecap="round"/>
    <path d="M32.7911 39.8115L30.2455 32.1307H31.7268L33.9981 39.0764H33.2629L35.622 32.1307H36.9387L39.232 39.0764H38.5188L40.8449 32.1307H42.2055L39.6599 39.8115H38.1457L36.0499 33.5462H36.445L34.3163 39.8115H32.7911ZM46.8477 39.9212C46.2625 39.9212 45.7175 39.8262 45.2128 39.636C44.7154 39.4385 44.2801 39.1641 43.907 38.813C43.5413 38.4546 43.256 38.034 43.0512 37.5512C42.8464 37.0684 42.744 36.5417 42.744 35.9711C42.744 35.4006 42.8464 34.8739 43.0512 34.3911C43.256 33.9083 43.545 33.4913 43.918 33.1402C44.2911 32.7818 44.7263 32.5075 45.2238 32.3173C45.7212 32.1198 46.2661 32.021 46.8587 32.021C47.4878 32.021 48.062 32.1307 48.5813 32.3502C49.1007 32.5623 49.5396 32.8805 49.8981 33.3048L48.9764 34.1716C48.6984 33.8717 48.3875 33.6486 48.0437 33.5023C47.6999 33.3487 47.3268 33.2719 46.9245 33.2719C46.5222 33.2719 46.1528 33.3377 45.8163 33.4694C45.4871 33.6011 45.1982 33.7876 44.9494 34.029C44.708 34.2704 44.5179 34.5557 44.3789 34.8849C44.2472 35.214 44.1814 35.5761 44.1814 35.9711C44.1814 36.3661 44.2472 36.7282 44.3789 37.0574C44.5179 37.3866 44.708 37.6719 44.9494 37.9133C45.1982 38.1547 45.4871 38.3412 45.8163 38.4729C46.1528 38.6045 46.5222 38.6704 46.9245 38.6704C47.3268 38.6704 47.6999 38.5972 48.0437 38.4509C48.3875 38.2973 48.6984 38.0669 48.9764 37.7597L49.8981 38.6375C49.5396 39.0544 49.1007 39.3726 48.5813 39.5921C48.062 39.8115 47.4841 39.9212 46.8477 39.9212Z" fill="black"/>
    <path d="M103.004 151.979L100.459 144.298H101.94L104.211 151.243H103.476L105.835 144.298H107.152L109.445 151.243H108.732L111.058 144.298H112.419L109.873 151.979H108.359L106.263 145.713H106.658L104.53 151.979H103.004ZM117.061 152.088C116.476 152.088 115.931 151.993 115.426 151.803C114.929 151.605 114.493 151.331 114.12 150.98C113.755 150.622 113.469 150.201 113.265 149.718C113.06 149.235 112.957 148.709 112.957 148.138C112.957 147.568 113.06 147.041 113.265 146.558C113.469 146.075 113.758 145.658 114.131 145.307C114.504 144.949 114.94 144.674 115.437 144.484C115.935 144.287 116.48 144.188 117.072 144.188C117.701 144.188 118.275 144.298 118.795 144.517C119.314 144.729 119.753 145.048 120.111 145.472L119.19 146.339C118.912 146.039 118.601 145.816 118.257 145.669C117.913 145.516 117.54 145.439 117.138 145.439C116.736 145.439 116.366 145.505 116.03 145.636C115.7 145.768 115.412 145.955 115.163 146.196C114.921 146.437 114.731 146.723 114.592 147.052C114.461 147.381 114.395 147.743 114.395 148.138C114.395 148.533 114.461 148.895 114.592 149.224C114.731 149.554 114.921 149.839 115.163 150.08C115.412 150.322 115.7 150.508 116.03 150.64C116.366 150.772 116.736 150.837 117.138 150.837C117.54 150.837 117.913 150.764 118.257 150.618C118.601 150.464 118.912 150.234 119.19 149.927L120.111 150.804C119.753 151.221 119.314 151.54 118.795 151.759C118.275 151.979 117.697 152.088 117.061 152.088Z" fill="black"/>
    <path d="M164.48 152.059L164.424 150.82L167.377 147.754H168.551L166.097 150.361L165.518 150.997L164.48 152.059ZM163.547 153.387V147.754H164.593V153.387H163.547ZM167.473 153.387L165.317 150.82L166.009 150.055L168.696 153.387H167.473ZM169.409 153.387V147.754H170.455V153.387H169.409ZM173.121 153.387V148.639H171.254V147.754H176.034V148.639H174.167V153.387H173.121ZM179.347 153.467C178.918 153.467 178.518 153.397 178.148 153.258C177.783 153.113 177.464 152.912 177.191 152.654C176.922 152.392 176.713 152.083 176.563 151.729C176.413 151.375 176.338 150.989 176.338 150.57C176.338 150.152 176.413 149.766 176.563 149.412C176.713 149.058 176.925 148.752 177.199 148.494C177.472 148.232 177.791 148.03 178.156 147.891C178.521 147.746 178.921 147.674 179.355 147.674C179.816 147.674 180.238 147.754 180.618 147.915C180.999 148.071 181.321 148.304 181.584 148.615L180.908 149.251C180.704 149.031 180.476 148.867 180.224 148.76C179.972 148.647 179.698 148.591 179.403 148.591C179.108 148.591 178.837 148.639 178.591 148.736C178.349 148.832 178.137 148.969 177.955 149.146C177.778 149.323 177.639 149.532 177.537 149.774C177.44 150.015 177.392 150.281 177.392 150.57C177.392 150.86 177.44 151.126 177.537 151.367C177.639 151.608 177.778 151.818 177.955 151.995C178.137 152.172 178.349 152.308 178.591 152.405C178.837 152.502 179.108 152.55 179.403 152.55C179.698 152.55 179.972 152.496 180.224 152.389C180.476 152.276 180.704 152.107 180.908 151.882L181.584 152.526C181.321 152.832 180.999 153.065 180.618 153.226C180.238 153.387 179.814 153.467 179.347 153.467ZM186.545 147.754H187.591V153.387H186.545V147.754ZM183.632 153.387H182.586V147.754H183.632V153.387ZM186.626 150.973H183.544V150.08H186.626V150.973ZM190.066 150.096H192.866V150.957H190.066V150.096ZM190.147 152.51H193.325V153.387H189.101V147.754H193.212V148.631H190.147V152.51ZM194.491 153.387V147.754H195.352L198.884 152.091H198.458V147.754H199.496V153.387H198.635L195.103 149.05H195.529V153.387H194.491Z" fill="black"/>
    <rect x="59.1976" y="171.679" width="10.8129" height="36.7168" rx="0.975511" transform="rotate(90 59.1976 171.679)" stroke="black" stroke-width="0.775707"/>
</svg>
