<svg width="103" height="191" viewBox="0 0 103 191" fill="none" xmlns="http://www.w3.org/2000/svg">
    <rect x="4.5" y="97.5" width="98" height="93" rx="1.63659" stroke="black"/>
    <path d="M60.8638 151.598L60.8638 190.017" stroke="black" stroke-width="0.541111" stroke-linecap="round"/>
    <path d="M61.1343 151.598L100.094 151.598" stroke="black" stroke-width="0.541111" stroke-linecap="round"/>
    <path d="M61.1343 184.98L68.3058 184.98" stroke="black" stroke-width="0.512252" stroke-linecap="round"/>
    <path d="M6.13672 64.9824L13.3082 64.9824" stroke="black" stroke-width="0.512252" stroke-linecap="round"/>
    <path d="M68.3062 184.98L68.3062 178.833" stroke="black" stroke-width="0.512252" stroke-linecap="round"/>
    <path d="M13.3086 65.2598L13.3086 59.1127" stroke="black" stroke-width="0.512252" stroke-linecap="round"/>
    <path d="M68.3062 178.834H74.9654" stroke="black" stroke-width="0.512252" stroke-linecap="round"/>
    <path d="M13.3086 58.8359H19.9679" stroke="black" stroke-width="0.512252" stroke-linecap="round"/>
    <path d="M75.2222 178.834L75.2222 172.175" stroke="black" stroke-width="0.512252" stroke-linecap="round"/>
    <path d="M20.2231 58.8359L20.2231 52.1767" stroke="black" stroke-width="0.512252" stroke-linecap="round"/>
    <path d="M75.478 172.174H82.1373" stroke="black" stroke-width="0.512252" stroke-linecap="round"/>
    <path d="M20.48 52.1758H27.1393" stroke="black" stroke-width="0.512252" stroke-linecap="round"/>
    <path d="M82.3926 172.174L82.3926 165.515" stroke="black" stroke-width="0.512252" stroke-linecap="round"/>
    <path d="M27.3955 52.1758L27.3955 45.5165" stroke="black" stroke-width="0.512252" stroke-linecap="round"/>
    <path d="M82.6484 165.516L89.82 165.516" stroke="black" stroke-width="0.512252" stroke-linecap="round"/>
    <path d="M27.6514 45.5176L34.8229 45.5176" stroke="black" stroke-width="0.512252" stroke-linecap="round"/>
    <path d="M89.8208 165.516L89.8208 159.881" stroke="black" stroke-width="0.512252" stroke-linecap="round"/>
    <path d="M34.8223 45.5176L34.8223 39.8828" stroke="black" stroke-width="0.512252" stroke-linecap="round"/>
    <path d="M90 160H101" stroke="black" stroke-width="0.512252" stroke-linecap="round"/>
    <path d="M34.8223 39.8828L44.555 39.8828" stroke="black" stroke-width="0.512252" stroke-linecap="round"/>
    <rect x="4.5" y="0.5" width="97.9954" height="96.8705" rx="1.63659" stroke="black"/>
    <path d="M62.4004 40.3145C62.2451 40.3145 62.1192 40.4404 62.1192 40.5957C62.1192 40.751 62.2451 40.8769 62.4004 40.8769L62.4004 40.3145ZM62.4004 40.8769L102.283 40.8769L102.283 40.3145L62.4004 40.3145L62.4004 40.8769Z" fill="black"/>
    <path d="M61.6875 40.595C61.6875 40.7503 61.8134 40.8762 61.9687 40.8762C62.1241 40.8762 62.25 40.7503 62.25 40.595L61.6875 40.595ZM61.6875 0.711914L61.6875 40.595L62.25 40.595L62.25 0.711914L61.6875 0.711914Z" fill="black"/>
    <path d="M4 29.6309L46.0196 29.6309" stroke="black" stroke-width="0.562474" stroke-linecap="round"/>
    <path d="M46.0195 70.5078L46.0195 29.9126" stroke="black" stroke-width="0.562474" stroke-linecap="round"/>
    <line x1="4.99315" y1="70.9375" x2="45.7381" y2="70.9375" stroke="black" stroke-width="0.562474" stroke-linecap="round"/>
    <path d="M40.2583 114.714L40.2136 113.73L42.5578 111.297H43.4903L41.5422 113.366L41.0823 113.871L40.2583 114.714ZM39.5174 115.768V111.297H40.3478V115.768H39.5174ZM42.6344 115.768L40.9226 113.73L41.4719 113.123L43.6053 115.768H42.6344ZM44.1706 115.768V111.297H45.001V115.768H44.1706ZM47.1173 115.768V111.999H45.6354V111.297H49.4295V111.999H47.9476V115.768H47.1173ZM52.0597 115.831C51.7191 115.831 51.4018 115.776 51.108 115.665C50.8185 115.55 50.5651 115.391 50.3479 115.186C50.135 114.978 49.9689 114.733 49.8497 114.452C49.7305 114.171 49.6709 113.864 49.6709 113.532C49.6709 113.2 49.7305 112.893 49.8497 112.612C49.9689 112.331 50.1371 112.089 50.3543 111.884C50.5715 111.675 50.8248 111.516 51.1144 111.405C51.4039 111.29 51.7212 111.233 52.0661 111.233C52.4323 111.233 52.7666 111.297 53.0689 111.424C53.3712 111.548 53.6267 111.733 53.8354 111.98L53.2988 112.485C53.137 112.31 52.956 112.18 52.7559 112.095C52.5558 112.005 52.3386 111.961 52.1044 111.961C51.8702 111.961 51.6552 111.999 51.4593 112.076C51.2677 112.152 51.0995 112.261 50.9547 112.402C50.8142 112.542 50.7035 112.708 50.6226 112.9C50.5459 113.091 50.5076 113.302 50.5076 113.532C50.5076 113.762 50.5459 113.973 50.6226 114.164C50.7035 114.356 50.8142 114.522 50.9547 114.663C51.0995 114.803 51.2677 114.912 51.4593 114.988C51.6552 115.065 51.8702 115.103 52.1044 115.103C52.3386 115.103 52.5558 115.061 52.7559 114.976C52.956 114.886 53.137 114.752 53.2988 114.573L53.8354 115.084C53.6267 115.327 53.3712 115.512 53.0689 115.64C52.7666 115.768 52.4302 115.831 52.0597 115.831ZM57.7735 111.297H58.6038V115.768H57.7735V111.297ZM55.4613 115.768H54.631V111.297H55.4613V115.768ZM57.8374 113.851H55.391V113.142H57.8374V113.851ZM60.5683 113.155H62.7911V113.839H60.5683V113.155ZM60.6322 115.071H63.1552V115.768H59.8019V111.297H63.0657V111.993H60.6322V115.071ZM64.0808 115.768V111.297H64.7643L67.5682 114.739H67.2297V111.297H68.0537V115.768H67.3702L64.5662 112.325H64.9048V115.768H64.0808Z" fill="black"/>
    <rect x="0.625744" y="149.2" width="8.58314" height="27.522" rx="0.774348" stroke="black" stroke-width="0.615747"/>
    <path d="M44.8886 140.618V137.834L45.1327 138.087H44.2547V137.62H45.4454V140.618H44.8886ZM48.0931 140.648C47.9018 140.648 47.7177 140.624 47.5406 140.575C47.3665 140.524 47.228 140.463 47.1252 140.391L47.3308 139.984C47.4336 140.05 47.5563 140.104 47.6991 140.147C47.8419 140.19 47.9846 140.211 48.1274 140.211C48.2958 140.211 48.4172 140.188 48.4914 140.143C48.5685 140.097 48.6071 140.036 48.6071 139.959C48.6071 139.896 48.5814 139.849 48.53 139.817C48.4786 139.783 48.4115 139.757 48.3287 139.74C48.2459 139.723 48.1531 139.707 48.0503 139.693C47.9504 139.679 47.849 139.66 47.7462 139.637C47.6463 139.612 47.5549 139.576 47.4721 139.53C47.3893 139.482 47.3222 139.418 47.2708 139.338C47.2194 139.258 47.1937 139.152 47.1937 139.021C47.1937 138.875 47.2351 138.749 47.3179 138.644C47.4007 138.535 47.5164 138.452 47.6648 138.395C47.8162 138.335 47.9946 138.305 48.2002 138.305C48.3544 138.305 48.51 138.323 48.667 138.357C48.8241 138.391 48.954 138.44 49.0568 138.502L48.8512 138.909C48.7427 138.844 48.6328 138.799 48.5214 138.777C48.4129 138.751 48.3044 138.738 48.1959 138.738C48.0332 138.738 47.9118 138.762 47.8319 138.811C47.7548 138.859 47.7162 138.921 47.7162 138.995C47.7162 139.063 47.7419 139.115 47.7933 139.149C47.8447 139.183 47.9118 139.211 47.9946 139.231C48.0774 139.251 48.1688 139.268 48.2687 139.282C48.3715 139.293 48.4729 139.312 48.5728 139.338C48.6727 139.363 48.7641 139.399 48.8469 139.445C48.9326 139.487 49.0011 139.549 49.0525 139.629C49.1039 139.709 49.1296 139.813 49.1296 139.941C49.1296 140.084 49.0867 140.208 49.0011 140.314C48.9183 140.42 48.7998 140.503 48.6456 140.562C48.4914 140.62 48.3073 140.648 48.0931 140.648ZM50.4515 140.648C50.2002 140.648 50.006 140.584 49.869 140.455C49.7319 140.324 49.6634 140.131 49.6634 139.877V137.826H50.1988V139.864C50.1988 139.973 50.2259 140.057 50.2801 140.117C50.3372 140.177 50.4158 140.207 50.5157 140.207C50.6356 140.207 50.7355 140.176 50.8155 140.113L50.9654 140.494C50.9026 140.545 50.8255 140.584 50.7341 140.61C50.6428 140.635 50.5485 140.648 50.4515 140.648ZM49.2865 138.777V138.348H50.8112V138.777H49.2865ZM52.6408 140.618V137.62H53.1976V140.147H54.7651V140.618H52.6408ZM56.1602 140.648C55.9261 140.648 55.7177 140.598 55.5349 140.498C55.3522 140.395 55.208 140.256 55.1024 140.079C54.9967 139.902 54.9439 139.7 54.9439 139.475C54.9439 139.246 54.9967 139.045 55.1024 138.871C55.208 138.694 55.3522 138.555 55.5349 138.455C55.7177 138.355 55.9261 138.305 56.1602 138.305C56.3972 138.305 56.6071 138.355 56.7898 138.455C56.9754 138.555 57.1196 138.692 57.2224 138.866C57.328 139.041 57.3808 139.243 57.3808 139.475C57.3808 139.7 57.328 139.902 57.2224 140.079C57.1196 140.256 56.9754 140.395 56.7898 140.498C56.6071 140.598 56.3972 140.648 56.1602 140.648ZM56.1602 140.19C56.2916 140.19 56.4086 140.161 56.5114 140.104C56.6142 140.047 56.6942 139.964 56.7513 139.856C56.8112 139.747 56.8412 139.62 56.8412 139.475C56.8412 139.326 56.8112 139.199 56.7513 139.093C56.6942 138.985 56.6142 138.902 56.5114 138.845C56.4086 138.788 56.293 138.759 56.1645 138.759C56.0332 138.759 55.9161 138.788 55.8133 138.845C55.7134 138.902 55.6334 138.985 55.5735 139.093C55.5135 139.199 55.4835 139.326 55.4835 139.475C55.4835 139.62 55.5135 139.747 55.5735 139.856C55.6334 139.964 55.7134 140.047 55.8133 140.104C55.9161 140.161 56.0318 140.19 56.1602 140.19ZM57.9656 140.618V138.203C57.9656 137.963 58.0355 137.772 58.1754 137.629C58.3182 137.483 58.5209 137.41 58.7836 137.41C58.8778 137.41 58.9663 137.42 59.0491 137.44C59.1348 137.46 59.2062 137.492 59.2633 137.535L59.1177 137.937C59.0777 137.906 59.032 137.883 58.9806 137.869C58.9292 137.851 58.8764 137.843 58.8222 137.843C58.7108 137.843 58.6266 137.874 58.5695 137.937C58.5124 137.997 58.4838 138.088 58.4838 138.211V138.468L58.5009 138.708V140.618H57.9656ZM57.5887 138.777V138.348H59.1134V138.777H57.5887ZM60.3346 140.648C60.0833 140.648 59.8892 140.584 59.7521 140.455C59.6151 140.324 59.5466 140.131 59.5466 139.877V137.826H60.0819V139.864C60.0819 139.973 60.109 140.057 60.1633 140.117C60.2204 140.177 60.2989 140.207 60.3988 140.207C60.5188 140.207 60.6187 140.176 60.6986 140.113L60.8485 140.494C60.7857 140.545 60.7086 140.584 60.6173 140.61C60.5259 140.635 60.4317 140.648 60.3346 140.648ZM59.1697 138.777V138.348H60.6944V138.777H59.1697Z" fill="black"/>
    <path d="M62.0485 54.5664V54.1938L63.2391 53.0631C63.339 52.9689 63.4133 52.8861 63.4618 52.8147C63.5103 52.7433 63.5417 52.6777 63.556 52.6177C63.5731 52.5549 63.5817 52.4964 63.5817 52.4421C63.5817 52.3051 63.5346 52.1994 63.4404 52.1252C63.3462 52.0481 63.2077 52.0096 63.0249 52.0096C62.8793 52.0096 62.7466 52.0353 62.6266 52.0866C62.5096 52.138 62.4082 52.2166 62.3226 52.3222L61.9328 52.0224C62.0499 51.8654 62.2069 51.744 62.4039 51.6584C62.6038 51.5698 62.8265 51.5256 63.0721 51.5256C63.2891 51.5256 63.4775 51.5613 63.6374 51.6327C63.8001 51.7012 63.9243 51.7997 64.01 51.9282C64.0985 52.0567 64.1428 52.2094 64.1428 52.3864C64.1428 52.4835 64.1299 52.5806 64.1042 52.6777C64.0785 52.7719 64.03 52.8718 63.9586 52.9775C63.8872 53.0831 63.783 53.2016 63.646 53.3329L62.6224 54.3052L62.5067 54.0953H64.2584V54.5664H62.0485ZM66.6328 54.5964C66.4415 54.5964 66.2573 54.5721 66.0803 54.5236C65.9061 54.4722 65.7677 54.4108 65.6649 54.3394L65.8705 53.9325C65.9732 53.9982 66.096 54.0525 66.2388 54.0953C66.3815 54.1381 66.5243 54.1595 66.6671 54.1595C66.8355 54.1595 66.9569 54.1367 67.0311 54.091C67.1082 54.0453 67.1467 53.9839 67.1467 53.9068C67.1467 53.844 67.121 53.7969 67.0696 53.7655C67.0183 53.7313 66.9512 53.7056 66.8684 53.6884C66.7856 53.6713 66.6928 53.6556 66.59 53.6413C66.49 53.627 66.3887 53.6085 66.2859 53.5856C66.186 53.5599 66.0946 53.5242 66.0118 53.4786C65.929 53.43 65.8619 53.3658 65.8105 53.2858C65.7591 53.2059 65.7334 53.1002 65.7334 52.9689C65.7334 52.8233 65.7748 52.6977 65.8576 52.592C65.9404 52.4835 66.056 52.4007 66.2045 52.3436C66.3558 52.2837 66.5343 52.2537 66.7399 52.2537C66.894 52.2537 67.0497 52.2708 67.2067 52.3051C67.3637 52.3393 67.4936 52.3879 67.5964 52.4507L67.3909 52.8576C67.2824 52.7919 67.1724 52.7476 67.0611 52.7248C66.9526 52.6991 66.8441 52.6862 66.7356 52.6862C66.5728 52.6862 66.4515 52.7105 66.3715 52.759C66.2945 52.8076 66.2559 52.869 66.2559 52.9432C66.2559 53.0117 66.2816 53.0631 66.333 53.0974C66.3844 53.1317 66.4515 53.1588 66.5343 53.1788C66.6171 53.1988 66.7085 53.2159 66.8084 53.2302C66.9112 53.2416 67.0125 53.2601 67.1125 53.2858C67.2124 53.3115 67.3038 53.3472 67.3866 53.3929C67.4722 53.4357 67.5408 53.4971 67.5922 53.5771C67.6435 53.657 67.6692 53.7612 67.6692 53.8897C67.6692 54.0325 67.6264 54.1567 67.5408 54.2623C67.458 54.368 67.3395 54.4508 67.1853 54.5107C67.0311 54.5678 66.8469 54.5964 66.6328 54.5964ZM68.9911 54.5964C68.7399 54.5964 68.5457 54.5321 68.4087 54.4037C68.2716 54.2723 68.2031 54.0796 68.2031 53.8255V51.774H68.7384V53.8126C68.7384 53.9211 68.7656 54.0054 68.8198 54.0653C68.8769 54.1253 68.9554 54.1553 69.0554 54.1553C69.1753 54.1553 69.2752 54.1238 69.3552 54.061L69.5051 54.4422C69.4423 54.4936 69.3652 54.5321 69.2738 54.5578C69.1824 54.5835 69.0882 54.5964 68.9911 54.5964ZM67.8262 52.7248V52.2965H69.3509V52.7248H67.8262ZM71.1805 54.5664V51.5684H71.7373V54.0953H73.3048V54.5664H71.1805ZM74.6999 54.5964C74.4658 54.5964 74.2574 54.5464 74.0746 54.4465C73.8919 54.3437 73.7477 54.2038 73.6421 54.0268C73.5364 53.8497 73.4836 53.6485 73.4836 53.4229C73.4836 53.1945 73.5364 52.9932 73.6421 52.819C73.7477 52.642 73.8919 52.5035 74.0746 52.4036C74.2574 52.3036 74.4658 52.2537 74.6999 52.2537C74.9369 52.2537 75.1468 52.3036 75.3295 52.4036C75.5151 52.5035 75.6593 52.6406 75.7621 52.8147C75.8677 52.9889 75.9205 53.1916 75.9205 53.4229C75.9205 53.6485 75.8677 53.8497 75.7621 54.0268C75.6593 54.2038 75.5151 54.3437 75.3295 54.4465C75.1468 54.5464 74.9369 54.5964 74.6999 54.5964ZM74.6999 54.1381C74.8313 54.1381 74.9483 54.1096 75.0511 54.0525C75.1539 53.9954 75.2338 53.9126 75.2909 53.8041C75.3509 53.6956 75.3809 53.5685 75.3809 53.4229C75.3809 53.2744 75.3509 53.1474 75.2909 53.0417C75.2338 52.9332 75.1539 52.8504 75.0511 52.7933C74.9483 52.7362 74.8327 52.7077 74.7042 52.7077C74.5729 52.7077 74.4558 52.7362 74.353 52.7933C74.2531 52.8504 74.1731 52.9332 74.1132 53.0417C74.0532 53.1474 74.0232 53.2744 74.0232 53.4229C74.0232 53.5685 74.0532 53.6956 74.1132 53.8041C74.1731 53.9126 74.2531 53.9954 74.353 54.0525C74.4558 54.1096 74.5714 54.1381 74.6999 54.1381ZM76.5053 54.5664V52.1509C76.5053 51.911 76.5752 51.7197 76.7151 51.577C76.8579 51.4314 77.0606 51.3586 77.3233 51.3586C77.4175 51.3586 77.506 51.3686 77.5888 51.3885C77.6745 51.4085 77.7459 51.4399 77.803 51.4828L77.6573 51.8854C77.6174 51.8539 77.5717 51.8311 77.5203 51.8168C77.4689 51.7997 77.4161 51.7911 77.3618 51.7911C77.2505 51.7911 77.1662 51.8225 77.1091 51.8854C77.052 51.9453 77.0235 52.0367 77.0235 52.1595V52.4164L77.0406 52.6563V54.5664H76.5053ZM76.1284 52.7248V52.2965H77.6531V52.7248H76.1284ZM78.8743 54.5964C78.623 54.5964 78.4289 54.5321 78.2918 54.4037C78.1548 54.2723 78.0862 54.0796 78.0862 53.8255V51.774H78.6216V53.8126C78.6216 53.9211 78.6487 54.0054 78.703 54.0653C78.7601 54.1253 78.8386 54.1553 78.9385 54.1553C79.0584 54.1553 79.1584 54.1238 79.2383 54.061L79.3882 54.4422C79.3254 54.4936 79.2483 54.5321 79.1569 54.5578C79.0656 54.5835 78.9714 54.5964 78.8743 54.5964ZM77.7093 52.7248V52.2965H79.234V52.7248H77.7093Z" fill="black"/>
</svg>
