<svg width="217" height="211" viewBox="0 0 217 211" fill="none" xmlns="http://www.w3.org/2000/svg">
    <rect x="1.10712" y="120.175" width="14.6661" height="47.0272" rx="1.32314" stroke="black" stroke-width="1.05213"/>
    <path d="M47.0802 48.8828L44.8639 42.1956H46.1536L48.131 48.2428H47.491L49.5449 42.1956H50.6913L52.6879 48.2428H52.0669L54.0922 42.1956H55.2768L53.0604 48.8828H51.7421L49.9175 43.428H50.2614L48.4081 48.8828H47.0802ZM59.3184 48.9783C58.8089 48.9783 58.3344 48.8955 57.895 48.73C57.4619 48.558 57.083 48.3192 56.7582 48.0135C56.4397 47.7014 56.1913 47.3352 56.013 46.9149C55.8347 46.4945 55.7455 46.036 55.7455 45.5392C55.7455 45.0425 55.8347 44.5839 56.013 44.1636C56.1913 43.7432 56.4429 43.3802 56.7677 43.0745C57.0925 42.7625 57.4715 42.5236 57.9045 42.3581C58.3376 42.1861 58.8121 42.1001 59.3279 42.1001C59.8757 42.1001 60.3756 42.1956 60.8278 42.3867C61.28 42.5714 61.6621 42.8484 61.9741 43.2178L61.1717 43.9725C60.9297 43.7114 60.659 43.5172 60.3597 43.3898C60.0603 43.256 59.7355 43.1892 59.3853 43.1892C59.035 43.1892 58.7134 43.2465 58.4204 43.3611C58.1338 43.4758 57.8822 43.6382 57.6657 43.8483C57.4555 44.0585 57.2899 44.3069 57.1689 44.5935C57.0543 44.8801 56.997 45.1953 56.997 45.5392C56.997 45.8831 57.0543 46.1984 57.1689 46.485C57.2899 46.7716 57.4555 47.02 57.6657 47.2301C57.8822 47.4403 58.1338 47.6027 58.4204 47.7173C58.7134 47.832 59.035 47.8893 59.3853 47.8893C59.7355 47.8893 60.0603 47.8256 60.3597 47.6982C60.659 47.5645 60.9297 47.3639 61.1717 47.0964L61.9741 47.8606C61.6621 48.2236 61.28 48.5007 60.8278 48.6918C60.3756 48.8828 59.8725 48.9783 59.3184 48.9783Z" fill="black"/>
    <rect x="7.75824" y="1.0683" width="207.249" height="208.674" rx="1.0683" stroke="black" stroke-width="2.13659"/>
    <path d="M97.1389 89.0247C97.1389 89.418 97.4577 89.7369 97.8511 89.7369C98.2444 89.7369 98.5633 89.418 98.5633 89.0247L97.1389 89.0247ZM97.1389 3.11311e-08L97.1389 89.0247L98.5633 89.0247L98.5633 -3.11311e-08L97.1389 3.11311e-08Z" fill="black"/>
    <path d="M97.8512 89.7376C98.2445 89.7376 98.5634 89.4187 98.5634 89.0254C98.5634 88.6321 98.2445 88.3132 97.8512 88.3132V89.7376ZM6.68994 89.7376H97.8512V88.3132H6.68994V89.7376Z" fill="black"/>
</svg>
