<svg width="208" height="203" viewBox="0 0 208 203" fill="none" xmlns="http://www.w3.org/2000/svg">
    <path d="M149.228 51.5078L146.037 41.8783H147.894L150.742 50.5861H149.82L152.778 41.8783H154.428L157.304 50.5861H156.409L159.326 41.8783H161.032L157.84 51.5078H155.942L153.314 43.6529H153.809L151.141 51.5078H149.228ZM166.851 51.6454C166.118 51.6454 165.435 51.5262 164.802 51.2877C164.178 51.0401 163.632 50.6962 163.165 50.256C162.706 49.8066 162.349 49.2793 162.092 48.674C161.835 48.0687 161.707 47.4084 161.707 46.6931C161.707 45.9777 161.835 45.3174 162.092 44.7121C162.349 44.1068 162.711 43.5841 163.178 43.1439C163.646 42.6945 164.192 42.3506 164.815 42.1122C165.439 41.8645 166.122 41.7407 166.865 41.7407C167.654 41.7407 168.374 41.8783 169.025 42.1534C169.676 42.4194 170.226 42.8183 170.676 43.3502L169.52 44.437C169.172 44.061 168.782 43.7813 168.351 43.5979C167.92 43.4053 167.452 43.309 166.948 43.309C166.443 43.309 165.98 43.3915 165.558 43.5566C165.146 43.7217 164.783 43.9555 164.472 44.2582C164.169 44.5608 163.93 44.9185 163.756 45.3312C163.591 45.7439 163.509 46.1978 163.509 46.6931C163.509 47.1883 163.591 47.6422 163.756 48.0549C163.93 48.4676 164.169 48.8253 164.472 49.1279C164.783 49.4306 165.146 49.6644 165.558 49.8295C165.98 49.9946 166.443 50.0771 166.948 50.0771C167.452 50.0771 167.92 49.9854 168.351 49.802C168.782 49.6094 169.172 49.3205 169.52 48.9354L170.676 50.0359C170.226 50.5586 169.676 50.9576 169.025 51.2327C168.374 51.5078 167.649 51.6454 166.851 51.6454Z" fill="black"/>
    <path d="M30.7782 31.5895L30.7193 30.2948L33.8046 27.0919H35.032L32.4679 29.8156L31.8627 30.4798L30.7782 31.5895ZM29.803 32.9766V27.0919H30.8959V32.9766H29.803ZM33.9055 32.9766L31.6525 30.2948L32.3755 29.4962L35.1833 32.9766H33.9055ZM35.9274 32.9766V27.0919H37.0203V32.9766H35.9274ZM39.8058 32.9766V28.0166H37.8554V27.0919H42.849V28.0166H40.8986V32.9766H39.8058ZM46.3109 33.0606C45.8625 33.0606 45.445 32.9878 45.0582 32.8421C44.6771 32.6907 44.3437 32.4806 44.0578 32.2116C43.7776 31.9369 43.5591 31.6147 43.4021 31.2448C43.2452 30.8749 43.1667 30.4714 43.1667 30.0342C43.1667 29.5971 43.2452 29.1935 43.4021 28.8236C43.5591 28.4537 43.7804 28.1343 44.0663 27.8653C44.3521 27.5907 44.6856 27.3805 45.0667 27.2348C45.4478 27.0835 45.8653 27.0078 46.3193 27.0078C46.8012 27.0078 47.2412 27.0919 47.6391 27.26C48.037 27.4225 48.3733 27.6663 48.6479 27.9914L47.9418 28.6555C47.7288 28.4257 47.4906 28.2548 47.2272 28.1427C46.9638 28.025 46.6779 27.9662 46.3697 27.9662C46.0615 27.9662 45.7784 28.0166 45.5206 28.1175C45.2684 28.2184 45.047 28.3613 44.8565 28.5462C44.6715 28.7312 44.5258 28.9497 44.4193 29.2019C44.3185 29.4541 44.268 29.7316 44.268 30.0342C44.268 30.3369 44.3185 30.6143 44.4193 30.8665C44.5258 31.1187 44.6715 31.3373 44.8565 31.5222C45.047 31.7071 45.2684 31.8501 45.5206 31.9509C45.7784 32.0518 46.0615 32.1023 46.3697 32.1023C46.6779 32.1023 46.9638 32.0462 47.2272 31.9341C47.4906 31.8164 47.7288 31.6399 47.9418 31.4045L48.6479 32.077C48.3733 32.3965 48.037 32.6403 47.6391 32.8084C47.2412 32.9766 46.7984 33.0606 46.3109 33.0606ZM53.8312 27.0919H54.9241V32.9766H53.8312V27.0919ZM50.788 32.9766H49.6951V27.0919H50.788V32.9766ZM53.9153 30.4545H50.6955V29.5214H53.9153V30.4545ZM57.5097 29.5382H60.4353V30.4377H57.5097V29.5382ZM57.5938 32.0602H60.9144V32.9766H56.5009V27.0919H60.7967V28.0082H57.5938V32.0602ZM62.1328 32.9766V27.0919H63.0323L66.7228 31.6231H66.2773V27.0919H67.3617V32.9766H66.4622L62.7717 28.4453H63.2172V32.9766H62.1328Z" fill="black"/>
    <rect x="195.64" y="106.571" width="11.2969" height="36.2238" rx="1.01918" stroke="black" stroke-width="0.810431"/>
    <rect x="1.87347" y="1.83001" width="199.415" height="199.415" rx="1.0683" stroke="black" stroke-width="2.13659"/>
    <path d="M119.742 2.89844L119.742 84.8011" stroke="black" stroke-width="0.712197" stroke-linecap="round"/>
    <path d="M119.742 84.4447C119.545 84.4447 119.386 84.6041 119.386 84.8008C119.386 84.9974 119.545 85.1569 119.742 85.1569L119.742 84.4447ZM119.742 85.1569L202.357 85.1569L202.357 84.4447L119.742 84.4447L119.742 85.1569Z" fill="black"/>
</svg>
