<svg width="273" height="139" viewBox="0 0 273 139" fill="none" xmlns="http://www.w3.org/2000/svg">
    <path d="M180.957 1.90918L180.957 65.5929" stroke="black" stroke-width="2.07085" stroke-linecap="round"/>
    <path d="M177.589 1.98047L271.553 1.98047" stroke="black" stroke-width="2.07085" stroke-linecap="round"/>
    <path d="M271.553 2.12891L271.553 136.438" stroke="black" stroke-width="2.07085" stroke-linecap="round"/>
    <path d="M161.077 136.688L270.899 136.688" stroke="black" stroke-width="2.07085" stroke-linecap="round"/>
    <path d="M181.028 127.563L181.028 136.439" stroke="black" stroke-width="2.07085" stroke-linecap="round"/>
    <path d="M203.701 98.085L203.701 136.425" stroke="black" stroke-width="2.07085" stroke-linecap="round"/>
    <path d="M180.957 85.7373L180.957 108.482" stroke="black" stroke-width="2.07085" stroke-linecap="round"/>
    <path d="M218.262 97.8779L181.222 97.8779" stroke="black" stroke-width="2.07085" stroke-linecap="round"/>
    <path d="M271.369 98.4697L240.827 98.4697" stroke="black" stroke-width="2.07085" stroke-linecap="round"/>
    <path d="M110.035 35.9639H124.332" stroke="black" stroke-width="2.07085" stroke-linecap="round"/>
    <path d="M145.893 35.9639L180.984 35.9639" stroke="black" stroke-width="2.07085" stroke-linecap="round"/>
    <path d="M110.004 69.0205L110.004 1.68432" stroke="black" stroke-width="2.07085" stroke-linecap="round"/>
    <path d="M1.45801 1.46484L182.325 1.98063" stroke="black" stroke-width="2.07085" stroke-linecap="round"/>
    <path d="M1.60303 1.90918L1.60302 137.725" stroke="black" stroke-width="2.07085" stroke-linecap="round"/>
    <path d="M134.692 137.77L1.56624 137.77" stroke="black" stroke-width="2.07085" stroke-linecap="round"/>
    <path d="M110.775 81.8379L110.775 136.424" stroke="black" stroke-width="2.07085" stroke-linecap="round"/>
    <path d="M76.6299 86.7998L76.6299 92.6483" stroke="black" stroke-width="2.07085" stroke-linecap="round"/>
    <path d="M109.74 92.6211H76.5982" stroke="black" stroke-width="2.07085" stroke-linecap="round"/>
    <path d="M2.51709 61.3076H77.248" stroke="black" stroke-width="2.07085" stroke-linecap="round"/>
    <path d="M87.4126 53.9219L77.6651 53.9219" stroke="black" stroke-width="2.07085" stroke-linecap="round"/>
    <path d="M77.396 72.915V54.0698" stroke="black" stroke-width="2.07085" stroke-linecap="round"/>
    <path d="M103.892 54.0967H109.09" stroke="black" stroke-width="2.07085" stroke-linecap="round"/>
    <path d="M125.729 15.4063H127.277C127.94 15.4063 128.441 15.4993 128.781 15.6854C129.122 15.8714 129.292 16.1981 129.292 16.6655C129.292 16.8538 129.261 17.024 129.2 17.176C129.141 17.328 129.055 17.4528 128.941 17.5504C128.828 17.6479 128.69 17.7114 128.526 17.7409V17.775C128.692 17.809 128.842 17.868 128.975 17.9519C129.109 18.0336 129.216 18.1539 129.295 18.3127C129.377 18.4692 129.418 18.678 129.418 18.9389C129.418 19.2406 129.344 19.4993 129.197 19.7148C129.049 19.9303 128.838 20.096 128.564 20.2117C128.291 20.3251 127.967 20.3818 127.59 20.3818H125.729V15.4063ZM126.784 17.3768H127.396C127.703 17.3768 127.915 17.3291 128.033 17.2339C128.151 17.1363 128.21 16.9934 128.21 16.805C128.21 16.6145 128.139 16.4783 127.999 16.3967C127.86 16.3127 127.64 16.2707 127.338 16.2707H126.784V17.3768ZM126.784 18.214V19.5106H127.471C127.789 19.5106 128.01 19.4494 128.135 19.3268C128.26 19.2043 128.322 19.0398 128.322 18.8334C128.322 18.7109 128.295 18.6031 128.24 18.5101C128.186 18.417 128.094 18.3444 127.965 18.2923C127.838 18.2401 127.662 18.214 127.437 18.214H126.784ZM133.457 20.3818L133.097 19.1975H131.283L130.922 20.3818H129.785L131.541 15.3859H132.831L134.594 20.3818H133.457ZM132.845 18.3127L132.484 17.1556C132.461 17.0784 132.431 16.9797 132.392 16.8595C132.356 16.737 132.319 16.6133 132.28 16.4885C132.244 16.3615 132.214 16.2515 132.191 16.1584C132.169 16.2515 132.137 16.3672 132.096 16.5056C132.058 16.6417 132.02 16.771 131.984 16.8935C131.948 17.016 131.921 17.1034 131.906 17.1556L131.548 18.3127H132.845ZM137.143 20.3818H136.088V16.2844H134.737V15.4063H138.494V16.2844H137.143V20.3818ZM143.337 20.3818H142.285V18.2344H140.315V20.3818H139.26V15.4063H140.315V17.3564H142.285V15.4063H143.337V20.3818ZM146.046 15.4063C146.497 15.4063 146.87 15.4608 147.162 15.5697C147.457 15.6786 147.676 15.8431 147.819 16.0631C147.962 16.2832 148.033 16.5611 148.033 16.8969C148.033 17.1238 147.99 17.3223 147.904 17.4925C147.818 17.6627 147.704 17.8067 147.564 17.9247C147.423 18.0427 147.271 18.1391 147.108 18.214L148.571 20.3818H147.4L146.213 18.4726H145.651V20.3818H144.596V15.4063H146.046ZM145.971 16.2707H145.651V17.615H145.992C146.341 17.615 146.59 17.5572 146.74 17.4415C146.892 17.3235 146.968 17.151 146.968 16.9242C146.968 16.6882 146.887 16.5203 146.723 16.4205C146.562 16.3207 146.311 16.2707 145.971 16.2707ZM153.713 17.8873C153.713 18.2707 153.666 18.6201 153.571 18.9355C153.475 19.2486 153.33 19.5186 153.135 19.7454C152.942 19.9723 152.697 20.147 152.4 20.2695C152.103 20.3898 151.751 20.4499 151.345 20.4499C150.939 20.4499 150.587 20.3898 150.29 20.2695C149.993 20.147 149.746 19.9723 149.551 19.7454C149.358 19.5186 149.214 19.2474 149.119 18.9321C149.024 18.6167 148.976 18.2662 148.976 17.8805C148.976 17.3654 149.06 16.9174 149.228 16.5362C149.398 16.1528 149.659 15.8555 150.011 15.6445C150.362 15.4335 150.809 15.328 151.352 15.328C151.892 15.328 152.335 15.4335 152.682 15.6445C153.032 15.8555 153.29 16.1528 153.458 16.5362C153.628 16.9196 153.713 17.37 153.713 17.8873ZM150.082 17.8873C150.082 18.2344 150.125 18.5339 150.212 18.7857C150.3 19.0353 150.437 19.2281 150.623 19.3643C150.809 19.4981 151.05 19.5651 151.345 19.5651C151.644 19.5651 151.887 19.4981 152.073 19.3643C152.259 19.2281 152.394 19.0353 152.478 18.7857C152.564 18.5339 152.607 18.2344 152.607 17.8873C152.607 17.3654 152.51 16.9548 152.315 16.6553C152.12 16.3558 151.799 16.2061 151.352 16.2061C151.054 16.2061 150.812 16.2741 150.623 16.4103C150.437 16.5441 150.3 16.737 150.212 16.9888C150.125 17.2384 150.082 17.5379 150.082 17.8873ZM159.261 17.8873C159.261 18.2707 159.213 18.6201 159.118 18.9355C159.022 19.2486 158.877 19.5186 158.682 19.7454C158.489 19.9723 158.244 20.147 157.947 20.2695C157.65 20.3898 157.298 20.4499 156.892 20.4499C156.486 20.4499 156.134 20.3898 155.837 20.2695C155.54 20.147 155.294 19.9723 155.099 19.7454C154.906 19.5186 154.762 19.2474 154.666 18.9321C154.571 18.6167 154.523 18.2662 154.523 17.8805C154.523 17.3654 154.607 16.9174 154.775 16.5362C154.945 16.1528 155.206 15.8555 155.558 15.6445C155.91 15.4335 156.357 15.328 156.899 15.328C157.439 15.328 157.882 15.4335 158.23 15.6445C158.579 15.8555 158.838 16.1528 159.005 16.5362C159.176 16.9196 159.261 17.37 159.261 17.8873ZM155.629 17.8873C155.629 18.2344 155.673 18.5339 155.759 18.7857C155.847 19.0353 155.985 19.2281 156.171 19.3643C156.357 19.4981 156.597 19.5651 156.892 19.5651C157.192 19.5651 157.434 19.4981 157.62 19.3643C157.806 19.2281 157.941 19.0353 158.025 18.7857C158.112 18.5339 158.155 18.2344 158.155 17.8873C158.155 17.3654 158.057 16.9548 157.862 16.6553C157.667 16.3558 157.346 16.2061 156.899 16.2061C156.602 16.2061 156.359 16.2741 156.171 16.4103C155.985 16.5441 155.847 16.737 155.759 16.9888C155.673 17.2384 155.629 17.5379 155.629 17.8873ZM162.398 20.3818L161.201 16.4783H161.17C161.174 16.5714 161.181 16.712 161.19 16.9003C161.202 17.0864 161.212 17.2849 161.221 17.4959C161.23 17.7069 161.235 17.8975 161.235 18.0676V20.3818H160.292V15.4063H161.728L162.906 19.2111H162.926L164.175 15.4063H165.611V20.3818H164.628V18.0268C164.628 17.8703 164.63 17.6899 164.634 17.4857C164.641 17.2815 164.649 17.0875 164.658 16.9037C164.667 16.7177 164.674 16.5782 164.679 16.4851H164.648L163.365 20.3818H162.398Z" fill="black"/>
    <path d="M129.231 126.44H125.843V120.558H129.231V121.58H127.09V122.871H129.082V123.893H127.09V125.41H129.231V126.44ZM135.681 126.44H134.096L131.536 121.99H131.5C131.511 122.175 131.52 122.362 131.528 122.55C131.536 122.737 131.544 122.925 131.553 123.113C131.561 123.298 131.569 123.484 131.577 123.672V126.44H130.462V120.558H132.035L134.59 124.964H134.619C134.613 124.781 134.607 124.6 134.598 124.421C134.59 124.241 134.582 124.061 134.574 123.881C134.569 123.702 134.564 123.522 134.558 123.342V120.558H135.681V126.44ZM139.435 126.44H138.188V121.596H136.59V120.558H141.032V121.596H139.435V126.44ZM143.652 120.558C144.186 120.558 144.626 120.622 144.972 120.751C145.32 120.88 145.579 121.074 145.748 121.334C145.917 121.595 146.002 121.923 146.002 122.32C146.002 122.588 145.951 122.823 145.849 123.024C145.747 123.225 145.613 123.396 145.446 123.535C145.28 123.675 145.1 123.789 144.907 123.877L146.637 126.44H145.253L143.849 124.183H143.185V126.44H141.938V120.558H143.652ZM143.563 121.58H143.185V123.169H143.587C144.001 123.169 144.296 123.101 144.473 122.964C144.652 122.824 144.742 122.621 144.742 122.352C144.742 122.073 144.646 121.875 144.453 121.757C144.262 121.639 143.966 121.58 143.563 121.58ZM150.979 126.44L150.552 125.04H148.408L147.981 126.44H146.637L148.714 120.534H150.239L152.323 126.44H150.979ZM150.255 123.994L149.828 122.626C149.801 122.535 149.765 122.418 149.72 122.276C149.677 122.131 149.632 121.985 149.587 121.837C149.544 121.687 149.509 121.557 149.482 121.447C149.455 121.557 149.418 121.694 149.37 121.857C149.324 122.018 149.28 122.171 149.237 122.316C149.194 122.461 149.163 122.564 149.144 122.626L148.722 123.994H150.255ZM158.286 126.44H156.701L154.142 121.99H154.105C154.116 122.175 154.126 122.362 154.134 122.55C154.142 122.737 154.15 122.925 154.158 123.113C154.166 123.298 154.174 123.484 154.182 123.672V126.44H153.067V120.558H154.641L157.196 124.964H157.224C157.218 124.781 157.212 124.6 157.204 124.421C157.196 124.241 157.188 124.061 157.18 123.881C157.174 123.702 157.169 123.522 157.163 123.342V120.558H158.286V126.44ZM162.27 121.511C162.031 121.511 161.819 121.558 161.634 121.652C161.451 121.743 161.297 121.876 161.171 122.051C161.048 122.225 160.954 122.435 160.889 122.682C160.825 122.929 160.793 123.207 160.793 123.515C160.793 123.931 160.844 124.286 160.946 124.581C161.05 124.874 161.211 125.098 161.429 125.253C161.646 125.406 161.926 125.483 162.27 125.483C162.508 125.483 162.747 125.456 162.986 125.402C163.227 125.349 163.489 125.272 163.77 125.173V126.219C163.51 126.326 163.254 126.403 163.002 126.448C162.75 126.497 162.467 126.521 162.153 126.521C161.547 126.521 161.048 126.396 160.656 126.147C160.267 125.895 159.979 125.543 159.791 125.092C159.603 124.639 159.509 124.111 159.509 123.507C159.509 123.062 159.57 122.654 159.69 122.284C159.811 121.914 159.988 121.593 160.221 121.322C160.455 121.051 160.743 120.842 161.087 120.695C161.43 120.547 161.824 120.473 162.27 120.473C162.562 120.473 162.854 120.511 163.147 120.586C163.442 120.658 163.723 120.759 163.992 120.888L163.589 121.902C163.369 121.797 163.148 121.706 162.925 121.628C162.703 121.55 162.484 121.511 162.27 121.511ZM168.414 126.44H165.026V120.558H168.414V121.58H166.273V122.871H168.265V123.893H166.273V125.41H168.414V126.44Z" fill="black"/>
    <path d="M194.012 116.853L192.844 121.44H191.737L191.116 119.031C191.103 118.985 191.086 118.914 191.065 118.82C191.044 118.726 191.022 118.624 190.999 118.513C190.976 118.4 190.956 118.294 190.937 118.196C190.92 118.095 190.908 118.016 190.902 117.957C190.896 118.016 190.883 118.094 190.865 118.193C190.848 118.291 190.828 118.396 190.805 118.507C190.784 118.617 190.763 118.721 190.742 118.817C190.721 118.913 190.704 118.987 190.692 119.037L190.074 121.44H188.969L187.799 116.853H188.756L189.343 119.357C189.359 119.432 189.378 119.522 189.399 119.627C189.422 119.731 189.444 119.841 189.465 119.956C189.488 120.069 189.508 120.179 189.525 120.286C189.543 120.39 189.557 120.481 189.565 120.559C189.576 120.479 189.589 120.387 189.606 120.283C189.623 120.176 189.641 120.068 189.66 119.959C189.68 119.848 189.701 119.746 189.722 119.652C189.743 119.558 189.762 119.481 189.779 119.423L190.447 116.853H191.367L192.035 119.423C192.05 119.479 192.066 119.556 192.085 119.652C192.106 119.746 192.127 119.848 192.148 119.959C192.169 120.07 192.188 120.179 192.204 120.286C192.223 120.39 192.237 120.481 192.245 120.559C192.26 120.454 192.28 120.328 192.305 120.179C192.332 120.028 192.36 119.879 192.39 119.73C192.421 119.582 192.448 119.457 192.471 119.357L193.055 116.853H194.012ZM196.538 117.597C196.352 117.597 196.186 117.633 196.042 117.706C195.9 117.778 195.779 117.881 195.681 118.017C195.585 118.153 195.512 118.317 195.461 118.51C195.411 118.702 195.386 118.919 195.386 119.159C195.386 119.483 195.426 119.761 195.505 119.991C195.587 120.219 195.712 120.393 195.882 120.515C196.051 120.634 196.27 120.694 196.538 120.694C196.724 120.694 196.91 120.673 197.096 120.631C197.285 120.589 197.489 120.529 197.708 120.452V121.268C197.505 121.352 197.305 121.411 197.109 121.447C196.912 121.484 196.692 121.503 196.447 121.503C195.974 121.503 195.585 121.406 195.279 121.211C194.976 121.015 194.751 120.741 194.605 120.389C194.458 120.036 194.385 119.624 194.385 119.153C194.385 118.806 194.432 118.488 194.526 118.199C194.621 117.91 194.759 117.66 194.941 117.449C195.123 117.238 195.347 117.075 195.615 116.96C195.883 116.845 196.19 116.787 196.538 116.787C196.766 116.787 196.994 116.816 197.222 116.875C197.452 116.931 197.672 117.01 197.881 117.11L197.567 117.901C197.395 117.819 197.223 117.748 197.049 117.688C196.876 117.627 196.705 117.597 196.538 117.597Z" fill="black"/>
    <path d="M200.532 66.4473V60.6097H201.77V65.4251H204.138V66.4473H200.532ZM205.156 66.4473V60.6097H206.394V66.4473H205.156ZM212.443 60.6097L210.458 66.4473H209.109L207.128 60.6097H208.378L209.476 64.0835C209.495 64.142 209.525 64.2525 209.568 64.4149C209.611 64.5746 209.653 64.745 209.696 64.926C209.741 65.1043 209.772 65.2521 209.788 65.3692C209.804 65.2521 209.831 65.1043 209.871 64.926C209.914 64.7476 209.955 64.5786 209.995 64.4189C210.038 64.2565 210.068 64.1447 210.087 64.0835L211.193 60.6097H212.443ZM213.181 66.4473V60.6097H214.419V66.4473H213.181ZM221.067 66.4473H219.494L216.955 62.0311H216.919C216.929 62.2148 216.939 62.3998 216.947 62.5862C216.955 62.7725 216.963 62.9588 216.971 63.1452C216.979 63.3288 216.987 63.5138 216.995 63.7002V66.4473H215.889V60.6097H217.45L219.985 64.9819H220.013C220.008 64.8009 220.001 64.6212 219.993 64.4428C219.985 64.2645 219.977 64.0861 219.969 63.9078C219.964 63.7294 219.959 63.5511 219.953 63.3728V60.6097H221.067V66.4473ZM224.757 63.1691H227.073V66.1957C226.767 66.2969 226.448 66.3781 226.118 66.4393C225.788 66.4978 225.414 66.5271 224.996 66.5271C224.416 66.5271 223.924 66.4127 223.519 66.1837C223.114 65.9548 222.807 65.6167 222.597 65.1695C222.386 64.7223 222.281 64.1727 222.281 63.5205C222.281 62.9082 222.398 62.3785 222.633 61.9313C222.87 61.4841 223.214 61.1381 223.667 60.8932C224.122 60.6483 224.677 60.5258 225.332 60.5258C225.641 60.5258 225.945 60.5591 226.246 60.6257C226.547 60.6922 226.82 60.7787 227.065 60.8852L226.653 61.8754C226.475 61.7849 226.271 61.7091 226.043 61.6478C225.814 61.5866 225.574 61.556 225.324 61.556C224.964 61.556 224.652 61.6385 224.385 61.8036C224.122 61.9686 223.917 62.2002 223.771 62.4983C223.627 62.7938 223.555 63.1425 223.555 63.5444C223.555 63.9251 223.607 64.2632 223.711 64.5586C223.815 64.8514 223.978 65.0817 224.202 65.2494C224.425 65.4144 224.717 65.497 225.076 65.497C225.252 65.497 225.4 65.489 225.519 65.473C225.642 65.4544 225.756 65.4357 225.863 65.4171V64.1993H224.757V63.1691ZM232.291 60.6097C232.821 60.6097 233.258 60.6736 233.601 60.8013C233.947 60.9291 234.204 61.1221 234.372 61.3803C234.539 61.6385 234.623 61.9646 234.623 62.3586C234.623 62.6248 234.573 62.8577 234.471 63.0573C234.37 63.257 234.237 63.426 234.072 63.5644C233.907 63.7028 233.729 63.816 233.537 63.9038L235.254 66.4473H233.881L232.487 64.2073H231.828V66.4473H230.59V60.6097H232.291ZM232.204 61.6239H231.828V63.2011H232.227C232.637 63.2011 232.93 63.1332 233.106 62.9974C233.284 62.859 233.373 62.6567 233.373 62.3905C233.373 62.1137 233.278 61.9167 233.086 61.7996C232.897 61.6824 232.603 61.6239 232.204 61.6239ZM241.287 63.5205C241.287 63.9704 241.231 64.3803 241.12 64.7503C241.008 65.1176 240.837 65.4344 240.609 65.7006C240.382 65.9668 240.095 66.1718 239.746 66.3155C239.397 66.4566 238.985 66.5271 238.508 66.5271C238.032 66.5271 237.619 66.4566 237.27 66.3155C236.922 66.1718 236.633 65.9668 236.404 65.7006C236.178 65.4344 236.009 65.1163 235.897 64.7463C235.785 64.3763 235.729 63.965 235.729 63.5125C235.729 62.9082 235.828 62.3825 236.025 61.9353C236.224 61.4855 236.53 61.1367 236.943 60.8892C237.356 60.6416 237.88 60.5178 238.516 60.5178C239.15 60.5178 239.67 60.6416 240.077 60.8892C240.487 61.1367 240.791 61.4855 240.988 61.9353C241.188 62.3852 241.287 62.9136 241.287 63.5205ZM237.027 63.5205C237.027 63.9278 237.078 64.2791 237.179 64.5746C237.282 64.8674 237.444 65.0937 237.662 65.2534C237.88 65.4104 238.162 65.489 238.508 65.489C238.86 65.489 239.144 65.4104 239.363 65.2534C239.581 65.0937 239.739 64.8674 239.838 64.5746C239.939 64.2791 239.99 63.9278 239.99 63.5205C239.99 62.9082 239.875 62.4264 239.646 62.0751C239.417 61.7237 239.041 61.548 238.516 61.548C238.168 61.548 237.883 61.6279 237.662 61.7876C237.444 61.9446 237.282 62.1709 237.179 62.4664C237.078 62.7592 237.027 63.1106 237.027 63.5205ZM247.796 63.5205C247.796 63.9704 247.74 64.3803 247.628 64.7503C247.516 65.1176 247.346 65.4344 247.117 65.7006C246.891 65.9668 246.603 66.1718 246.254 66.3155C245.906 66.4566 245.493 66.5271 245.017 66.5271C244.54 66.5271 244.128 66.4566 243.779 66.3155C243.43 66.1718 243.141 65.9668 242.912 65.7006C242.686 65.4344 242.517 65.1163 242.405 64.7463C242.294 64.3763 242.238 63.965 242.238 63.5125C242.238 62.9082 242.336 62.3825 242.533 61.9353C242.733 61.4855 243.039 61.1367 243.451 60.8892C243.864 60.6416 244.388 60.5178 245.025 60.5178C245.658 60.5178 246.179 60.6416 246.586 60.8892C246.996 61.1367 247.299 61.4855 247.496 61.9353C247.696 62.3852 247.796 62.9136 247.796 63.5205ZM243.535 63.5205C243.535 63.9278 243.586 64.2791 243.687 64.5746C243.791 64.8674 243.952 65.0937 244.17 65.2534C244.388 65.4104 244.671 65.489 245.017 65.489C245.368 65.489 245.653 65.4104 245.871 65.2534C246.089 65.0937 246.248 64.8674 246.346 64.5746C246.447 64.2791 246.498 63.9278 246.498 63.5205C246.498 62.9082 246.384 62.4264 246.155 62.0751C245.926 61.7237 245.549 61.548 245.025 61.548C244.676 61.548 244.391 61.6279 244.17 61.7876C243.952 61.9446 243.791 62.1709 243.687 62.4664C243.586 62.7592 243.535 63.1106 243.535 63.5205ZM251.477 66.4473L250.072 61.8674H250.036C250.041 61.9766 250.049 62.1416 250.06 62.3626C250.073 62.5808 250.085 62.8137 250.096 63.0613C250.106 63.3089 250.112 63.5325 250.112 63.7321V66.4473H249.006V60.6097H250.691L252.072 65.0737H252.096L253.561 60.6097H255.246V66.4473H254.092V63.6842C254.092 63.5005 254.095 63.2889 254.1 63.0493C254.108 62.8098 254.118 62.5822 254.128 62.3665C254.139 62.1483 254.147 61.9846 254.152 61.8754H254.116L252.611 66.4473H251.477Z" fill="black"/>
    <path d="M195.101 17.4531H193.987L192.776 15.5044L192.361 15.8018V17.4531H191.38V12.8281H192.361V14.9445C192.426 14.8538 192.491 14.7631 192.554 14.6724C192.617 14.5818 192.682 14.4911 192.747 14.4004L194 12.8281H195.088L193.475 14.8749L195.101 17.4531ZM195.683 17.4531V12.8281H196.663V17.4531H195.683ZM199.612 17.4531H198.631V13.6443H197.375V12.8281H200.868V13.6443H199.612V17.4531ZM203.544 13.5779C203.356 13.5779 203.19 13.6148 203.044 13.6886C202.901 13.7603 202.779 13.8647 202.68 14.0018C202.583 14.1389 202.509 14.3044 202.459 14.4984C202.408 14.6925 202.383 14.9108 202.383 15.1533C202.383 15.4802 202.423 15.7596 202.503 15.9916C202.585 16.2215 202.712 16.3976 202.883 16.5199C203.054 16.6401 203.274 16.7002 203.544 16.7002C203.732 16.7002 203.919 16.6791 204.107 16.637C204.297 16.5948 204.502 16.5347 204.724 16.4566V17.2791C204.519 17.3635 204.318 17.4236 204.12 17.4595C203.921 17.4974 203.699 17.5164 203.452 17.5164C202.976 17.5164 202.583 17.4183 202.275 17.2222C201.97 17.0239 201.743 16.7477 201.595 16.3934C201.448 16.0369 201.374 15.6215 201.374 15.147C201.374 14.7969 201.421 14.4763 201.516 14.1853C201.611 13.8942 201.75 13.6422 201.934 13.4292C202.117 13.2162 202.344 13.0517 202.614 12.9357C202.884 12.8197 203.194 12.7617 203.544 12.7617C203.774 12.7617 204.004 12.7912 204.234 12.8503C204.466 12.9072 204.687 12.9863 204.898 13.0875L204.582 13.8847C204.409 13.8025 204.235 13.7308 204.06 13.6696C203.885 13.6085 203.713 13.5779 203.544 13.5779ZM209.501 17.4531H208.523V15.457H206.692V17.4531H205.711V12.8281H206.692V14.6408H208.523V12.8281H209.501V17.4531ZM213.335 17.4531H210.671V12.8281H213.335V13.6317H211.652V14.6471H213.218V15.4507H211.652V16.6433H213.335V17.4531ZM218.406 17.4531H217.16L215.148 13.9543H215.119C215.128 14.0998 215.135 14.2464 215.141 14.3941C215.148 14.5417 215.154 14.6893 215.16 14.8369C215.167 14.9825 215.173 15.129 215.179 15.2767V17.4531H214.303V12.8281H215.54L217.549 16.2921H217.571C217.567 16.1487 217.561 16.0064 217.555 15.8651C217.549 15.7238 217.542 15.5825 217.536 15.4412C217.532 15.2999 217.528 15.1586 217.523 15.0173V12.8281H218.406V17.4531Z" fill="black"/>
</svg>
