<svg width="180" height="164" viewBox="0 0 180 164" fill="none" xmlns="http://www.w3.org/2000/svg">
    <path d="M126.706 1.44629H178.744" stroke="black" stroke-width="1.53054" stroke-linecap="round"/>
    <path d="M178.745 1.44629L178.745 162.918" stroke="black" stroke-width="1.53054" stroke-linecap="round"/>
    <path d="M178.745 162.918L1.20221 162.918" stroke="black" stroke-width="1.53054" stroke-linecap="round"/>
    <path d="M1.20215 1.44629L86.9123 1.44628" stroke="black" stroke-width="1.53054" stroke-linecap="round"/>
    <path d="M134.359 1.44629L134.359 59.6067" stroke="black" stroke-width="1.53054" stroke-linecap="round"/>
    <path d="M135.124 81.7988C135.124 81.3762 134.782 81.0336 134.359 81.0336C133.936 81.0336 133.594 81.3762 133.594 81.7988L135.124 81.7988ZM133.594 81.7988L133.594 94.8084L135.124 94.8084L135.124 81.7988L133.594 81.7988Z" fill="black"/>
    <line x1="133.594" y1="94.0433" x2="177.979" y2="94.0433" stroke="black" stroke-width="1.53054"/>
    <path d="M87.6774 1.44629C87.6774 1.02364 87.3348 0.68102 86.9121 0.68102C86.4895 0.68102 86.1468 1.02364 86.1468 1.44629L87.6774 1.44629ZM86.1468 1.44629L86.1468 93.2786L87.6774 93.2786L87.6774 1.44629L86.1468 1.44629Z" fill="black"/>
    <path d="M28.752 92.5127L86.1471 92.5127" stroke="black" stroke-width="1.53054" stroke-linecap="round"/>
    <path d="M28.752 76.4424L28.752 64.1981" stroke="black" stroke-width="1.53054" stroke-linecap="round"/>
    <path d="M28.752 92.5127L28.752 87.9211" stroke="black" stroke-width="1.53054" stroke-linecap="round"/>
    <path d="M28.752 64.1982L86.1471 64.1982" stroke="black" stroke-width="1.53054" stroke-linecap="round"/>
    <path d="M0.436879 162.918C0.436879 163.341 0.779502 163.683 1.20215 163.683C1.62479 163.683 1.96742 163.341 1.96742 162.918L0.436879 162.918ZM1.96742 162.918L1.96742 1.4462L0.436886 1.4462L0.436879 162.918L1.96742 162.918Z" fill="black"/>
    <path d="M41.8317 80.8914L41.7685 79.5003L45.0837 76.0586H46.4025L43.6474 78.9854L42.997 79.699L41.8317 80.8914ZM40.7839 82.3818V76.0586H41.9582V82.3818H40.7839ZM45.1921 82.3818L42.7712 79.5003L43.548 78.6421L46.5651 82.3818H45.1921ZM47.2563 82.3818V77.5581H48.3854V82.3818H47.2563ZM47.8254 76.7632C47.6146 76.7632 47.44 76.697 47.3015 76.5645C47.169 76.432 47.1027 76.2724 47.1027 76.0857C47.1027 75.893 47.169 75.7334 47.3015 75.607C47.44 75.4745 47.6146 75.4082 47.8254 75.4082C48.0361 75.4082 48.2078 75.4715 48.3403 75.5979C48.4788 75.7184 48.548 75.8719 48.548 76.0586C48.548 76.2573 48.4818 76.426 48.3493 76.5645C48.2168 76.697 48.0422 76.7632 47.8254 76.7632ZM51.6831 82.4451C51.1532 82.4451 50.7437 82.3096 50.4546 82.0386C50.1655 81.7616 50.021 81.3551 50.021 80.8191V76.4922H51.1501V80.792C51.1501 81.0208 51.2074 81.1985 51.3218 81.325C51.4422 81.4514 51.6078 81.5147 51.8186 81.5147C52.0715 81.5147 52.2823 81.4484 52.4509 81.3159L52.7671 82.1199C52.6346 82.2283 52.472 82.3096 52.2793 82.3638C52.0866 82.418 51.8879 82.4451 51.6831 82.4451ZM49.2261 78.4976V77.5943H52.4419V78.4976H49.2261ZM55.7503 82.4451C55.2444 82.4451 54.7928 82.3397 54.3953 82.1289C54.0039 81.9121 53.6968 81.617 53.4739 81.2437C53.2511 80.8703 53.1397 80.4457 53.1397 79.97C53.1397 79.4882 53.2511 79.0636 53.4739 78.6963C53.6968 78.3229 54.0039 78.0309 54.3953 77.8201C54.7928 77.6093 55.2444 77.5039 55.7503 77.5039C56.22 77.5039 56.6325 77.6003 56.9878 77.793C57.3492 77.9797 57.6232 78.2567 57.8099 78.624L56.9427 79.1299C56.7981 78.9011 56.6205 78.7324 56.4097 78.624C56.205 78.5156 55.9821 78.4614 55.7413 78.4614C55.4642 78.4614 55.2143 78.5217 54.9915 78.6421C54.7687 78.7625 54.594 78.9372 54.4676 79.166C54.3411 79.3888 54.2779 79.6568 54.2779 79.97C54.2779 80.2831 54.3411 80.5541 54.4676 80.783C54.594 81.0058 54.7687 81.1774 54.9915 81.2979C55.2143 81.4183 55.4642 81.4785 55.7413 81.4785C55.9821 81.4785 56.205 81.4243 56.4097 81.3159C56.6205 81.2075 56.7981 81.0389 56.9427 80.8101L57.8099 81.3159C57.6232 81.6772 57.3492 81.9573 56.9878 82.156C56.6325 82.3487 56.22 82.4451 55.7503 82.4451ZM61.4789 77.5039C61.8643 77.5039 62.2076 77.5792 62.5087 77.7298C62.8158 77.8803 63.0567 78.1122 63.2313 78.4253C63.406 78.7324 63.4933 79.1299 63.4933 79.6177V82.3818H62.3641V79.7622C62.3641 79.3346 62.2618 79.0155 62.057 78.8047C61.8583 78.5939 61.5782 78.4885 61.2169 78.4885C60.9519 78.4885 60.7171 78.5427 60.5123 78.6511C60.3076 78.7595 60.148 78.9221 60.0336 79.1389C59.9252 79.3497 59.871 79.6177 59.871 79.9429V82.3818H58.7418V75.6792H59.871V78.8589L59.6271 78.4614C59.7957 78.1543 60.0396 77.9194 60.3588 77.7568C60.684 77.5882 61.0573 77.5039 61.4789 77.5039ZM67.2018 82.4451C66.6659 82.4451 66.1961 82.3397 65.7926 82.1289C65.3952 81.9121 65.085 81.617 64.8622 81.2437C64.6454 80.8703 64.537 80.4457 64.537 79.97C64.537 79.4882 64.6424 79.0636 64.8532 78.6963C65.07 78.3229 65.3651 78.0309 65.7384 77.8201C66.1178 77.6093 66.5484 77.5039 67.0302 77.5039C67.4999 77.5039 67.9185 77.6063 68.2858 77.811C68.6531 78.0158 68.9422 78.3049 69.153 78.6782C69.3638 79.0516 69.4691 79.4912 69.4691 79.9971C69.4691 80.0453 69.4661 80.0995 69.4601 80.1597C69.4601 80.2199 69.4571 80.2771 69.4511 80.3313H65.4313V79.5816H68.8549L68.4123 79.8164C68.4183 79.5394 68.3611 79.2955 68.2406 79.0847C68.1202 78.874 67.9546 78.7083 67.7438 78.5879C67.5391 78.4675 67.3012 78.4072 67.0302 78.4072C66.7532 78.4072 66.5093 78.4675 66.2985 78.5879C66.0937 78.7083 65.9312 78.877 65.8107 79.0938C65.6963 79.3045 65.6391 79.5545 65.6391 79.8435V80.0242C65.6391 80.3132 65.7053 80.5692 65.8378 80.792C65.9703 81.0148 66.157 81.1864 66.3979 81.3069C66.6388 81.4273 66.9158 81.4876 67.2289 81.4876C67.4999 81.4876 67.7438 81.4454 67.9606 81.3611C68.1774 81.2768 68.3701 81.1443 68.5387 80.9636L69.144 81.6592C68.9272 81.9121 68.6531 82.1078 68.3219 82.2463C67.9967 82.3788 67.6234 82.4451 67.2018 82.4451ZM73.2908 77.5039C73.6762 77.5039 74.0195 77.5792 74.3206 77.7298C74.6277 77.8803 74.8686 78.1122 75.0433 78.4253C75.2179 78.7324 75.3052 79.1299 75.3052 79.6177V82.3818H74.1761V79.7622C74.1761 79.3346 74.0737 79.0155 73.8689 78.8047C73.6702 78.5939 73.3902 78.4885 73.0289 78.4885C72.7639 78.4885 72.529 78.5427 72.3243 78.6511C72.1195 78.7595 71.9599 78.9221 71.8455 79.1389C71.7371 79.3497 71.6829 79.6177 71.6829 79.9429V82.3818H70.5538V77.5581H71.6287V78.8589L71.439 78.4614C71.6076 78.1543 71.8515 77.9194 72.1707 77.7568C72.4959 77.5882 72.8693 77.5039 73.2908 77.5039Z" fill="black"/>
</svg>
