<svg width="257" height="166" viewBox="0 0 257 166" fill="none" xmlns="http://www.w3.org/2000/svg">
    <path d="M1 1L256 0.999978" stroke="black" stroke-width="1.53054" stroke-linecap="round"/>
    <path d="M255.643 1.37598L255.643 164.378" stroke="black" stroke-width="1.53054" stroke-linecap="round"/>
    <line x1="0.808105" y1="164.378" x2="255.643" y2="164.378" stroke="black" stroke-width="1.53054"/>
    <path d="M0.808105 164.378L0.808113 1.37563" stroke="black" stroke-width="1.53054" stroke-linecap="round"/>
    <path d="M156.923 72.5459L156.923 163.613" stroke="black" stroke-width="1.53054" stroke-linecap="round"/>
    <path d="M223.501 119.227C223.079 119.227 222.736 119.57 222.736 119.992C222.736 120.415 223.079 120.757 223.501 120.757L223.501 119.227ZM255.643 119.227L223.501 119.227L223.501 120.757L255.643 120.757L255.643 119.227Z" fill="black"/>
    <path d="M203.604 119.992L176.055 119.992" stroke="black" stroke-width="1.53054" stroke-linecap="round"/>
    <path d="M163.81 120.757C164.233 120.757 164.576 120.415 164.576 119.992C164.576 119.57 164.233 119.227 163.81 119.227V120.757ZM156.158 120.757H163.81V119.227H156.158V120.757Z" fill="black"/>
    <line x1="190.595" y1="119.992" x2="190.595" y2="164.378" stroke="black" stroke-width="1.53054"/>
    <path d="M105.65 69.4844L105.65 130.706" stroke="black" stroke-width="1.53054" stroke-linecap="round"/>
    <path d="M104.885 45.761C104.885 46.1836 105.227 46.5262 105.65 46.5262C106.073 46.5262 106.415 46.1836 106.415 45.761H104.885ZM104.885 2.14062V45.761H106.415V2.14062H104.885Z" fill="black"/>
    <path d="M122.486 32.7516C122.908 32.7516 123.251 32.409 123.251 31.9863C123.251 31.5637 122.908 31.2211 122.486 31.2211V32.7516ZM105.65 32.7516H122.486V31.2211H105.65V32.7516Z" fill="black"/>
    <path d="M138.557 31.2211C138.134 31.2211 137.791 31.5637 137.791 31.9863C137.791 32.409 138.134 32.7516 138.557 32.7516V31.2211ZM138.557 32.7516H156.158V31.2211H138.557V32.7516Z" fill="black"/>
    <line x1="0.808106" y1="75.6068" x2="104.885" y2="75.6068" stroke="black" stroke-width="1.53054"/>
    <path d="M156.158 51.1185C156.158 51.5411 156.5 51.8837 156.923 51.8837C157.345 51.8837 157.688 51.5411 157.688 51.1185L156.158 51.1185ZM156.158 1.37598L156.158 51.1185L157.688 51.1185L157.688 1.37598L156.158 1.37598Z" fill="black"/>
    <path d="M126.425 19.0898L124.65 13.733H125.683L127.267 18.5771H126.754L128.4 13.733H129.318L130.917 18.5771H130.42L132.042 13.733H132.991L131.216 19.0898H130.16L128.698 14.7202H128.973L127.489 19.0898H126.425ZM136.229 19.1664C135.821 19.1664 135.441 19.1 135.089 18.9674C134.742 18.8297 134.438 18.6383 134.178 18.3934C133.923 18.1435 133.724 17.8501 133.581 17.5134C133.438 17.1767 133.367 16.8093 133.367 16.4114C133.367 16.0135 133.438 15.6461 133.581 15.3094C133.724 14.9727 133.925 14.6819 134.186 14.437C134.446 14.187 134.749 13.9957 135.096 13.8631C135.443 13.7253 135.823 13.6564 136.236 13.6564C136.675 13.6564 137.076 13.733 137.438 13.886C137.8 14.034 138.106 14.2559 138.356 14.5518L137.713 15.1564C137.52 14.9472 137.303 14.7916 137.063 14.6895C136.823 14.5824 136.563 14.5288 136.282 14.5288C136.002 14.5288 135.744 14.5748 135.509 14.6666C135.28 14.7584 135.078 14.8885 134.905 15.0569C134.737 15.2252 134.604 15.4242 134.507 15.6538C134.415 15.8834 134.369 16.1359 134.369 16.4114C134.369 16.6869 134.415 16.9394 134.507 17.169C134.604 17.3986 134.737 17.5976 134.905 17.7659C135.078 17.9343 135.28 18.0644 135.509 18.1562C135.744 18.248 136.002 18.294 136.282 18.294C136.563 18.294 136.823 18.2429 137.063 18.1409C137.303 18.0338 137.52 17.8731 137.713 17.6588L138.356 18.271C138.106 18.5618 137.8 18.7837 137.438 18.9368C137.076 19.0898 136.673 19.1664 136.229 19.1664Z" fill="black"/>
    <path d="M169.554 147.42L167.957 142.599H168.886L170.312 146.958H169.851L171.331 142.599H172.158L173.597 146.958H173.15L174.61 142.599H175.464L173.866 147.42H172.915L171.6 143.487H171.848L170.512 147.42H169.554ZM178.378 147.489C178.01 147.489 177.668 147.429 177.351 147.31C177.039 147.186 176.766 147.014 176.532 146.793C176.302 146.568 176.123 146.304 175.995 146.001C175.866 145.698 175.802 145.367 175.802 145.009C175.802 144.651 175.866 144.321 175.995 144.018C176.123 143.714 176.305 143.453 176.539 143.232C176.773 143.007 177.046 142.835 177.358 142.716C177.671 142.592 178.013 142.53 178.385 142.53C178.779 142.53 179.14 142.599 179.466 142.736C179.792 142.87 180.067 143.069 180.292 143.336L179.714 143.88C179.539 143.692 179.344 143.551 179.128 143.46C178.913 143.363 178.678 143.315 178.426 143.315C178.173 143.315 177.941 143.356 177.73 143.439C177.524 143.522 177.342 143.639 177.186 143.79C177.035 143.942 176.915 144.121 176.828 144.327C176.745 144.534 176.704 144.761 176.704 145.009C176.704 145.257 176.745 145.485 176.828 145.691C176.915 145.898 177.035 146.077 177.186 146.228C177.342 146.38 177.524 146.497 177.73 146.58C177.941 146.662 178.173 146.704 178.426 146.704C178.678 146.704 178.913 146.658 179.128 146.566C179.344 146.469 179.539 146.325 179.714 146.132L180.292 146.683C180.067 146.945 179.792 147.144 179.466 147.282C179.14 147.42 178.777 147.489 178.378 147.489Z" fill="black"/>
    <path d="M115.448 110.076H117.614V110.742H115.448V110.076ZM115.51 111.944H117.969V112.622H114.701V108.264H117.882V108.943H115.51V111.944ZM118.871 112.622V108.264H119.537L122.27 111.62H121.94V108.264H122.743V112.622H122.077L119.344 109.267H119.674V112.622H118.871ZM124.795 112.622V108.949H123.351V108.264H127.049V108.949H125.604V112.622H124.795ZM127.656 112.622V108.264H129.449C129.835 108.264 130.165 108.327 130.439 108.451C130.717 108.576 130.93 108.754 131.08 108.987C131.229 109.219 131.304 109.495 131.304 109.815C131.304 110.134 131.229 110.41 131.08 110.642C130.93 110.871 130.717 111.047 130.439 111.172C130.165 111.292 129.835 111.352 129.449 111.352H128.104L128.465 110.985V112.622H127.656ZM130.507 112.622L129.405 111.041H130.27L131.379 112.622H130.507ZM128.465 111.072L128.104 110.686H129.411C129.768 110.686 130.036 110.609 130.214 110.456C130.397 110.302 130.488 110.088 130.488 109.815C130.488 109.536 130.397 109.323 130.214 109.173C130.036 109.024 129.768 108.949 129.411 108.949H128.104L128.465 108.551V111.072ZM131.593 112.622L133.554 108.264H134.351L136.318 112.622H135.471L133.784 108.694H134.108L132.427 112.622H131.593ZM132.496 111.614L132.713 110.979H135.067L135.284 111.614H132.496ZM136.872 112.622V108.264H137.538L140.271 111.62H139.941V108.264H140.744V112.622H140.078L137.345 109.267H137.675V112.622H136.872ZM143.929 112.684C143.597 112.684 143.288 112.63 143.001 112.522C142.719 112.41 142.472 112.255 142.26 112.056C142.053 111.852 141.891 111.614 141.775 111.34C141.659 111.066 141.601 110.767 141.601 110.443C141.601 110.12 141.659 109.821 141.775 109.547C141.891 109.273 142.055 109.036 142.267 108.837C142.478 108.634 142.725 108.478 143.007 108.37C143.29 108.258 143.599 108.202 143.935 108.202C144.292 108.202 144.618 108.264 144.912 108.389C145.207 108.509 145.456 108.69 145.659 108.931L145.136 109.422C144.979 109.252 144.802 109.126 144.607 109.043C144.412 108.955 144.201 108.912 143.972 108.912C143.744 108.912 143.534 108.949 143.344 109.024C143.157 109.099 142.993 109.204 142.852 109.341C142.715 109.478 142.607 109.64 142.528 109.827C142.453 110.014 142.416 110.219 142.416 110.443C142.416 110.667 142.453 110.873 142.528 111.06C142.607 111.246 142.715 111.408 142.852 111.545C142.993 111.682 143.157 111.788 143.344 111.863C143.534 111.937 143.744 111.975 143.972 111.975C144.201 111.975 144.412 111.933 144.607 111.85C144.802 111.763 144.979 111.632 145.136 111.458L145.659 111.956C145.456 112.193 145.207 112.373 144.912 112.498C144.618 112.622 144.29 112.684 143.929 112.684ZM147.182 110.076H149.348V110.742H147.182V110.076ZM147.244 111.944H149.703V112.622H146.435V108.264H149.616V108.943H147.244V111.944Z" fill="black"/>
    <path d="M209.41 148.248C209.07 148.248 208.744 148.2 208.433 148.105C208.122 148.005 207.875 147.878 207.692 147.725L207.972 147.096C208.146 147.233 208.362 147.347 208.62 147.439C208.877 147.53 209.14 147.575 209.41 147.575C209.638 147.575 209.823 147.551 209.964 147.501C210.105 147.451 210.209 147.385 210.275 147.302C210.342 147.214 210.375 147.117 210.375 147.009C210.375 146.876 210.327 146.77 210.232 146.692C210.136 146.609 210.012 146.544 209.858 146.499C209.709 146.449 209.541 146.403 209.354 146.362C209.172 146.32 208.987 146.272 208.8 146.218C208.617 146.16 208.449 146.088 208.296 146.001C208.146 145.909 208.024 145.789 207.929 145.639C207.833 145.49 207.785 145.299 207.785 145.067C207.785 144.83 207.848 144.614 207.972 144.419C208.101 144.22 208.294 144.062 208.551 143.946C208.813 143.826 209.142 143.766 209.541 143.766C209.802 143.766 210.062 143.799 210.319 143.865C210.576 143.932 210.8 144.027 210.991 144.152L210.736 144.78C210.541 144.664 210.34 144.579 210.132 144.525C209.925 144.467 209.726 144.438 209.535 144.438C209.311 144.438 209.128 144.465 208.987 144.519C208.85 144.573 208.748 144.643 208.682 144.731C208.62 144.818 208.588 144.917 208.588 145.029C208.588 145.162 208.634 145.27 208.725 145.353C208.821 145.432 208.943 145.494 209.093 145.54C209.246 145.586 209.416 145.631 209.603 145.677C209.79 145.718 209.975 145.766 210.157 145.82C210.344 145.874 210.512 145.944 210.661 146.032C210.815 146.119 210.937 146.237 211.029 146.386C211.124 146.536 211.172 146.725 211.172 146.953C211.172 147.185 211.108 147.401 210.979 147.6C210.854 147.795 210.661 147.953 210.4 148.073C210.139 148.19 209.809 148.248 209.41 148.248ZM212.798 148.186V144.513H211.353V143.828H215.051V144.513H213.607V148.186H212.798ZM217.639 148.248C217.299 148.248 216.986 148.192 216.699 148.08C216.413 147.968 216.164 147.812 215.952 147.613C215.741 147.409 215.577 147.173 215.461 146.903C215.344 146.629 215.286 146.33 215.286 146.007C215.286 145.683 215.344 145.386 215.461 145.117C215.577 144.843 215.741 144.606 215.952 144.407C216.164 144.204 216.413 144.046 216.699 143.934C216.986 143.822 217.297 143.766 217.633 143.766C217.974 143.766 218.285 143.822 218.567 143.934C218.853 144.046 219.102 144.204 219.314 144.407C219.526 144.606 219.69 144.843 219.806 145.117C219.922 145.386 219.98 145.683 219.98 146.007C219.98 146.33 219.922 146.629 219.806 146.903C219.69 147.177 219.526 147.414 219.314 147.613C219.102 147.812 218.853 147.968 218.567 148.08C218.285 148.192 217.976 148.248 217.639 148.248ZM217.633 147.538C217.853 147.538 218.057 147.501 218.243 147.426C218.43 147.351 218.592 147.246 218.729 147.109C218.866 146.967 218.972 146.806 219.046 146.623C219.125 146.436 219.165 146.231 219.165 146.007C219.165 145.783 219.125 145.579 219.046 145.397C218.972 145.21 218.866 145.048 218.729 144.911C218.592 144.77 218.43 144.662 218.243 144.587C218.057 144.513 217.853 144.475 217.633 144.475C217.413 144.475 217.21 144.513 217.023 144.587C216.841 144.662 216.679 144.77 216.538 144.911C216.401 145.048 216.293 145.21 216.214 145.397C216.139 145.579 216.102 145.783 216.102 146.007C216.102 146.227 216.139 146.43 216.214 146.617C216.293 146.804 216.401 146.967 216.538 147.109C216.675 147.246 216.836 147.351 217.023 147.426C217.21 147.501 217.413 147.538 217.633 147.538ZM220.838 148.186V143.828H222.631C223.017 143.828 223.347 143.89 223.621 144.015C223.899 144.139 224.112 144.318 224.262 144.55C224.411 144.782 224.486 145.058 224.486 145.378C224.486 145.698 224.411 145.974 224.262 146.206C224.112 146.434 223.899 146.611 223.621 146.735C223.347 146.855 223.017 146.916 222.631 146.916H221.286L221.647 146.548V148.186H220.838ZM223.689 148.186L222.587 146.604H223.452L224.561 148.186H223.689ZM221.647 146.635L221.286 146.25H222.593C222.95 146.25 223.218 146.173 223.396 146.019C223.579 145.866 223.67 145.652 223.67 145.378C223.67 145.1 223.579 144.886 223.396 144.737C223.218 144.587 222.95 144.513 222.593 144.513H221.286L221.647 144.114V146.635ZM224.775 148.186L226.736 143.828H227.533L229.5 148.186H228.653L226.966 144.257H227.29L225.609 148.186H224.775ZM225.678 147.177L225.896 146.542H228.249L228.467 147.177H225.678ZM232.029 148.248C231.689 148.248 231.375 148.194 231.089 148.086C230.807 147.974 230.56 147.818 230.348 147.619C230.136 147.416 229.973 147.177 229.856 146.903C229.74 146.629 229.682 146.33 229.682 146.007C229.682 145.683 229.74 145.384 229.856 145.11C229.973 144.836 230.136 144.6 230.348 144.401C230.564 144.197 230.815 144.042 231.101 143.934C231.388 143.822 231.701 143.766 232.041 143.766C232.411 143.766 232.743 143.826 233.037 143.946C233.336 144.067 233.587 144.243 233.791 144.475L233.28 144.973C233.11 144.803 232.925 144.679 232.726 144.6C232.531 144.517 232.315 144.475 232.079 144.475C231.85 144.475 231.639 144.513 231.444 144.587C231.249 144.662 231.081 144.768 230.94 144.905C230.798 145.042 230.688 145.204 230.61 145.39C230.535 145.577 230.498 145.783 230.498 146.007C230.498 146.227 230.535 146.43 230.61 146.617C230.688 146.804 230.798 146.967 230.94 147.109C231.081 147.246 231.247 147.351 231.438 147.426C231.628 147.501 231.84 147.538 232.072 147.538C232.288 147.538 232.496 147.505 232.695 147.439C232.898 147.368 233.091 147.252 233.274 147.09L233.735 147.694C233.506 147.876 233.241 148.015 232.938 148.111C232.639 148.202 232.336 148.248 232.029 148.248ZM232.969 147.588V145.957H233.735V147.694L232.969 147.588ZM235.549 145.639H237.715V146.306H235.549V145.639ZM235.611 147.507H238.07V148.186H234.802V143.828H237.983V144.506H235.611V147.507Z" fill="black"/>
    <path d="M35.3202 41.7918L35.257 40.4006L38.5722 36.959H39.891L37.1359 39.8858L36.4855 40.5994L35.3202 41.7918ZM34.2724 43.2822V36.959H35.4467V43.2822H34.2724ZM38.6806 43.2822L36.2597 40.4006L37.0365 39.5425L40.0536 43.2822H38.6806ZM40.8532 43.2822V36.959H42.0275V43.2822H40.8532ZM45.0205 43.2822V37.9527H42.9248V36.959H48.2905V37.9527H46.1948V43.2822H45.0205ZM52.0104 43.3726C51.5286 43.3726 51.08 43.2943 50.6644 43.1377C50.2549 42.9751 49.8966 42.7493 49.5895 42.4602C49.2884 42.1651 49.0535 41.8189 48.8849 41.4214C48.7163 41.0239 48.632 40.5903 48.632 40.1206C48.632 39.6509 48.7163 39.2173 48.8849 38.8198C49.0535 38.4224 49.2914 38.0791 49.5985 37.7901C49.9056 37.495 50.264 37.2691 50.6735 37.1126C51.083 36.95 51.5316 36.8687 52.0194 36.8687C52.5373 36.8687 53.01 36.959 53.4376 37.1397C53.8652 37.3143 54.2265 37.5763 54.5216 37.9256L53.7628 38.6392C53.534 38.3923 53.278 38.2086 52.995 38.0882C52.7119 37.9617 52.4048 37.8985 52.0736 37.8985C51.7424 37.8985 51.4383 37.9527 51.1612 38.0611C50.8903 38.1694 50.6524 38.323 50.4476 38.5217C50.2489 38.7205 50.0923 38.9553 49.9779 39.2263C49.8695 39.4973 49.8153 39.7954 49.8153 40.1206C49.8153 40.4458 49.8695 40.7439 49.9779 41.0149C50.0923 41.2859 50.2489 41.5208 50.4476 41.7195C50.6524 41.9182 50.8903 42.0718 51.1612 42.1802C51.4383 42.2886 51.7424 42.3428 52.0736 42.3428C52.4048 42.3428 52.7119 42.2826 52.995 42.1621C53.278 42.0356 53.534 41.846 53.7628 41.593L54.5216 42.3157C54.2265 42.6589 53.8652 42.9209 53.4376 43.1016C53.01 43.2822 52.5343 43.3726 52.0104 43.3726ZM60.0911 36.959H61.2654V43.2822H60.0911V36.959ZM56.8211 43.2822H55.6468V36.959H56.8211V43.2822ZM60.1814 40.5723H56.7217V39.5696H60.1814V40.5723ZM64.0438 39.5877H67.1873V40.5542H64.0438V39.5877ZM64.1341 42.2976H67.7022V43.2822H62.9598V36.959H67.5757V37.9436H64.1341V42.2976ZM69.0113 43.2822V36.959H69.9778L73.9434 41.8279H73.4647V36.959H74.6299V43.2822H73.6634L69.6978 38.4133H70.1766V43.2822H69.0113Z" fill="black"/>
</svg>
