<svg width="346" height="198" viewBox="0 0 346 198" fill="none" xmlns="http://www.w3.org/2000/svg">
    <path d="M2 1L345 0.99997" stroke="black" stroke-width="1.53054" stroke-linecap="round"/>
    <path d="M1.39258 196.378L344.998 196.378" stroke="black" stroke-width="1.53054" stroke-linecap="round"/>
    <line x1="2.1582" y1="99.1888" x2="145.264" y2="99.1888" stroke="black" stroke-width="1.53054"/>
    <line x1="204.188" y1="98.4232" x2="345.763" y2="98.4232" stroke="black" stroke-width="1.53054"/>
    <path d="M144.497 37.967C144.497 38.3897 144.84 38.7323 145.263 38.7323C145.685 38.7323 146.028 38.3897 146.028 37.967L144.497 37.967ZM144.497 2.76465L144.497 37.967L146.028 37.967L146.028 2.76465L144.497 2.76465Z" fill="black"/>
    <path d="M146.028 50.9766C146.028 50.5539 145.685 50.2113 145.263 50.2113C144.84 50.2113 144.497 50.5539 144.497 50.9766L146.028 50.9766ZM144.497 50.9766L144.497 196.378L146.028 196.378L146.028 50.9766L144.497 50.9766Z" fill="black"/>
    <path d="M205.719 26.4883C205.719 26.0656 205.377 25.723 204.954 25.723C204.531 25.723 204.189 26.0656 204.189 26.4883L205.719 26.4883ZM204.189 26.4883L204.189 196.378L205.719 196.378L205.719 26.4883L204.189 26.4883Z" fill="black"/>
    <path d="M83.2765 56.3343C82.8539 56.3343 82.5112 56.677 82.5112 57.0996C82.5112 57.5223 82.8539 57.8649 83.2765 57.8649L83.2765 56.3343ZM144.498 56.3343L83.2765 56.3343L83.2765 57.8649L144.498 57.8649L144.498 56.3343Z" fill="black"/>
    <path d="M64.1442 57.8639C64.1442 57.4413 63.8016 57.0987 63.3789 57.0987C62.9563 57.0987 62.6136 57.4413 62.6136 57.8639L64.1442 57.8639ZM64.1442 99.1885L64.1442 57.8639L62.6136 57.8639L62.6136 99.1885L64.1442 99.1885Z" fill="black"/>
    <path d="M1.39258 196.378L1.39259 1.99959" stroke="black" stroke-width="1.53054" stroke-linecap="round"/>
    <path d="M344.998 196.378L344.998 1.99959" stroke="black" stroke-width="1.53054" stroke-linecap="round"/>
    <path d="M75.8182 82.9346L73.7225 76.6113H74.942L76.8119 82.3293H76.2066L78.1488 76.6113H79.2327L81.1207 82.3293H80.5335L82.4486 76.6113H83.5687L81.473 82.9346H80.2264L78.5011 77.7766H78.8263L77.0738 82.9346H75.8182ZM87.3903 83.0249C86.9086 83.0249 86.4599 82.9466 86.0444 82.79C85.6349 82.6274 85.2766 82.4016 84.9694 82.1126C84.6683 81.8175 84.4335 81.4712 84.2649 81.0737C84.0962 80.6763 84.0119 80.2427 84.0119 79.773C84.0119 79.3032 84.0962 78.8696 84.2649 78.4722C84.4335 78.0747 84.6714 77.7315 84.9785 77.4424C85.2856 77.1473 85.6439 76.9215 86.0534 76.7649C86.4629 76.6023 86.9116 76.521 87.3994 76.521C87.9173 76.521 88.39 76.6113 88.8176 76.792C89.2452 76.9667 89.6065 77.2286 89.9016 77.5779L89.1428 78.2915C88.9139 78.0446 88.658 77.8609 88.375 77.7405C88.0919 77.614 87.7848 77.5508 87.4536 77.5508C87.1224 77.5508 86.8182 77.605 86.5412 77.7134C86.2702 77.8218 86.0324 77.9754 85.8276 78.1741C85.6289 78.3728 85.4723 78.6077 85.3579 78.8787C85.2495 79.1497 85.1953 79.4478 85.1953 79.773C85.1953 80.0982 85.2495 80.3962 85.3579 80.6672C85.4723 80.9382 85.6289 81.1731 85.8276 81.3718C86.0324 81.5706 86.2702 81.7241 86.5412 81.8325C86.8182 81.9409 87.1224 81.9951 87.4536 81.9951C87.7848 81.9951 88.0919 81.9349 88.375 81.8145C88.658 81.688 88.9139 81.4983 89.1428 81.2454L89.9016 81.968C89.6065 82.3113 89.2452 82.5732 88.8176 82.7539C88.39 82.9346 87.9143 83.0249 87.3903 83.0249Z" fill="black"/>
    <path d="M100.273 81.4658V77.1803H102.281C102.795 77.1803 103.187 77.2823 103.456 77.4864C103.725 77.6864 103.86 77.9558 103.86 78.2945C103.86 78.5231 103.807 78.719 103.701 78.8823C103.595 79.0414 103.452 79.1659 103.272 79.2557C103.097 79.3414 102.905 79.3843 102.697 79.3843L102.807 79.1639C103.048 79.1639 103.264 79.2088 103.456 79.2986C103.648 79.3843 103.799 79.5108 103.909 79.6782C104.023 79.8455 104.08 80.0536 104.08 80.3026C104.08 80.6699 103.94 80.9556 103.658 81.1597C103.376 81.3638 102.958 81.4658 102.403 81.4658H100.273ZM101.068 80.8414H102.354C102.652 80.8414 102.881 80.7924 103.04 80.6944C103.199 80.5965 103.278 80.4393 103.278 80.223C103.278 80.0108 103.199 79.8557 103.04 79.7577C102.881 79.6557 102.652 79.6047 102.354 79.6047H101.007V78.9863H102.195C102.472 78.9863 102.685 78.9374 102.832 78.8394C102.983 78.7415 103.058 78.5945 103.058 78.3986C103.058 78.1986 102.983 78.0497 102.832 77.9517C102.685 77.8538 102.472 77.8048 102.195 77.8048H101.068V80.8414ZM104.324 81.4658L106.252 77.1803H107.036L108.971 81.4658H108.138L106.479 77.6027H106.797L105.144 81.4658H104.324ZM105.211 80.474L105.426 79.8496H107.74L107.954 80.474H105.211ZM110.17 81.4658V77.8538H108.749V77.1803H112.386V77.8538H110.966V81.4658H110.17ZM115.995 77.1803H116.791V81.4658H115.995V77.1803ZM113.779 81.4658H112.983V77.1803H113.779V81.4658ZM116.056 79.6292H113.712V78.9496H116.056V79.6292ZM117.939 81.4658V77.1803H119.703C120.082 77.1803 120.407 77.2415 120.676 77.364C120.95 77.4864 121.16 77.6619 121.307 77.8905C121.454 78.119 121.527 78.3905 121.527 78.7047C121.527 79.019 121.454 79.2904 121.307 79.519C121.16 79.7435 120.95 79.9169 120.676 80.0394C120.407 80.1577 120.082 80.2169 119.703 80.2169H118.38L118.735 79.8557V81.4658H117.939ZM120.743 81.4658L119.66 79.9108H120.511L121.601 81.4658H120.743ZM118.735 79.9414L118.38 79.5618H119.666C120.017 79.5618 120.28 79.4863 120.456 79.3353C120.635 79.1843 120.725 78.9741 120.725 78.7047C120.725 78.4313 120.635 78.2211 120.456 78.0741C120.28 77.9272 120.017 77.8538 119.666 77.8538H118.38L118.735 77.4619V79.9414ZM124.426 81.527C124.091 81.527 123.783 81.4719 123.501 81.3617C123.219 81.2515 122.975 81.0985 122.766 80.9026C122.558 80.7026 122.397 80.47 122.283 80.2047C122.169 79.9353 122.111 79.6414 122.111 79.3231C122.111 79.0047 122.169 78.7129 122.283 78.4476C122.397 78.1782 122.558 77.9456 122.766 77.7497C122.975 77.5497 123.219 77.3946 123.501 77.2844C123.783 77.1742 124.089 77.1191 124.419 77.1191C124.754 77.1191 125.06 77.1742 125.338 77.2844C125.619 77.3946 125.864 77.5497 126.072 77.7497C126.281 77.9456 126.442 78.1782 126.556 78.4476C126.67 78.7129 126.727 79.0047 126.727 79.3231C126.727 79.6414 126.67 79.9353 126.556 80.2047C126.442 80.474 126.281 80.7067 126.072 80.9026C125.864 81.0985 125.619 81.2515 125.338 81.3617C125.06 81.4719 124.756 81.527 124.426 81.527ZM124.419 80.8291C124.636 80.8291 124.836 80.7924 125.019 80.7189C125.203 80.6455 125.362 80.5414 125.497 80.4067C125.632 80.2679 125.736 80.1087 125.809 79.9292C125.887 79.7455 125.925 79.5435 125.925 79.3231C125.925 79.1027 125.887 78.9027 125.809 78.7231C125.736 78.5394 125.632 78.3803 125.497 78.2456C125.362 78.1068 125.203 78.0007 125.019 77.9272C124.836 77.8538 124.636 77.817 124.419 77.817C124.203 77.817 124.003 77.8538 123.819 77.9272C123.64 78.0007 123.481 78.1068 123.342 78.2456C123.207 78.3803 123.101 78.5394 123.024 78.7231C122.95 78.9027 122.913 79.1027 122.913 79.3231C122.913 79.5394 122.95 79.7394 123.024 79.923C123.101 80.1067 123.207 80.2679 123.342 80.4067C123.477 80.5414 123.636 80.6455 123.819 80.7189C124.003 80.7924 124.203 80.8291 124.419 80.8291ZM129.579 81.527C129.244 81.527 128.936 81.4719 128.655 81.3617C128.373 81.2515 128.128 81.0985 127.92 80.9026C127.712 80.7026 127.551 80.47 127.436 80.2047C127.322 79.9353 127.265 79.6414 127.265 79.3231C127.265 79.0047 127.322 78.7129 127.436 78.4476C127.551 78.1782 127.712 77.9456 127.92 77.7497C128.128 77.5497 128.373 77.3946 128.655 77.2844C128.936 77.1742 129.242 77.1191 129.573 77.1191C129.908 77.1191 130.214 77.1742 130.491 77.2844C130.773 77.3946 131.018 77.5497 131.226 77.7497C131.434 77.9456 131.595 78.1782 131.71 78.4476C131.824 78.7129 131.881 79.0047 131.881 79.3231C131.881 79.6414 131.824 79.9353 131.71 80.2047C131.595 80.474 131.434 80.7067 131.226 80.9026C131.018 81.0985 130.773 81.2515 130.491 81.3617C130.214 81.4719 129.91 81.527 129.579 81.527ZM129.573 80.8291C129.789 80.8291 129.989 80.7924 130.173 80.7189C130.357 80.6455 130.516 80.5414 130.651 80.4067C130.785 80.2679 130.889 80.1087 130.963 79.9292C131.04 79.7455 131.079 79.5435 131.079 79.3231C131.079 79.1027 131.04 78.9027 130.963 78.7231C130.889 78.5394 130.785 78.3803 130.651 78.2456C130.516 78.1068 130.357 78.0007 130.173 77.9272C129.989 77.8538 129.789 77.817 129.573 77.817C129.357 77.817 129.157 77.8538 128.973 77.9272C128.793 78.0007 128.634 78.1068 128.496 78.2456C128.361 78.3803 128.255 78.5394 128.177 78.7231C128.104 78.9027 128.067 79.1027 128.067 79.3231C128.067 79.5394 128.104 79.7394 128.177 79.923C128.255 80.1067 128.361 80.2679 128.496 80.4067C128.63 80.5414 128.789 80.6455 128.973 80.7189C129.157 80.7924 129.357 80.8291 129.573 80.8291ZM132.725 81.4658V77.1803H133.38L135.253 80.3087H134.91L136.753 77.1803H137.408L137.414 81.4658H136.661L136.655 78.3619H136.814L135.247 80.976H134.892L133.3 78.3619H133.484V81.4658H132.725Z" fill="black"/>
    <path d="M256.303 52.364L256.239 50.9729L259.555 47.5313H260.873L258.118 50.458L257.468 51.1716L256.303 52.364ZM255.255 53.8545V47.5313H256.429V53.8545H255.255ZM259.663 53.8545L257.242 50.9729L258.019 50.1148L261.036 53.8545H259.663ZM261.836 53.8545V47.5313H263.01V53.8545H261.836ZM266.003 53.8545V48.5249H263.907V47.5313H269.273V48.5249H267.177V53.8545H266.003ZM272.993 53.9448C272.511 53.9448 272.062 53.8665 271.647 53.71C271.237 53.5474 270.879 53.3215 270.572 53.0325C270.271 52.7374 270.036 52.3911 269.867 51.9937C269.699 51.5962 269.614 51.1626 269.614 50.6929C269.614 50.2232 269.699 49.7896 269.867 49.3921C270.036 48.9946 270.274 48.6514 270.581 48.3623C270.888 48.0672 271.246 47.8414 271.656 47.6848C272.065 47.5222 272.514 47.4409 273.002 47.4409C273.52 47.4409 273.992 47.5313 274.42 47.7119C274.848 47.8866 275.209 48.1485 275.504 48.4978L274.745 49.2114C274.516 48.9645 274.26 48.7809 273.977 48.6604C273.694 48.534 273.387 48.4707 273.056 48.4707C272.725 48.4707 272.421 48.5249 272.144 48.6333C271.873 48.7417 271.635 48.8953 271.43 49.094C271.231 49.2927 271.075 49.5276 270.96 49.7986C270.852 50.0696 270.798 50.3677 270.798 50.6929C270.798 51.0181 270.852 51.3162 270.96 51.5872C271.075 51.8582 271.231 52.093 271.43 52.2918C271.635 52.4905 271.873 52.644 272.144 52.7524C272.421 52.8608 272.725 52.915 273.056 52.915C273.387 52.915 273.694 52.8548 273.977 52.7344C274.26 52.6079 274.516 52.4182 274.745 52.1653L275.504 52.8879C275.209 53.2312 274.848 53.4932 274.42 53.6738C273.992 53.8545 273.517 53.9448 272.993 53.9448ZM281.074 47.5313H282.248V53.8545H281.074V47.5313ZM277.804 53.8545H276.629V47.5313H277.804V53.8545ZM281.164 51.1445H277.704V50.1419H281.164V51.1445ZM285.026 50.1599H288.17V51.1265H285.026V50.1599ZM285.117 52.8699H288.685V53.8545H283.942V47.5313H288.558V48.5159H285.117V52.8699ZM289.994 53.8545V47.5313H290.96L294.926 52.4002H294.447V47.5313H295.612V53.8545H294.646L290.68 48.9856H291.159V53.8545H289.994Z" fill="black"/>
    <path d="M158.619 121.316H159.661V126.926H158.619V121.316ZM155.719 126.926H154.677V121.316H155.719V126.926ZM158.699 124.522H155.63V123.632H158.699V124.522ZM160.371 126.926L162.895 121.316H163.921L166.453 126.926H165.363L163.191 121.869H163.608L161.445 126.926H160.371ZM161.533 125.628L161.813 124.81H164.842L165.123 125.628H161.533ZM167.166 126.926V121.316H168.208V126.044H171.141V126.926H167.166ZM171.963 126.926V121.316H173.005V126.044H175.938V126.926H171.963ZM177.683 126.926L175.824 121.316H176.906L178.565 126.389H178.028L179.751 121.316H180.712L182.387 126.389H181.866L183.565 121.316H184.559L182.7 126.926H181.594L180.063 122.35H180.352L178.797 126.926H177.683ZM184.434 126.926L186.958 121.316H187.984L190.516 126.926H189.426L187.255 121.869H187.672L185.508 126.926H184.434ZM185.596 125.628L185.877 124.81H188.906L189.186 125.628H185.596ZM192.271 126.926V124.706L192.504 125.347L190.068 121.316H191.182L193.137 124.562H192.512L194.483 121.316H195.509L193.073 125.347L193.313 124.706V126.926H192.271Z" fill="black"/>
</svg>
