<svg width="210" height="254" viewBox="0 0 210 254" fill="none" xmlns="http://www.w3.org/2000/svg">
    <path d="M193.533 155.46C193.471 155.374 193.387 155.305 193.29 155.256C193.192 155.208 193.084 155.183 192.973 155.183H185.027C184.916 155.183 184.808 155.208 184.71 155.256C184.613 155.305 184.529 155.374 184.467 155.46L183.116 157.322C183.047 157.417 183.008 157.528 183.001 157.642C182.994 157.756 183.021 157.87 183.079 157.972C183.136 158.073 183.222 158.157 183.327 158.216C183.433 158.275 183.553 158.307 183.676 158.307H194.324C194.447 158.307 194.568 158.275 194.673 158.216C194.778 158.157 194.864 158.073 194.921 157.972C194.979 157.87 195.006 157.756 194.999 157.642C194.992 157.528 194.953 157.417 194.884 157.322L193.533 155.46ZM194.324 157.676H183.676L185.027 155.813H192.973L194.324 157.676ZM188.089 154.839V153.914C188.089 153.839 188.06 153.767 188.008 153.71C187.956 153.652 187.883 153.615 187.804 153.603L186.759 153.449C186.39 153.395 186.044 153.629 185.986 153.974L187.413 154.184L187.143 154.839H188.089ZM187.485 149.149C187.42 149.599 187.327 150.046 187.207 150.487L187.104 150.868L188.031 150.986L188.04 150.592C188.051 150.138 188.089 149.684 188.155 149.234L188.168 149.138C188.177 149.08 188.209 149.027 188.258 148.99C188.306 148.953 188.369 148.934 188.431 148.938C188.561 148.946 188.662 149.047 188.662 149.168V154.839H189.338V149.168C189.338 148.714 188.961 148.339 188.476 148.309C187.991 148.279 187.564 148.604 187.499 149.054L187.485 149.149ZM190.857 154.839L190.587 154.184L192.014 153.974C191.956 153.629 191.61 153.395 191.241 153.449L190.196 153.603C190.032 153.627 189.911 153.759 189.911 153.914V154.839H190.857ZM187.006 151.541L187.933 151.659L187.994 151.242L187.066 151.124L187.006 151.541Z" fill="black"/>
    <path d="M182 195.307V196.307C182 198.217 180.93 199.877 179.35 200.717L180 203.307H178L177.5 201.307H168.5L168 203.307H166L166.65 200.717C165.849 200.292 165.18 199.656 164.713 198.88C164.246 198.103 164 197.213 164 196.307V195.307H163V193.307H181V186.307C181 186.041 180.895 185.787 180.707 185.6C180.52 185.412 180.265 185.307 180 185.307C179.5 185.307 179.12 185.647 179 186.097C179.63 186.637 180 187.437 180 188.307H174C174 187.511 174.316 186.748 174.879 186.185C175.441 185.623 176.204 185.307 177 185.307H177.17C177.58 184.147 178.69 183.307 180 183.307C180.796 183.307 181.559 183.623 182.121 184.185C182.684 184.748 183 185.511 183 186.307V195.307H182ZM180 195.307H166V196.307C166 197.102 166.316 197.865 166.879 198.428C167.441 198.991 168.204 199.307 169 199.307H177C177.796 199.307 178.559 198.991 179.121 198.428C179.684 197.865 180 197.102 180 196.307V195.307Z" fill="black"/>
    <path d="M165.297 234.974L162.611 226.869H164.174L166.571 234.198H165.795L168.284 226.869H169.674L172.093 234.198H171.341L173.795 226.869H175.231L172.545 234.974H170.947L168.736 228.363H169.153L166.906 234.974H165.297ZM180.129 235.089C179.512 235.089 178.937 234.989 178.404 234.788C177.879 234.58 177.42 234.291 177.026 233.92C176.64 233.542 176.339 233.098 176.123 232.589C175.907 232.079 175.799 231.523 175.799 230.921C175.799 230.319 175.907 229.764 176.123 229.254C176.339 228.745 176.644 228.305 177.038 227.934C177.431 227.556 177.891 227.267 178.416 227.066C178.94 226.858 179.515 226.753 180.141 226.753C180.804 226.753 181.41 226.869 181.958 227.101C182.506 227.325 182.969 227.66 183.348 228.108L182.375 229.023C182.082 228.706 181.754 228.471 181.391 228.316C181.028 228.154 180.635 228.073 180.21 228.073C179.786 228.073 179.396 228.143 179.041 228.282C178.693 228.421 178.388 228.617 178.126 228.872C177.871 229.127 177.671 229.428 177.524 229.775C177.385 230.123 177.316 230.505 177.316 230.921C177.316 231.338 177.385 231.72 177.524 232.068C177.671 232.415 177.871 232.716 178.126 232.971C178.388 233.225 178.693 233.422 179.041 233.561C179.396 233.7 179.786 233.77 180.21 233.77C180.635 233.77 181.028 233.692 181.391 233.538C181.754 233.376 182.082 233.133 182.375 232.809L183.348 233.735C182.969 234.175 182.506 234.511 181.958 234.742C181.41 234.974 180.801 235.089 180.129 235.089Z" fill="black"/>
    <rect x="141.5" y="143.807" width="59" height="18" rx="1.5" stroke="black"/>
    <rect x="1" y="1.30664" width="208" height="251" rx="1" stroke="black" stroke-width="2"/>
    <path d="M94.4992 172.334C94.5146 172.059 94.3035 171.823 94.0277 171.807C93.752 171.792 93.5161 172.003 93.5008 172.279L94.4992 172.334ZM89.9997 253.31L94.4992 172.334L93.5008 172.279L89.0013 253.254L89.9997 253.31Z" fill="black"/>
    <path d="M94 171.307C93.7239 171.307 93.5 171.53 93.5 171.807C93.5 172.083 93.7239 172.307 94 172.307L94 171.307ZM210 171.307L94 171.307L94 172.307L210 172.307L210 171.307Z" fill="black"/>
    <line x1="134.5" y1="0.306641" x2="134.5" y2="92.3066" stroke="black"/>
    <line x1="210" y1="92.8066" x2="134" y2="92.8066" stroke="black"/>
</svg>
