<svg width="208" height="195" viewBox="0 0 208 195" fill="none" xmlns="http://www.w3.org/2000/svg">
    <path d="M191.288 76.8903C191.216 76.7879 191.119 76.7041 191.005 76.6461C190.891 76.5882 190.764 76.5579 190.635 76.5578H181.365C181.236 76.5579 181.109 76.5882 180.995 76.6461C180.881 76.7041 180.784 76.7879 180.712 76.8903L179.136 79.1252C179.055 79.2391 179.009 79.3718 179.001 79.5091C178.993 79.6464 179.025 79.7831 179.092 79.9046C179.159 80.026 179.259 80.1275 179.382 80.1984C179.505 80.2692 179.645 80.3066 179.788 80.3066H192.212C192.355 80.3066 192.495 80.2692 192.618 80.1983C192.741 80.1275 192.841 80.0259 192.908 79.9045C192.975 79.7831 193.007 79.6464 192.999 79.5091C192.991 79.3718 192.945 79.2391 192.864 79.1252L191.288 76.8903ZM192.212 79.5497H179.788L181.365 77.3147H190.635L192.212 79.5497ZM184.937 76.1456V75.0359C184.937 74.9458 184.903 74.8586 184.843 74.7901C184.782 74.7216 184.697 74.6762 184.604 74.6621L183.385 74.4773C182.955 74.4122 182.551 74.6941 182.484 75.107L184.149 75.3593L183.833 76.1456H184.937ZM184.233 69.3172C184.156 69.8578 184.048 70.3937 183.908 70.9225L183.788 71.3802L184.869 71.5213L184.88 71.0493C184.893 70.5039 184.937 69.9597 185.014 69.4191L185.03 69.3049C185.04 69.2349 185.077 69.1712 185.134 69.1265C185.191 69.0818 185.263 69.0596 185.337 69.0642C185.488 69.0738 185.606 69.1946 185.606 69.3404V76.1456H186.394V69.3404C186.394 68.796 185.954 68.3449 185.389 68.3089C184.823 68.273 184.325 68.6636 184.249 69.203L184.233 69.3172ZM188.167 76.1456L187.851 75.3593L189.516 75.107C189.449 74.6941 189.045 74.4122 188.615 74.4773L187.396 74.6621C187.204 74.6911 187.063 74.8497 187.063 75.0359V76.1456H188.167ZM183.673 72.188L184.755 72.329L184.826 71.829L183.744 71.6879L183.673 72.188Z" fill="black"/>
    <path d="M198 142.307V143.307C198 145.217 196.93 146.877 195.35 147.717L196 150.307H194L193.5 148.307H184.5L184 150.307H182L182.65 147.717C181.849 147.292 181.18 146.656 180.713 145.88C180.246 145.103 180 144.213 180 143.307V142.307H179V140.307H197V133.307C197 133.041 196.895 132.787 196.707 132.6C196.52 132.412 196.265 132.307 196 132.307C195.5 132.307 195.12 132.647 195 133.097C195.63 133.637 196 134.437 196 135.307H190C190 134.511 190.316 133.748 190.879 133.185C191.441 132.623 192.204 132.307 193 132.307H193.17C193.58 131.147 194.69 130.307 196 130.307C196.796 130.307 197.559 130.623 198.121 131.185C198.684 131.748 199 132.511 199 133.307V142.307H198ZM196 142.307H182V143.307C182 144.102 182.316 144.865 182.879 145.428C183.441 145.991 184.204 146.307 185 146.307H193C193.796 146.307 194.559 145.991 195.121 145.428C195.684 144.865 196 144.102 196 143.307V142.307Z" fill="black"/>
    <path d="M158.248 174.307L156.417 168.781H157.482L159.116 173.778H158.588L160.285 168.781H161.232L162.882 173.778H162.369L164.042 168.781H165.021L163.19 174.307H162.1L160.593 169.799H160.877L159.345 174.307H158.248ZM168.361 174.386C167.94 174.386 167.548 174.317 167.185 174.18C166.827 174.038 166.514 173.841 166.245 173.588C165.982 173.33 165.777 173.028 165.629 172.681C165.482 172.333 165.408 171.954 165.408 171.544C165.408 171.133 165.482 170.754 165.629 170.407C165.777 170.06 165.985 169.76 166.253 169.507C166.521 169.249 166.835 169.052 167.192 168.915C167.55 168.773 167.942 168.702 168.369 168.702C168.821 168.702 169.234 168.781 169.608 168.939C169.982 169.091 170.297 169.32 170.555 169.626L169.892 170.249C169.692 170.033 169.468 169.873 169.221 169.768C168.974 169.657 168.705 169.602 168.416 169.602C168.127 169.602 167.861 169.649 167.619 169.744C167.382 169.839 167.174 169.973 166.995 170.147C166.821 170.32 166.685 170.525 166.585 170.762C166.49 170.999 166.442 171.26 166.442 171.544C166.442 171.828 166.49 172.088 166.585 172.325C166.685 172.562 166.821 172.767 166.995 172.941C167.174 173.115 167.382 173.249 167.619 173.344C167.861 173.438 168.127 173.486 168.416 173.486C168.705 173.486 168.974 173.433 169.221 173.328C169.468 173.217 169.692 173.052 169.892 172.83L170.555 173.462C170.297 173.762 169.982 173.991 169.608 174.149C169.234 174.307 168.819 174.386 168.361 174.386Z" fill="black"/>
    <rect x="149.5" y="65.8066" width="49" height="17" rx="1.5" stroke="black"/>
    <line y1="0.806641" x2="208" y2="0.806641" stroke="black"/>
    <line x1="207.5" y1="0.306641" x2="207.5" y2="187.307" stroke="black"/>
    <line x1="0.5" y1="1.30664" x2="0.499992" y2="181.307" stroke="black"/>
    <path d="M131.947 190.308C131.672 190.323 131.46 190.558 131.474 190.834C131.489 191.11 131.724 191.321 132 191.307L131.947 190.308ZM132 191.307L208 187.307L207.947 186.308L131.947 190.308L132 191.307Z" fill="black"/>
    <line x1="101.499" y1="180.268" x2="102.499" y2="193.268" stroke="black"/>
    <line y1="180.807" x2="101" y2="180.807" stroke="black"/>
    <path d="M144 158.307C144 158.03 143.776 157.807 143.5 157.807C143.224 157.807 143 158.03 143 158.307L144 158.307ZM143 158.307L143 190.307L144 190.307L144 158.307L143 158.307Z" fill="black"/>
    <line x1="207" y1="87.8066" x2="143" y2="87.8066" stroke="black"/>
    <path d="M143 135.307C143 135.583 143.224 135.807 143.5 135.807C143.776 135.807 144 135.583 144 135.307L143 135.307ZM143 87.3066L143 135.307L144 135.307L144 87.3066L143 87.3066Z" fill="black"/>
    <path d="M97 106.307C97 106.03 96.7761 105.807 96.5 105.807C96.2239 105.807 96 106.03 96 106.307L97 106.307ZM97 180.307L97 106.307L96 106.307L96 180.307L97 180.307Z" fill="black"/>
    <path d="M108 193.307C108.273 193.261 108.457 193.004 108.411 192.731C108.366 192.459 108.108 192.275 107.836 192.32L108 193.307ZM102 194.307L108 193.307L107.836 192.32L101.836 193.32L102 194.307Z" fill="black"/>
</svg>
