<svg width="209" height="224" viewBox="0 0 209 224" fill="none" xmlns="http://www.w3.org/2000/svg">
    <path d="M116.533 132.46C116.471 132.374 116.387 132.305 116.29 132.256C116.192 132.208 116.084 132.183 115.973 132.183H108.027C107.916 132.183 107.808 132.208 107.71 132.256C107.613 132.305 107.529 132.374 107.467 132.46L106.116 134.322C106.047 134.417 106.008 134.528 106.001 134.642C105.994 134.756 106.021 134.87 106.079 134.972C106.136 135.073 106.222 135.157 106.327 135.216C106.433 135.275 106.553 135.307 106.676 135.307H117.324C117.447 135.307 117.568 135.275 117.673 135.216C117.778 135.157 117.864 135.073 117.921 134.972C117.979 134.87 118.006 134.756 117.999 134.642C117.992 134.528 117.953 134.417 117.884 134.322L116.533 132.46ZM117.324 134.676H106.676L108.027 132.813H115.973L117.324 134.676ZM111.089 131.839V130.914C111.089 130.839 111.06 130.767 111.008 130.71C110.956 130.652 110.883 130.615 110.804 130.603L109.759 130.449C109.39 130.395 109.044 130.629 108.986 130.974L110.413 131.184L110.143 131.839H111.089ZM110.485 126.149C110.42 126.599 110.327 127.046 110.207 127.487L110.104 127.868L111.031 127.986L111.04 127.592C111.051 127.138 111.089 126.684 111.155 126.234L111.168 126.138C111.177 126.08 111.209 126.027 111.258 125.99C111.306 125.953 111.369 125.934 111.431 125.938C111.561 125.946 111.662 126.047 111.662 126.168V131.839H112.338V126.168C112.338 125.714 111.961 125.339 111.476 125.309C110.991 125.279 110.564 125.604 110.499 126.054L110.485 126.149ZM113.857 131.839L113.587 131.184L115.014 130.974C114.956 130.629 114.61 130.395 114.241 130.449L113.196 130.603C113.032 130.627 112.911 130.759 112.911 130.914V131.839H113.857ZM110.006 128.541L110.933 128.659L110.994 128.242L110.066 128.124L110.006 128.541Z" fill="black"/>
    <rect x="98.5" y="120.807" width="59" height="18" rx="1.5" stroke="black"/>
    <rect x="0.5" y="0.806641" width="207" height="222" rx="1.5" stroke="black"/>
    <path d="M98 180.307C98 180.03 97.7761 179.807 97.5 179.807C97.2239 179.807 97 180.03 97 180.307L98 180.307ZM97 180.307L97 223.307L98 223.307L98 180.307L97 180.307Z" fill="black"/>
    <line x1="208.014" y1="147.806" x2="97.0135" y2="150.806" stroke="black"/>
    <path d="M97 158.307C97 158.583 97.2239 158.807 97.5 158.807C97.7761 158.807 98 158.583 98 158.307L97 158.307ZM97 150.307L97 158.307L98 158.307L98 150.307L97 150.307Z" fill="black"/>
    <path d="M171.926 193.231V194.174H163.438V193.231C163.438 191.668 165.338 190.401 167.682 190.401C170.026 190.401 171.926 191.668 171.926 193.231Z" stroke="black" stroke-width="2.46663" stroke-linecap="round" stroke-linejoin="round"/>
    <path d="M179 204.549V189.695C179 187.481 176.466 185.687 173.341 185.687C170.216 185.687 167.683 187.481 167.683 189.695V190.402M167.683 197.476V197.004M163.991 197.018L163.829 197.461M161.161 204.092L161 204.535M167.683 204.549V204.077M167.683 201.248V200.305M162.657 200.333L162.334 201.22" stroke="black" stroke-width="2.46663" stroke-linecap="round" stroke-linejoin="round"/>
    <path d="M120.997 198.307L118.556 190.939H119.976L122.155 197.601H121.45L123.713 190.939H124.976L127.176 197.601H126.492L128.723 190.939H130.028L127.586 198.307H126.134L124.123 192.297H124.502L122.46 198.307H120.997ZM134.481 198.412C133.92 198.412 133.397 198.321 132.913 198.138C132.436 197.949 132.018 197.686 131.66 197.349C131.309 197.005 131.036 196.602 130.839 196.138C130.643 195.675 130.545 195.17 130.545 194.623C130.545 194.076 130.643 193.57 130.839 193.107C131.036 192.644 131.313 192.244 131.671 191.907C132.029 191.564 132.446 191.3 132.923 191.118C133.4 190.928 133.923 190.834 134.491 190.834C135.095 190.834 135.646 190.939 136.144 191.15C136.642 191.353 137.063 191.658 137.407 192.065L136.523 192.897C136.256 192.609 135.958 192.395 135.628 192.255C135.298 192.107 134.941 192.034 134.555 192.034C134.169 192.034 133.814 192.097 133.492 192.223C133.176 192.349 132.899 192.528 132.66 192.76C132.429 192.991 132.246 193.265 132.113 193.581C131.986 193.897 131.923 194.244 131.923 194.623C131.923 195.002 131.986 195.349 132.113 195.665C132.246 195.981 132.429 196.254 132.66 196.486C132.899 196.717 133.176 196.896 133.492 197.023C133.814 197.149 134.169 197.212 134.555 197.212C134.941 197.212 135.298 197.142 135.628 197.002C135.958 196.854 136.256 196.633 136.523 196.338L137.407 197.18C137.063 197.58 136.642 197.886 136.144 198.096C135.646 198.307 135.091 198.412 134.481 198.412Z" fill="black"/>
</svg>
