<svg width="110" height="250" viewBox="0 0 110 250" fill="none" xmlns="http://www.w3.org/2000/svg">
    <path d="M55.5325 47.4597C55.4707 47.3744 55.3873 47.3045 55.2898 47.2562C55.1923 47.2079 55.0836 47.1827 54.9732 47.1826H47.0268C46.9164 47.1827 46.8077 47.2079 46.7102 47.2562C46.6127 47.3045 46.5293 47.3744 46.4675 47.4597L45.1163 49.3221C45.0474 49.417 45.0076 49.5276 45.001 49.642C44.9944 49.7564 45.0213 49.8703 45.0788 49.9716C45.1363 50.0727 45.2222 50.1574 45.3273 50.2164C45.4325 50.2754 45.5529 50.3066 45.6756 50.3066H56.3244C56.4471 50.3066 56.5675 50.2754 56.6727 50.2164C56.7778 50.1574 56.8637 50.0727 56.9212 49.9716C56.9787 49.8703 57.0056 49.7564 56.999 49.642C56.9924 49.5276 56.9526 49.417 56.8838 49.3221L55.5325 47.4597ZM56.3244 49.6759H45.6756L47.0268 47.8134H54.9732L56.3244 49.6759ZM50.0888 46.8391V45.9144C50.0888 45.8393 50.0601 45.7666 50.0079 45.7095C49.9556 45.6524 49.8832 45.6146 49.8037 45.6029L48.7586 45.4489C48.3901 45.3946 48.0441 45.6295 47.986 45.9736L49.4132 46.1839L49.143 46.8391H50.0888ZM49.4851 41.1488C49.4196 41.5992 49.3268 42.0459 49.2072 42.4865L49.1037 42.8679L50.031 42.9855L50.0402 42.5922C50.0509 42.1377 50.089 41.6841 50.1546 41.2337L50.1684 41.1385C50.1769 41.0802 50.2087 41.0271 50.2576 40.9899C50.3064 40.9526 50.3685 40.9341 50.4314 40.9379C50.5613 40.9459 50.6622 41.0466 50.6622 41.1681V46.8391H51.3378V41.1681C51.3378 40.7144 50.9609 40.3385 50.476 40.3085C49.9912 40.2786 49.5644 40.6041 49.4989 41.0536L49.4851 41.1488ZM52.857 46.8391L52.5868 46.1839L54.014 45.9736C53.9559 45.6295 53.6099 45.3946 53.2414 45.4489L52.1963 45.6029C52.0321 45.627 51.9112 45.7592 51.9112 45.9144V46.8391H52.857ZM49.0058 43.5411L49.9331 43.6586L49.9937 43.242L49.0664 43.1244L49.0058 43.5411Z" fill="black"/>
    <path d="M30.4628 17.0787V17.5503H26.2188V17.0787C26.2188 16.2974 27.1689 15.6641 28.3408 15.6641C29.5126 15.6641 30.4628 16.2974 30.4628 17.0787Z" stroke="black" stroke-width="1.23332" stroke-linecap="round" stroke-linejoin="round"/>
    <path d="M34 22.7379V15.3108C34 14.204 32.7331 13.3066 31.1706 13.3066C29.6081 13.3066 28.3413 14.204 28.3413 15.3108V15.6645M28.3413 19.2012V18.9654M26.4953 18.9725L26.4147 19.1941M25.0806 22.5092L25 22.7308M28.3413 22.7379V22.5021M28.3413 21.0874V20.6159M25.8283 20.63L25.667 21.0733" stroke="black" stroke-width="1.23332" stroke-linecap="round" stroke-linejoin="round"/>
    <path d="M14.9974 42.3066L12.5556 34.939H13.9765L16.1552 41.6015H15.45L17.7129 34.939H18.9759L21.1757 41.6015H20.4916L22.7229 34.939H24.028L21.5862 42.3066H20.1337L18.1234 36.2968H18.5023L16.4604 42.3066H14.9974ZM28.4809 42.4119C27.9196 42.4119 27.3968 42.3207 26.9127 42.1382C26.4355 41.9488 26.018 41.6857 25.6602 41.3488C25.3093 41.005 25.0357 40.6016 24.8392 40.1385C24.6427 39.6753 24.5445 39.1701 24.5445 38.6228C24.5445 38.0755 24.6427 37.5703 24.8392 37.1072C25.0357 36.6441 25.3128 36.2441 25.6707 35.9073C26.0286 35.5635 26.4461 35.3004 26.9232 35.1179C27.4003 34.9285 27.9231 34.8338 28.4914 34.8338C29.0949 34.8338 29.6457 34.939 30.1439 35.1495C30.6421 35.353 31.0631 35.6582 31.4069 36.0652L30.5228 36.8967C30.2562 36.609 29.958 36.395 29.6282 36.2547C29.2984 36.1073 28.9405 36.0336 28.5546 36.0336C28.1687 36.0336 27.8143 36.0968 27.4916 36.2231C27.1758 36.3494 26.8986 36.5283 26.6601 36.7599C26.4285 36.9914 26.2461 37.2651 26.1128 37.5808C25.9865 37.8966 25.9233 38.2439 25.9233 38.6228C25.9233 39.0017 25.9865 39.3491 26.1128 39.6648C26.2461 39.9806 26.4285 40.2542 26.6601 40.4858C26.8986 40.7173 27.1758 40.8963 27.4916 41.0226C27.8143 41.1489 28.1687 41.212 28.5546 41.212C28.9405 41.212 29.2984 41.1419 29.6282 41.0015C29.958 40.8542 30.2562 40.6331 30.5228 40.3384L31.4069 41.1804C31.0631 41.5804 30.6421 41.8856 30.1439 42.0961C29.6457 42.3066 29.0914 42.4119 28.4809 42.4119Z" fill="black"/>
    <line y1="0.806641" x2="110" y2="0.806641" stroke="black"/>
    <line x1="109.5" y1="1.30664" x2="109.5" y2="249.307" stroke="black"/>
    <line x1="42" y1="248.807" x2="110" y2="248.807" stroke="black"/>
    <line x1="41.5" y1="249.307" x2="41.5" y2="195.307" stroke="black"/>
    <line x1="57.3275" y1="182.684" x2="42.3275" y2="195.684" stroke="black"/>
    <line x1="57.5" y1="155.307" x2="57.5" y2="182.307" stroke="black"/>
    <line x1="42.3412" y1="140.941" x2="57.3412" y2="154.941" stroke="black"/>
    <line x1="42.5" y1="74.3066" x2="42.5" y2="141.307" stroke="black"/>
    <path d="M69 107.307C68.7239 107.307 68.5 107.53 68.5 107.807C68.5 108.083 68.7239 108.307 69 108.307L69 107.307ZM69 108.307L109 108.307L109 107.307L69 107.307L69 108.307Z" fill="black"/>
    <line x1="42.5" y1="107.807" x2="49.5" y2="107.807" stroke="black" stroke-linecap="round"/>
    <line y1="73.8066" x2="43" y2="73.8066" stroke="black"/>
    <line x1="0.5" y1="1.30664" x2="0.499997" y2="74.3066" stroke="black"/>
    <line y1="55.8066" x2="43" y2="55.8066" stroke="black"/>
    <line x1="43.5" y1="1.30664" x2="43.5" y2="56.3066" stroke="black"/>
    <line x1="44" y1="25.0566" x2="58" y2="25.0566" stroke="black" stroke-width="0.5"/>
    <line x1="44" y1="54.0566" x2="58" y2="54.0566" stroke="black" stroke-width="0.5"/>
    <line x1="57.75" y1="54.3066" x2="57.75" y2="25.3066" stroke="black" stroke-width="0.5"/>
</svg>
