<svg width="148" height="251" viewBox="0 0 148 251" fill="none" xmlns="http://www.w3.org/2000/svg">
<g clip-path="url(#clip0_4_44)">
<path d="M24.4661 115.538C24.3847 115.418 24.275 115.32 24.1466 115.251C24.0183 115.183 23.8752 115.148 23.7299 115.148H13.2706C13.1253 115.148 12.9822 115.183 12.8538 115.251C12.7255 115.32 12.6158 115.418 12.5343 115.538L10.7558 118.166C10.6652 118.3 10.6128 118.456 10.6041 118.618C10.5954 118.779 10.6308 118.94 10.7065 119.083C10.7821 119.226 10.8953 119.345 11.0337 119.428C11.1721 119.512 11.3305 119.556 11.4921 119.556H25.5084C25.6699 119.556 25.8284 119.512 25.9668 119.428C26.1052 119.345 26.2183 119.226 26.294 119.083C26.3697 118.94 26.4051 118.779 26.3964 118.618C26.3877 118.456 26.3353 118.3 26.2447 118.166L24.4661 115.538ZM25.5084 118.666H11.4921L13.2706 116.038H23.7299L25.5084 118.666ZM17.3009 114.663V113.358C17.3009 113.252 17.2632 113.15 17.1943 113.069C17.1255 112.988 17.0302 112.935 16.9256 112.918L15.55 112.701C15.0649 112.625 14.6096 112.956 14.533 113.442L16.4116 113.738L16.0559 114.663H17.3009ZM16.5063 106.634C16.42 107.269 16.2979 107.899 16.1405 108.521L16.0043 109.059L17.2248 109.225L17.2369 108.67C17.2509 108.029 17.3012 107.389 17.3874 106.753L17.4057 106.619C17.4168 106.537 17.4587 106.462 17.523 106.409C17.5873 106.357 17.6691 106.331 17.7519 106.336C17.9228 106.347 18.0556 106.489 18.0556 106.661V114.663H18.9449V106.661C18.9449 106.021 18.4488 105.49 17.8105 105.448C17.1724 105.406 16.6106 105.865 16.5245 106.499L16.5063 106.634ZM20.9446 114.663L20.5888 113.738L22.4674 113.442C22.3909 112.956 21.9355 112.625 21.4504 112.701L20.0749 112.918C19.8587 112.953 19.6996 113.139 19.6996 113.358V114.663H20.9446ZM15.8754 110.009L17.0959 110.175L17.1757 109.587L15.9552 109.421L15.8754 110.009Z" fill="black"/>
</g>
<path d="M21.3195 221.126V222.016H13.3029V221.126C13.3029 219.65 15.0978 218.454 17.3112 218.454C19.5247 218.454 21.3195 219.65 21.3195 221.126Z" stroke="black" stroke-width="1.78146" stroke-linecap="round" stroke-linejoin="round"/>
<path d="M28 231.815V217.786C28 215.695 25.6071 214 22.6556 214C19.7042 214 17.3113 215.695 17.3113 217.786V218.454M17.3113 225.134V224.689M13.8245 224.702L13.6722 225.121M11.1523 231.383L11 231.801M17.3113 231.815V231.369M17.3113 228.697V227.806M12.5646 227.833L12.2599 228.67" stroke="black" stroke-width="1.78146" stroke-linecap="round" stroke-linejoin="round"/>
<line x1="7.62939e-06" y1="0.5" x2="147" y2="0.5" stroke="black"/>
<path d="M103 250C103.276 250 103.5 249.776 103.5 249.5C103.5 249.224 103.276 249 103 249V250ZM7.62939e-06 250H103V249H7.62939e-06V250Z" fill="black"/>
<path d="M147 250C147 250.276 147.224 250.5 147.5 250.5C147.776 250.5 148 250.276 148 250L147 250ZM147 -2.18557e-08L147 250L148 250L148 2.18557e-08L147 -2.18557e-08Z" fill="black"/>
<line x1="0.500008" y1="1" x2="0.499997" y2="250" stroke="black"/>
<path d="M93 125C93.2762 125 93.5 124.776 93.5 124.5C93.5 124.224 93.2762 124 93 124V125ZM7.62939e-06 125H93V124H7.62939e-06V125Z" fill="black"/>
<path d="M94 159C94 158.724 93.7761 158.5 93.5 158.5C93.2239 158.5 93 158.724 93 159L94 159ZM93 159L93 250L94 250L94 159L93 159Z" fill="black"/>
<path d="M48 197C48 196.724 47.7762 196.5 47.5 196.5C47.2239 196.5 47 196.724 47 197L48 197ZM47 197L47 249L48 249L48 197L47 197Z" fill="black"/>
<mask id="path-11-outside-1_4_44" maskUnits="userSpaceOnUse" x="59" y="216" width="23" height="10" fill="black">
<rect fill="white" x="59" y="216" width="23" height="10"/>
<path d="M63.1473 225L60.5834 217.264H62.0753L64.363 224.26H63.6225L65.9986 217.264H67.3248L69.6345 224.26H68.9162L71.2591 217.264H72.6294L70.0655 225H68.5404L66.4296 218.69H66.8274L64.6835 225H63.1473ZM77.305 225.111C76.7156 225.111 76.1667 225.015 75.6583 224.823C75.1573 224.624 74.7189 224.348 74.3432 223.994C73.9748 223.633 73.6875 223.21 73.4812 222.723C73.2749 222.237 73.1717 221.707 73.1717 221.132C73.1717 220.557 73.2749 220.027 73.4812 219.541C73.6875 219.054 73.9785 218.634 74.3542 218.281C74.73 217.92 75.1684 217.643 75.6694 217.452C76.1704 217.253 76.7193 217.153 77.316 217.153C77.9496 217.153 78.528 217.264 79.0511 217.485C79.5742 217.699 80.0163 218.019 80.3773 218.446L79.449 219.32C79.169 219.017 78.8559 218.793 78.5096 218.645C78.1633 218.491 77.7876 218.413 77.3823 218.413C76.9771 218.413 76.6051 218.48 76.2661 218.612C75.9346 218.745 75.6436 218.933 75.3931 219.176C75.1499 219.419 74.9584 219.706 74.8184 220.038C74.6858 220.369 74.6195 220.734 74.6195 221.132C74.6195 221.53 74.6858 221.895 74.8184 222.226C74.9584 222.558 75.1499 222.845 75.3931 223.088C75.6436 223.331 75.9346 223.519 76.2661 223.652C76.6051 223.784 76.9771 223.851 77.3823 223.851C77.7876 223.851 78.1633 223.777 78.5096 223.63C78.8559 223.475 79.169 223.243 79.449 222.933L80.3773 223.817C80.0163 224.237 79.5742 224.558 79.0511 224.779C78.528 225 77.946 225.111 77.305 225.111Z"/>
</mask>
<path d="M63.1473 225L62.398 225.248L62.5773 225.789H63.1473V225ZM60.5834 217.264V216.475H59.4901L59.8341 217.512L60.5834 217.264ZM62.0753 217.264L62.8256 217.019L62.6477 216.475H62.0753V217.264ZM64.363 224.26V225.049H65.4516L65.1133 224.014L64.363 224.26ZM63.6225 224.26L62.8751 224.006L62.5207 225.049H63.6225V224.26ZM65.9986 217.264V216.475H65.433L65.2511 217.01L65.9986 217.264ZM67.3248 217.264L68.0743 217.017L67.8954 216.475H67.3248V217.264ZM69.6345 224.26V225.049H70.7264L70.3841 224.012L69.6345 224.26ZM68.9162 224.26L68.1676 224.009L67.8193 225.049H68.9162V224.26ZM71.2591 217.264V216.475H70.691L70.5105 217.013L71.2591 217.264ZM72.6294 217.264L73.3787 217.512L73.7227 216.475H72.6294V217.264ZM70.0655 225V225.789H70.6355L70.8148 225.248L70.0655 225ZM68.5404 225L67.7918 225.25L67.9721 225.789H68.5404V225ZM66.4296 218.69V217.9H65.3332L65.681 218.94L66.4296 218.69ZM66.8274 218.69L67.5749 218.944L67.9293 217.9H66.8274V218.69ZM64.6835 225V225.789H65.249L65.4309 225.254L64.6835 225ZM63.8966 224.752L61.3327 217.016L59.8341 217.512L62.398 225.248L63.8966 224.752ZM60.5834 218.053H62.0753V216.475H60.5834V218.053ZM61.325 217.509L63.6127 224.505L65.1133 224.014L62.8256 217.019L61.325 217.509ZM64.363 223.47H63.6225V225.049H64.363V223.47ZM64.37 224.513L66.746 217.518L65.2511 217.01L62.8751 224.006L64.37 224.513ZM65.9986 218.053H67.3248V216.475H65.9986V218.053ZM66.5752 217.511L68.8849 224.507L70.3841 224.012L68.0743 217.017L66.5752 217.511ZM69.6345 223.47H68.9162V225.049H69.6345V223.47ZM69.6647 224.51L72.0076 217.515L70.5105 217.013L68.1676 224.009L69.6647 224.51ZM71.2591 218.053H72.6294V216.475H71.2591V218.053ZM71.8801 217.016L69.3162 224.752L70.8148 225.248L73.3787 217.512L71.8801 217.016ZM70.0655 224.211H68.5404V225.789H70.0655V224.211ZM69.289 224.75L67.1782 218.439L65.681 218.94L67.7918 225.25L69.289 224.75ZM66.4296 219.479H66.8274V217.9H66.4296V219.479ZM66.08 218.436L63.936 224.746L65.4309 225.254L67.5749 218.944L66.08 218.436ZM64.6835 224.211H63.1473V225.789H64.6835V224.211ZM75.6583 224.823L75.367 225.557L75.38 225.562L75.6583 224.823ZM74.3432 223.994L73.7907 224.558L73.7964 224.564L73.8022 224.569L74.3432 223.994ZM73.4812 222.723L74.2079 222.415L74.2079 222.415L73.4812 222.723ZM73.4812 219.541L74.2079 219.849L74.2079 219.849L73.4812 219.541ZM74.3542 218.281L74.8953 218.856L74.9012 218.85L74.3542 218.281ZM75.6694 217.452L75.9513 218.189L75.9607 218.186L75.6694 217.452ZM79.0511 217.485L78.7438 218.212L78.7526 218.216L79.0511 217.485ZM80.3773 218.446L80.9181 219.022L81.4633 218.509L80.9803 217.937L80.3773 218.446ZM79.449 219.32L78.87 219.856L79.4105 220.439L79.9898 219.895L79.449 219.32ZM78.5096 218.645L78.1875 219.366L78.2005 219.372L78.5096 218.645ZM76.2661 218.612L75.9785 217.877L75.973 217.879L76.2661 218.612ZM75.3931 219.176L74.8432 218.609L74.8349 218.618L75.3931 219.176ZM74.8184 220.038L74.0912 219.731L74.0883 219.738L74.0855 219.745L74.8184 220.038ZM74.8184 222.226L74.0855 222.519L74.0883 222.526L74.0912 222.533L74.8184 222.226ZM75.3931 223.088L74.8348 223.646L74.8433 223.655L75.3931 223.088ZM76.2661 223.652L75.973 224.385L75.9785 224.387L76.2661 223.652ZM78.5096 223.63L78.8187 224.356L78.8316 224.35L78.5096 223.63ZM79.449 222.933L79.9934 222.362L79.4069 221.803L78.8636 222.404L79.449 222.933ZM80.3773 223.817L80.9759 224.332L81.4649 223.763L80.9217 223.246L80.3773 223.817ZM79.0511 224.779L79.3583 225.506L79.3583 225.506L79.0511 224.779ZM77.305 224.321C76.8025 224.321 76.3488 224.24 75.9367 224.084L75.38 225.562C75.9846 225.79 76.6286 225.9 77.305 225.9V224.321ZM75.9496 224.09C75.5369 223.926 75.1843 223.702 74.8842 223.419L73.8022 224.569C74.2536 224.994 74.7777 225.323 75.367 225.557L75.9496 224.09ZM74.8957 223.431C74.6035 223.144 74.3745 222.808 74.2079 222.415L72.7545 223.032C73.0004 223.611 73.3461 224.122 73.7907 224.558L74.8957 223.431ZM74.2079 222.415C74.0465 222.035 73.9611 221.61 73.9611 221.132H72.3824C72.3824 221.803 72.5033 222.44 72.7545 223.032L74.2079 222.415ZM73.9611 221.132C73.9611 220.654 74.0465 220.229 74.2079 219.849L72.7545 219.232C72.5033 219.824 72.3824 220.461 72.3824 221.132H73.9611ZM74.2079 219.849C74.3725 219.461 74.6011 219.132 74.8953 218.856L73.8132 217.706C73.3559 218.136 73.0025 218.648 72.7545 219.232L74.2079 219.849ZM74.9012 218.85C75.1985 218.564 75.546 218.344 75.9513 218.189L75.3874 216.715C74.7907 216.943 74.2615 217.275 73.8073 217.711L74.9012 218.85ZM75.9607 218.186C76.3595 218.027 76.8083 217.943 77.316 217.943V216.364C76.6302 216.364 75.9812 216.479 75.3781 216.718L75.9607 218.186ZM77.316 217.943C77.8563 217.943 78.3286 218.037 78.7439 218.212L79.3583 216.758C78.7274 216.491 78.043 216.364 77.316 216.364V217.943ZM78.7526 218.216C79.1591 218.382 79.4963 218.627 79.7743 218.956L80.9803 217.937C80.5362 217.411 79.9893 217.016 79.3496 216.754L78.7526 218.216ZM79.8365 217.871L78.9081 218.745L79.9898 219.895L80.9181 219.022L79.8365 217.871ZM80.0279 218.783C79.6796 218.407 79.2766 218.114 78.8187 217.919L78.2005 219.372C78.4351 219.472 78.6584 219.628 78.87 219.856L80.0279 218.783ZM78.8316 217.925C78.3772 217.722 77.8908 217.624 77.3823 217.624V219.203C77.6843 219.203 77.9494 219.26 78.1876 219.366L78.8316 217.925ZM77.3823 217.624C76.8898 217.624 76.4189 217.705 75.9785 217.877L76.5538 219.347C76.7912 219.254 77.0644 219.203 77.3823 219.203V217.624ZM75.973 217.879C75.5481 218.049 75.1694 218.293 74.8433 218.609L75.9429 219.742C76.1178 219.573 76.3211 219.44 76.5593 219.345L75.973 217.879ZM74.8349 218.618C74.5164 218.936 74.2689 219.31 74.0912 219.731L75.5456 220.345C75.6479 220.103 75.7835 219.902 75.9513 219.734L74.8349 218.618ZM74.0855 219.745C73.9115 220.18 73.8301 220.645 73.8301 221.132H75.4089C75.4089 220.823 75.46 220.559 75.5513 220.331L74.0855 219.745ZM73.8301 221.132C73.8301 221.619 73.9115 222.084 74.0855 222.519L75.5513 221.933C75.46 221.705 75.4089 221.441 75.4089 221.132H73.8301ZM74.0912 222.533C74.2689 222.954 74.5164 223.328 74.8349 223.646L75.9513 222.53C75.7835 222.362 75.6479 222.161 75.5456 221.919L74.0912 222.533ZM74.8433 223.655C75.1694 223.971 75.5481 224.215 75.973 224.385L76.5593 222.919C76.3211 222.824 76.1178 222.691 75.9429 222.522L74.8433 223.655ZM75.9785 224.387C76.4189 224.559 76.8898 224.64 77.3823 224.64V223.061C77.0644 223.061 76.7912 223.01 76.5538 222.917L75.9785 224.387ZM77.3823 224.64C77.8855 224.64 78.3673 224.548 78.8187 224.356L78.2005 222.903C77.9593 223.006 77.6896 223.061 77.3823 223.061V224.64ZM78.8316 224.35C79.2876 224.147 79.6882 223.846 80.0343 223.463L78.8636 222.404C78.6498 222.64 78.4241 222.803 78.1876 222.909L78.8316 224.35ZM78.9045 223.505L79.8329 224.389L80.9217 223.246L79.9934 222.362L78.9045 223.505ZM79.7787 223.303C79.4991 223.628 79.1577 223.877 78.7439 224.052L79.3583 225.506C79.9907 225.239 80.5334 224.847 80.9759 224.332L79.7787 223.303ZM78.7439 224.052C78.3297 224.227 77.854 224.321 77.305 224.321V225.9C78.038 225.9 78.7263 225.773 79.3583 225.506L78.7439 224.052Z" fill="black" mask="url(#path-11-outside-1_4_44)"/>
<line x1="7.67311e-06" y1="101.5" x2="89" y2="101.5" stroke="black"/>
<path d="M88.5 101C88.5 100.724 88.2761 100.5 88 100.5C87.7239 100.5 87.5 100.724 87.5 101L88.5 101ZM87.5 101L87.5 124L88.5 124L88.5 101L87.5 101Z" fill="black"/>
<defs>
<clipPath id="clip0_4_44">
<rect width="17" height="17" fill="white" transform="translate(10 104)"/>
</clipPath>
</defs>
</svg>
