<svg width="210" height="229" viewBox="0 0 210 229" fill="none" xmlns="http://www.w3.org/2000/svg">
    <path d="M78.5325 60.4597C78.4707 60.3744 78.3873 60.3045 78.2898 60.2562C78.1923 60.2079 78.0836 60.1827 77.9732 60.1826H70.0268C69.9164 60.1827 69.8077 60.2079 69.7102 60.2562C69.6127 60.3045 69.5293 60.3744 69.4675 60.4597L68.1163 62.3221C68.0474 62.417 68.0076 62.5276 68.001 62.642C67.9944 62.7564 68.0213 62.8703 68.0788 62.9716C68.1363 63.0727 68.2222 63.1574 68.3273 63.2164C68.4325 63.2754 68.5529 63.3066 68.6756 63.3066H79.3244C79.4471 63.3066 79.5675 63.2754 79.6727 63.2164C79.7778 63.1574 79.8637 63.0727 79.9212 62.9716C79.9787 62.8703 80.0056 62.7564 79.999 62.642C79.9924 62.5276 79.9526 62.417 79.8838 62.3221L78.5325 60.4597ZM79.3244 62.6759H68.6756L70.0268 60.8134H77.9732L79.3244 62.6759ZM73.0888 59.8391V58.9144C73.0888 58.8393 73.0601 58.7666 73.0079 58.7095C72.9556 58.6524 72.8832 58.6146 72.8037 58.6029L71.7586 58.4489C71.3901 58.3946 71.0441 58.6295 70.986 58.9736L72.4132 59.1839L72.143 59.8391H73.0888ZM72.4851 54.1488C72.4196 54.5992 72.3268 55.0459 72.2072 55.4865L72.1037 55.8679L73.031 55.9855L73.0402 55.5922C73.0509 55.1377 73.089 54.6841 73.1546 54.2337L73.1684 54.1385C73.1769 54.0802 73.2087 54.0271 73.2576 53.9899C73.3064 53.9526 73.3685 53.9341 73.4314 53.9379C73.5613 53.9459 73.6622 54.0466 73.6622 54.1681V59.8391H74.3378V54.1681C74.3378 53.7144 73.9609 53.3385 73.476 53.3085C72.9912 53.2786 72.5644 53.6041 72.4989 54.0536L72.4851 54.1488ZM75.857 59.8391L75.5868 59.1839L77.014 58.9736C76.9559 58.6295 76.6099 58.3946 76.2414 58.4489L75.1963 58.6029C75.0321 58.627 74.9112 58.7592 74.9112 58.9144V59.8391H75.857ZM72.0058 56.5411L72.9331 56.6586L72.9937 56.242L72.0664 56.1244L72.0058 56.5411Z" fill="black"/>
    <path d="M176.997 97.3066L174.556 89.939H175.976L178.155 96.6015H177.45L179.713 89.939H180.976L183.176 96.6015H182.492L184.723 89.939H186.028L183.586 97.3066H182.134L180.123 91.2968H180.502L178.46 97.3066H176.997ZM190.481 97.4119C189.92 97.4119 189.397 97.3207 188.913 97.1382C188.436 96.9488 188.018 96.6857 187.66 96.3488C187.309 96.005 187.036 95.6016 186.839 95.1385C186.643 94.6753 186.545 94.1701 186.545 93.6228C186.545 93.0755 186.643 92.5703 186.839 92.1072C187.036 91.6441 187.313 91.2441 187.671 90.9073C188.029 90.5635 188.446 90.3004 188.923 90.1179C189.4 89.9285 189.923 89.8338 190.491 89.8338C191.095 89.8338 191.646 89.939 192.144 90.1495C192.642 90.353 193.063 90.6582 193.407 91.0652L192.523 91.8967C192.256 91.609 191.958 91.395 191.628 91.2547C191.298 91.1073 190.941 91.0336 190.555 91.0336C190.169 91.0336 189.814 91.0968 189.492 91.2231C189.176 91.3494 188.899 91.5283 188.66 91.7599C188.429 91.9914 188.246 92.2651 188.113 92.5808C187.986 92.8966 187.923 93.2439 187.923 93.6228C187.923 94.0017 187.986 94.3491 188.113 94.6648C188.246 94.9806 188.429 95.2542 188.66 95.4858C188.899 95.7173 189.176 95.8963 189.492 96.0226C189.814 96.1489 190.169 96.212 190.555 96.212C190.941 96.212 191.298 96.1419 191.628 96.0015C191.958 95.8542 192.256 95.6331 192.523 95.3384L193.407 96.1804C193.063 96.5804 192.642 96.8856 192.144 97.0961C191.646 97.3066 191.091 97.4119 190.481 97.4119Z" fill="black"/>
    <line x1="4.37114e-08" y1="0.806641" x2="210" y2="0.806659" stroke="black"/>
    <line x1="209.5" y1="1.30664" x2="209.5" y2="228.307" stroke="black"/>
    <line x1="28" y1="227.807" x2="209" y2="227.807" stroke="black"/>
    <path d="M30.9998 117.306C31.0073 117.03 30.7896 116.801 30.5135 116.793C30.2375 116.786 30.0076 117.003 30.0002 117.279L30.9998 117.306ZM27.9998 228.306L30.9998 117.306L30.0002 117.279L27.0002 228.279L27.9998 228.306Z" fill="black"/>
    <path d="M12 94.3067C12.1952 94.5019 12.5118 94.5019 12.7071 94.3067C12.9023 94.1114 12.9023 93.7948 12.7071 93.5996L12 94.3067ZM-3.77595e-05 82.3067L12 94.3067L12.7071 93.5996L0.707069 81.5996L-3.77595e-05 82.3067Z" fill="black"/>
    <line x1="0.5" y1="1.30664" x2="0.499996" y2="82.3066" stroke="black"/>
    <path d="M93 69.3066C93 69.5828 93.2239 69.8066 93.5 69.8066C93.7761 69.8066 94 69.5828 94 69.3066L93 69.3066ZM93 1.30664L93 69.3066L94 69.3066L94 1.30664L93 1.30664Z" fill="black"/>
    <line x1="209" y1="112.807" x2="92" y2="112.807" stroke="black"/>
    <path d="M93 104.307C93 104.03 92.7761 103.807 92.5 103.807C92.2239 103.807 92 104.03 92 104.307L93 104.307ZM93 112.307L93 104.307L92 104.307L92 112.307L93 112.307Z" fill="black"/>
    <path d="M190 34.3066V35.3066C190 37.2166 188.93 38.8766 187.35 39.7166L188 42.3066H186L185.5 40.3066H176.5L176 42.3066H174L174.65 39.7166C173.849 39.2916 173.18 38.6565 172.713 37.8795C172.246 37.1025 172 36.2131 172 35.3066V34.3066H171V32.3066H189V25.3066C189 25.0414 188.895 24.7871 188.707 24.5995C188.52 24.412 188.265 24.3066 188 24.3066C187.5 24.3066 187.12 24.6466 187 25.0966C187.63 25.6366 188 26.4366 188 27.3066H182C182 26.511 182.316 25.7479 182.879 25.1853C183.441 24.6227 184.204 24.3066 185 24.3066H185.17C185.58 23.1466 186.69 22.3066 188 22.3066C188.796 22.3066 189.559 22.6227 190.121 23.1853C190.684 23.7479 191 24.511 191 25.3066V34.3066H190ZM188 34.3066H174V35.3066C174 36.1023 174.316 36.8654 174.879 37.428C175.441 37.9906 176.204 38.3066 177 38.3066H185C185.796 38.3066 186.559 37.9906 187.121 37.428C187.684 36.8654 188 36.1023 188 35.3066V34.3066Z" fill="black"/>
    <rect x="82.5" y="8.80664" width="59" height="18" transform="rotate(90 82.5 8.80664)" stroke="black"/>
</svg>
