<svg width="146" height="235" viewBox="0 0 146 235" fill="none" xmlns="http://www.w3.org/2000/svg">
    <path d="M27.288 126.89C27.2158 126.788 27.1185 126.704 27.0048 126.646C26.891 126.588 26.7642 126.558 26.6354 126.558H17.3647C17.2358 126.558 17.109 126.588 16.9952 126.646C16.8815 126.704 16.7842 126.788 16.712 126.89L15.1356 129.125C15.0553 129.239 15.0088 129.372 15.0011 129.509C14.9934 129.646 15.0248 129.783 15.0919 129.905C15.159 130.026 15.2592 130.128 15.3819 130.198C15.5046 130.269 15.6451 130.307 15.7882 130.307H28.2118C28.355 130.307 28.4954 130.269 28.6181 130.198C28.7408 130.128 28.841 130.026 28.9081 129.905C28.9752 129.783 29.0066 129.646 28.9989 129.509C28.9912 129.372 28.9447 129.239 28.8644 129.125L27.288 126.89ZM28.2118 129.55H15.7882L17.3647 127.315H26.6354L28.2118 129.55ZM20.937 126.146V125.036C20.937 124.946 20.9035 124.859 20.8425 124.79C20.7815 124.722 20.697 124.676 20.6043 124.662L19.3851 124.477C18.9551 124.412 18.5515 124.694 18.4836 125.107L20.1487 125.359L19.8335 126.146H20.937ZM20.2326 119.317C20.1562 119.858 20.0479 120.394 19.9084 120.923L19.7877 121.38L20.8695 121.521L20.8802 121.049C20.8927 120.504 20.9372 119.96 21.0137 119.419L21.0298 119.305C21.0397 119.235 21.0769 119.171 21.1338 119.126C21.1908 119.082 21.2633 119.06 21.3367 119.064C21.4882 119.074 21.6059 119.195 21.6059 119.34V126.146H22.3941V119.34C22.3941 118.796 21.9544 118.345 21.3887 118.309C20.8231 118.273 20.3251 118.664 20.2488 119.203L20.2326 119.317ZM24.1666 126.146L23.8513 125.359L25.5164 125.107C25.4485 124.694 25.0449 124.412 24.615 124.477L23.3957 124.662C23.2041 124.691 23.063 124.85 23.063 125.036V126.146H24.1666ZM19.6735 122.188L20.7552 122.329L20.826 121.829L19.7442 121.688L19.6735 122.188Z" fill="black"/>
    <path d="M47.8911 209.755V210.436H41.7607V209.755C41.7607 208.627 43.1333 207.712 44.8259 207.712C46.5185 207.712 47.8911 208.627 47.8911 209.755Z" stroke="black" stroke-width="1.78146" stroke-linecap="round" stroke-linejoin="round"/>
    <path d="M53 217.93V207.202C53 205.603 51.1701 204.307 48.9131 204.307C46.6562 204.307 44.8263 205.603 44.8263 207.202V207.712M44.8263 212.821V212.48M42.1599 212.491L42.0434 212.811M40.1165 217.599L40 217.919M44.8263 217.93V217.589M44.8263 215.546V214.864M41.1964 214.885L40.9635 215.525" stroke="black" stroke-width="1.78146" stroke-linecap="round" stroke-linejoin="round"/>
    <path d="M10.6486 211.307L9.30557 207.254H10.0871L11.2854 210.919H10.8975L12.1421 207.254H12.8368L14.0466 210.919H13.6704L14.8976 207.254H15.6154L14.2724 211.307H13.4735L12.3679 208.001H12.5763L11.4532 211.307H10.6486ZM18.0645 211.365C17.7558 211.365 17.4683 211.314 17.202 211.214C16.9395 211.11 16.7099 210.965 16.5131 210.78C16.3201 210.591 16.1696 210.369 16.0616 210.114C15.9535 209.859 15.8995 209.582 15.8995 209.281C15.8995 208.98 15.9535 208.702 16.0616 208.447C16.1696 208.192 16.3221 207.972 16.5189 207.787C16.7157 207.598 16.9453 207.453 17.2078 207.353C17.4702 207.249 17.7577 207.197 18.0703 207.197C18.4022 207.197 18.7051 207.254 18.9791 207.37C19.2531 207.482 19.4847 207.65 19.6738 207.874L19.1875 208.331C19.0409 208.173 18.8769 208.055 18.6955 207.978C18.5141 207.897 18.3173 207.856 18.105 207.856C17.8928 207.856 17.6979 207.891 17.5204 207.961C17.3467 208.03 17.1942 208.129 17.063 208.256C16.9357 208.383 16.8353 208.534 16.762 208.707C16.6925 208.881 16.6578 209.072 16.6578 209.281C16.6578 209.489 16.6925 209.68 16.762 209.854C16.8353 210.027 16.9357 210.178 17.063 210.305C17.1942 210.433 17.3467 210.531 17.5204 210.6C17.6979 210.67 17.8928 210.705 18.105 210.705C18.3173 210.705 18.5141 210.666 18.6955 210.589C18.8769 210.508 19.0409 210.386 19.1875 210.224L19.6738 210.687C19.4847 210.907 19.2531 211.075 18.9791 211.191C18.7051 211.307 18.4003 211.365 18.0645 211.365Z" fill="black"/>
    <rect x="6.5" y="114.807" width="56" height="19" rx="1.5" stroke="black"/>
    <line y1="0.806641" x2="145" y2="0.806641" stroke="black"/>
    <line x1="145.5" y1="0.306641" x2="145.5" y2="234.307" stroke="black"/>
    <path d="M72 234.307C72.2761 234.307 72.5 234.083 72.5 233.807C72.5 233.53 72.2761 233.307 72 233.307V234.307ZM28 234.307H72V233.307H28V234.307Z" fill="black"/>
    <line x1="0.5" y1="1.30664" x2="0.49999" y2="222.307" stroke="black"/>
    <line x1="1" y1="221.807" x2="29" y2="221.807" stroke="black"/>
    <path d="M29 194.307C29 194.03 28.7761 193.807 28.5 193.807C28.2239 193.807 28 194.03 28 194.307L29 194.307ZM28 194.307L28 234.307L29 234.307L29 194.307L28 194.307Z" fill="black"/>
    <path d="M64 140.307C64.2761 140.307 64.5 140.083 64.5 139.807C64.5 139.53 64.2761 139.307 64 139.307V140.307ZM0 140.307H64V139.307H0V140.307Z" fill="black"/>
    <line x1="63.5" y1="233.807" x2="63.5" y2="169.807" stroke="black" stroke-linecap="round"/>
    <path d="M99 233.307C98.7239 233.307 98.5 233.53 98.5 233.807C98.5 234.083 98.7239 234.307 99 234.307L99 233.307ZM145 233.307L99 233.307L99 234.307L145 234.307L145 233.307Z" fill="black"/>
</svg>
