<svg width="148" height="234" viewBox="0 0 148 234" fill="none" xmlns="http://www.w3.org/2000/svg">
    <path d="M136.288 126.89C136.216 126.788 136.119 126.704 136.005 126.646C135.891 126.588 135.764 126.558 135.635 126.558H126.365C126.236 126.558 126.109 126.588 125.995 126.646C125.881 126.704 125.784 126.788 125.712 126.89L124.136 129.125C124.055 129.239 124.009 129.372 124.001 129.509C123.993 129.646 124.025 129.783 124.092 129.905C124.159 130.026 124.259 130.128 124.382 130.198C124.505 130.269 124.645 130.307 124.788 130.307H137.212C137.355 130.307 137.495 130.269 137.618 130.198C137.741 130.128 137.841 130.026 137.908 129.905C137.975 129.783 138.007 129.646 137.999 129.509C137.991 129.372 137.945 129.239 137.864 129.125L136.288 126.89ZM137.212 129.55H124.788L126.365 127.315H135.635L137.212 129.55ZM129.937 126.146V125.036C129.937 124.946 129.903 124.859 129.843 124.79C129.782 124.722 129.697 124.676 129.604 124.662L128.385 124.477C127.955 124.412 127.551 124.694 127.484 125.107L129.149 125.359L128.833 126.146H129.937ZM129.233 119.317C129.156 119.858 129.048 120.394 128.908 120.923L128.788 121.38L129.869 121.521L129.88 121.049C129.893 120.504 129.937 119.96 130.014 119.419L130.03 119.305C130.04 119.235 130.077 119.171 130.134 119.126C130.191 119.082 130.263 119.06 130.337 119.064C130.488 119.074 130.606 119.195 130.606 119.34V126.146H131.394V119.34C131.394 118.796 130.954 118.345 130.389 118.309C129.823 118.273 129.325 118.664 129.249 119.203L129.233 119.317ZM133.167 126.146L132.851 125.359L134.516 125.107C134.449 124.694 134.045 124.412 133.615 124.477L132.396 124.662C132.204 124.691 132.063 124.85 132.063 125.036V126.146H133.167ZM128.673 122.188L129.755 122.329L129.826 121.829L128.744 121.688L128.673 122.188Z" fill="black"/>
    <path d="M98.8911 211.851V212.532H92.7607V211.851C92.7607 210.722 94.1333 209.808 95.8259 209.808C97.5185 209.808 98.8911 210.722 98.8911 211.851Z" stroke="black" stroke-width="1.78146" stroke-linecap="round" stroke-linejoin="round"/>
    <path d="M104 220.025V209.297C104 207.699 102.17 206.402 99.9131 206.402C97.6562 206.402 95.8263 207.699 95.8263 209.297V209.808M95.8263 214.917V214.576M93.1599 214.586L93.0434 214.906M91.1165 219.695L91 220.015M95.8263 220.025V219.685M95.8263 217.641V216.96M92.1964 216.981L91.9635 217.621" stroke="black" stroke-width="1.78146" stroke-linecap="round" stroke-linejoin="round"/>
    <path d="M127.649 209.307L126.306 205.254H127.087L128.285 208.919H127.898L129.142 205.254H129.837L131.047 208.919H130.67L131.898 205.254H132.615L131.272 209.307H130.474L129.368 206.001H129.576L128.453 209.307H127.649ZM135.065 209.365C134.756 209.365 134.468 209.314 134.202 209.214C133.94 209.11 133.71 208.965 133.513 208.78C133.32 208.591 133.17 208.369 133.062 208.114C132.954 207.859 132.899 207.582 132.899 207.281C132.899 206.98 132.954 206.702 133.062 206.447C133.17 206.192 133.322 205.972 133.519 205.787C133.716 205.598 133.945 205.453 134.208 205.353C134.47 205.249 134.758 205.197 135.07 205.197C135.402 205.197 135.705 205.254 135.979 205.37C136.253 205.482 136.485 205.65 136.674 205.874L136.188 206.331C136.041 206.173 135.877 206.055 135.695 205.978C135.514 205.897 135.317 205.856 135.105 205.856C134.893 205.856 134.698 205.891 134.52 205.961C134.347 206.03 134.194 206.129 134.063 206.256C133.936 206.383 133.835 206.534 133.762 206.707C133.693 206.881 133.658 207.072 133.658 207.281C133.658 207.489 133.693 207.68 133.762 207.854C133.835 208.027 133.936 208.178 134.063 208.305C134.194 208.433 134.347 208.531 134.52 208.6C134.698 208.67 134.893 208.705 135.105 208.705C135.317 208.705 135.514 208.666 135.695 208.589C135.877 208.508 136.041 208.386 136.188 208.224L136.674 208.687C136.485 208.907 136.253 209.075 135.979 209.191C135.705 209.307 135.4 209.365 135.065 209.365Z" fill="black"/>
    <path d="M1 0.306641C0.723858 0.306641 0.5 0.530498 0.5 0.806641C0.5 1.08278 0.723858 1.30664 1 1.30664V0.306641ZM1 1.30664H148V0.306641H1V1.30664Z" fill="black"/>
    <path d="M1.49999 1.30611C1.49999 1.02997 1.27613 0.806107 0.99999 0.806107C0.723847 0.806107 0.49999 1.02997 0.49999 1.30611L1.49999 1.30611ZM1.5 233.307L1.49999 1.30611L0.49999 1.30611L0.5 233.307L1.5 233.307Z" fill="black"/>
    <path d="M147 222.307C147 222.583 147.224 222.807 147.5 222.807C147.776 222.807 148 222.583 148 222.307L147 222.307ZM148 222.307L148 0.306641L147 0.306641L147 222.307L148 222.307Z" fill="black"/>
    <path d="M52 232.307C51.7239 232.307 51.5 232.53 51.5 232.807C51.5 233.083 51.7239 233.307 52 233.307L52 232.307ZM52 233.307L116 233.307L116 232.307L52 232.307L52 233.307Z" fill="black"/>
    <path d="M117 194.307C117 194.03 116.776 193.807 116.5 193.807C116.224 193.807 116 194.03 116 194.307L117 194.307ZM116 194.307L116 233.307L117 233.307L117 194.307L116 194.307Z" fill="black"/>
    <line x1="116" y1="219.807" x2="148" y2="219.807" stroke="black"/>
    <path d="M83 163.307C83 163.03 82.7761 162.807 82.5 162.807C82.2239 162.807 82 163.03 82 163.307L83 163.307ZM82 163.307L82 233.307L83 233.307L83 163.307L82 163.307Z" fill="black"/>
    <path d="M82 138.307C81.7239 138.307 81.5 138.53 81.5 138.807C81.5 139.083 81.7239 139.307 82 139.307V138.307ZM148 138.307H82V139.307H148V138.307Z" fill="black"/>
    <rect x="85.5" y="114.807" width="56" height="19" rx="1.5" stroke="black"/>
    <path d="M14 233.307C14.2761 233.307 14.5 233.083 14.5 232.807C14.5 232.53 14.2761 232.307 14 232.307V233.307ZM1 233.307H14V232.307H1V233.307Z" fill="black"/>
</svg>
