<svg width="528" height="349" viewBox="0 0 528 349" fill="none" xmlns="http://www.w3.org/2000/svg">
    <path d="M229.294 20.3166L229.252 19.3926L231.454 17.1066H232.33L230.5 19.0506L230.068 19.5246L229.294 20.3166ZM228.598 21.3066V17.1066H229.378V21.3066H228.598ZM231.526 21.3066L229.918 19.3926L230.434 18.8226L232.438 21.3066H231.526ZM232.969 21.3066V17.1066H233.749V21.3066H232.969ZM235.737 21.3066V17.7666H234.345V17.1066H237.909V17.7666H236.517V21.3066H235.737ZM240.38 21.3666C240.06 21.3666 239.762 21.3146 239.486 21.2106C239.214 21.1026 238.976 20.9526 238.772 20.7606C238.572 20.5646 238.416 20.3346 238.304 20.0706C238.192 19.8066 238.136 19.5186 238.136 19.2066C238.136 18.8946 238.192 18.6066 238.304 18.3426C238.416 18.0786 238.574 17.8506 238.778 17.6586C238.982 17.4626 239.22 17.3126 239.492 17.2086C239.764 17.1006 240.062 17.0466 240.386 17.0466C240.73 17.0466 241.044 17.1066 241.328 17.2266C241.612 17.3426 241.852 17.5166 242.048 17.7486L241.544 18.2226C241.392 18.0586 241.222 17.9366 241.034 17.8566C240.846 17.7726 240.642 17.7306 240.422 17.7306C240.202 17.7306 240 17.7666 239.816 17.8386C239.636 17.9106 239.478 18.0126 239.342 18.1446C239.21 18.2766 239.106 18.4326 239.03 18.6126C238.958 18.7926 238.922 18.9906 238.922 19.2066C238.922 19.4226 238.958 19.6206 239.03 19.8006C239.106 19.9806 239.21 20.1366 239.342 20.2686C239.478 20.4006 239.636 20.5026 239.816 20.5746C240 20.6466 240.202 20.6826 240.422 20.6826C240.642 20.6826 240.846 20.6426 241.034 20.5626C241.222 20.4786 241.392 20.3526 241.544 20.1846L242.048 20.6646C241.852 20.8926 241.612 21.0666 241.328 21.1866C241.044 21.3066 240.728 21.3666 240.38 21.3666ZM245.747 17.1066H246.527V21.3066H245.747V17.1066ZM243.575 21.3066H242.795V17.1066H243.575V21.3066ZM245.807 19.5066H243.509V18.8406H245.807V19.5066ZM248.373 18.8526H250.461V19.4946H248.373V18.8526ZM248.433 20.6526H250.803V21.3066H247.653V17.1066H250.719V17.7606H248.433V20.6526ZM251.672 21.3066V17.1066H252.314L254.948 20.3406H254.63V17.1066H255.404V21.3066H254.762L252.128 18.0726H252.446V21.3066H251.672Z" fill="black"/>
    <path d="M286.294 67.3166L286.252 66.3926L288.454 64.1066H289.33L287.5 66.0506L287.068 66.5246L286.294 67.3166ZM285.598 68.3066V64.1066H286.378V68.3066H285.598ZM288.526 68.3066L286.918 66.3926L287.434 65.8226L289.438 68.3066H288.526ZM289.969 68.3066V64.1066H290.749V68.3066H289.969ZM292.737 68.3066V64.7666H291.345V64.1066H294.909V64.7666H293.517V68.3066H292.737ZM297.38 68.3666C297.06 68.3666 296.762 68.3146 296.486 68.2106C296.214 68.1026 295.976 67.9526 295.772 67.7606C295.572 67.5646 295.416 67.3346 295.304 67.0706C295.192 66.8066 295.136 66.5186 295.136 66.2066C295.136 65.8946 295.192 65.6066 295.304 65.3426C295.416 65.0786 295.574 64.8506 295.778 64.6586C295.982 64.4626 296.22 64.3126 296.492 64.2086C296.764 64.1006 297.062 64.0466 297.386 64.0466C297.73 64.0466 298.044 64.1066 298.328 64.2266C298.612 64.3426 298.852 64.5166 299.048 64.7486L298.544 65.2226C298.392 65.0586 298.222 64.9366 298.034 64.8566C297.846 64.7726 297.642 64.7306 297.422 64.7306C297.202 64.7306 297 64.7666 296.816 64.8386C296.636 64.9106 296.478 65.0126 296.342 65.1446C296.21 65.2766 296.106 65.4326 296.03 65.6126C295.958 65.7926 295.922 65.9906 295.922 66.2066C295.922 66.4226 295.958 66.6206 296.03 66.8006C296.106 66.9806 296.21 67.1366 296.342 67.2686C296.478 67.4006 296.636 67.5026 296.816 67.5746C297 67.6466 297.202 67.6826 297.422 67.6826C297.642 67.6826 297.846 67.6426 298.034 67.5626C298.222 67.4786 298.392 67.3526 298.544 67.1846L299.048 67.6646C298.852 67.8926 298.612 68.0666 298.328 68.1866C298.044 68.3066 297.728 68.3666 297.38 68.3666ZM302.747 64.1066H303.527V68.3066H302.747V64.1066ZM300.575 68.3066H299.795V64.1066H300.575V68.3066ZM302.807 66.5066H300.509V65.8406H302.807V66.5066ZM305.373 65.8526H307.461V66.4946H305.373V65.8526ZM305.433 67.6526H307.803V68.3066H304.653V64.1066H307.719V64.7606H305.433V67.6526ZM308.672 68.3066V64.1066H309.314L311.948 67.3406H311.63V64.1066H312.404V68.3066H311.762L309.128 65.0726H309.446V68.3066H308.672Z" fill="black"/>
    <path d="M435.633 60.2383L432.192 49.8566H434.194L437.264 59.2446H436.27L439.459 49.8566H441.239L444.338 59.2446H443.374L446.519 49.8566H448.358L444.917 60.2383H442.87L440.038 51.7698H440.571L437.694 60.2383H435.633ZM454.632 60.3866C453.841 60.3866 453.105 60.2581 452.422 60.001C451.75 59.734 451.162 59.3633 450.658 58.8887C450.163 58.4042 449.778 57.8357 449.501 57.1831C449.224 56.5305 449.085 55.8187 449.085 55.0475C449.085 54.2762 449.224 53.5644 449.501 52.9118C449.778 52.2592 450.168 51.6957 450.672 51.2211C451.177 50.7366 451.765 50.3658 452.437 50.1088C453.11 49.8418 453.846 49.7083 454.647 49.7083C455.497 49.7083 456.273 49.8566 456.975 50.1532C457.677 50.44 458.271 50.8701 458.755 51.4435L457.509 52.6152C457.134 52.2098 456.713 51.9082 456.249 51.7105C455.784 51.5029 455.28 51.399 454.736 51.399C454.192 51.399 453.693 51.488 453.238 51.666C452.793 51.844 452.403 52.0961 452.066 52.4224C451.74 52.7487 451.483 53.1343 451.295 53.5792C451.117 54.0241 451.028 54.5135 451.028 55.0475C451.028 55.5814 451.117 56.0708 451.295 56.5157C451.483 56.9606 451.74 57.3462 452.066 57.6725C452.403 57.9988 452.793 58.2509 453.238 58.4289C453.693 58.6069 454.192 58.6959 454.736 58.6959C455.28 58.6959 455.784 58.597 456.249 58.3992C456.713 58.1916 457.134 57.8802 457.509 57.4649L458.755 58.6514C458.271 59.2149 457.677 59.645 456.975 59.9417C456.273 60.2383 455.492 60.3866 454.632 60.3866Z" fill="black"/>
    <path d="M495 185.307V186.307C495 188.217 493.93 189.877 492.35 190.717L493 193.307H491L490.5 191.307H481.5L481 193.307H479L479.65 190.717C478.849 190.292 478.18 189.656 477.713 188.88C477.246 188.103 477 187.213 477 186.307V185.307H476V183.307H494V176.307C494 176.041 493.895 175.787 493.707 175.6C493.52 175.412 493.265 175.307 493 175.307C492.5 175.307 492.12 175.647 492 176.097C492.63 176.637 493 177.437 493 178.307H487C487 177.511 487.316 176.748 487.879 176.185C488.441 175.623 489.204 175.307 490 175.307H490.17C490.58 174.147 491.69 173.307 493 173.307C493.796 173.307 494.559 173.623 495.121 174.185C495.684 174.748 496 175.511 496 176.307V185.307H495ZM493 185.307H479V186.307C479 187.102 479.316 187.865 479.879 188.428C480.441 188.991 481.204 189.307 482 189.307H490C490.796 189.307 491.559 188.991 492.121 188.428C492.684 187.865 493 187.102 493 186.307V185.307Z" fill="black"/>
    <line x1="0.5" y1="1.30664" x2="0.49999" y2="224.307" stroke="black"/>
    <line y1="0.806641" x2="528" y2="0.806641" stroke="black"/>
    <line x1="527.5" y1="210.307" x2="527.5" y2="1.30664" stroke="black"/>
    <line x1="414" y1="208.807" x2="528" y2="208.807" stroke="black"/>
    <path d="M413 348.307C413 348.583 413.224 348.807 413.5 348.807C413.776 348.807 414 348.583 414 348.307L413 348.307ZM414 348.307L414 209.307L413 209.307L413 348.307L414 348.307Z" fill="black"/>
    <line x1="218" y1="344.807" x2="414" y2="344.807" stroke="black"/>
    <path d="M218 86.3066C218 86.0305 217.776 85.8066 217.5 85.8066C217.224 85.8066 217 86.0305 217 86.3066L218 86.3066ZM218 345.307L218 86.3066L217 86.3066L217 345.307L218 345.307Z" fill="black"/>
    <line y1="222.807" x2="218" y2="222.807" stroke="black"/>
    <path d="M215 37.3066C214.724 37.3066 214.5 37.5305 214.5 37.8066C214.5 38.0828 214.724 38.3066 215 38.3066L215 37.3066ZM215 38.3066L265 38.3066L265 37.3066L215 37.3066L215 38.3066Z" fill="black"/>
    <line x1="264.496" y1="38.2431" x2="269.496" y2="77.2431" stroke="black"/>
    <path d="M335 78.3066C335.276 78.3066 335.5 78.0828 335.5 77.8066C335.5 77.5305 335.276 77.3066 335 77.3066V78.3066ZM335 77.3066L269 77.3066V78.3066L335 78.3066V77.3066Z" fill="black"/>
    <line x1="281.25" y1="42.3066" x2="281.25" y2="51.3066" stroke="black" stroke-width="0.5"/>
    <line x1="316.25" y1="41.3066" x2="316.25" y2="51.3066" stroke="black" stroke-width="0.5"/>
    <line x1="281" y1="51.0566" x2="316" y2="51.0566" stroke="black" stroke-width="0.5"/>
    <line x1="336.5" y1="83.3066" x2="336.5" y2="82.3066" stroke="black"/>
    <path d="M336 83.3066C336 83.5828 336.224 83.8066 336.5 83.8066C336.776 83.8066 337 83.5828 337 83.3066L336 83.3066ZM337 83.3066L337 41.3066L336 41.3066L336 83.3066L337 83.3066Z" fill="black"/>
    <line x1="272.984" y1="42.8069" x2="336.984" y2="40.8069" stroke="black"/>
    <line x1="273.5" y1="1.30664" x2="273.5" y2="42.3066" stroke="black"/>
    <line x1="393.5" y1="1.31654" x2="391.5" y2="102.317" stroke="black"/>
    <path d="M454 103.307C454.276 103.307 454.5 103.083 454.5 102.807C454.5 102.53 454.276 102.307 454 102.307L454 103.307ZM454 102.307L391 102.307L391 103.307L454 103.307L454 102.307Z" fill="black"/>
    <path d="M458 145.307C458 145.03 457.776 144.807 457.5 144.807C457.224 144.807 457 145.03 457 145.307L458 145.307ZM457 145.307L457 158.307L458 158.307L458 145.307L457 145.307Z" fill="black"/>
    <line x1="457" y1="157.807" x2="437" y2="157.807" stroke="black"/>
    <line x1="437.5" y1="157.307" x2="437.5" y2="207.307" stroke="black"/>
    <path d="M213 38.3066C213 38.5828 213.224 38.8066 213.5 38.8066C213.776 38.8066 214 38.5828 214 38.3066L213 38.3066ZM213 1.30664L213 38.3066L214 38.3066L214 1.30664L213 1.30664Z" fill="black"/>
</svg>
