<svg width="175" height="378" viewBox="0 0 175 378" fill="none" xmlns="http://www.w3.org/2000/svg">
    <path d="M92.3685 12.3066V7.58664H90.5125V6.70664H95.2645V7.58664H93.4085V12.3066H92.3685ZM97.005 9.03464H99.789V9.89064H97.005V9.03464ZM97.085 11.4346H100.245V12.3066H96.045V6.70664H100.133V7.57864H97.085V11.4346ZM101.404 12.3066V6.70664H103.708C104.204 6.70664 104.628 6.78664 104.98 6.94664C105.338 7.10664 105.612 7.33597 105.804 7.63464C105.996 7.93331 106.092 8.28797 106.092 8.69864C106.092 9.10931 105.996 9.46397 105.804 9.76264C105.612 10.056 105.338 10.2826 104.98 10.4426C104.628 10.5973 104.204 10.6746 103.708 10.6746H101.98L102.444 10.2026V12.3066H101.404ZM105.068 12.3066L103.652 10.2746H104.764L106.188 12.3066H105.068ZM102.444 10.3146L101.98 9.81864H103.66C104.119 9.81864 104.463 9.71997 104.692 9.52264C104.927 9.32531 105.044 9.05064 105.044 8.69864C105.044 8.34131 104.927 8.06664 104.692 7.87464C104.463 7.68264 104.119 7.58664 103.66 7.58664H101.98L102.444 7.07464V10.3146ZM106.464 12.3066L108.984 6.70664H110.008L112.536 12.3066H111.448L109.28 7.25864H109.696L107.536 12.3066H106.464ZM107.624 11.0106L107.904 10.1946H110.928L111.208 11.0106H107.624ZM114.984 12.3866C114.547 12.3866 114.128 12.3253 113.728 12.2026C113.328 12.0746 113.011 11.912 112.776 11.7146L113.136 10.9066C113.36 11.0826 113.637 11.2293 113.968 11.3466C114.299 11.464 114.637 11.5226 114.984 11.5226C115.277 11.5226 115.515 11.4906 115.696 11.4266C115.877 11.3626 116.011 11.2773 116.096 11.1706C116.181 11.0586 116.224 10.9333 116.224 10.7946C116.224 10.624 116.163 10.488 116.04 10.3866C115.917 10.28 115.757 10.1973 115.56 10.1386C115.368 10.0746 115.152 10.016 114.912 9.96264C114.677 9.90931 114.44 9.84797 114.2 9.77864C113.965 9.70397 113.749 9.61064 113.552 9.49864C113.36 9.38131 113.203 9.22664 113.08 9.03464C112.957 8.84264 112.896 8.59731 112.896 8.29864C112.896 7.99464 112.976 7.71731 113.136 7.46664C113.301 7.21064 113.549 7.00797 113.88 6.85864C114.216 6.70397 114.64 6.62664 115.152 6.62664C115.488 6.62664 115.821 6.66931 116.152 6.75464C116.483 6.83997 116.771 6.96264 117.016 7.12264L116.688 7.93064C116.437 7.78131 116.179 7.67197 115.912 7.60264C115.645 7.52797 115.389 7.49064 115.144 7.49064C114.856 7.49064 114.621 7.52531 114.44 7.59464C114.264 7.66397 114.133 7.75464 114.048 7.86664C113.968 7.97864 113.928 8.10664 113.928 8.25064C113.928 8.42131 113.987 8.55997 114.104 8.66664C114.227 8.76797 114.384 8.84797 114.576 8.90664C114.773 8.96531 114.992 9.02397 115.232 9.08264C115.472 9.13597 115.709 9.19731 115.944 9.26664C116.184 9.33597 116.4 9.42664 116.592 9.53864C116.789 9.65064 116.947 9.80264 117.064 9.99464C117.187 10.1866 117.248 10.4293 117.248 10.7226C117.248 11.0213 117.165 11.2986 117 11.5546C116.84 11.8053 116.592 12.008 116.256 12.1626C115.92 12.312 115.496 12.3866 114.984 12.3866ZM117.487 12.3066L120.007 6.70664H121.031L123.559 12.3066H122.471L120.303 7.25864H120.719L118.559 12.3066H117.487ZM118.647 11.0106L118.927 10.1946H121.951L122.231 11.0106H118.647Z" fill="black"/>
    <path d="M51.4885 183.387C51.0619 183.387 50.6645 183.317 50.2965 183.179C49.9339 183.035 49.6165 182.835 49.3445 182.579C49.0779 182.317 48.8699 182.011 48.7205 181.659C48.5712 181.307 48.4965 180.923 48.4965 180.507C48.4965 180.091 48.5712 179.707 48.7205 179.355C48.8699 179.003 49.0805 178.699 49.3525 178.443C49.6245 178.181 49.9419 177.981 50.3045 177.843C50.6672 177.699 51.0645 177.627 51.4965 177.627C51.9552 177.627 52.3739 177.707 52.7525 177.867C53.1312 178.021 53.4512 178.253 53.7125 178.563L53.0405 179.195C52.8379 178.976 52.6112 178.813 52.3605 178.707C52.1099 178.595 51.8379 178.539 51.5445 178.539C51.2512 178.539 50.9819 178.587 50.7365 178.683C50.4965 178.779 50.2859 178.915 50.1045 179.091C49.9285 179.267 49.7899 179.475 49.6885 179.715C49.5925 179.955 49.5445 180.219 49.5445 180.507C49.5445 180.795 49.5925 181.059 49.6885 181.299C49.7899 181.539 49.9285 181.747 50.1045 181.923C50.2859 182.099 50.4965 182.235 50.7365 182.331C50.9819 182.427 51.2512 182.475 51.5445 182.475C51.8379 182.475 52.1099 182.421 52.3605 182.315C52.6112 182.203 52.8379 182.035 53.0405 181.811L53.7125 182.451C53.4512 182.755 53.1312 182.987 52.7525 183.147C52.3739 183.307 51.9525 183.387 51.4885 183.387ZM58.645 177.707H59.685V183.307H58.645V177.707ZM55.749 183.307H54.709V177.707H55.749V183.307ZM58.725 180.907H55.661V180.019H58.725V180.907ZM63.8096 183.387C63.3723 183.387 62.9696 183.315 62.6016 183.171C62.2336 183.027 61.9136 182.827 61.6416 182.571C61.3696 182.309 61.1589 182.005 61.0096 181.659C60.8603 181.307 60.7856 180.923 60.7856 180.507C60.7856 180.091 60.8603 179.709 61.0096 179.363C61.1589 179.011 61.3696 178.707 61.6416 178.451C61.9136 178.189 62.2336 177.987 62.6016 177.843C62.9696 177.699 63.3696 177.627 63.8016 177.627C64.2389 177.627 64.6389 177.699 65.0016 177.843C65.3696 177.987 65.6896 178.189 65.9616 178.451C66.2336 178.707 66.4443 179.011 66.5936 179.363C66.7429 179.709 66.8176 180.091 66.8176 180.507C66.8176 180.923 66.7429 181.307 66.5936 181.659C66.4443 182.011 66.2336 182.315 65.9616 182.571C65.6896 182.827 65.3696 183.027 65.0016 183.171C64.6389 183.315 64.2416 183.387 63.8096 183.387ZM63.8016 182.475C64.0843 182.475 64.3456 182.427 64.5856 182.331C64.8256 182.235 65.0336 182.099 65.2096 181.923C65.3856 181.741 65.5216 181.533 65.6176 181.299C65.7189 181.059 65.7696 180.795 65.7696 180.507C65.7696 180.219 65.7189 179.957 65.6176 179.723C65.5216 179.483 65.3856 179.275 65.2096 179.099C65.0336 178.917 64.8256 178.779 64.5856 178.683C64.3456 178.587 64.0843 178.539 63.8016 178.539C63.5189 178.539 63.2576 178.587 63.0176 178.683C62.7829 178.779 62.5749 178.917 62.3936 179.099C62.2176 179.275 62.0789 179.483 61.9776 179.723C61.8816 179.957 61.8336 180.219 61.8336 180.507C61.8336 180.789 61.8816 181.051 61.9776 181.291C62.0789 181.531 62.2176 181.741 62.3936 181.923C62.5696 182.099 62.7776 182.235 63.0176 182.331C63.2576 182.427 63.5189 182.475 63.8016 182.475ZM67.92 183.307V177.707H70.368C70.976 177.707 71.5093 177.824 71.968 178.059C72.4266 178.293 72.784 178.619 73.04 179.035C73.296 179.451 73.424 179.941 73.424 180.507C73.424 181.067 73.296 181.557 73.04 181.979C72.784 182.395 72.4266 182.72 71.968 182.955C71.5093 183.189 70.976 183.307 70.368 183.307H67.92ZM68.96 182.427H70.32C70.7413 182.427 71.104 182.347 71.408 182.187C71.7173 182.027 71.9546 181.803 72.12 181.515C72.2906 181.227 72.376 180.891 72.376 180.507C72.376 180.117 72.2906 179.781 72.12 179.499C71.9546 179.211 71.7173 178.987 71.408 178.827C71.104 178.667 70.7413 178.587 70.32 178.587H68.96V182.427ZM74.5293 183.307V177.707H77.1533C77.8253 177.707 78.3373 177.84 78.6893 178.107C79.0413 178.368 79.2173 178.72 79.2173 179.163C79.2173 179.461 79.148 179.717 79.0093 179.931C78.8707 180.139 78.684 180.301 78.4493 180.419C78.22 180.531 77.9693 180.587 77.6973 180.587L77.8413 180.299C78.156 180.299 78.4387 180.357 78.6893 180.475C78.94 180.587 79.1373 180.752 79.2813 180.971C79.4307 181.189 79.5053 181.461 79.5053 181.787C79.5053 182.267 79.3213 182.64 78.9533 182.907C78.5853 183.173 78.0387 183.307 77.3133 183.307H74.5293ZM75.5693 182.491H77.2493C77.6387 182.491 77.9373 182.427 78.1453 182.299C78.3533 182.171 78.4573 181.965 78.4573 181.683C78.4573 181.405 78.3533 181.203 78.1453 181.075C77.9373 180.941 77.6387 180.875 77.2493 180.875H75.4893V180.067H77.0413C77.404 180.067 77.6813 180.003 77.8733 179.875C78.0707 179.747 78.1693 179.555 78.1693 179.299C78.1693 179.037 78.0707 178.843 77.8733 178.715C77.6813 178.587 77.404 178.523 77.0413 178.523H75.5693V182.491ZM79.8233 183.307L82.3433 177.707H83.3673L85.8953 183.307H84.8073L82.6393 178.259H83.0553L80.8953 183.307H79.8233ZM80.9833 182.011L81.2633 181.195H84.2873L84.5673 182.011H80.9833Z" fill="black"/>
    <path d="M120.852 240.987L120.796 239.755L123.732 236.707H124.9L122.46 239.299L121.884 239.931L120.852 240.987ZM119.924 242.307V236.707H120.964V242.307H119.924ZM123.828 242.307L121.684 239.755L122.372 238.995L125.044 242.307H123.828ZM128.173 242.387C127.736 242.387 127.333 242.315 126.965 242.171C126.597 242.027 126.277 241.827 126.005 241.571C125.733 241.309 125.522 241.005 125.373 240.659C125.224 240.307 125.149 239.923 125.149 239.507C125.149 239.091 125.224 238.709 125.373 238.363C125.522 238.011 125.733 237.707 126.005 237.451C126.277 237.189 126.597 236.987 126.965 236.843C127.333 236.699 127.733 236.627 128.165 236.627C128.602 236.627 129.002 236.699 129.365 236.843C129.733 236.987 130.053 237.189 130.325 237.451C130.597 237.707 130.808 238.011 130.957 238.363C131.106 238.709 131.181 239.091 131.181 239.507C131.181 239.923 131.106 240.307 130.957 240.659C130.808 241.011 130.597 241.315 130.325 241.571C130.053 241.827 129.733 242.027 129.365 242.171C129.002 242.315 128.605 242.387 128.173 242.387ZM128.165 241.475C128.448 241.475 128.709 241.427 128.949 241.331C129.189 241.235 129.397 241.099 129.573 240.923C129.749 240.741 129.885 240.533 129.981 240.299C130.082 240.059 130.133 239.795 130.133 239.507C130.133 239.219 130.082 238.957 129.981 238.723C129.885 238.483 129.749 238.275 129.573 238.099C129.397 237.917 129.189 237.779 128.949 237.683C128.709 237.587 128.448 237.539 128.165 237.539C127.882 237.539 127.621 237.587 127.381 237.683C127.146 237.779 126.938 237.917 126.757 238.099C126.581 238.275 126.442 238.483 126.341 238.723C126.245 238.957 126.197 239.219 126.197 239.507C126.197 239.789 126.245 240.051 126.341 240.291C126.442 240.531 126.581 240.741 126.757 240.923C126.933 241.099 127.141 241.235 127.381 241.331C127.621 241.427 127.882 241.475 128.165 241.475ZM134.691 242.387C133.923 242.387 133.321 242.171 132.883 241.739C132.451 241.307 132.235 240.683 132.235 239.867V236.707H133.275V239.827C133.275 240.403 133.398 240.821 133.643 241.083C133.894 241.344 134.246 241.475 134.699 241.475C135.153 241.475 135.502 241.344 135.747 241.083C135.993 240.821 136.115 240.403 136.115 239.827V236.707H137.139V239.867C137.139 240.683 136.921 241.307 136.483 241.739C136.051 242.171 135.454 242.387 134.691 242.387ZM138.596 242.307V236.707H140.9C141.396 236.707 141.82 236.787 142.172 236.947C142.529 237.107 142.804 237.336 142.996 237.635C143.188 237.933 143.284 238.288 143.284 238.699C143.284 239.109 143.188 239.464 142.996 239.763C142.804 240.061 142.529 240.291 142.172 240.451C141.82 240.611 141.396 240.691 140.9 240.691H139.172L139.636 240.203V242.307H138.596ZM139.636 240.315L139.172 239.811H140.852C141.31 239.811 141.654 239.715 141.884 239.523C142.118 239.325 142.236 239.051 142.236 238.699C142.236 238.341 142.118 238.067 141.884 237.875C141.654 237.683 141.31 237.587 140.852 237.587H139.172L139.636 237.075V240.315ZM144.322 242.307V236.707H145.362V241.427H148.29V242.307H144.322ZM149.111 242.307V236.707H149.967L153.479 241.019H153.055V236.707H154.087V242.307H153.231L149.719 237.995H150.143V242.307H149.111ZM154.796 242.307L157.316 236.707H158.34L160.868 242.307H159.78L157.612 237.259H158.028L155.868 242.307H154.796ZM155.956 241.011L156.236 240.195H159.26L159.54 241.011H155.956Z" fill="black"/>
    <line x1="173.5" y1="15.3066" x2="173.5" y2="280.307" stroke="black"/>
    <path d="M108 207.307C108 207.03 107.776 206.807 107.5 206.807C107.224 206.807 107 207.03 107 207.307L108 207.307ZM107 207.307L107 281.307L108 281.307L108 207.307L107 207.307Z" fill="black"/>
    <line x1="174" y1="280.807" x2="107" y2="280.807" stroke="black"/>
    <path d="M107 151.307C106.724 151.307 106.5 151.53 106.5 151.807C106.5 152.083 106.724 152.307 107 152.307V151.307ZM107 152.307H174V151.307H107V152.307Z" fill="black"/>
    <path d="M75 152.307C75.2761 152.307 75.5 152.083 75.5 151.807C75.5 151.53 75.2761 151.307 75 151.307V152.307ZM32 152.307H75V151.307H32V152.307Z" fill="black"/>
    <line x1="37.5" y1="152.307" x2="37.5" y2="16.3066" stroke="black"/>
    <path d="M85 17.3066C85.2761 17.3066 85.5 17.0828 85.5 16.8066C85.5 16.5305 85.2761 16.3066 85 16.3066L85 17.3066ZM85 16.3066L38 16.3066L38 17.3066L85 17.3066L85 16.3066Z" fill="black"/>
    <line x1="156" y1="15.8066" x2="173" y2="15.8066" stroke="black"/>
    <line x1="38" y1="84.8066" x2="1" y2="84.8066" stroke="black"/>
    <path d="M0 152.307C1.20706e-08 152.583 0.223858 152.807 0.5 152.807C0.776142 152.807 1 152.583 1 152.307L0 152.307ZM1 152.307L0.999997 84.3066L-2.97237e-06 84.3066L0 152.307L1 152.307Z" fill="black"/>
    <path d="M75 207.807L1 207.807" stroke="black" stroke-linecap="round"/>
    <line x1="10.5" y1="376.307" x2="10.5" y2="207.307" stroke="black"/>
    <path d="M94 377.307C94.2761 377.307 94.5 377.083 94.5 376.807C94.5 376.53 94.2761 376.307 94 376.307L94 377.307ZM94 376.307L11 376.307L11 377.307L94 377.307L94 376.307Z" fill="black"/>
    <line x1="160.5" y1="280.307" x2="160.5" y2="376.307" stroke="black"/>
    <path d="M174 376.807L135 376.807" stroke="black" stroke-linecap="round"/>
    <path d="M139 168.307C139 168.03 138.776 167.807 138.5 167.807C138.224 167.807 138 168.03 138 168.307L139 168.307ZM138 168.307L138 207.307L139 207.307L139 168.307L138 168.307Z" fill="black"/>
    <line x1="173" y1="207.807" x2="138" y2="207.807" stroke="black"/>
    <line x1="61.5" y1="17.3066" x2="61.5" y2="1.30664" stroke="black"/>
    <line x1="155.5" y1="16.3066" x2="155.5" y2="0.306641" stroke="black"/>
    <line x1="61" y1="0.806641" x2="156" y2="0.806632" stroke="black"/>
</svg>
