<svg width="148" height="251" viewBox="0 0 148 251" fill="none" xmlns="http://www.w3.org/2000/svg">
    <line y1="0.806641" x2="147" y2="0.806641" stroke="white"/>
    <line y1="249.807" x2="103" y2="249.807" stroke="white"/>
    <line x1="147.5" y1="0.306641" x2="147.5" y2="250.307" stroke="white"/>
    <line x1="0.5" y1="1.30664" x2="0.499989" y2="250.307" stroke="white"/>
    <line y1="124.807" x2="93" y2="124.807" stroke="white"/>
    <line x1="93.5" y1="159.307" x2="93.5" y2="250.307" stroke="white"/>
    <line x1="47.5" y1="197.307" x2="47.5" y2="249.307" stroke="white"/>
    <rect x="10.9448" y="67.7798" width="11.127" height="17.4149" rx="5.5635" transform="rotate(-90.81 10.9448 67.7798)" fill="#14803F" stroke="#14803F" stroke-width="0.624995"/>
    <rect x="9.8125" y="56.4941" width="46.875" height="19.375" rx="2.04325" transform="rotate(-90 9.8125 56.4941)" fill="#14803F" stroke="#14803F" stroke-width="0.624995"/>
    <line x1="7" y1="67.4677" x2="32" y2="67.4677" stroke="#14803F" stroke-width="1.17787"/>
    <line x1="7" y1="8.71868" x2="32" y2="8.71868" stroke="#14803F" stroke-width="1.17787"/>
    <line x1="4.37114e-08" y1="101.807" x2="89" y2="101.807" stroke="white"/>
    <line x1="88.5" y1="102.307" x2="88.5" y2="125.307" stroke="white"/>
</svg>
