<svg width="193" height="279" viewBox="0 0 193 279" fill="none" xmlns="http://www.w3.org/2000/svg">
    <path d="M107.997 125.307L105.556 117.939H106.976L109.155 124.601H108.45L110.713 117.939H111.976L114.176 124.601H113.492L115.723 117.939H117.028L114.586 125.307H113.134L111.123 119.297H111.502L109.46 125.307H107.997ZM121.481 125.412C120.92 125.412 120.397 125.321 119.913 125.138C119.436 124.949 119.018 124.686 118.66 124.349C118.309 124.005 118.036 123.602 117.839 123.138C117.643 122.675 117.545 122.17 117.545 121.623C117.545 121.076 117.643 120.57 117.839 120.107C118.036 119.644 118.313 119.244 118.671 118.907C119.029 118.564 119.446 118.3 119.923 118.118C120.4 117.928 120.923 117.834 121.491 117.834C122.095 117.834 122.646 117.939 123.144 118.15C123.642 118.353 124.063 118.658 124.407 119.065L123.523 119.897C123.256 119.609 122.958 119.395 122.628 119.255C122.298 119.107 121.941 119.034 121.555 119.034C121.169 119.034 120.814 119.097 120.492 119.223C120.176 119.349 119.899 119.528 119.66 119.76C119.429 119.991 119.246 120.265 119.113 120.581C118.986 120.897 118.923 121.244 118.923 121.623C118.923 122.002 118.986 122.349 119.113 122.665C119.246 122.981 119.429 123.254 119.66 123.486C119.899 123.717 120.176 123.896 120.492 124.023C120.814 124.149 121.169 124.212 121.555 124.212C121.941 124.212 122.298 124.142 122.628 124.002C122.958 123.854 123.256 123.633 123.523 123.338L124.407 124.18C124.063 124.58 123.642 124.886 123.144 125.096C122.646 125.307 122.091 125.412 121.481 125.412Z" fill="black"/>
    <path d="M163 121.307V122.307C163 124.217 161.93 125.877 160.35 126.717L161 129.307H159L158.5 127.307H149.5L149 129.307H147L147.65 126.717C146.849 126.292 146.18 125.656 145.713 124.88C145.246 124.103 145 123.213 145 122.307V121.307H144V119.307H162V112.307C162 112.041 161.895 111.787 161.707 111.6C161.52 111.412 161.265 111.307 161 111.307C160.5 111.307 160.12 111.647 160 112.097C160.63 112.637 161 113.437 161 114.307H155C155 113.511 155.316 112.748 155.879 112.185C156.441 111.623 157.204 111.307 158 111.307H158.17C158.58 110.147 159.69 109.307 161 109.307C161.796 109.307 162.559 109.623 163.121 110.185C163.684 110.748 164 111.511 164 112.307V121.307H163ZM161 121.307H147V122.307C147 123.102 147.316 123.865 147.879 124.428C148.441 124.991 149.204 125.307 150 125.307H158C158.796 125.307 159.559 124.991 160.121 124.428C160.684 123.865 161 123.102 161 122.307V121.307Z" fill="black"/>
    <path d="M192 1.30626C192.276 1.30479 192.499 1.07974 192.497 0.803597C192.496 0.527458 192.271 0.304801 191.995 0.306278L192 1.30626ZM0.000232352 2.333L192 1.30626L191.995 0.306278L-0.00511516 1.33301L0.000232352 2.333Z" fill="black"/>
    <line x1="0.5" y1="2.33301" x2="0.499991" y2="206.333" stroke="black"/>
    <path d="M61 206.333C61.2761 206.333 61.5 206.109 61.5 205.833C61.5 205.557 61.2761 205.333 61 205.333V206.333ZM0 206.333H61V205.333H0V206.333Z" fill="black"/>
    <line x1="123.686" y1="231.722" x2="92.6861" y2="206.722" stroke="black"/>
    <line x1="123.5" y1="231.333" x2="123.5" y2="277.333" stroke="black"/>
    <line x1="185" y1="277.833" x2="124" y2="277.833" stroke="black"/>
    <line x1="184.5" y1="1.33301" x2="184.5" y2="277.333" stroke="black"/>
    <line x1="92" y1="78.833" x2="184" y2="78.833" stroke="black"/>
    <line x1="91.5" y1="160.333" x2="91.5" y2="79.333" stroke="black"/>
    <path d="M123 159.333C122.724 159.333 122.5 159.557 122.5 159.833C122.5 160.109 122.724 160.333 123 160.333L123 159.333ZM184 159.333L123 159.333L123 160.333L184 160.333L184 159.333Z" fill="black"/>
    <path d="M102 160.333C102.276 160.333 102.5 160.109 102.5 159.833C102.5 159.557 102.276 159.333 102 159.333V160.333ZM92 160.333H102V159.333H92V160.333Z" fill="black"/>
    <path d="M83 206.333C82.7239 206.333 82.5 206.557 82.5 206.833C82.5 207.109 82.7239 207.333 83 207.333L83 206.333ZM93 206.333L83 206.333L83 207.333L93 207.333L93 206.333Z" fill="black"/>
</svg>
