<svg width="175" height="384" viewBox="0 0 175 384" fill="none" xmlns="http://www.w3.org/2000/svg">
    <path d="M89.9075 19V14.28H88.0515V13.4H92.8035V14.28H90.9475V19H89.9075ZM94.544 15.728H97.328V16.584H94.544V15.728ZM94.624 18.128H97.784V19H93.584V13.4H97.672V14.272H94.624V18.128ZM98.9434 19V13.4H101.247C101.743 13.4 102.167 13.48 102.519 13.64C102.877 13.8 103.151 14.0293 103.343 14.328C103.535 14.6267 103.631 14.9813 103.631 15.392C103.631 15.8027 103.535 16.1573 103.343 16.456C103.151 16.7493 102.877 16.976 102.519 17.136C102.167 17.2907 101.743 17.368 101.247 17.368H99.5194L99.9834 16.896V19H98.9434ZM102.607 19L101.191 16.968H102.303L103.727 19H102.607ZM99.9834 17.008L99.5194 16.512H101.199C101.658 16.512 102.002 16.4133 102.231 16.216C102.466 16.0187 102.583 15.744 102.583 15.392C102.583 15.0347 102.466 14.76 102.231 14.568C102.002 14.376 101.658 14.28 101.199 14.28H99.5194L99.9834 13.768V17.008ZM104.795 19V13.4H107.099C107.595 13.4 108.019 13.48 108.371 13.64C108.728 13.8 109.003 14.0293 109.195 14.328C109.387 14.6267 109.483 14.9813 109.483 15.392C109.483 15.8027 109.387 16.1573 109.195 16.456C109.003 16.7493 108.728 16.976 108.371 17.136C108.019 17.2907 107.595 17.368 107.099 17.368H105.371L105.835 16.896V19H104.795ZM108.459 19L107.043 16.968H108.155L109.579 19H108.459ZM105.835 17.008L105.371 16.512H107.051C107.51 16.512 107.854 16.4133 108.083 16.216C108.318 16.0187 108.435 15.744 108.435 15.392C108.435 15.0347 108.318 14.76 108.083 14.568C107.854 14.376 107.51 14.28 107.051 14.28H105.371L105.835 13.768V17.008ZM109.855 19L112.375 13.4H113.399L115.927 19H114.839L112.671 13.952H113.087L110.927 19H109.855ZM111.015 17.704L111.295 16.888H114.319L114.599 17.704H111.015ZM119.153 19.08C118.726 19.08 118.329 19.0107 117.961 18.872C117.598 18.728 117.281 18.528 117.009 18.272C116.742 18.0107 116.534 17.704 116.385 17.352C116.235 17 116.161 16.616 116.161 16.2C116.161 15.784 116.235 15.4 116.385 15.048C116.534 14.696 116.745 14.392 117.017 14.136C117.289 13.8747 117.606 13.6747 117.969 13.536C118.331 13.392 118.729 13.32 119.161 13.32C119.619 13.32 120.038 13.4 120.417 13.56C120.795 13.7147 121.115 13.9467 121.377 14.256L120.705 14.888C120.502 14.6693 120.275 14.5067 120.025 14.4C119.774 14.288 119.502 14.232 119.209 14.232C118.915 14.232 118.646 14.28 118.401 14.376C118.161 14.472 117.95 14.608 117.769 14.784C117.593 14.96 117.454 15.168 117.353 15.408C117.257 15.648 117.209 15.912 117.209 16.2C117.209 16.488 117.257 16.752 117.353 16.992C117.454 17.232 117.593 17.44 117.769 17.616C117.95 17.792 118.161 17.928 118.401 18.024C118.646 18.12 118.915 18.168 119.209 18.168C119.502 18.168 119.774 18.1147 120.025 18.008C120.275 17.896 120.502 17.728 120.705 17.504L121.377 18.144C121.115 18.448 120.795 18.68 120.417 18.84C120.038 19 119.617 19.08 119.153 19.08ZM123.333 15.728H126.117V16.584H123.333V15.728ZM123.413 18.128H126.573V19H122.373V13.4H126.461V14.272H123.413V18.128Z" fill="black"/>
    <path d="M51.4653 184.4H52.5053V190H51.4653V184.4ZM48.5693 190H47.5293V184.4H48.5693V190ZM51.5453 187.6H48.4813V186.712H51.5453V187.6ZM53.2139 190L55.7339 184.4H56.7579L59.2859 190H58.1979L56.0299 184.952H56.4459L54.2859 190H53.2139ZM54.3739 188.704L54.6539 187.888H57.6779L57.9579 188.704H54.3739ZM59.9981 190V184.4H61.0381V189.12H63.9661V190H59.9981ZM64.7872 190V184.4H65.8272V189.12H68.7552V190H64.7872ZM70.4978 190L68.6418 184.4H69.7218L71.3778 189.464H70.8418L72.5618 184.4H73.5218L75.1938 189.464H74.6738L76.3698 184.4H77.3618L75.5058 190H74.4018L72.8738 185.432H73.1618L71.6098 190H70.4978ZM77.2373 190L79.7573 184.4H80.7813L83.3093 190H82.2213L80.0533 184.952H80.4693L78.3093 190H77.2373ZM78.3973 188.704L78.6773 187.888H81.7013L81.9813 188.704H78.3973ZM85.0616 190V187.784L85.2936 188.424L82.8616 184.4H83.9736L85.9256 187.64H85.3016L87.2696 184.4H88.2936L85.8616 188.424L86.1016 187.784V190H85.0616Z" fill="black"/>
    <path d="M137.677 250.693L135.821 245.093H136.901L138.557 250.157H138.021L139.741 245.093H140.701L142.373 250.157H141.853L143.549 245.093H144.541L142.685 250.693H141.581L140.053 246.125H140.341L138.789 250.693H137.677ZM147.926 250.773C147.499 250.773 147.102 250.704 146.734 250.565C146.371 250.421 146.054 250.221 145.782 249.965C145.515 249.704 145.307 249.397 145.158 249.045C145.009 248.693 144.934 248.309 144.934 247.893C144.934 247.477 145.009 247.093 145.158 246.741C145.307 246.389 145.518 246.085 145.79 245.829C146.062 245.568 146.379 245.368 146.742 245.229C147.105 245.085 147.502 245.013 147.934 245.013C148.393 245.013 148.811 245.093 149.19 245.253C149.569 245.408 149.889 245.64 150.15 245.949L149.478 246.581C149.275 246.363 149.049 246.2 148.798 246.093C148.547 245.981 148.275 245.925 147.982 245.925C147.689 245.925 147.419 245.973 147.174 246.069C146.934 246.165 146.723 246.301 146.542 246.477C146.366 246.653 146.227 246.861 146.126 247.101C146.03 247.341 145.982 247.605 145.982 247.893C145.982 248.181 146.03 248.445 146.126 248.685C146.227 248.925 146.366 249.133 146.542 249.309C146.723 249.485 146.934 249.621 147.174 249.717C147.419 249.813 147.689 249.861 147.982 249.861C148.275 249.861 148.547 249.808 148.798 249.701C149.049 249.589 149.275 249.421 149.478 249.197L150.15 249.837C149.889 250.141 149.569 250.373 149.19 250.533C148.811 250.693 148.39 250.773 147.926 250.773Z" fill="black"/>
    <line x1="174" y1="22" x2="174" y2="287" stroke="black"/>
    <path d="M108.5 214C108.5 213.724 108.276 213.5 108 213.5C107.724 213.5 107.5 213.724 107.5 214L108.5 214ZM107.5 214L107.5 288L108.5 288L108.5 214L107.5 214Z" fill="black"/>
    <line x1="174.5" y1="287.5" x2="107.5" y2="287.5" stroke="black"/>
    <path d="M107.5 158C107.224 158 107 158.224 107 158.5C107 158.776 107.224 159 107.5 159V158ZM107.5 159H174.5V158H107.5V159Z" fill="black"/>
    <path d="M75.5 159C75.7761 159 76 158.776 76 158.5C76 158.224 75.7761 158 75.5 158V159ZM32.5 159H75.5V158H32.5V159Z" fill="black"/>
    <line x1="38" y1="159" x2="38" y2="23" stroke="black"/>
    <path d="M85.5 24C85.7761 24 86 23.7761 86 23.5C86 23.2239 85.7761 23 85.5 23L85.5 24ZM85.5 23L38.5 23L38.5 24L85.5 24L85.5 23Z" fill="black"/>
    <line x1="156.5" y1="22.5" x2="173.5" y2="22.5" stroke="black"/>
    <line x1="38.5" y1="91.5" x2="1.5" y2="91.5" stroke="black"/>
    <path d="M0.5 159C0.5 159.276 0.723858 159.5 1 159.5C1.27614 159.5 1.5 159.276 1.5 159L0.5 159ZM1.5 159L1.5 91L0.499997 91L0.5 159L1.5 159Z" fill="black"/>
    <path d="M75.5 214.5L1.5 214.5" stroke="black" stroke-linecap="round"/>
    <line x1="11" y1="383" x2="11" y2="214" stroke="black"/>
    <path d="M94.5 384C94.7761 384 95 383.776 95 383.5C95 383.224 94.7761 383 94.5 383L94.5 384ZM94.5 383L11.5 383L11.5 384L94.5 384L94.5 383Z" fill="black"/>
    <line x1="161" y1="287" x2="161" y2="383" stroke="black"/>
    <path d="M174.5 383.5L135.5 383.5" stroke="black" stroke-linecap="round"/>
    <path d="M139.5 175C139.5 174.724 139.276 174.5 139 174.5C138.724 174.5 138.5 174.724 138.5 175L139.5 175ZM138.5 175L138.5 214L139.5 214L139.5 175L138.5 175Z" fill="black"/>
    <line x1="173.5" y1="214.5" x2="138.5" y2="214.5" stroke="black"/>
    <line x1="62" y1="24" x2="62" y2="8" stroke="black"/>
    <line x1="156" y1="23" x2="156" y2="7" stroke="black"/>
    <line x1="61.5" y1="7.5" x2="156.5" y2="7.49999" stroke="black"/>
</svg>
