<svg width="694" height="365" viewBox="0 0 694 365" fill="none" xmlns="http://www.w3.org/2000/svg">
<path d="M460.005 4.16992L460.005 172.052" stroke="#333131" stroke-width="4.72987" stroke-linecap="round"/>
<path d="M451.429 4.35938L690.663 4.35937" stroke="#333131" stroke-width="4.72987" stroke-linecap="round"/>
<path d="M690.663 4.74902L690.663 358.814" stroke="#333131" stroke-width="4.72987" stroke-linecap="round"/>
<path d="M409.388 359.475L688.995 359.475" stroke="#333131" stroke-width="4.72987" stroke-linecap="round"/>
<path d="M460.183 335.418L460.183 358.814" stroke="#333131" stroke-width="4.72987" stroke-linecap="round"/>
<path d="M517.91 257.707L517.91 358.778" stroke="#333131" stroke-width="4.72987" stroke-linecap="round"/>
<path d="M460.005 225.158L460.005 285.116" stroke="#333131" stroke-width="4.72987" stroke-linecap="round"/>
<path d="M554.983 257.163L460.678 257.163" stroke="#333131" stroke-width="4.72987" stroke-linecap="round"/>
<path d="M690.193 258.723L612.433 258.723" stroke="#333131" stroke-width="4.72987" stroke-linecap="round"/>
<path d="M279.439 93.9463L315.838 93.9463" stroke="#333131" stroke-width="4.72987" stroke-linecap="round"/>
<path d="M370.732 93.9463L460.074 93.9463" stroke="#333131" stroke-width="4.72987" stroke-linecap="round"/>
<path d="M279.358 181.09L279.358 3.57965" stroke="#333131" stroke-width="4.72987" stroke-linecap="round"/>
<path d="M3 3L463.487 4.35972" stroke="#333131" stroke-width="4.72987" stroke-linecap="round"/>
<path d="M3.37085 4.16992L3.37083 362.204" stroke="#333131" stroke-width="4.72987" stroke-linecap="round"/>
<path d="M342.215 362.324L3.27578 362.324" stroke="#333131" stroke-width="4.72987" stroke-linecap="round"/>
<path d="M281.322 214.879L281.322 358.778" stroke="#333131" stroke-width="4.72987" stroke-linecap="round"/>
<path d="M194.386 227.957L194.386 243.375" stroke="#333131" stroke-width="4.72987" stroke-linecap="round"/>
<path d="M278.686 243.305H194.307" stroke="#333131" stroke-width="4.72987" stroke-linecap="round"/>
<path d="M5.69678 160.757H195.962" stroke="#333131" stroke-width="4.72987" stroke-linecap="round"/>
<path d="M221.841 141.287L197.023 141.287" stroke="#333131" stroke-width="4.72987" stroke-linecap="round"/>
<path d="M196.338 191.356V141.677" stroke="#333131" stroke-width="4.72987" stroke-linecap="round"/>
<path d="M263.795 141.747H277.031" stroke="#333131" stroke-width="4.72987" stroke-linecap="round"/>
</svg>
