<svg width="212" height="174" viewBox="0 0 212 174" fill="none" xmlns="http://www.w3.org/2000/svg">
    <rect x="0.619493" y="1.42613" width="209.964" height="167.353" rx="1.47354" stroke="black" stroke-width="1.23508"/>
    <path d="M73.1897 47.8125L1.39606 47.8125" stroke="black" stroke-width="1.39405" stroke-linecap="round"/>
    <path d="M73.1897 109.151C73.5747 109.151 73.8867 108.839 73.8867 108.454C73.8867 108.069 73.5747 107.757 73.1897 107.757V109.151ZM73.1897 107.757L1.39606 107.757V109.151L73.1897 109.151V107.757Z" fill="black"/>
    <path d="M73.1848 47.8232L73.1903 82.6745" stroke="black" stroke-width="1.39405" stroke-linecap="round"/>
    <path d="M73.1897 97.999L73.1897 108.454" stroke="black" stroke-width="1.39405" stroke-linecap="round"/>
    <path d="M27.9403 83.8145L24.8168 74.3901H26.6343L29.4213 82.9124H28.5192L31.4138 74.3901H33.0294L35.8433 82.9124H34.9682L37.8224 74.3901H39.4919L36.3684 83.8145H34.5104L31.9389 76.1268H32.4236L29.8117 83.8145H27.9403ZM45.1878 83.9491C44.4698 83.9491 43.8011 83.8324 43.1818 83.599C42.5715 83.3567 42.0374 83.0201 41.5797 82.5893C41.1309 82.1495 40.7808 81.6334 40.5295 81.041C40.2782 80.4486 40.1525 79.8024 40.1525 79.1023C40.1525 78.4022 40.2782 77.7559 40.5295 77.1635C40.7808 76.5711 41.1354 76.0595 41.5931 75.6287C42.0509 75.1889 42.5849 74.8523 43.1953 74.6189C43.8056 74.3766 44.4743 74.2554 45.2013 74.2554C45.9732 74.2554 46.6778 74.3901 47.3151 74.6593C47.9523 74.9196 48.4909 75.3101 48.9307 75.8307L47.7997 76.8943C47.4587 76.5263 47.0772 76.2525 46.6554 76.073C46.2335 75.8845 45.7757 75.7903 45.2821 75.7903C44.7884 75.7903 44.3352 75.871 43.9223 76.0326C43.5184 76.1942 43.1638 76.423 42.8587 76.7192C42.5625 77.0154 42.3291 77.3655 42.1586 77.7694C41.997 78.1733 41.9162 78.6176 41.9162 79.1023C41.9162 79.5869 41.997 80.0312 42.1586 80.4351C42.3291 80.839 42.5625 81.1891 42.8587 81.4853C43.1638 81.7815 43.5184 82.0104 43.9223 82.1719C44.3352 82.3335 44.7884 82.4143 45.2821 82.4143C45.7757 82.4143 46.2335 82.3245 46.6554 82.145C47.0772 81.9565 47.4587 81.6738 47.7997 81.2968L48.9307 82.3739C48.4909 82.8855 47.9523 83.2759 47.3151 83.5452C46.6778 83.8145 45.9687 83.9491 45.1878 83.9491Z" fill="black"/>
    <rect x="167.364" y="55.9023" width="33.4572" height="30.6691" rx="2.09108" fill="#D9D9D9"/>
    <path d="M176.514 72.0498V68.7598H175.22V68.1465H178.532V68.7598H177.239V72.0498H176.514ZM178.328 72.0498L180.085 68.1465H180.799L182.561 72.0498H181.802L180.291 68.5312H180.581L179.075 72.0498H178.328ZM179.137 71.1465L179.332 70.5777H181.44L181.635 71.1465H179.137ZM183.057 72.0498V68.1465H184.886C185.354 68.1465 185.711 68.2394 185.957 68.4253C186.202 68.6074 186.325 68.8528 186.325 69.1613C186.325 69.3695 186.276 69.5479 186.18 69.6966C186.083 69.8416 185.953 69.955 185.789 70.0368C185.63 70.1149 185.455 70.1539 185.265 70.1539L185.366 69.9532C185.585 69.9532 185.782 69.994 185.957 70.0758C186.131 70.1539 186.269 70.2691 186.369 70.4216C186.473 70.574 186.525 70.7636 186.525 70.9903C186.525 71.3249 186.397 71.5851 186.141 71.771C185.884 71.9569 185.503 72.0498 184.998 72.0498H183.057ZM183.782 71.481H184.953C185.224 71.481 185.432 71.4364 185.577 71.3472C185.722 71.258 185.795 71.1149 185.795 70.9178C185.795 70.7245 185.722 70.5833 185.577 70.494C185.432 70.4011 185.224 70.3546 184.953 70.3546H183.726V69.7914H184.808C185.061 69.7914 185.254 69.7468 185.388 69.6576C185.525 69.5684 185.594 69.4346 185.594 69.2561C185.594 69.074 185.525 68.9383 185.388 68.8491C185.254 68.7598 185.061 68.7152 184.808 68.7152H183.782V71.481ZM187.299 72.0498V68.1465H188.024V71.4364H190.065V72.0498H187.299ZM191.306 69.7691H193.247V70.3658H191.306V69.7691ZM191.362 71.442H193.565V72.0498H190.637V68.1465H193.487V68.7543H191.362V71.442Z" fill="black"/>
    <rect x="171.907" y="43.2861" width="26.6137" height="8.36431" rx="2.28117" fill="#D9D9D9"/>
    <path d="M180.815 48.0614C180.638 48.0614 180.474 48.0327 180.322 47.9754C180.172 47.916 180.041 47.8334 179.929 47.7276C179.819 47.6197 179.733 47.493 179.671 47.3476C179.61 47.2022 179.579 47.0436 179.579 46.8718C179.579 46.6999 179.61 46.5413 179.671 46.3959C179.733 46.2505 179.82 46.125 179.932 46.0192C180.045 45.9113 180.176 45.8287 180.326 45.7714C180.475 45.7119 180.64 45.6822 180.818 45.6822C181.007 45.6822 181.18 45.7152 181.337 45.7813C181.493 45.8452 181.625 45.941 181.733 46.0688L181.456 46.3298C181.372 46.2395 181.278 46.1723 181.175 46.1283C181.071 46.082 180.959 46.0589 180.838 46.0589C180.717 46.0589 180.605 46.0787 180.504 46.1184C180.405 46.158 180.318 46.2142 180.243 46.2869C180.17 46.3596 180.113 46.4455 180.071 46.5446C180.032 46.6438 180.012 46.7528 180.012 46.8718C180.012 46.9907 180.032 47.0998 180.071 47.1989C180.113 47.298 180.17 47.384 180.243 47.4567C180.318 47.5294 180.405 47.5855 180.504 47.6252C180.605 47.6648 180.717 47.6847 180.838 47.6847C180.959 47.6847 181.071 47.6626 181.175 47.6186C181.278 47.5723 181.372 47.5029 181.456 47.4104L181.733 47.6747C181.625 47.8003 181.493 47.8961 181.337 47.9622C181.18 48.0283 181.006 48.0614 180.815 48.0614ZM183.771 45.7152H184.2V48.0283H183.771V45.7152ZM182.574 48.0283H182.145V45.7152H182.574V48.0283ZM183.804 47.037H182.538V46.6702H183.804V47.037ZM184.493 48.0283L185.534 45.7152H185.957L187.001 48.0283H186.552L185.656 45.9432H185.828L184.936 48.0283H184.493ZM184.972 47.493L185.088 47.156H186.337L186.452 47.493H184.972ZM187.295 48.0283V45.7152H187.725V48.0283H187.295ZM188.35 48.0283V45.7152H189.302C189.507 45.7152 189.682 45.7483 189.827 45.8144C189.975 45.8804 190.088 45.9752 190.168 46.0985C190.247 46.2219 190.287 46.3684 190.287 46.538C190.287 46.7077 190.247 46.8542 190.168 46.9775C190.088 47.0987 189.975 47.1923 189.827 47.2584C189.682 47.3223 189.507 47.3542 189.302 47.3542H188.588L188.78 47.1593V48.0283H188.35ZM189.864 48.0283L189.279 47.189H189.738L190.326 48.0283H189.864ZM188.78 47.2055L188.588 47.0006H189.282C189.472 47.0006 189.614 46.9599 189.708 46.8784C189.805 46.7969 189.854 46.6834 189.854 46.538C189.854 46.3904 189.805 46.277 189.708 46.1977C189.614 46.1184 189.472 46.0787 189.282 46.0787H188.588L188.78 45.8672V47.2055Z" fill="black"/>
    <rect x="153.414" y="82.6963" width="24.3959" height="7.66728" rx="2.09108" transform="rotate(-90 153.414 82.6963)" fill="#D9D9D9"/>
    <path d="M157.837 73.8619C157.837 74.0381 157.808 74.2022 157.751 74.3542C157.692 74.504 157.609 74.6351 157.503 74.7474C157.395 74.8576 157.269 74.9435 157.123 75.0052C156.978 75.0669 156.819 75.0977 156.647 75.0977C156.476 75.0977 156.317 75.0669 156.172 75.0052C156.026 74.9435 155.901 74.8565 155.795 74.7441C155.687 74.6318 155.604 74.5007 155.547 74.3509C155.488 74.2011 155.458 74.037 155.458 73.8586C155.458 73.6691 155.491 73.4962 155.557 73.3398C155.621 73.1834 155.717 73.0512 155.844 72.9432L156.105 73.2208C156.015 73.3045 155.948 73.3981 155.904 73.5017C155.858 73.6052 155.835 73.7176 155.835 73.8387C155.835 73.9599 155.854 74.0711 155.894 74.1725C155.934 74.2716 155.99 74.3586 156.063 74.4335C156.135 74.5062 156.221 74.5635 156.32 74.6054C156.419 74.645 156.528 74.6648 156.647 74.6648C156.766 74.6648 156.875 74.645 156.975 74.6054C157.074 74.5635 157.16 74.5062 157.232 74.4335C157.305 74.3586 157.361 74.2716 157.401 74.1725C157.44 74.0711 157.46 73.9599 157.46 73.8387C157.46 73.7176 157.438 73.6052 157.394 73.5017C157.348 73.3981 157.279 73.3045 157.186 73.2208L157.45 72.9432C157.576 73.0512 157.672 73.1834 157.738 73.3398C157.804 73.4962 157.837 73.6702 157.837 73.8619ZM155.491 70.9059V70.4763H157.804V70.9059H155.491ZM157.804 72.1021V72.5316H155.491V72.1021L157.804 72.1021ZM156.813 70.8728V72.1384H156.446V70.8728H156.813ZM157.804 70.1836L155.491 69.1427V68.7198L157.804 67.6756V68.125L155.719 69.0205V68.8486L157.804 69.7408V70.1836ZM157.269 69.7045L156.932 69.5888V68.3397L157.269 68.2241V69.7045ZM157.804 67.3814H155.491V66.9518H157.804V67.3814ZM157.804 66.3262H155.491V65.3745C155.491 65.1696 155.524 64.9945 155.59 64.8491C155.656 64.7015 155.751 64.588 155.874 64.5087C155.998 64.4294 156.144 64.3898 156.314 64.3898C156.483 64.3898 156.63 64.4294 156.753 64.5087C156.874 64.588 156.968 64.7015 157.034 64.8491C157.098 64.9945 157.13 65.1696 157.13 65.3745V66.0882L156.935 65.8966H157.804V66.3262ZM157.804 64.8127L156.965 65.3976V64.9383L157.804 64.3501V64.8127ZM156.981 65.8966L156.776 66.0882V65.3943C156.776 65.2049 156.736 65.0628 156.654 64.9681C156.573 64.8711 156.459 64.8227 156.314 64.8227C156.166 64.8227 156.053 64.8711 155.973 64.9681C155.894 65.0628 155.854 65.2049 155.854 65.3943V66.0882L155.643 65.8966H156.981Z" fill="black"/>
    <rect x="136.222" y="162.521" width="11.0563" height="37.5432" rx="0.997468" transform="rotate(90 136.222 162.521)" stroke="black" stroke-width="0.793167"/>
    <path d="M19.5635 145.122L17.9617 140.289H18.8938L20.323 144.659H19.8604L21.3448 140.289H22.1733L23.6163 144.659H23.1676L24.6313 140.289H25.4874L23.8856 145.122H22.9328L21.6141 141.18H21.8626L20.5232 145.122H19.5635ZM25.38 145.122L27.5549 140.289H28.4386L30.6204 145.122H29.6814L27.8103 140.765H28.1693L26.3052 145.122H25.38ZM26.3811 144.004L26.6228 143.299H29.2326L29.4743 144.004H26.3811ZM31.235 145.122V140.289H33.2235C33.6515 140.289 34.0175 140.358 34.3212 140.496C34.6296 140.634 34.8667 140.832 35.0324 141.09C35.1981 141.348 35.2809 141.654 35.2809 142.008C35.2809 142.363 35.1981 142.669 35.0324 142.926C34.8667 143.18 34.6296 143.375 34.3212 143.513C34.0175 143.647 33.6515 143.714 33.2235 143.714H31.7321L32.1326 143.306V145.122H31.235ZM34.3972 145.122L33.1751 143.368H34.1348L35.3638 145.122H34.3972ZM32.1326 143.403L31.7321 142.975H33.182C33.5779 142.975 33.8748 142.89 34.0727 142.719C34.2752 142.549 34.3765 142.312 34.3765 142.008C34.3765 141.7 34.2752 141.463 34.0727 141.297C33.8748 141.131 33.5779 141.049 33.182 141.049H31.7321L32.1326 140.607V143.403ZM36.2851 145.122V140.289H38.3979C38.9226 140.289 39.3829 140.39 39.7787 140.593C40.1746 140.795 40.483 141.076 40.7039 141.435C40.9248 141.794 41.0353 142.218 41.0353 142.706C41.0353 143.189 40.9248 143.612 40.7039 143.976C40.483 144.335 40.1746 144.616 39.7787 144.818C39.3829 145.021 38.9226 145.122 38.3979 145.122H36.2851ZM37.1827 144.363H38.3564C38.7201 144.363 39.0331 144.294 39.2954 144.155C39.5624 144.017 39.7672 143.824 39.9099 143.576C40.0572 143.327 40.1308 143.037 40.1308 142.706C40.1308 142.37 40.0572 142.08 39.9099 141.836C39.7672 141.587 39.5624 141.394 39.2954 141.256C39.0331 141.118 38.7201 141.049 38.3564 141.049H37.1827V144.363ZM41.9893 145.122V140.289H43.9777C44.4058 140.289 44.7717 140.358 45.0755 140.496C45.3839 140.634 45.621 140.832 45.7867 141.09C45.9524 141.348 46.0352 141.654 46.0352 142.008C46.0352 142.363 45.9524 142.669 45.7867 142.926C45.621 143.18 45.3839 143.375 45.0755 143.513C44.7717 143.647 44.4058 143.714 43.9777 143.714H42.4864L42.8868 143.306V145.122H41.9893ZM45.1515 145.122L43.9294 143.368H44.8891L46.1181 145.122H45.1515ZM42.8868 143.403L42.4864 142.975H43.9363C44.3322 142.975 44.629 142.89 44.827 142.719C45.0295 142.549 45.1308 142.312 45.1308 142.008C45.1308 141.7 45.0295 141.463 44.827 141.297C44.629 141.131 44.3322 141.049 43.9363 141.049H42.4864L42.8868 140.607V143.403ZM49.304 145.191C48.9266 145.191 48.5791 145.129 48.2615 145.005C47.9439 144.88 47.6677 144.708 47.433 144.487C47.1982 144.261 47.0164 143.999 46.8875 143.7C46.7586 143.396 46.6942 143.065 46.6942 142.706C46.6942 142.347 46.7586 142.017 46.8875 141.718C47.0164 141.414 47.1982 141.152 47.433 140.931C47.6677 140.706 47.9439 140.531 48.2615 140.406C48.5791 140.282 48.9243 140.22 49.2971 140.22C49.6746 140.22 50.0198 140.282 50.3328 140.406C50.6504 140.531 50.9265 140.706 51.1613 140.931C51.396 141.152 51.5778 141.414 51.7067 141.718C51.8356 142.017 51.9 142.347 51.9 142.706C51.9 143.065 51.8356 143.396 51.7067 143.7C51.5778 144.004 51.396 144.266 51.1613 144.487C50.9265 144.708 50.6504 144.88 50.3328 145.005C50.0198 145.129 49.6769 145.191 49.304 145.191ZM49.2971 144.404C49.5411 144.404 49.7666 144.363 49.9737 144.28C50.1809 144.197 50.3604 144.08 50.5123 143.928C50.6642 143.771 50.7816 143.592 50.8644 143.389C50.9519 143.182 50.9956 142.954 50.9956 142.706C50.9956 142.457 50.9519 142.231 50.8644 142.029C50.7816 141.822 50.6642 141.642 50.5123 141.49C50.3604 141.334 50.1809 141.214 49.9737 141.131C49.7666 141.049 49.5411 141.007 49.2971 141.007C49.0532 141.007 48.8276 141.049 48.6205 141.131C48.418 141.214 48.2385 141.334 48.082 141.49C47.9301 141.642 47.8104 141.822 47.7229 142.029C47.6401 142.231 47.5987 142.457 47.5987 142.706C47.5987 142.95 47.6401 143.175 47.7229 143.382C47.8104 143.589 47.9301 143.771 48.082 143.928C48.2339 144.08 48.4134 144.197 48.6205 144.28C48.8276 144.363 49.0532 144.404 49.2971 144.404ZM52.8514 145.122V140.289H55.1161C55.696 140.289 56.1379 140.404 56.4417 140.634C56.7455 140.86 56.8974 141.164 56.8974 141.546C56.8974 141.803 56.8375 142.024 56.7179 142.208C56.5982 142.388 56.4371 142.528 56.2346 142.63C56.0366 142.726 55.8203 142.775 55.5855 142.775L55.7098 142.526C55.9814 142.526 56.2253 142.577 56.4417 142.678C56.658 142.775 56.8283 142.917 56.9526 143.106C57.0815 143.295 57.1459 143.529 57.1459 143.81C57.1459 144.225 56.9871 144.547 56.6695 144.777C56.3519 145.007 55.8801 145.122 55.2541 145.122H52.8514ZM53.749 144.418H55.1989C55.5349 144.418 55.7927 144.363 55.9722 144.252C56.1517 144.142 56.2415 143.964 56.2415 143.72C56.2415 143.481 56.1517 143.306 55.9722 143.196C55.7927 143.081 55.5349 143.023 55.1989 143.023H53.68V142.326H55.0194C55.3324 142.326 55.5717 142.271 55.7374 142.16C55.9078 142.05 55.9929 141.884 55.9929 141.663C55.9929 141.437 55.9078 141.269 55.7374 141.159C55.5717 141.049 55.3324 140.993 55.0194 140.993H53.749V144.418ZM58.9324 142.298H61.3351V143.037H58.9324V142.298ZM59.0014 144.37H61.7286V145.122H58.1038V140.289H61.6319V141.042H59.0014V144.37Z" fill="black"/>
</svg>
