<svg width="230" height="226" viewBox="0 0 230 226" fill="none" xmlns="http://www.w3.org/2000/svg">
    <rect x="11.453" y="195.939" width="11.0563" height="37.5432" rx="0.997468" transform="rotate(-180 11.453 195.939)" stroke="black" stroke-width="0.793167"/>
    <path d="M44.5162 53L41.7322 44.6H43.3522L45.8362 52.196H45.0322L47.6122 44.6H49.0522L51.5602 52.196H50.7802L53.3242 44.6H54.8122L52.0282 53H50.3722L48.0802 46.148H48.5122L46.1842 53H44.5162ZM59.889 53.12C59.249 53.12 58.653 53.016 58.101 52.808C57.557 52.592 57.081 52.292 56.673 51.908C56.273 51.516 55.961 51.056 55.737 50.528C55.513 50 55.401 49.424 55.401 48.8C55.401 48.176 55.513 47.6 55.737 47.072C55.961 46.544 56.277 46.088 56.685 45.704C57.093 45.312 57.569 45.012 58.113 44.804C58.657 44.588 59.253 44.48 59.901 44.48C60.589 44.48 61.217 44.6 61.785 44.84C62.353 45.072 62.833 45.42 63.225 45.884L62.217 46.832C61.913 46.504 61.573 46.26 61.197 46.1C60.821 45.932 60.413 45.848 59.973 45.848C59.533 45.848 59.129 45.92 58.761 46.064C58.401 46.208 58.085 46.412 57.813 46.676C57.549 46.94 57.341 47.252 57.189 47.612C57.045 47.972 56.973 48.368 56.973 48.8C56.973 49.232 57.045 49.628 57.189 49.988C57.341 50.348 57.549 50.66 57.813 50.924C58.085 51.188 58.401 51.392 58.761 51.536C59.129 51.68 59.533 51.752 59.973 51.752C60.413 51.752 60.821 51.672 61.197 51.512C61.573 51.344 61.913 51.092 62.217 50.756L63.225 51.716C62.833 52.172 62.353 52.52 61.785 52.76C61.217 53 60.585 53.12 59.889 53.12Z" fill="black"/>
    <rect x="6" y="1" width="223" height="224" rx="1" stroke="black" stroke-width="2"/>
    <line x1="5" y1="104.5" x2="61" y2="104.5" stroke="black"/>
    <line x1="60.6722" y1="104.622" x2="98.6722" y2="71.6225" stroke="black"/>
    <line x1="98.5" y1="2.18557e-08" x2="98.5" y2="72" stroke="black"/>
</svg>
