<svg width="213" height="174" viewBox="0 0 213 174" fill="none" xmlns="http://www.w3.org/2000/svg">
    <rect x="1.37242" y="0.649767" width="210.74" height="171.756" rx="1.47354" stroke="black" stroke-width="1.23508"/>
    <rect width="33.4572" height="31.4741" rx="2.09108" transform="matrix(-0.999997 -0.00252955 -0.00240182 0.999997 196.03 12.6797)" fill="#D9D9D9"/>
    <path d="M171.943 31.5347L171.935 28.2447L170.641 28.248L170.64 27.6346L173.952 27.6262L173.954 28.2396L172.66 28.2429L172.668 31.5328L171.943 31.5347ZM173.757 31.5301L175.504 27.6223L176.218 27.6205L177.99 31.5194L177.231 31.5213L175.712 28.0065L176.002 28.0058L174.505 31.5282L173.757 31.5301ZM174.564 30.6247L174.758 30.0554L176.865 30.0501L177.062 30.6184L174.564 30.6247ZM178.486 31.5181L178.477 27.6148L180.306 27.6101C180.774 27.609 181.131 27.701 181.377 27.8862C181.623 28.0678 181.746 28.3128 181.747 28.6214C181.747 28.8295 181.699 29.0081 181.603 29.1571C181.507 29.3023 181.377 29.416 181.214 29.4982C181.054 29.5767 180.879 29.6161 180.69 29.6166L180.79 29.4156C181.009 29.4151 181.206 29.4555 181.381 29.5368C181.556 29.6144 181.694 29.7293 181.794 29.8815C181.899 30.0336 181.951 30.2231 181.952 30.4499C181.953 30.7844 181.825 31.045 181.569 31.2315C181.313 31.418 180.932 31.5119 180.427 31.5132L178.486 31.5181ZM179.21 30.9475L180.381 30.9445C180.652 30.9438 180.86 30.8987 181.005 30.8091C181.15 30.7195 181.222 30.5762 181.221 30.3792C181.221 30.1859 181.148 30.0448 181.003 29.956C180.858 29.8634 180.649 29.8175 180.378 29.8181L179.151 29.8212L179.15 29.2581L180.232 29.2553C180.484 29.2547 180.678 29.2096 180.811 29.12C180.949 29.0305 181.017 28.8965 181.017 28.718C181.016 28.5359 180.947 28.4003 180.809 28.3115C180.675 28.2226 180.482 28.1785 180.229 28.1791L179.203 28.1817L179.21 30.9475ZM182.728 31.5074L182.719 27.604L183.444 27.6022L183.452 30.8922L185.492 30.887L185.494 31.5004L182.728 31.5074ZM186.73 29.2166L188.67 29.2117L188.672 29.8083L186.731 29.8132L186.73 29.2166ZM186.79 30.8893L188.992 30.8837L188.994 31.4915L186.066 31.4989L186.057 27.5956L188.906 27.5884L188.908 28.1962L186.783 28.2016L186.79 30.8893Z" fill="black"/>
    <rect width="26.6137" height="8.58385" rx="2.28117" transform="matrix(-0.999997 -0.00252955 -0.00240182 0.999997 193.22 48.5039)" fill="#D9D9D9"/>
    <path d="M176.29 53.3015C176.114 53.302 175.949 53.2737 175.797 53.2168C175.647 53.1577 175.516 53.0755 175.404 52.97C175.293 52.8623 175.207 52.7359 175.145 52.5907C175.083 52.4454 175.052 52.2869 175.051 52.1151C175.051 51.9432 175.081 51.7845 175.143 51.639C175.204 51.4934 175.291 51.3676 175.403 51.2616C175.515 51.1534 175.646 51.0705 175.795 51.0128C175.945 50.9529 176.109 50.9228 176.287 50.9223C176.477 50.9219 176.65 50.9545 176.807 51.0202C176.963 51.0836 177.095 51.1791 177.204 51.3066L176.927 51.5684C176.843 51.4783 176.749 51.4113 176.645 51.3675C176.542 51.3215 176.429 51.2987 176.308 51.299C176.187 51.2993 176.076 51.3194 175.975 51.3593C175.876 51.3992 175.789 51.4556 175.714 51.5285C175.641 51.6014 175.584 51.6874 175.543 51.7867C175.503 51.8859 175.484 51.995 175.484 52.114C175.484 52.2329 175.504 52.3419 175.544 52.4409C175.586 52.54 175.644 52.6257 175.717 52.6983C175.792 52.7708 175.879 52.8267 175.978 52.8661C176.08 52.9055 176.191 52.9251 176.312 52.9248C176.433 52.9244 176.546 52.9021 176.649 52.8578C176.752 52.8113 176.846 52.7417 176.929 52.6489L177.208 52.9126C177.1 53.0384 176.968 53.1346 176.812 53.2011C176.655 53.2675 176.482 53.301 176.29 53.3015ZM179.24 50.9479L179.67 50.9468L179.675 53.2599L179.246 53.261L179.24 50.9479ZM178.05 53.264L177.62 53.2651L177.614 50.952L178.044 50.9509L178.05 53.264ZM179.276 52.2696L178.011 52.2728L178.01 51.906L179.276 51.9028L179.276 52.2696ZM179.968 53.2592L181.003 50.9434L181.426 50.9424L182.476 53.2528L182.027 53.254L181.126 51.1711L181.298 51.1707L180.411 53.258L179.968 53.2592ZM180.446 52.7226L180.561 52.3853L181.81 52.3821L181.926 52.7189L180.446 52.7226ZM182.77 53.2521L182.765 50.939L183.194 50.9379L183.2 53.251L182.77 53.2521ZM183.825 53.2494L183.82 50.9363L184.772 50.9339C184.976 50.9334 185.152 50.966 185.297 51.0317C185.445 51.0974 185.559 51.1919 185.638 51.315C185.718 51.4382 185.758 51.5846 185.758 51.7542C185.759 51.9238 185.719 52.0704 185.64 52.194C185.561 52.3154 185.448 52.4093 185.301 52.4757C185.155 52.54 184.98 52.5724 184.776 52.5729L184.062 52.5747L184.253 52.3793L184.255 53.2483L183.825 53.2494ZM185.339 53.2456L184.752 52.4077L185.211 52.4066L185.802 53.2444L185.339 53.2456ZM184.253 52.4255L184.061 52.2211L184.755 52.2194C184.944 52.2189 185.086 52.1778 185.181 52.096C185.278 52.0143 185.326 51.9007 185.325 51.7553C185.325 51.6077 185.276 51.4944 185.179 51.4153C185.084 51.3363 184.942 51.297 184.753 51.2974L184.059 51.2992L184.25 51.0872L184.253 52.4255Z" fill="black"/>
    <rect width="25.0362" height="7.66728" rx="2.09108" transform="matrix(-0.00240177 0.999997 0.999997 0.00252951 148.622 16.8525)" fill="#D9D9D9"/>
    <path d="M151.824 26.1381C151.823 25.9619 151.851 25.7977 151.908 25.6456C151.967 25.4956 152.05 25.3643 152.155 25.2517C152.263 25.1413 152.389 25.0551 152.535 24.993C152.68 24.931 152.838 24.8997 153.01 24.8993C153.182 24.8988 153.341 24.9293 153.486 24.9906C153.632 25.0519 153.758 25.1386 153.864 25.2507C153.972 25.3628 154.055 25.4936 154.112 25.6433C154.172 25.7929 154.202 25.957 154.203 26.1354C154.203 26.3249 154.171 26.4979 154.105 26.6545C154.041 26.811 153.946 26.9435 153.818 27.0517L153.557 26.7748C153.647 26.6909 153.714 26.5971 153.758 26.4934C153.804 26.3898 153.826 26.2774 153.826 26.1562C153.826 26.035 153.806 25.9238 153.766 25.8226C153.726 25.7236 153.67 25.6367 153.597 25.562C153.524 25.4895 153.438 25.4324 153.339 25.3908C153.239 25.3514 153.13 25.3319 153.011 25.3322C152.892 25.3325 152.783 25.3526 152.684 25.3925C152.585 25.4346 152.499 25.4921 152.427 25.5649C152.354 25.64 152.298 25.7272 152.259 25.8264C152.22 25.9279 152.2 26.0392 152.2 26.1603C152.201 26.2815 152.223 26.3938 152.267 26.4972C152.314 26.6006 152.383 26.6941 152.476 26.7775L152.212 27.0558C152.087 26.9482 151.99 26.8162 151.924 26.66C151.858 26.5037 151.824 26.3298 151.824 26.1381ZM154.177 29.0882L154.178 29.5178L151.865 29.5236L151.864 29.0941L154.177 29.0882ZM151.861 27.8979L151.86 27.4683L154.173 27.4624L154.174 27.892L151.861 27.8979ZM152.855 29.1246L152.852 27.859L153.219 27.8581L153.222 29.1237L152.855 29.1246ZM151.866 29.8163L154.181 30.8513L154.182 31.2743L151.872 32.3243L151.87 31.8749L153.953 30.9742L153.954 31.146L151.867 30.2591L151.866 29.8163ZM152.402 30.2941L152.739 30.4089L152.742 31.658L152.406 31.7745L152.402 30.2941ZM151.872 32.6185L154.185 32.6127L154.186 33.0422L151.873 33.0481L151.872 32.6185ZM151.875 33.6737L154.188 33.6679L154.19 34.6196C154.191 34.8244 154.158 34.9996 154.092 35.1452C154.027 35.293 153.932 35.4067 153.809 35.4863C153.686 35.5659 153.539 35.6059 153.37 35.6063C153.2 35.6068 153.053 35.5675 152.93 35.4885C152.809 35.4095 152.715 35.2963 152.648 35.1489C152.584 35.0036 152.552 34.8286 152.551 34.6237L152.549 33.9099L152.745 34.1011L151.876 34.1033L151.875 33.6737ZM151.878 35.1872L152.716 34.6001L152.717 35.0595L151.88 35.6498L151.878 35.1872ZM152.699 34.1012L152.903 33.9091L152.905 34.603C152.905 34.7924 152.946 34.9344 153.028 35.0289C153.11 35.1257 153.223 35.1738 153.369 35.1735C153.516 35.1731 153.63 35.1243 153.709 35.0272C153.788 34.9323 153.827 34.7901 153.827 34.6006L153.825 33.9067L154.037 34.0978L152.699 34.1012Z" fill="black"/>
    <path d="M11.4556 127.857L9.85381 123.024H10.7859L12.2151 127.395H11.7525L13.2369 123.024H14.0654L15.5084 127.395H15.0597L16.5234 123.024H17.3795L15.7777 127.857H14.8249L13.5062 123.915H13.7547L12.4153 127.857H11.4556ZM17.2721 127.857L19.447 123.024H20.3307L22.5125 127.857H21.5735L19.7024 123.501H20.0614L18.1973 127.857H17.2721ZM18.2732 126.739L18.5149 126.035H21.1247L21.3664 126.739H18.2732ZM23.1271 127.857V123.024H25.1156C25.5436 123.024 25.9096 123.093 26.2134 123.232C26.5217 123.37 26.7588 123.568 26.9245 123.825C27.0902 124.083 27.173 124.389 27.173 124.744C27.173 125.098 27.0902 125.404 26.9245 125.662C26.7588 125.915 26.5217 126.111 26.2134 126.249C25.9096 126.382 25.5436 126.449 25.1156 126.449H23.6242L24.0247 126.042V127.857H23.1271ZM26.2893 127.857L25.0672 126.104H26.0269L27.2559 127.857H26.2893ZM24.0247 126.138L23.6242 125.71H25.0741C25.47 125.71 25.7669 125.625 25.9648 125.455C26.1673 125.284 26.2686 125.047 26.2686 124.744C26.2686 124.435 26.1673 124.198 25.9648 124.032C25.7669 123.867 25.47 123.784 25.0741 123.784H23.6242L24.0247 123.342V126.138ZM28.1772 127.857V123.024H30.29C30.8147 123.024 31.275 123.126 31.6708 123.328C32.0667 123.531 32.3751 123.811 32.596 124.171C32.8169 124.53 32.9274 124.953 32.9274 125.441C32.9274 125.924 32.8169 126.348 32.596 126.711C32.3751 127.07 32.0667 127.351 31.6708 127.554C31.275 127.756 30.8147 127.857 30.29 127.857H28.1772ZM29.0748 127.098H30.2485C30.6122 127.098 30.9252 127.029 31.1875 126.891C31.4545 126.753 31.6593 126.559 31.802 126.311C31.9493 126.062 32.0229 125.772 32.0229 125.441C32.0229 125.105 31.9493 124.815 31.802 124.571C31.6593 124.322 31.4545 124.129 31.1875 123.991C30.9252 123.853 30.6122 123.784 30.2485 123.784H29.0748V127.098ZM33.8814 127.857V123.024H35.8698C36.2979 123.024 36.6638 123.093 36.9676 123.232C37.276 123.37 37.5131 123.568 37.6788 123.825C37.8445 124.083 37.9273 124.389 37.9273 124.744C37.9273 125.098 37.8445 125.404 37.6788 125.662C37.5131 125.915 37.276 126.111 36.9676 126.249C36.6638 126.382 36.2979 126.449 35.8698 126.449H34.3785L34.779 126.042V127.857H33.8814ZM37.0436 127.857L35.8215 126.104H36.7812L38.0102 127.857H37.0436ZM34.779 126.138L34.3785 125.71H35.8284C36.2243 125.71 36.5211 125.625 36.7191 125.455C36.9216 125.284 37.0229 125.047 37.0229 124.744C37.0229 124.435 36.9216 124.198 36.7191 124.032C36.5211 123.867 36.2243 123.784 35.8284 123.784H34.3785L34.779 123.342V126.138ZM41.1961 127.926C40.8187 127.926 40.4712 127.864 40.1536 127.74C39.836 127.616 39.5598 127.443 39.3251 127.222C39.0903 126.997 38.9085 126.734 38.7796 126.435C38.6507 126.131 38.5863 125.8 38.5863 125.441C38.5863 125.082 38.6507 124.753 38.7796 124.454C38.9085 124.15 39.0903 123.887 39.3251 123.667C39.5598 123.441 39.836 123.266 40.1536 123.142C40.4712 123.018 40.8164 122.955 41.1892 122.955C41.5667 122.955 41.9119 123.018 42.2249 123.142C42.5425 123.266 42.8186 123.441 43.0534 123.667C43.2881 123.887 43.47 124.15 43.5988 124.454C43.7277 124.753 43.7922 125.082 43.7922 125.441C43.7922 125.8 43.7277 126.131 43.5988 126.435C43.47 126.739 43.2881 127.001 43.0534 127.222C42.8186 127.443 42.5425 127.616 42.2249 127.74C41.9119 127.864 41.569 127.926 41.1961 127.926ZM41.1892 127.139C41.4332 127.139 41.6587 127.098 41.8658 127.015C42.073 126.932 42.2525 126.815 42.4044 126.663C42.5563 126.506 42.6737 126.327 42.7565 126.124C42.844 125.917 42.8877 125.689 42.8877 125.441C42.8877 125.192 42.844 124.967 42.7565 124.764C42.6737 124.557 42.5563 124.378 42.4044 124.226C42.2525 124.069 42.073 123.95 41.8658 123.867C41.6587 123.784 41.4332 123.742 41.1892 123.742C40.9453 123.742 40.7197 123.784 40.5126 123.867C40.3101 123.95 40.1306 124.069 39.9741 124.226C39.8222 124.378 39.7025 124.557 39.615 124.764C39.5322 124.967 39.4908 125.192 39.4908 125.441C39.4908 125.685 39.5322 125.91 39.615 126.118C39.7025 126.325 39.8222 126.506 39.9741 126.663C40.126 126.815 40.3055 126.932 40.5126 127.015C40.7197 127.098 40.9453 127.139 41.1892 127.139ZM44.7435 127.857V123.024H47.0082C47.5881 123.024 48.03 123.139 48.3338 123.37C48.6376 123.595 48.7895 123.899 48.7895 124.281C48.7895 124.539 48.7296 124.76 48.61 124.944C48.4903 125.123 48.3292 125.264 48.1267 125.365C47.9287 125.462 47.7124 125.51 47.4777 125.51L47.6019 125.261C47.8735 125.261 48.1175 125.312 48.3338 125.413C48.5501 125.51 48.7204 125.653 48.8447 125.841C48.9736 126.03 49.038 126.265 49.038 126.546C49.038 126.96 48.8792 127.282 48.5616 127.512C48.244 127.742 47.7722 127.857 47.1462 127.857H44.7435ZM45.6411 127.153H47.091C47.427 127.153 47.6848 127.098 47.8643 126.987C48.0438 126.877 48.1336 126.7 48.1336 126.456C48.1336 126.216 48.0438 126.042 47.8643 125.931C47.6848 125.816 47.427 125.759 47.091 125.759H45.5721V125.061H46.9115C47.2245 125.061 47.4638 125.006 47.6295 124.895C47.7999 124.785 47.885 124.619 47.885 124.398C47.885 124.173 47.7999 124.005 47.6295 123.894C47.4638 123.784 47.2245 123.729 46.9115 123.729H45.6411V127.153ZM50.8245 125.034H53.2272V125.772H50.8245V125.034ZM50.8935 127.105H53.6207V127.857H49.9959V123.024H53.524V123.777H50.8935V127.105Z" fill="black"/>
</svg>
