<svg width="222" height="226" viewBox="0 0 222 226" fill="none" xmlns="http://www.w3.org/2000/svg">
    <rect x="154.153" y="11.6962" width="11.0563" height="37.5432" rx="0.997468" transform="rotate(-90 154.153 11.6962)" stroke="black" stroke-width="0.793167"/>
    <path d="M176.752 98.6309L174.573 92.0569H175.841L177.785 98.0016H177.156L179.175 92.0569H180.302L182.265 98.0016H181.654L183.645 92.0569H184.81L182.631 98.6309H181.335L179.541 93.2684H179.879L178.057 98.6309H176.752ZM188.783 98.7248C188.282 98.7248 187.815 98.6434 187.383 98.4806C186.958 98.3116 186.585 98.0768 186.266 97.7763C185.953 97.4695 185.709 97.1095 185.533 96.6963C185.358 96.283 185.27 95.8323 185.27 95.3439C185.27 94.8556 185.358 94.4048 185.533 93.9916C185.709 93.5783 185.956 93.2215 186.275 92.9209C186.595 92.6142 186.967 92.3794 187.393 92.2166C187.819 92.0476 188.285 91.963 188.792 91.963C189.331 91.963 189.822 92.0569 190.267 92.2448C190.711 92.4263 191.087 92.6987 191.394 93.0618L190.605 93.8037C190.367 93.547 190.101 93.3561 189.806 93.2309C189.512 93.0994 189.193 93.0336 188.848 93.0336C188.504 93.0336 188.188 93.09 187.9 93.2027C187.618 93.3154 187.371 93.475 187.158 93.6816C186.951 93.8883 186.789 94.1324 186.67 94.4142C186.557 94.6959 186.501 95.0058 186.501 95.3439C186.501 95.682 186.557 95.9919 186.67 96.2736C186.789 96.5554 186.951 96.7996 187.158 97.0062C187.371 97.2128 187.618 97.3724 187.9 97.4851C188.188 97.5978 188.504 97.6542 188.848 97.6542C189.193 97.6542 189.512 97.5916 189.806 97.4663C190.101 97.3349 190.367 97.1376 190.605 96.8747L191.394 97.626C191.087 97.9829 190.711 98.2552 190.267 98.443C189.822 98.6309 189.327 98.7248 188.783 98.7248Z" fill="black"/>
    <rect x="0.5" y="5.5" width="221" height="220" rx="1.5" stroke="black"/>
    <line x1="2" y1="115.5" x2="222" y2="115.5" stroke="black"/>
    <path d="M143.5 76.0062C143.503 75.7301 143.282 75.5035 143.006 75.5C142.73 75.4966 142.503 75.7176 142.5 75.9938L143.5 76.0062ZM142.5 75.9938L142 115.994L143 116.006L143.5 76.0062L142.5 75.9938Z" fill="black"/>
    <path d="M143 75C142.724 75 142.5 75.2239 142.5 75.5C142.5 75.7761 142.724 76 143 76L143 75ZM222 75L143 75L143 76L222 76L222 75Z" fill="black"/>
</svg>
