<svg width="267" height="169" viewBox="0 0 267 169" fill="none" xmlns="http://www.w3.org/2000/svg">
    <rect x="1.37867" y="0.929447" width="264.87" height="161.71" rx="1.39405" stroke="black" stroke-width="1.39405"/>
    <path d="M194.455 162.64L194.455 79.6936" stroke="black" stroke-width="1.39405" stroke-linecap="round"/>
    <path d="M194.455 47.6299L194.455 0.929168" stroke="black" stroke-width="1.39405" stroke-linecap="round"/>
    <rect x="85.3222" y="156.764" width="11.0563" height="37.5432" rx="0.997468" transform="rotate(90 85.3222 156.764)" stroke="black" stroke-width="0.793167"/>
    <path d="M223.09 88.5117L219.967 79.0873H221.784L224.571 87.6097H223.669L226.564 79.0873H228.18L230.993 87.6097H230.118L232.973 79.0873H234.642L231.519 88.5117H229.661L227.089 80.8241H227.574L224.962 88.5117H223.09ZM240.338 88.6464C239.62 88.6464 238.951 88.5297 238.332 88.2963C237.722 88.054 237.188 87.7174 236.73 87.2865C236.281 86.8467 235.931 86.3306 235.68 85.7383C235.428 85.1459 235.303 84.4996 235.303 83.7995C235.303 83.0994 235.428 82.4532 235.68 81.8608C235.931 81.2684 236.286 80.7568 236.743 80.326C237.201 79.8862 237.735 79.5496 238.345 79.3162C238.956 79.0739 239.624 78.9527 240.351 78.9527C241.123 78.9527 241.828 79.0873 242.465 79.3566C243.102 79.6169 243.641 80.0073 244.081 80.5279L242.95 81.5915C242.609 81.2235 242.227 80.9498 241.806 80.7703C241.384 80.5818 240.926 80.4875 240.432 80.4875C239.939 80.4875 239.485 80.5683 239.072 80.7299C238.669 80.8914 238.314 81.1203 238.009 81.4165C237.713 81.7127 237.479 82.0627 237.309 82.4667C237.147 82.8706 237.066 83.3148 237.066 83.7995C237.066 84.2842 237.147 84.7285 237.309 85.1324C237.479 85.5363 237.713 85.8864 238.009 86.1825C238.314 86.4787 238.669 86.7076 239.072 86.8692C239.485 87.0307 239.939 87.1115 240.432 87.1115C240.926 87.1115 241.384 87.0218 241.806 86.8423C242.227 86.6538 242.609 86.371 242.95 85.9941L244.081 87.0711C243.641 87.5827 243.102 87.9732 242.465 88.2425C241.828 88.5117 241.119 88.6464 240.338 88.6464Z" fill="black"/>
    <rect x="94.083" y="5.1123" width="33.4572" height="30.6691" rx="2.09108" fill="#D9D9D9"/>
    <path d="M102.543 22.6592V19.3692H101.25V18.7558H104.562V19.3692H103.268V22.6592H102.543ZM104.358 22.6592L106.114 18.7558H106.828L108.59 22.6592H107.832L106.321 19.1406H106.611L105.105 22.6592H104.358ZM105.166 21.7558L105.362 21.1871H107.469L107.665 21.7558H105.166ZM109.087 22.6592V18.7558H110.916C111.384 18.7558 111.741 18.8488 111.986 19.0346C112.232 19.2168 112.354 19.4622 112.354 19.7707C112.354 19.9789 112.306 20.1573 112.209 20.306C112.113 20.451 111.982 20.5644 111.819 20.6462C111.659 20.7242 111.484 20.7633 111.295 20.7633L111.395 20.5625C111.614 20.5625 111.811 20.6034 111.986 20.6852C112.161 20.7633 112.298 20.8785 112.399 21.0309C112.503 21.1833 112.555 21.3729 112.555 21.5997C112.555 21.9343 112.427 22.1945 112.17 22.3804C111.914 22.5662 111.533 22.6592 111.027 22.6592H109.087ZM109.811 22.0904H110.982C111.254 22.0904 111.462 22.0458 111.607 21.9566C111.752 21.8674 111.824 21.7242 111.824 21.5272C111.824 21.3339 111.752 21.1926 111.607 21.1034C111.462 21.0105 111.254 20.964 110.982 20.964H109.756V20.4008H110.837C111.09 20.4008 111.284 20.3562 111.417 20.267C111.555 20.1778 111.624 20.0439 111.624 19.8655C111.624 19.6833 111.555 19.5477 111.417 19.4584C111.284 19.3692 111.09 19.3246 110.837 19.3246H109.811V22.0904ZM113.329 22.6592V18.7558H114.054V22.0458H116.094V22.6592H113.329ZM117.336 20.3785H119.276V20.9752H117.336V20.3785ZM117.392 22.0514H119.594V22.6592H116.667V18.7558H119.516V19.3636H117.392V22.0514Z" fill="black"/>
    <rect x="139.453" y="7.83691" width="26.6137" height="8.36431" rx="2.28117" transform="rotate(90 139.453 7.83691)" fill="#D9D9D9"/>
    <path d="M134.329 17.0883C134.329 16.9121 134.357 16.748 134.415 16.596C134.474 16.4462 134.557 16.3151 134.663 16.2027C134.77 16.0926 134.897 16.0067 135.043 15.945C135.188 15.8833 135.347 15.8525 135.518 15.8525C135.69 15.8525 135.849 15.8833 135.994 15.945C136.14 16.0067 136.265 16.0937 136.371 16.2061C136.479 16.3184 136.561 16.4495 136.619 16.5993C136.678 16.7491 136.708 16.9132 136.708 17.0916C136.708 17.2811 136.675 17.454 136.609 17.6104C136.545 17.7668 136.449 17.899 136.321 18.007L136.06 17.7294C136.151 17.6457 136.218 17.5521 136.262 17.4485C136.308 17.345 136.331 17.2326 136.331 17.1115C136.331 16.9903 136.311 16.8791 136.272 16.7777C136.232 16.6786 136.176 16.5916 136.103 16.5167C136.031 16.444 135.945 16.3867 135.845 16.3448C135.746 16.3052 135.637 16.2854 135.518 16.2854C135.399 16.2854 135.29 16.3052 135.191 16.3448C135.092 16.3867 135.006 16.444 134.933 16.5167C134.861 16.5916 134.805 16.6786 134.765 16.7777C134.725 16.8791 134.705 16.9903 134.705 17.1115C134.705 17.2326 134.728 17.345 134.772 17.4485C134.818 17.5521 134.887 17.6457 134.98 17.7294L134.715 18.007C134.59 17.899 134.494 17.7668 134.428 17.6104C134.362 17.454 134.329 17.28 134.329 17.0883ZM136.675 20.0443L136.675 20.4739L134.362 20.4739L134.362 20.0443L136.675 20.0443ZM134.362 18.8481L134.362 18.4186L136.675 18.4186L136.675 18.8481L134.362 18.8481ZM135.353 20.0774L135.353 18.8118L135.72 18.8118L135.72 20.0774L135.353 20.0774ZM134.362 20.7666L136.675 21.8075L136.675 22.2304L134.362 23.2746L134.362 22.8252L136.447 21.9297L136.447 22.1016L134.362 21.2094L134.362 20.7666ZM134.897 21.2457L135.234 21.3614L135.234 22.6105L134.897 22.7261L134.897 21.2457ZM134.362 23.5688L136.675 23.5688L136.675 23.9984L134.362 23.9984L134.362 23.5688ZM134.362 24.624L136.675 24.624L136.675 25.5757C136.675 25.7806 136.642 25.9557 136.576 26.1011C136.51 26.2487 136.415 26.3622 136.292 26.4415C136.168 26.5208 136.022 26.5604 135.852 26.5604C135.682 26.5604 135.536 26.5208 135.413 26.4415C135.291 26.3622 135.198 26.2487 135.132 26.1011C135.068 25.9557 135.036 25.7806 135.036 25.5757L135.036 24.8619L135.231 25.0536L134.362 25.0536L134.362 24.624ZM134.362 26.1375L135.201 25.5526L135.201 26.0119L134.362 26.6001L134.362 26.1375ZM135.185 25.0536L135.389 24.8619L135.389 25.5559C135.389 25.7453 135.43 25.8874 135.512 25.9821C135.593 26.0791 135.707 26.1275 135.852 26.1275C136 26.1275 136.113 26.0791 136.192 25.9821C136.272 25.8874 136.311 25.7453 136.311 25.5559L136.311 24.8619L136.523 25.0536L135.185 25.0536Z" fill="black"/>
    <rect x="89.9004" y="9.29395" width="24.3959" height="7.66728" rx="2.09108" transform="rotate(90 89.9004 9.29395)" fill="#D9D9D9"/>
    <path d="M85.4733 18.1342C85.4733 17.958 85.5019 17.7939 85.5592 17.6419C85.6187 17.4921 85.7013 17.361 85.807 17.2486C85.915 17.1385 86.0417 17.0526 86.1871 16.9909C86.3325 16.9292 86.4911 16.8984 86.6629 16.8984C86.8347 16.8984 86.9933 16.9292 87.1387 16.9909C87.2841 17.0526 87.4097 17.1396 87.5154 17.252C87.6234 17.3643 87.706 17.4954 87.7633 17.6452C87.8227 17.795 87.8525 17.9591 87.8525 18.1375C87.8525 18.327 87.8194 18.4999 87.7534 18.6563C87.6895 18.8127 87.5936 18.9449 87.4659 19.0529L87.2048 18.7753C87.2951 18.6916 87.3623 18.5979 87.4064 18.4944C87.4526 18.3909 87.4758 18.2785 87.4758 18.1574C87.4758 18.0362 87.456 17.925 87.4163 17.8236C87.3766 17.7245 87.3205 17.6375 87.2478 17.5626C87.1751 17.4899 87.0892 17.4326 86.99 17.3907C86.8909 17.3511 86.7819 17.3313 86.6629 17.3313C86.5439 17.3313 86.4349 17.3511 86.3358 17.3907C86.2366 17.4326 86.1507 17.4899 86.078 17.5626C86.0053 17.6375 85.9491 17.7245 85.9095 17.8236C85.8698 17.925 85.85 18.0362 85.85 18.1574C85.85 18.2785 85.872 18.3909 85.9161 18.4944C85.9624 18.5979 86.0318 18.6916 86.1243 18.7753L85.8599 19.0529C85.7344 18.9449 85.6385 18.8127 85.5724 18.6563C85.5063 18.4999 85.4733 18.3259 85.4733 18.1342ZM87.8194 21.0902V21.5198H85.5063V21.0902H87.8194ZM85.5063 19.894V19.4645H87.8194V19.894H85.5063ZM86.4977 21.1233V19.8577H86.8645V21.1233H86.4977ZM85.5063 21.8125L87.8194 22.8534V23.2763L85.5063 24.3205V23.8711L87.5914 22.9756V23.1475L85.5063 22.2553V21.8125ZM86.0417 22.2916L86.3787 22.4073V23.6564L86.0417 23.772V22.2916ZM85.5063 24.6147H87.8194V25.0443H85.5063V24.6147ZM85.5063 25.6699H87.8194V26.6216C87.8194 26.8265 87.7864 27.0016 87.7203 27.147C87.6542 27.2946 87.5595 27.4081 87.4361 27.4874C87.3128 27.5667 87.1663 27.6063 86.9966 27.6063C86.827 27.6063 86.6805 27.5667 86.5572 27.4874C86.436 27.4081 86.3424 27.2946 86.2763 27.147C86.2124 27.0016 86.1804 26.8265 86.1804 26.6216V25.9078L86.3754 26.0995H85.5063V25.6699ZM85.5063 27.1834L86.3457 26.5985V27.0578L85.5063 27.646V27.1834ZM86.3291 26.0995L86.534 25.9078V26.6018C86.534 26.7912 86.5748 26.9333 86.6563 27.028C86.7378 27.125 86.8512 27.1734 86.9966 27.1734C87.1442 27.1734 87.2577 27.125 87.337 27.028C87.4163 26.9333 87.456 26.7912 87.456 26.6018V25.9078L87.6674 26.0995H86.3291Z" fill="black"/>
    <path d="M15.3633 29.2334L13.7615 24.4004H14.6936L16.1228 28.7708H15.6602L17.1446 24.4004H17.9731L19.4161 28.7708H18.9674L20.4311 24.4004H21.2872L19.6854 29.2334H18.7326L17.4139 25.291H17.6624L16.323 29.2334H15.3633ZM21.1798 29.2334L23.3547 24.4004H24.2384L26.4202 29.2334H25.4812L23.6101 24.8768H23.9692L22.105 29.2334H21.1798ZM22.1809 28.1149L22.4226 27.4107H25.0324L25.2741 28.1149H22.1809ZM27.0348 29.2334V24.4004H29.0233C29.4513 24.4004 29.8173 24.4694 30.1211 24.6075C30.4294 24.7456 30.6665 24.9435 30.8322 25.2013C30.9979 25.459 31.0808 25.7651 31.0808 26.1196C31.0808 26.474 30.9979 26.7801 30.8322 27.0378C30.6665 27.291 30.4294 27.4866 30.1211 27.6247C29.8173 27.7582 29.4513 27.8249 29.0233 27.8249H27.5319L27.9324 27.4176V29.2334H27.0348ZM30.197 29.2334L28.9749 27.4797H29.9346L31.1636 29.2334H30.197ZM27.9324 27.5142L27.5319 27.0862H28.9818C29.3777 27.0862 29.6746 27.001 29.8725 26.8307C30.075 26.6604 30.1763 26.4233 30.1763 26.1196C30.1763 25.8112 30.075 25.5741 29.8725 25.4084C29.6746 25.2427 29.3777 25.1599 28.9818 25.1599H27.5319L27.9324 24.718V27.5142ZM32.0849 29.2334V24.4004H34.1977C34.7224 24.4004 35.1827 24.5016 35.5785 24.7042C35.9744 24.9067 36.2828 25.1875 36.5037 25.5465C36.7246 25.9055 36.8351 26.329 36.8351 26.8169C36.8351 27.3002 36.7246 27.7237 36.5037 28.0873C36.2828 28.4463 35.9744 28.7271 35.5785 28.9296C35.1827 29.1321 34.7224 29.2334 34.1977 29.2334H32.0849ZM32.9825 28.4739H34.1562C34.5199 28.4739 34.8329 28.4049 35.0952 28.2668C35.3622 28.1287 35.567 27.9354 35.7097 27.6868C35.857 27.4383 35.9306 27.1483 35.9306 26.8169C35.9306 26.4809 35.857 26.1909 35.7097 25.9469C35.567 25.6984 35.3622 25.5051 35.0952 25.367C34.8329 25.2289 34.5199 25.1599 34.1562 25.1599H32.9825V28.4739ZM37.7891 29.2334V24.4004H39.7775C40.2056 24.4004 40.5715 24.4694 40.8753 24.6075C41.1837 24.7456 41.4208 24.9435 41.5865 25.2013C41.7522 25.459 41.835 25.7651 41.835 26.1196C41.835 26.474 41.7522 26.7801 41.5865 27.0378C41.4208 27.291 41.1837 27.4866 40.8753 27.6247C40.5715 27.7582 40.2056 27.8249 39.7775 27.8249H38.2862L38.6867 27.4176V29.2334H37.7891ZM40.9513 29.2334L39.7292 27.4797H40.6889L41.9179 29.2334H40.9513ZM38.6867 27.5142L38.2862 27.0862H39.7361C40.132 27.0862 40.4288 27.001 40.6268 26.8307C40.8293 26.6604 40.9306 26.4233 40.9306 26.1196C40.9306 25.8112 40.8293 25.5741 40.6268 25.4084C40.4288 25.2427 40.132 25.1599 39.7361 25.1599H38.2862L38.6867 24.718V27.5142ZM45.1038 29.3024C44.7264 29.3024 44.3789 29.2403 44.0613 29.116C43.7437 28.9917 43.4675 28.8191 43.2328 28.5982C42.998 28.3727 42.8162 28.1103 42.6873 27.8111C42.5584 27.5073 42.494 27.1759 42.494 26.8169C42.494 26.4579 42.5584 26.1288 42.6873 25.8296C42.8162 25.5258 42.998 25.2634 43.2328 25.0425C43.4675 24.8169 43.7437 24.642 44.0613 24.5178C44.3789 24.3935 44.7241 24.3313 45.0969 24.3313C45.4744 24.3313 45.8196 24.3935 46.1326 24.5178C46.4502 24.642 46.7263 24.8169 46.9611 25.0425C47.1958 25.2634 47.3777 25.5258 47.5065 25.8296C47.6354 26.1288 47.6999 26.4579 47.6999 26.8169C47.6999 27.1759 47.6354 27.5073 47.5065 27.8111C47.3777 28.1149 47.1958 28.3773 46.9611 28.5982C46.7263 28.8191 46.4502 28.9917 46.1326 29.116C45.8196 29.2403 45.4767 29.3024 45.1038 29.3024ZM45.0969 28.5154C45.3409 28.5154 45.5664 28.4739 45.7736 28.3911C45.9807 28.3082 46.1602 28.1908 46.3121 28.039C46.464 27.8825 46.5814 27.7029 46.6642 27.5004C46.7517 27.2933 46.7954 27.0654 46.7954 26.8169C46.7954 26.5683 46.7517 26.3428 46.6642 26.1403C46.5814 25.9331 46.464 25.7536 46.3121 25.6017C46.1602 25.4452 45.9807 25.3256 45.7736 25.2427C45.5664 25.1599 45.3409 25.1184 45.0969 25.1184C44.853 25.1184 44.6274 25.1599 44.4203 25.2427C44.2178 25.3256 44.0383 25.4452 43.8818 25.6017C43.7299 25.7536 43.6102 25.9331 43.5227 26.1403C43.4399 26.3428 43.3985 26.5683 43.3985 26.8169C43.3985 27.0608 43.4399 27.2864 43.5227 27.4935C43.6102 27.7006 43.7299 27.8825 43.8818 28.039C44.0337 28.1908 44.2132 28.3082 44.4203 28.3911C44.6274 28.4739 44.853 28.5154 45.0969 28.5154ZM48.6512 29.2334V24.4004H50.9159C51.4958 24.4004 51.9377 24.5155 52.2415 24.7456C52.5453 24.9711 52.6972 25.2749 52.6972 25.657C52.6972 25.9147 52.6373 26.1357 52.5177 26.3198C52.398 26.4993 52.2369 26.6397 52.0344 26.7409C51.8364 26.8376 51.6201 26.8859 51.3854 26.8859L51.5096 26.6374C51.7812 26.6374 52.0252 26.688 52.2415 26.7893C52.4578 26.8859 52.6281 27.0286 52.7524 27.2173C52.8813 27.4061 52.9457 27.6408 52.9457 27.9216C52.9457 28.3358 52.7869 28.658 52.4693 28.8882C52.1517 29.1183 51.6799 29.2334 51.0539 29.2334H48.6512ZM49.5488 28.5292H50.9987C51.3347 28.5292 51.5925 28.4739 51.772 28.3635C51.9515 28.253 52.0413 28.0758 52.0413 27.8318C52.0413 27.5925 51.9515 27.4176 51.772 27.3071C51.5925 27.192 51.3347 27.1345 50.9987 27.1345H49.4798V26.4372H50.8192C51.1322 26.4372 51.3715 26.3819 51.5372 26.2714C51.7076 26.161 51.7927 25.9953 51.7927 25.7743C51.7927 25.5488 51.7076 25.3808 51.5372 25.2703C51.3715 25.1599 51.1322 25.1046 50.8192 25.1046H49.5488V28.5292ZM54.7322 26.4095H57.1349V27.1483H54.7322V26.4095ZM54.8012 28.4808H57.5284V29.2334H53.9036V24.4004H57.4317V25.153H54.8012V28.4808Z" fill="black"/>
</svg>
