<svg width="238" height="233" viewBox="0 0 238 233" fill="none" xmlns="http://www.w3.org/2000/svg">
    <rect x="11.6962" y="175.696" width="11.0563" height="37.5432" rx="0.997468" transform="rotate(-180 11.6962 175.696)" stroke="black" stroke-width="0.793167"/>
    <rect x="11.453" y="175.939" width="11.0563" height="37.5432" rx="0.997468" transform="rotate(-180 11.453 175.939)" stroke="black" stroke-width="0.793167"/>
    <path d="M76.5162 203L73.7322 194.6H75.3522L77.8362 202.196H77.0322L79.6122 194.6H81.0522L83.5602 202.196H82.7802L85.3242 194.6H86.8122L84.0282 203H82.3722L80.0802 196.148H80.5122L78.1842 203H76.5162ZM91.889 203.12C91.249 203.12 90.653 203.016 90.101 202.808C89.557 202.592 89.081 202.292 88.673 201.908C88.273 201.516 87.961 201.056 87.737 200.528C87.513 200 87.401 199.424 87.401 198.8C87.401 198.176 87.513 197.6 87.737 197.072C87.961 196.544 88.277 196.088 88.685 195.704C89.093 195.312 89.569 195.012 90.113 194.804C90.657 194.588 91.253 194.48 91.901 194.48C92.589 194.48 93.217 194.6 93.785 194.84C94.353 195.072 94.833 195.42 95.225 195.884L94.217 196.832C93.913 196.504 93.573 196.26 93.197 196.1C92.821 195.932 92.413 195.848 91.973 195.848C91.533 195.848 91.129 195.92 90.761 196.064C90.401 196.208 90.085 196.412 89.813 196.676C89.549 196.94 89.341 197.252 89.189 197.612C89.045 197.972 88.973 198.368 88.973 198.8C88.973 199.232 89.045 199.628 89.189 199.988C89.341 200.348 89.549 200.66 89.813 200.924C90.085 201.188 90.401 201.392 90.761 201.536C91.129 201.68 91.533 201.752 91.973 201.752C92.413 201.752 92.821 201.672 93.197 201.512C93.573 201.344 93.913 201.092 94.217 200.756L95.225 201.716C94.833 202.172 94.353 202.52 93.785 202.76C93.217 203 92.585 203.12 91.889 203.12Z" fill="black"/>
    <rect x="5" y="1" width="232" height="231" rx="1" stroke="black" stroke-width="2"/>
    <path d="M48 162H121" stroke="black" stroke-linecap="round"/>
    <path d="M48 162C48 161.724 47.7761 161.5 47.5 161.5C47.2239 161.5 47 161.724 47 162L48 162ZM48 233L48 162L47 162L47 233L48 233Z" fill="black"/>
    <path d="M121.5 162C121.5 161.724 121.276 161.5 121 161.5C120.724 161.5 120.5 161.724 120.5 162H121.5ZM120.5 162V233H121.5V162H120.5Z" fill="black"/>
</svg>
