<svg width="239" height="196" viewBox="0 0 239 196" fill="none" xmlns="http://www.w3.org/2000/svg">
    <rect x="1.04371" y="1.41382" width="236.989" height="188.894" rx="1.39405" stroke="black" stroke-width="1.39405"/>
    <path d="M79.1111 23.0205C79.1111 22.6356 78.799 22.3235 78.4141 22.3235C78.0291 22.3235 77.717 22.6356 77.717 23.0205L79.1111 23.0205ZM77.717 23.0205L77.717 74.6004L79.1111 74.6004L79.1111 23.0205L77.717 23.0205Z" fill="black"/>
    <path d="M77.717 9.08134C77.717 9.4663 78.0291 9.77837 78.4141 9.77837C78.799 9.77837 79.1111 9.4663 79.1111 9.08134H77.717ZM77.717 1.41406V9.08134H79.1111V1.41406H77.717Z" fill="black"/>
    <path d="M1.04395 74.6016H78.4138" stroke="black" stroke-width="1.39405" stroke-linecap="round"/>
    <rect x="82.5957" y="41.8408" width="33.4572" height="30.6691" rx="2.09108" fill="#D9D9D9"/>
    <path d="M91.0565 59.3877V56.0977H89.7628V55.4844H93.075V56.0977H91.7814V59.3877H91.0565ZM92.871 59.3877L94.6275 55.4844H95.3413L97.1033 59.3877H96.345L94.8338 55.8691H95.1238L93.6182 59.3877H92.871ZM93.6795 58.4844L93.8747 57.9156H95.9825L96.1777 58.4844H93.6795ZM97.5997 59.3877V55.4844H99.4287C99.8971 55.4844 100.254 55.5773 100.499 55.7632C100.745 55.9453 100.867 56.1907 100.867 56.4992C100.867 56.7074 100.819 56.8858 100.722 57.0345C100.626 57.1795 100.496 57.2929 100.332 57.3747C100.172 57.4528 99.9975 57.4918 99.8079 57.4918L99.9083 57.291C100.128 57.291 100.325 57.3319 100.499 57.4137C100.674 57.4918 100.812 57.607 100.912 57.7594C101.016 57.9119 101.068 58.1015 101.068 58.3282C101.068 58.6628 100.94 58.923 100.683 59.1089C100.427 59.2948 100.046 59.3877 99.5403 59.3877H97.5997ZM98.3247 58.8189H99.4957C99.767 58.8189 99.9752 58.7743 100.12 58.6851C100.265 58.5959 100.338 58.4528 100.338 58.2557C100.338 58.0624 100.265 57.9212 100.12 57.8319C99.9752 57.739 99.767 57.6925 99.4957 57.6925H98.2689V57.1293H99.3507C99.6035 57.1293 99.7968 57.0847 99.9306 56.9955C100.068 56.9063 100.137 56.7725 100.137 56.594C100.137 56.4119 100.068 56.2762 99.9306 56.187C99.7968 56.0977 99.6035 56.0531 99.3507 56.0531H98.3247V58.8189ZM101.842 59.3877V55.4844H102.567V58.7743H104.608V59.3877H101.842ZM105.849 57.107H107.79V57.7037H105.849V57.107ZM105.905 58.7799H108.107V59.3877H105.18V55.4844H108.029V56.0922H105.905V58.7799Z" fill="black"/>
    <rect x="85.3198" y="76.7549" width="26.6137" height="8.36431" rx="2.28117" fill="#D9D9D9"/>
    <path d="M94.9204 81.5321C94.7441 81.5321 94.58 81.5034 94.428 81.4462C94.2782 81.3867 94.1471 81.3041 94.0348 81.1983C93.9246 81.0904 93.8387 80.9637 93.777 80.8183C93.7154 80.6729 93.6845 80.5143 93.6845 80.3425C93.6845 80.1706 93.7154 80.012 93.777 79.8666C93.8387 79.7212 93.9257 79.5957 94.0381 79.4899C94.1504 79.382 94.2815 79.2994 94.4313 79.2421C94.5811 79.1826 94.7452 79.1529 94.9237 79.1529C95.1131 79.1529 95.2861 79.1859 95.4425 79.252C95.5989 79.3159 95.731 79.4117 95.839 79.5395L95.5614 79.8006C95.4777 79.7102 95.3841 79.643 95.2805 79.599C95.177 79.5527 95.0647 79.5296 94.9435 79.5296C94.8223 79.5296 94.7111 79.5494 94.6097 79.5891C94.5106 79.6287 94.4236 79.6849 94.3487 79.7576C94.276 79.8303 94.2187 79.9162 94.1769 80.0153C94.1372 80.1145 94.1174 80.2235 94.1174 80.3425C94.1174 80.4614 94.1372 80.5705 94.1769 80.6696C94.2187 80.7687 94.276 80.8547 94.3487 80.9274C94.4236 81.0001 94.5106 81.0562 94.6097 81.0959C94.7111 81.1355 94.8223 81.1554 94.9435 81.1554C95.0647 81.1554 95.177 81.1333 95.2805 81.0893C95.3841 81.043 95.4777 80.9736 95.5614 80.8811L95.839 81.1455C95.731 81.271 95.5989 81.3668 95.4425 81.4329C95.2861 81.499 95.112 81.5321 94.9204 81.5321ZM97.8764 79.1859H98.3059V81.499H97.8764V79.1859ZM96.6802 81.499H96.2506V79.1859H96.6802V81.499ZM97.9094 80.5077H96.6438V80.1409H97.9094V80.5077ZM98.5986 81.499L99.6395 79.1859H100.062L101.107 81.499H100.657L99.7618 79.4139H99.9336L99.0414 81.499H98.5986ZM99.0778 80.9637L99.1934 80.6267H100.442L100.558 80.9637H99.0778ZM101.401 81.499V79.1859H101.83V81.499H101.401ZM102.456 81.499V79.1859H103.408C103.613 79.1859 103.788 79.219 103.933 79.2851C104.081 79.3512 104.194 79.4459 104.273 79.5692C104.353 79.6926 104.392 79.8391 104.392 80.0087C104.392 80.1784 104.353 80.3249 104.273 80.4482C104.194 80.5694 104.081 80.663 103.933 80.7291C103.788 80.793 103.613 80.8249 103.408 80.8249H102.694L102.886 80.63V81.499H102.456ZM103.969 81.499L103.385 80.6597H103.844L104.432 81.499H103.969ZM102.886 80.6762L102.694 80.4713H103.388C103.577 80.4713 103.719 80.4306 103.814 80.3491C103.911 80.2676 103.96 80.1541 103.96 80.0087C103.96 79.8611 103.911 79.7477 103.814 79.6684C103.719 79.5891 103.577 79.5494 103.388 79.5494H102.694L102.886 79.3379V80.6762Z" fill="black"/>
    <rect x="129.993" y="46.0225" width="24.3959" height="7.66728" rx="2.09108" transform="rotate(90 129.993 46.0225)" fill="#D9D9D9"/>
    <path d="M125.567 54.8637C125.567 54.6875 125.595 54.5234 125.652 54.3714C125.712 54.2216 125.795 54.0905 125.9 53.9781C126.008 53.868 126.135 53.7821 126.28 53.7204C126.426 53.6587 126.584 53.6279 126.756 53.6279C126.928 53.6279 127.087 53.6587 127.232 53.7204C127.377 53.7821 127.503 53.8691 127.609 53.9814C127.717 54.0938 127.799 54.2249 127.857 54.3747C127.916 54.5245 127.946 54.6886 127.946 54.867C127.946 55.0565 127.913 55.2294 127.847 55.3858C127.783 55.5422 127.687 55.6744 127.559 55.7824L127.298 55.5048C127.388 55.4211 127.456 55.3274 127.5 55.2239C127.546 55.1204 127.569 55.008 127.569 54.8869C127.569 54.7657 127.549 54.6544 127.51 54.5531C127.47 54.454 127.414 54.367 127.341 54.2921C127.268 54.2194 127.182 54.1621 127.083 54.1202C126.984 54.0806 126.875 54.0607 126.756 54.0607C126.637 54.0607 126.528 54.0806 126.429 54.1202C126.33 54.1621 126.244 54.2194 126.171 54.2921C126.099 54.367 126.042 54.454 126.003 54.5531C125.963 54.6544 125.943 54.7657 125.943 54.8869C125.943 55.008 125.965 55.1204 126.009 55.2239C126.056 55.3274 126.125 55.4211 126.218 55.5048L125.953 55.7824C125.828 55.6744 125.732 55.5422 125.666 55.3858C125.6 55.2294 125.567 55.0554 125.567 54.8637ZM127.913 57.8197V58.2493H125.6V57.8197H127.913ZM125.6 56.6235V56.194H127.913V56.6235H125.6ZM126.591 57.8528V56.5872H126.958V57.8528H126.591ZM125.6 58.542L127.913 59.5829V60.0058L125.6 61.05V60.6006L127.685 59.7051V59.877L125.6 58.9848V58.542ZM126.135 59.0211L126.472 59.1368V60.3858L126.135 60.5015V59.0211ZM125.6 61.3442H127.913V61.7738H125.6V61.3442ZM125.6 62.3994H127.913V63.3511C127.913 63.556 127.88 63.7311 127.814 63.8765C127.747 64.0241 127.653 64.1375 127.529 64.2168C127.406 64.2962 127.26 64.3358 127.09 64.3358C126.92 64.3358 126.774 64.2962 126.65 64.2168C126.529 64.1375 126.436 64.0241 126.37 63.8765C126.306 63.7311 126.274 63.556 126.274 63.3511V62.6373L126.469 62.829H125.6V62.3994ZM125.6 63.9128L126.439 63.328V63.7873L125.6 64.3755V63.9128ZM126.422 62.829L126.627 62.6373V63.3313C126.627 63.5207 126.668 63.6628 126.75 63.7575C126.831 63.8545 126.945 63.9029 127.09 63.9029C127.237 63.9029 127.351 63.8545 127.43 63.7575C127.51 63.6628 127.549 63.5207 127.549 63.3313V62.6373L127.761 62.829H126.422Z" fill="black"/>
    <rect x="93.3515" y="184.431" width="11.0563" height="37.5432" rx="0.997468" transform="rotate(90 93.3515 184.431)" stroke="black" stroke-width="0.793167"/>
    <path d="M31.7701 45.7783L28.6466 36.3539H30.4642L33.2511 44.8763H32.349L35.2437 36.3539H36.8593L39.6731 44.8763H38.798L41.6523 36.3539H43.3217L40.1982 45.7783H38.3403L35.7687 38.0907H36.2534L33.6415 45.7783H31.7701ZM49.0177 45.913C48.2996 45.913 47.631 45.7963 47.0116 45.5629C46.4013 45.3206 45.8672 44.984 45.4095 44.5532C44.9607 44.1133 44.6107 43.5972 44.3593 43.0049C44.108 42.4125 43.9824 41.7662 43.9824 41.0661C43.9824 40.366 44.108 39.7198 44.3593 39.1274C44.6107 38.535 44.9652 38.0234 45.423 37.5926C45.8807 37.1528 46.4148 36.8162 47.0251 36.5828C47.6354 36.3405 48.3041 36.2193 49.0311 36.2193C49.803 36.2193 50.5076 36.3539 51.1449 36.6232C51.7822 36.8835 52.3207 37.2739 52.7605 37.7945L51.6296 38.8581C51.2885 38.4901 50.907 38.2164 50.4852 38.0369C50.0633 37.8484 49.6056 37.7541 49.1119 37.7541C48.6183 37.7541 48.165 37.8349 47.7521 37.9965C47.3482 38.158 46.9937 38.3869 46.6885 38.6831C46.3923 38.9793 46.159 39.3294 45.9884 39.7333C45.8269 40.1372 45.7461 40.5814 45.7461 41.0661C45.7461 41.5508 45.8269 41.9951 45.9884 42.399C46.159 42.8029 46.3923 43.153 46.6885 43.4492C46.9937 43.7453 47.3482 43.9742 47.7521 44.1358C48.165 44.2973 48.6183 44.3781 49.1119 44.3781C49.6056 44.3781 50.0633 44.2884 50.4852 44.1089C50.907 43.9204 51.2885 43.6376 51.6296 43.2607L52.7605 44.3377C52.3207 44.8493 51.7822 45.2398 51.1449 45.5091C50.5076 45.7783 49.7986 45.913 49.0177 45.913Z" fill="black"/>
    <path d="M179.526 30.415L177.925 25.582H178.857L180.286 29.9525H179.823L181.308 25.582H182.136L183.579 29.9525H183.13L184.594 25.582H185.45L183.848 30.415H182.896L181.577 26.4727H181.826L180.486 30.415H179.526ZM185.343 30.415L187.518 25.582H188.402L190.583 30.415H189.644L187.773 26.0584H188.132L186.268 30.415H185.343ZM186.344 29.2965L186.586 28.5923H189.195L189.437 29.2965H186.344ZM191.198 30.415V25.582H193.186C193.614 25.582 193.98 25.6511 194.284 25.7892C194.593 25.9272 194.83 26.1252 194.995 26.3829C195.161 26.6407 195.244 26.9468 195.244 27.3012C195.244 27.6556 195.161 27.9617 194.995 28.2195C194.83 28.4726 194.593 28.6682 194.284 28.8063C193.98 28.9398 193.614 29.0066 193.186 29.0066H191.695L192.095 28.5992V30.415H191.198ZM194.36 30.415L193.138 28.6613H194.098L195.327 30.415H194.36ZM192.095 28.6959L191.695 28.2678H193.145C193.541 28.2678 193.838 28.1826 194.036 28.0123C194.238 27.842 194.339 27.605 194.339 27.3012C194.339 26.9928 194.238 26.7558 194.036 26.5901C193.838 26.4243 193.541 26.3415 193.145 26.3415H191.695L192.095 25.8996V28.6959ZM196.248 30.415V25.582H198.361C198.885 25.582 199.346 25.6833 199.742 25.8858C200.137 26.0883 200.446 26.3691 200.667 26.7281C200.888 27.0872 200.998 27.5106 200.998 27.9985C200.998 28.4818 200.888 28.9053 200.667 29.2689C200.446 29.6279 200.137 29.9087 199.742 30.1112C199.346 30.3138 198.885 30.415 198.361 30.415H196.248ZM197.146 29.6556H198.319C198.683 29.6556 198.996 29.5865 199.258 29.4484C199.525 29.3103 199.73 29.117 199.873 28.8685C200.02 28.6199 200.094 28.3299 200.094 27.9985C200.094 27.6625 200.02 27.3725 199.873 27.1286C199.73 26.88 199.525 26.6867 199.258 26.5486C198.996 26.4105 198.683 26.3415 198.319 26.3415H197.146V29.6556ZM201.952 30.415V25.582H203.941C204.369 25.582 204.735 25.6511 205.038 25.7892C205.347 25.9272 205.584 26.1252 205.75 26.3829C205.915 26.6407 205.998 26.9468 205.998 27.3012C205.998 27.6556 205.915 27.9617 205.75 28.2195C205.584 28.4726 205.347 28.6682 205.038 28.8063C204.735 28.9398 204.369 29.0066 203.941 29.0066H202.449L202.85 28.5992V30.415H201.952ZM205.114 30.415L203.892 28.6613H204.852L206.081 30.415H205.114ZM202.85 28.6959L202.449 28.2678H203.899C204.295 28.2678 204.592 28.1826 204.79 28.0123C204.992 27.842 205.094 27.605 205.094 27.3012C205.094 26.9928 204.992 26.7558 204.79 26.5901C204.592 26.4243 204.295 26.3415 203.899 26.3415H202.449L202.85 25.8996V28.6959ZM209.267 30.4841C208.889 30.4841 208.542 30.4219 208.224 30.2977C207.907 30.1734 207.631 30.0008 207.396 29.7798C207.161 29.5543 206.979 29.2919 206.85 28.9928C206.722 28.689 206.657 28.3576 206.657 27.9985C206.657 27.6395 206.722 27.3104 206.85 27.0112C206.979 26.7074 207.161 26.4451 207.396 26.2241C207.631 25.9986 207.907 25.8237 208.224 25.6994C208.542 25.5751 208.887 25.513 209.26 25.513C209.637 25.513 209.983 25.5751 210.296 25.6994C210.613 25.8237 210.889 25.9986 211.124 26.2241C211.359 26.4451 211.541 26.7074 211.67 27.0112C211.798 27.3104 211.863 27.6395 211.863 27.9985C211.863 28.3576 211.798 28.689 211.67 28.9928C211.541 29.2965 211.359 29.5589 211.124 29.7798C210.889 30.0008 210.613 30.1734 210.296 30.2977C209.983 30.4219 209.64 30.4841 209.267 30.4841ZM209.26 29.697C209.504 29.697 209.73 29.6556 209.937 29.5727C210.144 29.4899 210.323 29.3725 210.475 29.2206C210.627 29.0641 210.744 28.8846 210.827 28.6821C210.915 28.4749 210.958 28.2471 210.958 27.9985C210.958 27.75 210.915 27.5244 210.827 27.3219C210.744 27.1148 210.627 26.9353 210.475 26.7834C210.323 26.6269 210.144 26.5072 209.937 26.4243C209.73 26.3415 209.504 26.3001 209.26 26.3001C209.016 26.3001 208.791 26.3415 208.583 26.4243C208.381 26.5072 208.201 26.6269 208.045 26.7834C207.893 26.9353 207.773 27.1148 207.686 27.3219C207.603 27.5244 207.562 27.75 207.562 27.9985C207.562 28.2425 207.603 28.468 207.686 28.6752C207.773 28.8823 207.893 29.0641 208.045 29.2206C208.197 29.3725 208.376 29.4899 208.583 29.5727C208.791 29.6556 209.016 29.697 209.26 29.697ZM212.814 30.415V25.582H215.079C215.659 25.582 216.101 25.6971 216.405 25.9272C216.708 26.1528 216.86 26.4566 216.86 26.8386C216.86 27.0964 216.8 27.3173 216.681 27.5014C216.561 27.6809 216.4 27.8213 216.197 27.9226C216 28.0192 215.783 28.0676 215.548 28.0676L215.673 27.819C215.944 27.819 216.188 27.8697 216.405 27.9709C216.621 28.0676 216.791 28.2103 216.915 28.399C217.044 28.5877 217.109 28.8224 217.109 29.1032C217.109 29.5175 216.95 29.8397 216.632 30.0698C216.315 30.3 215.843 30.415 215.217 30.415H212.814ZM213.712 29.7108H215.162C215.498 29.7108 215.756 29.6556 215.935 29.5451C216.115 29.4346 216.204 29.2574 216.204 29.0135C216.204 28.7741 216.115 28.5992 215.935 28.4887C215.756 28.3737 215.498 28.3161 215.162 28.3161H213.643V27.6188H214.982C215.295 27.6188 215.535 27.5636 215.7 27.4531C215.871 27.3426 215.956 27.1769 215.956 26.956C215.956 26.7304 215.871 26.5624 215.7 26.452C215.535 26.3415 215.295 26.2863 214.982 26.2863H213.712V29.7108ZM218.895 27.5912H221.298V28.3299H218.895V27.5912ZM218.964 29.6625H221.691V30.415H218.067V25.582H221.595V26.3346H218.964V29.6625Z" fill="black"/>
</svg>

