<svg width="239" height="196" viewBox="0 0 239 196" fill="none" xmlns="http://www.w3.org/2000/svg">
    <rect x="1.07154" y="0.807377" width="236.989" height="188.894" rx="1.30297" stroke="black" stroke-width="1.39405"/>
    <rect x="160.209" y="76.9844" width="33.4572" height="30.6691" rx="2.09108" transform="rotate(90.4469 160.209 76.9844)" fill="#D9D9D9"/>
    <path d="M142.597 85.307L145.887 85.3326L145.897 84.039L146.511 84.0438L146.485 87.3559L145.872 87.3512L145.882 86.0575L142.592 86.0319L142.597 85.307ZM142.583 87.1214L146.473 88.9083L146.467 89.6221L142.55 91.3537L142.556 90.5953L146.086 89.1117L146.084 89.4016L142.577 87.8686L142.583 87.1214ZM143.48 87.937L144.048 88.1366L144.031 90.2444L143.461 90.4351L143.48 87.937ZM142.546 91.8501L146.45 91.8805L146.435 93.7094C146.432 94.1778 146.336 94.534 146.148 94.7779C145.964 95.0218 145.718 95.1425 145.409 95.1401C145.201 95.1385 145.023 95.0888 144.875 94.991C144.731 94.8932 144.619 94.7622 144.538 94.598C144.461 94.4376 144.424 94.2625 144.425 94.073L144.625 94.1749C144.623 94.3942 144.581 94.5909 144.498 94.765C144.418 94.9391 144.302 95.0757 144.149 95.1749C143.996 95.2778 143.806 95.3284 143.579 95.3266C143.244 95.324 142.985 95.1937 142.801 94.9358C142.617 94.6778 142.527 94.2961 142.531 93.7905L142.546 91.8501ZM143.109 92.5794L143.1 93.7503C143.098 94.0217 143.141 94.2302 143.229 94.3759C143.317 94.5216 143.46 94.5952 143.657 94.5967C143.85 94.5982 143.992 94.5268 144.082 94.3826C144.176 94.2383 144.225 94.0305 144.227 93.7591L144.236 92.5324L144.799 92.5368L144.791 93.6185C144.789 93.8713 144.832 94.065 144.92 94.1995C145.008 94.3377 145.142 94.4075 145.32 94.4089C145.502 94.4104 145.639 94.3426 145.729 94.2058C145.819 94.0727 145.865 93.8797 145.867 93.6269L145.875 92.6009L143.109 92.5794ZM142.513 96.092L146.417 96.1224L146.411 96.8473L143.121 96.8216L143.105 98.8625L142.492 98.8577L142.513 96.092ZM144.763 100.117L144.748 102.057L144.151 102.053L144.166 100.112L144.763 100.117ZM143.089 100.16L143.072 102.362L142.464 102.357L142.487 99.43L146.39 99.4604L146.368 102.31L145.76 102.305L145.777 100.181L143.089 100.16Z" fill="black"/>
    <rect x="125.274" y="79.4375" width="26.6137" height="8.36431" rx="2.28117" transform="rotate(90.4469 125.274 79.4375)" fill="#D9D9D9"/>
    <path d="M120.424 88.9992C120.425 88.823 120.455 88.6591 120.513 88.5075C120.574 88.3582 120.658 88.2278 120.764 88.1162C120.873 88.0069 121 87.922 121.146 87.8615C121.292 87.8009 121.451 87.7713 121.623 87.7727C121.795 87.774 121.953 87.8061 122.098 87.8689C122.243 87.9317 122.368 88.0197 122.473 88.1329C122.58 88.2461 122.661 88.3778 122.717 88.528C122.776 88.6783 122.804 88.8426 122.803 89.021C122.801 89.2105 122.767 89.3832 122.7 89.5391C122.634 89.695 122.538 89.8264 122.409 89.9333L122.15 89.6537C122.241 89.5707 122.309 89.4776 122.354 89.3744C122.401 89.2713 122.425 89.1591 122.426 89.0379C122.427 88.9168 122.408 88.8054 122.369 88.7037C122.33 88.6043 122.275 88.5168 122.203 88.4414C122.13 88.3681 122.045 88.3102 121.946 88.2675C121.847 88.2271 121.738 88.2064 121.619 88.2055C121.501 88.2046 121.391 88.2236 121.292 88.2624C121.192 88.3035 121.106 88.3601 121.033 88.4323C120.96 88.5066 120.903 88.5932 120.862 88.692C120.822 88.793 120.801 88.9041 120.8 89.0253C120.799 89.1464 120.82 89.2589 120.864 89.3628C120.909 89.4667 120.978 89.5609 121.07 89.6453L120.803 89.9208C120.678 89.8119 120.584 89.679 120.519 89.522C120.454 89.3651 120.422 89.1908 120.424 88.9992ZM122.747 91.9734L122.743 92.403L120.43 92.3849L120.434 91.9554L122.747 91.9734ZM120.443 90.7592L120.446 90.3296L122.759 90.3477L122.756 90.7772L120.443 90.7592ZM121.425 91.9961L121.435 90.7306L121.801 90.7334L121.791 91.999L121.425 91.9961ZM120.428 92.6776L122.733 93.7365L122.73 94.1594L120.408 95.1856L120.412 94.7362L122.504 93.857L122.503 94.0288L120.425 93.1204L120.428 92.6776ZM120.96 93.1609L121.296 93.2792L121.286 94.5282L120.948 94.6412L120.96 93.1609ZM120.406 95.4797L122.719 95.4978L122.716 95.9273L120.403 95.9093L120.406 95.4797ZM120.398 96.5349L122.711 96.553L122.704 97.5046C122.702 97.7095 122.668 97.8843 122.6 98.0292C122.533 98.1763 122.437 98.289 122.313 98.3673C122.189 98.4457 122.043 98.4842 121.873 98.4829C121.703 98.4815 121.557 98.4408 121.435 98.3605C121.314 98.2802 121.221 98.1661 121.156 98.0179C121.094 97.8721 121.063 97.6967 121.065 97.4918L121.07 96.7781L121.264 96.9713L120.395 96.9645L120.398 96.5349ZM120.386 98.0483L121.23 97.47L121.226 97.9293L120.383 98.5109L120.386 98.0483ZM121.217 96.9709L121.424 96.7808L121.418 97.4747C121.417 97.6642 121.456 97.8066 121.537 97.902C121.618 97.9995 121.731 98.0489 121.876 98.05C122.024 98.0512 122.138 98.0036 122.218 97.9073C122.298 97.8132 122.339 97.6714 122.34 97.4819L122.346 96.788L122.556 96.9813L121.217 96.9709Z" fill="black"/>
    <rect x="155.657" y="124.349" width="24.3959" height="7.66728" rx="2.09108" transform="rotate(-179.553 155.657 124.349)" fill="#D9D9D9"/>
    <path d="M146.852 119.852C147.028 119.853 147.192 119.883 147.344 119.942C147.493 120.002 147.623 120.086 147.735 120.193C147.844 120.301 147.929 120.429 147.99 120.575C148.05 120.72 148.08 120.879 148.078 121.051C148.077 121.223 148.045 121.381 147.982 121.526C147.919 121.671 147.831 121.796 147.718 121.901C147.605 122.008 147.473 122.089 147.323 122.146C147.173 122.204 147.008 122.232 146.83 122.231C146.641 122.229 146.468 122.195 146.312 122.128C146.156 122.063 146.025 121.966 145.918 121.837L146.197 121.578C146.28 121.669 146.373 121.737 146.477 121.782C146.58 121.829 146.692 121.853 146.813 121.854C146.934 121.855 147.046 121.836 147.147 121.797C147.247 121.758 147.334 121.703 147.41 121.631C147.483 121.559 147.541 121.473 147.584 121.374C147.624 121.276 147.645 121.167 147.646 121.048C147.646 120.929 147.628 120.82 147.589 120.72C147.548 120.621 147.491 120.534 147.419 120.461C147.344 120.388 147.258 120.331 147.159 120.29C147.058 120.25 146.947 120.229 146.826 120.228C146.705 120.227 146.592 120.249 146.488 120.292C146.384 120.337 146.29 120.406 146.206 120.498L145.93 120.231C146.039 120.107 146.172 120.012 146.329 119.947C146.486 119.882 146.66 119.85 146.852 119.852ZM143.878 122.175L143.448 122.172L143.466 119.859L143.896 119.862L143.878 122.175ZM145.092 119.871L145.521 119.875L145.503 122.188L145.074 122.184L145.092 119.871ZM143.855 120.853L145.12 120.863L145.118 121.23L143.852 121.22L143.855 120.853ZM143.173 119.856L142.115 122.161L141.692 122.158L140.666 119.837L141.115 119.84L141.994 121.932L141.822 121.931L142.731 119.853L143.173 119.856ZM142.69 120.388L142.572 120.724L141.323 120.714L141.21 120.376L142.69 120.388ZM140.371 119.834L140.353 122.147L139.924 122.144L139.942 119.831L140.371 119.834ZM139.316 119.826L139.298 122.139L138.346 122.132C138.142 122.13 137.967 122.096 137.822 122.029C137.675 121.961 137.562 121.866 137.484 121.742C137.405 121.618 137.367 121.471 137.368 121.301C137.37 121.132 137.41 120.985 137.491 120.863C137.571 120.742 137.685 120.649 137.833 120.585C137.979 120.522 138.154 120.491 138.359 120.493L139.073 120.498L138.88 120.692L138.887 119.823L139.316 119.826ZM137.803 119.814L138.381 120.658L137.922 120.655L137.34 119.811L137.803 119.814ZM138.88 120.646L139.07 120.852L138.376 120.847C138.187 120.845 138.044 120.885 137.949 120.965C137.852 121.046 137.802 121.159 137.801 121.305C137.8 121.452 137.847 121.566 137.944 121.646C138.038 121.726 138.18 121.767 138.369 121.768L139.063 121.774L138.87 121.984L138.88 120.646Z" fill="black"/>
    <rect x="183.993" y="183.825" width="11.0563" height="37.5432" rx="0.997468" transform="rotate(90 183.993 183.825)" stroke="black" stroke-width="0.793167"/>
    <path d="M166.963 102.572L238.059 102.572" stroke="black" stroke-width="1.39405" stroke-linecap="round"/>
    <path d="M166.963 40.5381L238.059 40.5381" stroke="black" stroke-width="1.39405" stroke-linecap="round"/>
    <path d="M166.963 102.572L166.963 68.418" stroke="black" stroke-width="1.39405" stroke-linecap="round"/>
    <path d="M166.963 52.3877L166.963 40.5383" stroke="black" stroke-width="1.39405" stroke-linecap="round"/>
    <path d="M193.508 77.2363L190.384 67.8119H192.202L194.989 76.3343H194.087L196.981 67.8119H198.597L201.411 76.3343H200.536L203.39 67.8119H205.06L201.936 77.2363H200.078L197.507 69.5487H197.991L195.379 77.2363H193.508ZM210.755 77.371C210.037 77.371 209.369 77.2543 208.749 77.0209C208.139 76.7786 207.605 76.442 207.147 76.0112C206.699 75.5714 206.348 75.0553 206.097 74.4629C205.846 73.8705 205.72 73.2242 205.72 72.5241C205.72 71.824 205.846 71.1778 206.097 70.5854C206.348 69.993 206.703 69.4814 207.161 69.0506C207.619 68.6108 208.153 68.2742 208.763 68.0408C209.373 67.7985 210.042 67.6773 210.769 67.6773C211.541 67.6773 212.245 67.8119 212.883 68.0812C213.52 68.3415 214.058 68.7319 214.498 69.2525L213.367 70.3161C213.026 69.9481 212.645 69.6744 212.223 69.4949C211.801 69.3064 211.343 69.2121 210.85 69.2121C210.356 69.2121 209.903 69.2929 209.49 69.4545C209.086 69.616 208.731 69.8449 208.426 70.1411C208.13 70.4373 207.897 70.7874 207.726 71.1913C207.565 71.5952 207.484 72.0395 207.484 72.5241C207.484 73.0088 207.565 73.4531 207.726 73.857C207.897 74.2609 208.13 74.611 208.426 74.9072C208.731 75.2034 209.086 75.4322 209.49 75.5938C209.903 75.7554 210.356 75.8361 210.85 75.8361C211.343 75.8361 211.801 75.7464 212.223 75.5669C212.645 75.3784 213.026 75.0956 213.367 74.7187L214.498 75.7957C214.058 76.3074 213.52 76.6978 212.883 76.9671C212.245 77.2363 211.536 77.371 210.755 77.371Z" fill="black"/>
    <path d="M180.948 24.2324L179.346 19.3994H180.279L181.708 23.7698H181.245L182.73 19.3994H183.558L185.001 23.7698H184.552L186.016 19.3994H186.872L185.27 24.2324H184.318L182.999 20.2901H183.247L181.908 24.2324H180.948ZM186.765 24.2324L188.94 19.3994H189.823L192.005 24.2324H191.066L189.195 19.8758H189.554L187.69 24.2324H186.765ZM187.766 23.1139L188.008 22.4097H190.617L190.859 23.1139H187.766ZM192.62 24.2324V19.3994H194.608C195.036 19.3994 195.402 19.4684 195.706 19.6065C196.014 19.7446 196.251 19.9425 196.417 20.2003C196.583 20.4581 196.666 20.7642 196.666 21.1186C196.666 21.473 196.583 21.7791 196.417 22.0369C196.251 22.29 196.014 22.4856 195.706 22.6237C195.402 22.7572 195.036 22.8239 194.608 22.8239H193.117L193.517 22.4166V24.2324H192.62ZM195.782 24.2324L194.56 22.4787H195.52L196.749 24.2324H195.782ZM193.517 22.5132L193.117 22.0852H194.567C194.963 22.0852 195.26 22 195.457 21.8297C195.66 21.6594 195.761 21.4224 195.761 21.1186C195.761 20.8102 195.66 20.5731 195.457 20.4074C195.26 20.2417 194.963 20.1589 194.567 20.1589H193.117L193.517 19.717V22.5132ZM197.67 24.2324V19.3994H199.783C200.307 19.3994 200.768 19.5007 201.163 19.7032C201.559 19.9057 201.868 20.1865 202.089 20.5455C202.31 20.9045 202.42 21.328 202.42 21.8159C202.42 22.2992 202.31 22.7227 202.089 23.0863C201.868 23.4453 201.559 23.7261 201.163 23.9286C200.768 24.1312 200.307 24.2324 199.783 24.2324H197.67ZM198.567 23.4729H199.741C200.105 23.4729 200.418 23.4039 200.68 23.2658C200.947 23.1277 201.152 22.9344 201.295 22.6859C201.442 22.4373 201.516 22.1473 201.516 21.8159C201.516 21.4799 201.442 21.1899 201.295 20.946C201.152 20.6974 200.947 20.5041 200.68 20.366C200.418 20.2279 200.105 20.1589 199.741 20.1589H198.567V23.4729ZM203.374 24.2324V19.3994H205.362C205.791 19.3994 206.156 19.4684 206.46 19.6065C206.769 19.7446 207.006 19.9425 207.171 20.2003C207.337 20.4581 207.42 20.7642 207.42 21.1186C207.42 21.473 207.337 21.7791 207.171 22.0369C207.006 22.29 206.769 22.4856 206.46 22.6237C206.156 22.7572 205.791 22.8239 205.362 22.8239H203.871L204.272 22.4166V24.2324H203.374ZM206.536 24.2324L205.314 22.4787H206.274L207.503 24.2324H206.536ZM204.272 22.5132L203.871 22.0852H205.321C205.717 22.0852 206.014 22 206.212 21.8297C206.414 21.6594 206.516 21.4224 206.516 21.1186C206.516 20.8102 206.414 20.5731 206.212 20.4074C206.014 20.2417 205.717 20.1589 205.321 20.1589H203.871L204.272 19.717V22.5132ZM210.689 24.3015C210.311 24.3015 209.964 24.2393 209.646 24.115C209.329 23.9908 209.052 23.8182 208.818 23.5972C208.583 23.3717 208.401 23.1093 208.272 22.8101C208.143 22.5063 208.079 22.1749 208.079 21.8159C208.079 21.4569 208.143 21.1278 208.272 20.8286C208.401 20.5248 208.583 20.2624 208.818 20.0415C209.052 19.816 209.329 19.6411 209.646 19.5168C209.964 19.3925 210.309 19.3304 210.682 19.3304C211.059 19.3304 211.405 19.3925 211.718 19.5168C212.035 19.6411 212.311 19.816 212.546 20.0415C212.781 20.2624 212.963 20.5248 213.091 20.8286C213.22 21.1278 213.285 21.4569 213.285 21.8159C213.285 22.1749 213.22 22.5063 213.091 22.8101C212.963 23.1139 212.781 23.3763 212.546 23.5972C212.311 23.8182 212.035 23.9908 211.718 24.115C211.405 24.2393 211.062 24.3015 210.689 24.3015ZM210.682 23.5144C210.926 23.5144 211.151 23.4729 211.359 23.3901C211.566 23.3072 211.745 23.1899 211.897 23.038C212.049 22.8815 212.166 22.702 212.249 22.4994C212.337 22.2923 212.38 22.0645 212.38 21.8159C212.38 21.5674 212.337 21.3418 212.249 21.1393C212.166 20.9322 212.049 20.7527 211.897 20.6008C211.745 20.4443 211.566 20.3246 211.359 20.2417C211.151 20.1589 210.926 20.1175 210.682 20.1175C210.438 20.1175 210.212 20.1589 210.005 20.2417C209.803 20.3246 209.623 20.4443 209.467 20.6008C209.315 20.7527 209.195 20.9322 209.108 21.1393C209.025 21.3418 208.983 21.5674 208.983 21.8159C208.983 22.0599 209.025 22.2854 209.108 22.4925C209.195 22.6997 209.315 22.8815 209.467 23.038C209.619 23.1899 209.798 23.3072 210.005 23.3901C210.212 23.4729 210.438 23.5144 210.682 23.5144ZM214.236 24.2324V19.3994H216.501C217.081 19.3994 217.523 19.5145 217.826 19.7446C218.13 19.9702 218.282 20.274 218.282 20.656C218.282 20.9138 218.222 21.1347 218.103 21.3188C217.983 21.4983 217.822 21.6387 217.619 21.74C217.421 21.8366 217.205 21.885 216.97 21.885L217.095 21.6364C217.366 21.6364 217.61 21.687 217.826 21.7883C218.043 21.885 218.213 22.0276 218.337 22.2164C218.466 22.4051 218.531 22.6398 218.531 22.9206C218.531 23.3349 218.372 23.6571 218.054 23.8872C217.737 24.1174 217.265 24.2324 216.639 24.2324H214.236ZM215.134 23.5282H216.584C216.92 23.5282 217.177 23.4729 217.357 23.3625C217.536 23.252 217.626 23.0748 217.626 22.8308C217.626 22.5915 217.536 22.4166 217.357 22.3061C217.177 22.191 216.92 22.1335 216.584 22.1335H215.065V21.4362H216.404C216.717 21.4362 216.957 21.3809 217.122 21.2705C217.293 21.16 217.378 20.9943 217.378 20.7734C217.378 20.5478 217.293 20.3798 217.122 20.2693C216.957 20.1589 216.717 20.1036 216.404 20.1036H215.134V23.5282ZM220.317 21.4086H222.72V22.1473H220.317V21.4086ZM220.386 23.4799H223.113V24.2324H219.489V19.3994H223.017V20.152H220.386V23.4799Z" fill="black"/>
</svg>
