<svg width="191" height="153" viewBox="0 0 191 153" fill="none" xmlns="http://www.w3.org/2000/svg">
<path d="M1.35461 1.29883L190.165 1.29884" stroke="black" stroke-width="1.14431" stroke-linecap="round"/>
<path d="M190.165 1.29883L190.165 147.77" stroke="black" stroke-width="1.14431" stroke-linecap="round"/>
<path d="M1.35461 147.77L190.165 147.77" stroke="black" stroke-width="1.14431" stroke-linecap="round"/>
<path d="M1.35461 1.29883L1.35462 147.77" stroke="black" stroke-width="1.14431" stroke-linecap="round"/>
<path d="M129.517 40.7773H189.593" stroke="black" stroke-width="1.14431" stroke-linecap="round"/>
<path d="M129.517 55.0815L129.517 100.282" stroke="black" stroke-width="1.14431" stroke-linecap="round"/>
<path d="M129.517 100.282H189.593" stroke="black" stroke-width="1.14431" stroke-linecap="round"/>
<rect x="96.0065" y="142.947" width="9.07554" height="30.8174" rx="0.818771" transform="rotate(90 96.0065 142.947)" stroke="black" stroke-width="0.651071"/>
<path d="M154.132 73.2358L151.995 66.7892H153.238L155.145 72.6188H154.528L156.508 66.7892H157.613L159.538 72.6188H158.939L160.891 66.7892H162.033L159.897 73.2358H158.626L156.867 67.9772H157.198L155.412 73.2358H154.132ZM165.93 73.3279C165.438 73.3279 164.981 73.2481 164.557 73.0885C164.14 72.9227 163.775 72.6925 163.461 72.3978C163.154 72.0969 162.915 71.7439 162.743 71.3387C162.571 70.9335 162.485 70.4914 162.485 70.0125C162.485 69.5336 162.571 69.0916 162.743 68.6863C162.915 68.2811 163.158 67.9312 163.471 67.6364C163.784 67.3356 164.149 67.1054 164.567 66.9457C164.984 66.78 165.441 66.6971 165.939 66.6971C166.467 66.6971 166.949 66.7892 167.385 66.9734C167.821 67.1514 168.189 67.4185 168.49 67.7746L167.716 68.5021C167.483 68.2504 167.222 68.0632 166.933 67.9404C166.645 67.8114 166.332 67.747 165.994 67.747C165.656 67.747 165.346 67.8022 165.064 67.9127C164.788 68.0232 164.545 68.1798 164.336 68.3824C164.134 68.585 163.974 68.8245 163.857 69.1008C163.747 69.377 163.692 69.681 163.692 70.0125C163.692 70.344 163.747 70.648 163.857 70.9242C163.974 71.2005 164.134 71.44 164.336 71.6426C164.545 71.8452 164.788 72.0018 165.064 72.1123C165.346 72.2228 165.656 72.278 165.994 72.278C166.332 72.278 166.645 72.2167 166.933 72.0939C167.222 71.9649 167.483 71.7715 167.716 71.5137L168.49 72.2504C168.189 72.6004 167.821 72.8675 167.385 73.0516C166.949 73.2358 166.464 73.3279 165.93 73.3279Z" fill="black"/>
<rect x="97.4763" y="76.251" width="27.4634" height="25.1748" rx="1.71646" fill="#D9D9D9"/>
<path d="M144.461 128.023L143.146 124.056H143.911L145.084 127.644H144.704L145.923 124.056H146.603L147.787 127.644H147.419L148.62 124.056H149.323L148.008 128.023H147.226L146.144 124.787H146.348L145.248 128.023H144.461ZM149.235 128.023L151.02 124.056H151.746L153.537 128.023H152.766L151.23 124.447H151.525L149.994 128.023H149.235ZM150.057 127.105L150.255 126.527H152.397L152.596 127.105H150.057ZM154.041 128.023V124.056H155.673C156.025 124.056 156.325 124.113 156.574 124.226C156.828 124.34 157.022 124.502 157.158 124.714C157.294 124.925 157.362 125.177 157.362 125.467C157.362 125.758 157.294 126.01 157.158 126.221C157.022 126.429 156.828 126.59 156.574 126.703C156.325 126.813 156.025 126.867 155.673 126.867H154.449L154.778 126.533V128.023H154.041ZM156.637 128.023L155.634 126.584H156.421L157.43 128.023H156.637ZM154.778 126.612L154.449 126.261H155.639C155.964 126.261 156.208 126.191 156.37 126.051C156.537 125.911 156.62 125.717 156.62 125.467C156.62 125.214 156.537 125.02 156.37 124.884C156.208 124.748 155.964 124.68 155.639 124.68H154.449L154.778 124.317V126.612ZM158.186 128.023V124.056H159.921C160.351 124.056 160.729 124.139 161.054 124.306C161.379 124.472 161.632 124.702 161.814 124.997C161.995 125.292 162.086 125.639 162.086 126.04C162.086 126.437 161.995 126.784 161.814 127.083C161.632 127.377 161.379 127.608 161.054 127.774C160.729 127.94 160.351 128.023 159.921 128.023H158.186ZM158.923 127.4H159.887C160.185 127.4 160.442 127.343 160.657 127.23C160.877 127.117 161.045 126.958 161.162 126.754C161.283 126.55 161.343 126.312 161.343 126.04C161.343 125.764 161.283 125.526 161.162 125.326C161.045 125.122 160.877 124.963 160.657 124.85C160.442 124.736 160.185 124.68 159.887 124.68H158.923V127.4ZM162.869 128.023V124.056H164.501C164.852 124.056 165.153 124.113 165.402 124.226C165.655 124.34 165.85 124.502 165.986 124.714C166.122 124.925 166.19 125.177 166.19 125.467C166.19 125.758 166.122 126.01 165.986 126.221C165.85 126.429 165.655 126.59 165.402 126.703C165.153 126.813 164.852 126.867 164.501 126.867H163.277L163.606 126.533V128.023H162.869ZM165.464 128.023L164.461 126.584H165.249L166.258 128.023H165.464ZM163.606 126.612L163.277 126.261H164.467C164.792 126.261 165.036 126.191 165.198 126.051C165.364 125.911 165.447 125.717 165.447 125.467C165.447 125.214 165.364 125.02 165.198 124.884C165.036 124.748 164.792 124.68 164.467 124.68H163.277L163.606 124.317V126.612ZM168.873 128.08C168.563 128.08 168.278 128.029 168.017 127.927C167.757 127.825 167.53 127.683 167.337 127.502C167.144 127.317 166.995 127.102 166.889 126.856C166.784 126.607 166.731 126.335 166.731 126.04C166.731 125.745 166.784 125.475 166.889 125.229C166.995 124.98 167.144 124.765 167.337 124.583C167.53 124.398 167.757 124.255 168.017 124.153C168.278 124.051 168.561 124 168.867 124C169.177 124 169.461 124.051 169.717 124.153C169.978 124.255 170.205 124.398 170.398 124.583C170.59 124.765 170.74 124.98 170.845 125.229C170.951 125.475 171.004 125.745 171.004 126.04C171.004 126.335 170.951 126.607 170.845 126.856C170.74 127.105 170.59 127.321 170.398 127.502C170.205 127.683 169.978 127.825 169.717 127.927C169.461 128.029 169.179 128.08 168.873 128.08ZM168.867 127.434C169.068 127.434 169.253 127.4 169.423 127.332C169.593 127.264 169.74 127.168 169.865 127.043C169.99 126.915 170.086 126.767 170.154 126.601C170.226 126.431 170.262 126.244 170.262 126.04C170.262 125.836 170.226 125.651 170.154 125.484C170.086 125.314 169.99 125.167 169.865 125.042C169.74 124.914 169.593 124.816 169.423 124.748C169.253 124.68 169.068 124.646 168.867 124.646C168.667 124.646 168.482 124.68 168.312 124.748C168.146 124.816 167.998 124.914 167.87 125.042C167.745 125.167 167.647 125.314 167.575 125.484C167.507 125.651 167.473 125.836 167.473 126.04C167.473 126.24 167.507 126.425 167.575 126.595C167.647 126.765 167.745 126.915 167.87 127.043C167.995 127.168 168.142 127.264 168.312 127.332C168.482 127.4 168.667 127.434 168.867 127.434ZM171.785 128.023V124.056H173.644C174.12 124.056 174.483 124.151 174.732 124.34C174.981 124.525 175.106 124.774 175.106 125.088C175.106 125.299 175.057 125.481 174.959 125.632C174.86 125.779 174.728 125.894 174.562 125.978C174.4 126.057 174.222 126.097 174.029 126.097L174.131 125.892C174.354 125.892 174.554 125.934 174.732 126.017C174.91 126.097 175.049 126.214 175.151 126.369C175.257 126.523 175.31 126.716 175.31 126.947C175.31 127.287 175.18 127.551 174.919 127.74C174.658 127.929 174.271 128.023 173.757 128.023H171.785ZM172.522 127.445H173.712C173.988 127.445 174.199 127.4 174.347 127.309C174.494 127.219 174.568 127.073 174.568 126.873C174.568 126.676 174.494 126.533 174.347 126.442C174.199 126.348 173.988 126.301 173.712 126.301H172.465V125.728H173.565C173.821 125.728 174.018 125.683 174.154 125.592C174.294 125.501 174.364 125.365 174.364 125.184C174.364 124.999 174.294 124.861 174.154 124.77C174.018 124.68 173.821 124.634 173.565 124.634H172.522V127.445ZM176.776 125.705H178.749V126.312H176.776V125.705ZM176.833 127.406H179.072V128.023H176.096V124.056H178.992V124.674H176.833V127.406Z" fill="black"/>
<path d="M145.605 23.3193L144.29 19.3522H145.055L146.228 22.9396H145.849L147.067 19.3522H147.747L148.932 22.9396H148.563L149.765 19.3522H150.467L149.153 23.3193H148.371L147.288 20.0832H147.492L146.393 23.3193H145.605ZM150.379 23.3193L152.165 19.3522H152.89L154.681 23.3193H153.91L152.374 19.7432H152.669L151.139 23.3193H150.379ZM151.201 22.4012L151.399 21.8231H153.542L153.74 22.4012H151.201ZM155.185 23.3193V19.3522H156.818C157.169 19.3522 157.469 19.4088 157.719 19.5222C157.972 19.6355 158.166 19.798 158.302 20.0096C158.438 20.2212 158.506 20.4724 158.506 20.7633C158.506 21.0543 158.438 21.3055 158.302 21.5171C158.166 21.7249 157.972 21.8855 157.719 21.9988C157.469 22.1084 157.169 22.1632 156.818 22.1632H155.593L155.922 21.8288V23.3193H155.185ZM157.781 23.3193L156.778 21.8798H157.566L158.574 23.3193H157.781ZM155.922 21.9082L155.593 21.5568H156.784C157.109 21.5568 157.352 21.4869 157.515 21.3471C157.681 21.2073 157.764 21.0127 157.764 20.7633C157.764 20.5102 157.681 20.3156 157.515 20.1796C157.352 20.0436 157.109 19.9756 156.784 19.9756H155.593L155.922 19.6129V21.9082ZM159.331 23.3193V19.3522H161.065C161.496 19.3522 161.874 19.4353 162.198 19.6015C162.523 19.7678 162.777 19.9982 162.958 20.2929C163.139 20.5876 163.23 20.9352 163.23 21.3357C163.23 21.7325 163.139 22.0801 162.958 22.3785C162.777 22.6733 162.523 22.9037 162.198 23.07C161.874 23.2362 161.496 23.3193 161.065 23.3193H159.331ZM160.068 22.6959H161.031C161.329 22.6959 161.586 22.6392 161.802 22.5259C162.021 22.4126 162.189 22.2539 162.306 22.0498C162.427 21.8458 162.488 21.6078 162.488 21.3357C162.488 21.0599 162.427 20.8219 162.306 20.6217C162.189 20.4176 162.021 20.2589 161.802 20.1456C161.586 20.0322 161.329 19.9756 161.031 19.9756H160.068V22.6959ZM164.013 23.3193V19.3522H165.645C165.997 19.3522 166.297 19.4088 166.546 19.5222C166.8 19.6355 166.994 19.798 167.13 20.0096C167.266 20.2212 167.334 20.4724 167.334 20.7633C167.334 21.0543 167.266 21.3055 167.13 21.5171C166.994 21.7249 166.8 21.8855 166.546 21.9988C166.297 22.1084 165.997 22.1632 165.645 22.1632H164.421L164.75 21.8288V23.3193H164.013ZM166.609 23.3193L165.606 21.8798H166.393L167.402 23.3193H166.609ZM164.75 21.9082L164.421 21.5568H165.611C165.936 21.5568 166.18 21.4869 166.342 21.3471C166.509 21.2073 166.592 21.0127 166.592 20.7633C166.592 20.5102 166.509 20.3156 166.342 20.1796C166.18 20.0436 165.936 19.9756 165.611 19.9756H164.421L164.75 19.6129V21.9082ZM170.017 23.376C169.708 23.376 169.422 23.325 169.162 23.223C168.901 23.121 168.674 22.9793 168.481 22.7979C168.289 22.6128 168.14 22.3974 168.034 22.1519C167.928 21.9025 167.875 21.6304 167.875 21.3357C167.875 21.041 167.928 20.7709 168.034 20.5253C168.14 20.2759 168.289 20.0606 168.481 19.8792C168.674 19.6941 168.901 19.5505 169.162 19.4485C169.422 19.3465 169.706 19.2955 170.012 19.2955C170.321 19.2955 170.605 19.3465 170.862 19.4485C171.122 19.5505 171.349 19.6941 171.542 19.8792C171.735 20.0606 171.884 20.2759 171.99 20.5253C172.095 20.7709 172.148 21.041 172.148 21.3357C172.148 21.6304 172.095 21.9025 171.99 22.1519C171.884 22.4012 171.735 22.6166 171.542 22.7979C171.349 22.9793 171.122 23.121 170.862 23.223C170.605 23.325 170.323 23.376 170.017 23.376ZM170.012 22.7299C170.212 22.7299 170.397 22.6959 170.567 22.6279C170.737 22.5599 170.884 22.4636 171.009 22.3389C171.134 22.2104 171.23 22.0631 171.298 21.8968C171.37 21.7268 171.406 21.5398 171.406 21.3357C171.406 21.1317 171.37 20.9466 171.298 20.7803C171.23 20.6103 171.134 20.463 171.009 20.3383C170.884 20.2098 170.737 20.1116 170.567 20.0436C170.397 19.9756 170.212 19.9416 170.012 19.9416C169.811 19.9416 169.626 19.9756 169.456 20.0436C169.29 20.1116 169.143 20.2098 169.014 20.3383C168.89 20.463 168.791 20.6103 168.719 20.7803C168.651 20.9466 168.617 21.1317 168.617 21.3357C168.617 21.536 168.651 21.7211 168.719 21.8912C168.791 22.0612 168.89 22.2104 169.014 22.3389C169.139 22.4636 169.286 22.5599 169.456 22.6279C169.626 22.6959 169.811 22.7299 170.012 22.7299ZM172.929 23.3193V19.3522H174.788C175.264 19.3522 175.627 19.4466 175.876 19.6355C176.126 19.8207 176.25 20.07 176.25 20.3836C176.25 20.5952 176.201 20.7766 176.103 20.9277C176.005 21.075 175.872 21.1903 175.706 21.2734C175.544 21.3527 175.366 21.3924 175.174 21.3924L175.276 21.1884C175.498 21.1884 175.699 21.23 175.876 21.3131C176.054 21.3924 176.194 21.5095 176.296 21.6645C176.401 21.8194 176.454 22.0121 176.454 22.2425C176.454 22.5826 176.324 22.8471 176.063 23.036C175.803 23.2249 175.415 23.3193 174.901 23.3193H172.929ZM173.666 22.7413H174.856C175.132 22.7413 175.344 22.6959 175.491 22.6052C175.638 22.5146 175.712 22.3691 175.712 22.1689C175.712 21.9724 175.638 21.8288 175.491 21.7381C175.344 21.6437 175.132 21.5964 174.856 21.5964H173.609V21.024H174.709C174.966 21.024 175.162 20.9787 175.298 20.888C175.438 20.7973 175.508 20.6613 175.508 20.48C175.508 20.2948 175.438 20.1569 175.298 20.0662C175.162 19.9756 174.966 19.9302 174.709 19.9302H173.666V22.7413ZM177.921 21.0014H179.893V21.6078H177.921V21.0014ZM177.977 22.7016H180.216V23.3193H177.241V19.3522H180.137V19.9699H177.977V22.7016Z" fill="black"/>
<path d="M104.623 91.5498V88.8492H103.561V88.3457H106.28V88.8492H105.218V91.5498H104.623ZM106.113 91.5498L107.555 88.3457H108.14L109.587 91.5498H108.964L107.724 88.6616H107.962L106.726 91.5498H106.113ZM106.776 90.8083L106.937 90.3414H108.667L108.827 90.8083H106.776ZM109.994 91.5498V88.3457H111.496C111.88 88.3457 112.173 88.422 112.375 88.5746C112.576 88.7241 112.677 88.9255 112.677 89.1788C112.677 89.3497 112.637 89.4962 112.558 89.6182C112.478 89.7372 112.371 89.8303 112.237 89.8974C112.106 89.9615 111.963 89.9935 111.807 89.9935L111.889 89.8288C112.069 89.8288 112.231 89.8623 112.375 89.9295C112.518 89.9935 112.631 90.0881 112.713 90.2133C112.799 90.3384 112.841 90.494 112.841 90.6801C112.841 90.9548 112.736 91.1684 112.526 91.3209C112.315 91.4735 112.002 91.5498 111.587 91.5498H109.994ZM110.589 91.0829H111.551C111.773 91.0829 111.944 91.0463 112.063 90.9731C112.182 90.8998 112.242 90.7824 112.242 90.6206C112.242 90.462 112.182 90.346 112.063 90.2728C111.944 90.1965 111.773 90.1583 111.551 90.1583H110.544V89.696H111.432C111.639 89.696 111.798 89.6594 111.908 89.5862C112.021 89.5129 112.077 89.4031 112.077 89.2566C112.077 89.1071 112.021 88.9957 111.908 88.9225C111.798 88.8492 111.639 88.8126 111.432 88.8126H110.589V91.0829ZM113.476 91.5498V88.3457H114.071V91.0463H115.747V91.5498H113.476ZM116.766 89.6777H118.359V90.1675H116.766V89.6777ZM116.812 91.0509H118.62V91.5498H116.217V88.3457H118.556V88.8447H116.812V91.0509Z" fill="black"/>
<rect x="99.9991" y="103.714" width="21.8459" height="6.86584" rx="1.8725" fill="#D9D9D9"/>
<path d="M107.668 107.458C107.524 107.458 107.389 107.434 107.264 107.387C107.141 107.338 107.034 107.271 106.941 107.184C106.851 107.095 106.78 106.991 106.73 106.872C106.679 106.753 106.654 106.622 106.654 106.481C106.654 106.34 106.679 106.21 106.73 106.091C106.78 105.971 106.852 105.868 106.944 105.782C107.036 105.693 107.144 105.625 107.267 105.578C107.39 105.529 107.525 105.505 107.671 105.505C107.826 105.505 107.968 105.532 108.097 105.586C108.225 105.639 108.334 105.717 108.422 105.822L108.194 106.036C108.126 105.962 108.049 105.907 107.964 105.871C107.879 105.833 107.787 105.814 107.687 105.814C107.588 105.814 107.496 105.83 107.413 105.863C107.332 105.895 107.26 105.942 107.199 106.001C107.139 106.061 107.092 106.131 107.058 106.213C107.025 106.294 107.009 106.384 107.009 106.481C107.009 106.579 107.025 106.668 107.058 106.75C107.092 106.831 107.139 106.902 107.199 106.961C107.26 107.021 107.332 107.067 107.413 107.1C107.496 107.132 107.588 107.149 107.687 107.149C107.787 107.149 107.879 107.13 107.964 107.094C108.049 107.056 108.126 106.999 108.194 106.923L108.422 107.14C108.334 107.244 108.225 107.322 108.097 107.376C107.968 107.431 107.826 107.458 107.668 107.458ZM110.095 105.532H110.447V107.431H110.095V105.532ZM109.113 107.431H108.76V105.532H109.113V107.431ZM110.122 106.617H109.083V106.316H110.122V106.617ZM110.688 107.431L111.542 105.532H111.889L112.746 107.431H112.377L111.642 105.719H111.783L111.051 107.431H110.688ZM111.081 106.991L111.176 106.715H112.201L112.296 106.991H111.081ZM112.988 107.431V105.532H113.34V107.431H112.988ZM113.854 107.431V105.532H114.635C114.803 105.532 114.947 105.559 115.066 105.613C115.188 105.668 115.281 105.745 115.346 105.847C115.411 105.948 115.443 106.068 115.443 106.207C115.443 106.347 115.411 106.467 115.346 106.568C115.281 106.668 115.188 106.744 115.066 106.799C114.947 106.851 114.803 106.877 114.635 106.877H114.049L114.207 106.717V107.431H113.854ZM115.096 107.431L114.616 106.742H114.993L115.476 107.431H115.096ZM114.207 106.755L114.049 106.587H114.619C114.774 106.587 114.891 106.554 114.969 106.487C115.048 106.42 115.088 106.327 115.088 106.207C115.088 106.086 115.048 105.993 114.969 105.928C114.891 105.863 114.774 105.83 114.619 105.83H114.049L114.207 105.657V106.755Z" fill="black"/>
<rect x="94.0435" y="79.6841" width="20.0254" height="6.29369" rx="1.71646" transform="rotate(90 94.0435 79.6841)" fill="#D9D9D9"/>
<path d="M90.872 87.0148C90.872 86.8702 90.8956 86.7354 90.9426 86.6107C90.9914 86.4877 91.0592 86.3801 91.146 86.2879C91.2346 86.1975 91.3386 86.1269 91.4579 86.0763C91.5773 86.0257 91.7075 86.0004 91.8485 86.0004C91.9896 86.0004 92.1198 86.0257 92.2391 86.0763C92.3585 86.1269 92.4615 86.1984 92.5483 86.2906C92.6369 86.3828 92.7047 86.4904 92.7518 86.6134C92.8006 86.7363 92.825 86.8711 92.825 87.0175C92.825 87.173 92.7979 87.315 92.7436 87.4434C92.6912 87.5718 92.6125 87.6803 92.5076 87.7689L92.2934 87.541C92.3675 87.4723 92.4227 87.3955 92.4588 87.3105C92.4968 87.2255 92.5158 87.1333 92.5158 87.0338C92.5158 86.9344 92.4995 86.843 92.467 86.7599C92.4344 86.6785 92.3883 86.607 92.3286 86.5456C92.2689 86.4859 92.1984 86.4389 92.1171 86.4045C92.0357 86.372 91.9462 86.3557 91.8485 86.3557C91.7509 86.3557 91.6614 86.372 91.58 86.4045C91.4986 86.4389 91.4281 86.4859 91.3684 86.5456C91.3087 86.607 91.2626 86.6785 91.2301 86.7599C91.1975 86.843 91.1813 86.9344 91.1813 87.0338C91.1813 87.1333 91.1993 87.2255 91.2355 87.3105C91.2735 87.3955 91.3304 87.4723 91.4064 87.541L91.1894 87.7689C91.0863 87.6803 91.0077 87.5718 90.9534 87.4434C90.8992 87.315 90.872 87.1721 90.872 87.0148ZM92.7979 89.4413V89.7939H90.8992V89.4413H92.7979ZM90.8992 88.4594V88.1067H92.7979V88.4594H90.8992ZM91.7129 89.4684V88.4295H92.014V89.4684H91.7129ZM90.8992 90.0341L92.7979 90.8885V91.2357L90.8992 92.0929V91.724L92.6107 90.9889V91.1299L90.8992 90.3976V90.0341ZM91.3386 90.4274L91.6153 90.5224V91.5477L91.3386 91.6426V90.4274ZM90.8992 92.3343H92.7979V92.6869H90.8992V92.3343ZM90.8992 93.2005H92.7979V93.9817C92.7979 94.1498 92.7707 94.2936 92.7165 94.413C92.6623 94.5341 92.5845 94.6272 92.4832 94.6923C92.382 94.7574 92.2617 94.79 92.1225 94.79C91.9832 94.79 91.863 94.7574 91.7617 94.6923C91.6623 94.6272 91.5854 94.5341 91.5312 94.413C91.4787 94.2936 91.4525 94.1498 91.4525 93.9817V93.3958L91.6125 93.5531H90.8992V93.2005ZM90.8992 94.4428L91.5881 93.9627V94.3397L90.8992 94.8225V94.4428ZM91.5746 93.5531L91.7427 93.3958V93.9654C91.7427 94.1209 91.7762 94.2376 91.8431 94.3153C91.91 94.3949 92.0031 94.4347 92.1225 94.4347C92.2436 94.4347 92.3368 94.3949 92.4019 94.3153C92.467 94.2376 92.4995 94.1209 92.4995 93.9654V93.3958L92.6731 93.5531H91.5746Z" fill="black"/>
<path d="M129.517 43.6382L129.517 40.7774" stroke="black" stroke-width="1.14431" stroke-linecap="round"/>
</svg>
