<svg width="213" height="175" viewBox="0 0 213 175" fill="none" xmlns="http://www.w3.org/2000/svg">
    <rect x="1.45934" y="6.1234" width="209.964" height="167.353" rx="1.47354" stroke="black" stroke-width="1.23508"/>
    <path d="M63.5742 6.50488L63.5742 67.1461" stroke="black" stroke-width="1.39405" stroke-linecap="round"/>
    <path d="M134.671 67.1465L63.5743 67.1465" stroke="black" stroke-width="1.39405" stroke-linecap="round"/>
    <path d="M133.974 40.66C133.975 41.0449 134.287 41.357 134.672 41.3569C135.057 41.3568 135.369 41.0447 135.369 40.6598L133.974 40.66ZM133.969 5.8087L133.974 40.66L135.369 40.6598L135.363 5.80848L133.969 5.8087Z" fill="black"/>
    <path d="M134.674 55.9941L134.676 67.1465" stroke="black" stroke-width="1.39405" stroke-linecap="round"/>
    <path d="M89.4215 41.1016L86.298 31.6772H88.1155L90.9025 40.1995H90.0004L92.895 31.6772H94.5106L97.3245 40.1995H96.4494L99.3036 31.6772H100.973L97.8496 41.1016H95.9916L93.4201 33.414H93.9048L91.2929 41.1016H89.4215ZM106.669 41.2362C105.951 41.2362 105.282 41.1195 104.663 40.8861C104.053 40.6438 103.519 40.3072 103.061 39.8764C102.612 39.4366 102.262 38.9205 102.011 38.3281C101.759 37.7357 101.634 37.0895 101.634 36.3894C101.634 35.6893 101.759 35.043 102.011 34.4506C102.262 33.8583 102.617 33.3466 103.074 32.9158C103.532 32.476 104.066 32.1394 104.676 31.9061C105.287 31.6637 105.955 31.5425 106.683 31.5425C107.454 31.5425 108.159 31.6772 108.796 31.9464C109.434 32.2067 109.972 32.5972 110.412 33.1178L109.281 34.1814C108.94 33.8134 108.558 33.5396 108.137 33.3601C107.715 33.1716 107.257 33.0774 106.763 33.0774C106.27 33.0774 105.816 33.1582 105.403 33.3197C105 33.4813 104.645 33.7102 104.34 34.0063C104.044 34.3025 103.81 34.6526 103.64 35.0565C103.478 35.4604 103.397 35.9047 103.397 36.3894C103.397 36.8741 103.478 37.3183 103.64 37.7222C103.81 38.1262 104.044 38.4762 104.34 38.7724C104.645 39.0686 105 39.2975 105.403 39.459C105.816 39.6206 106.27 39.7014 106.763 39.7014C107.257 39.7014 107.715 39.6116 108.137 39.4321C108.558 39.2436 108.94 38.9609 109.281 38.5839L110.412 39.661C109.972 40.1726 109.434 40.563 108.796 40.8323C108.159 41.1016 107.45 41.2362 106.669 41.2362Z" fill="black"/>
    <rect x="8.70801" y="120.294" width="33.4572" height="30.6691" rx="2.09108" transform="rotate(-0.141226 8.70801 120.294)" fill="#D9D9D9"/>
    <path d="M17.2118 137.819L17.2037 134.529L15.9101 134.532L15.9086 133.918L19.2208 133.91L19.2223 134.524L17.9286 134.527L17.9368 137.817L17.2118 137.819ZM19.0264 137.814L20.7733 133.906L21.487 133.905L23.2587 137.804L22.5003 137.806L20.9805 134.291L21.2705 134.29L19.7736 137.812L19.0264 137.814ZM19.8327 136.909L20.0265 136.34L22.1343 136.334L22.3308 136.903L19.8327 136.909ZM23.7551 137.802L23.7455 133.899L25.5745 133.895C26.0429 133.893 26.4 133.986 26.6458 134.171C26.8916 134.352 27.0149 134.597 27.0156 134.906C27.0162 135.114 26.9683 135.293 26.872 135.442C26.7757 135.587 26.6458 135.701 26.4825 135.783C26.3228 135.861 26.1482 135.901 25.9586 135.901L26.0585 135.7C26.2778 135.7 26.4749 135.74 26.6499 135.821C26.8248 135.899 26.9626 136.014 27.0634 136.166C27.1678 136.318 27.2203 136.508 27.2209 136.734C27.2217 137.069 27.0941 137.33 26.8381 137.516C26.582 137.703 26.2012 137.796 25.6956 137.798L23.7551 137.802ZM24.4786 137.232L25.6496 137.229C25.921 137.228 26.1291 137.183 26.2738 137.094C26.4186 137.004 26.4907 136.861 26.4902 136.664C26.4898 136.47 26.4169 136.329 26.2717 136.24C26.1265 136.148 25.9182 136.102 25.6468 136.103L24.4201 136.106L24.4187 135.542L25.5005 135.54C25.7533 135.539 25.9465 135.494 26.0801 135.405C26.2174 135.315 26.2858 135.181 26.2854 135.003C26.2849 134.82 26.2158 134.685 26.0781 134.596C25.944 134.507 25.7506 134.463 25.4978 134.464L24.4718 134.466L24.4786 137.232ZM27.9972 137.792L27.9875 133.889L28.7124 133.887L28.7205 137.177L30.7614 137.172L30.7629 137.785L27.9972 137.792ZM31.9988 135.501L33.9393 135.497L33.9407 136.093L32.0002 136.098L31.9988 135.501ZM32.0586 137.174L34.2612 137.169L34.2627 137.777L31.3352 137.784L31.3256 133.88L34.1751 133.873L34.1766 134.481L32.052 134.486L32.0586 137.174Z" fill="black"/>
    <rect x="11.5186" y="155.202" width="26.6137" height="8.36431" rx="2.28117" transform="rotate(-0.141226 11.5186 155.202)" fill="#D9D9D9"/>
    <path d="M21.13 159.953C20.9537 159.954 20.7896 159.925 20.6374 159.869C20.4875 159.809 20.3562 159.727 20.2436 159.622C20.1332 159.514 20.0469 159.388 19.9849 159.242C19.9229 159.097 19.8916 158.939 19.8912 158.767C19.8908 158.595 19.9212 158.436 19.9826 158.291C20.0439 158.145 20.1306 158.019 20.2427 157.913C20.3548 157.805 20.4856 157.722 20.6353 157.664C20.7849 157.605 20.949 157.574 21.1274 157.574C21.3169 157.574 21.4899 157.606 21.6465 157.672C21.803 157.735 21.9354 157.831 22.0437 157.958L21.7668 158.22C21.6828 158.13 21.589 158.063 21.4854 158.019C21.3817 157.973 21.2693 157.95 21.1482 157.951C21.027 157.951 20.9158 157.971 20.8146 158.011C20.7155 158.051 20.6287 158.107 20.5539 158.18C20.4814 158.253 20.4244 158.339 20.3828 158.438C20.3433 158.538 20.3238 158.647 20.3241 158.766C20.3244 158.885 20.3445 158.994 20.3844 159.093C20.4265 159.192 20.484 159.277 20.5568 159.35C20.6319 159.422 20.7191 159.478 20.8183 159.518C20.9197 159.557 21.031 159.577 21.1522 159.576C21.2733 159.576 21.3856 159.554 21.4891 159.51C21.5925 159.463 21.6859 159.393 21.7694 159.301L22.0477 159.564C21.94 159.69 21.8081 159.786 21.6518 159.853C21.4956 159.919 21.3216 159.953 21.13 159.953ZM24.0802 157.6L24.5098 157.599L24.5155 159.912L24.0859 159.913L24.0802 157.6ZM22.8897 159.916L22.4601 159.917L22.4544 157.604L22.884 157.603L22.8897 159.916ZM24.1165 158.921L22.8509 158.925L22.85 158.558L24.1156 158.555L24.1165 158.921ZM24.8081 159.911L25.8433 157.595L26.2663 157.594L27.3162 159.905L26.8668 159.906L25.9662 157.823L26.138 157.823L25.2509 159.91L24.8081 159.911ZM25.286 159.375L25.4008 159.037L26.6499 159.034L26.7663 159.371L25.286 159.375ZM27.6104 159.904L27.6047 157.591L28.0342 157.59L28.0399 159.903L27.6104 159.904ZM28.6656 159.902L28.6599 157.589L29.6115 157.586C29.8164 157.586 29.9916 157.618 30.1372 157.684C30.2849 157.75 30.3986 157.844 30.4782 157.967C30.5579 158.091 30.5979 158.237 30.5983 158.407C30.5987 158.576 30.5594 158.723 30.4804 158.846C30.4014 158.968 30.2882 159.062 30.1407 159.128C29.9955 159.192 29.8205 159.225 29.6156 159.225L28.9018 159.227L29.093 159.031L29.0951 159.901L28.6656 159.902ZM30.179 159.898L29.592 159.06L30.0514 159.059L30.6416 159.897L30.179 159.898ZM29.0931 159.078L28.901 158.873L29.5949 158.872C29.7843 158.871 29.9263 158.83 30.0209 158.748C30.1176 158.667 30.1658 158.553 30.1654 158.408C30.165 158.26 30.1163 158.147 30.0192 158.068C29.9243 157.989 29.7821 157.949 29.5926 157.95L28.8987 157.951L29.0898 157.739L29.0931 159.078Z" fill="black"/>
    <rect x="56.1157" y="124.359" width="24.3959" height="7.66728" rx="2.09108" transform="rotate(89.8588 56.1157 124.359)" fill="#D9D9D9"/>
    <path d="M51.7099 133.209C51.7094 133.033 51.7377 132.869 51.7946 132.717C51.8537 132.567 51.936 132.435 52.0414 132.323C52.1491 132.212 52.2755 132.126 52.4208 132.064C52.566 132.002 52.7246 131.971 52.8964 131.97C53.0682 131.97 53.2269 132 53.3725 132.062C53.518 132.123 53.6438 132.21 53.7498 132.322C53.858 132.434 53.941 132.565 53.9986 132.714C54.0585 132.864 54.0886 133.028 54.089 133.207C54.0895 133.396 54.0569 133.569 53.9912 133.726C53.9277 133.882 53.8322 134.015 53.7047 134.123L53.4429 133.846C53.5331 133.762 53.6 133.668 53.6438 133.564C53.6898 133.461 53.7127 133.348 53.7124 133.227C53.7121 133.106 53.692 132.995 53.6521 132.894C53.6122 132.795 53.5558 132.708 53.4829 132.633C53.41 132.561 53.324 132.503 53.2247 132.462C53.1255 132.422 53.0164 132.403 52.8975 132.403C52.7785 132.403 52.6695 132.424 52.5705 132.463C52.4714 132.506 52.3857 132.563 52.3132 132.636C52.2406 132.711 52.1847 132.798 52.1453 132.897C52.1059 132.999 52.0863 133.11 52.0866 133.231C52.0869 133.352 52.1092 133.465 52.1535 133.568C52.2 133.672 52.2697 133.765 52.3624 133.849L52.0987 134.127C51.9729 134.019 51.8767 133.887 51.8103 133.731C51.7438 133.575 51.7103 133.401 51.7099 133.209ZM54.0633 136.159L54.0643 136.589L51.7512 136.595L51.7502 136.165L54.0633 136.159ZM51.7472 134.969L51.7462 134.539L54.0593 134.534L54.0603 134.963L51.7472 134.969ZM52.7416 136.196L52.7385 134.93L53.1053 134.929L53.1084 136.195L52.7416 136.196ZM51.752 136.887L54.0676 137.922L54.0687 138.345L51.7581 139.395L51.757 138.946L53.8399 138.045L53.8403 138.217L51.7531 137.33L51.752 136.887ZM52.2885 137.365L52.6258 137.48L52.6289 138.729L52.2921 138.845L52.2885 137.365ZM51.7589 139.689L54.072 139.684L54.073 140.113L51.7599 140.119L51.7589 139.689ZM51.7615 140.745L54.0746 140.739L54.0769 141.691C54.0774 141.896 54.0448 142.071 53.9791 142.216C53.9133 142.364 53.8189 142.478 53.6957 142.557C53.5726 142.637 53.4262 142.677 53.2565 142.677C53.0869 142.678 52.9403 142.639 52.8168 142.56C52.6954 142.481 52.6015 142.367 52.535 142.22C52.4708 142.075 52.4384 141.9 52.4379 141.695L52.4362 140.981L52.6316 141.172L51.7625 141.174L51.7615 140.745ZM51.7652 142.258L52.6031 141.671L52.6042 142.13L51.7663 142.721L51.7652 142.258ZM52.5853 141.172L52.7897 140.98L52.7914 141.674C52.7919 141.863 52.833 142.005 52.9148 142.1C52.9965 142.197 53.1101 142.245 53.2555 142.245C53.4031 142.244 53.5164 142.195 53.5955 142.098C53.6745 142.003 53.7138 141.861 53.7134 141.672L53.7117 140.978L53.9236 141.169L52.5853 141.172Z" fill="black"/>
    <rect x="49.9345" y="0.629005" width="11.0563" height="37.5432" rx="0.997468" transform="rotate(90 49.9345 0.629005)" stroke="black" stroke-width="0.793167"/>
    <path d="M10.645 98.2393L9.04325 93.4062H9.97533L11.4045 97.7767H10.9419L12.4264 93.4062H13.2549L14.6979 97.7767H14.2491L15.7128 93.4062H16.5689L14.9671 98.2393H14.0143L12.6956 94.2969H12.9442L11.6047 98.2393H10.645ZM16.4615 98.2393L18.6364 93.4062H19.5202L21.7019 98.2393H20.7629L18.8919 93.8826H19.2509L17.3867 98.2393H16.4615ZM17.4627 97.1208L17.7043 96.4165H20.3142L20.5558 97.1208H17.4627ZM22.3166 98.2393V93.4062H24.305C24.7331 93.4062 25.099 93.4753 25.4028 93.6134C25.7112 93.7515 25.9482 93.9494 26.1139 94.2071C26.2796 94.4649 26.3625 94.771 26.3625 95.1254C26.3625 95.4798 26.2796 95.7859 26.1139 96.0437C25.9482 96.2968 25.7112 96.4925 25.4028 96.6306C25.099 96.764 24.7331 96.8308 24.305 96.8308H22.8137L23.2141 96.4234V98.2393H22.3166ZM25.4787 98.2393L24.2567 96.4856H25.2164L26.4453 98.2393H25.4787ZM23.2141 96.5201L22.8137 96.092H24.2636C24.6594 96.092 24.9563 96.0069 25.1542 95.8366C25.3568 95.6663 25.458 95.4292 25.458 95.1254C25.458 94.817 25.3568 94.58 25.1542 94.4143C24.9563 94.2486 24.6594 94.1657 24.2636 94.1657H22.8137L23.2141 93.7238V96.5201ZM27.3667 98.2393V93.4062H29.4794C30.0041 93.4062 30.4644 93.5075 30.8603 93.71C31.2561 93.9126 31.5645 94.1933 31.7854 94.5524C32.0064 94.9114 32.1169 95.3348 32.1169 95.8227C32.1169 96.3061 32.0064 96.7295 31.7854 97.0931C31.5645 97.4522 31.2561 97.7329 30.8603 97.9355C30.4644 98.138 30.0041 98.2393 29.4794 98.2393H27.3667ZM28.2642 97.4798H29.438C29.8016 97.4798 30.1146 97.4107 30.377 97.2727C30.6439 97.1346 30.8488 96.9412 30.9914 96.6927C31.1387 96.4441 31.2124 96.1542 31.2124 95.8227C31.2124 95.4867 31.1387 95.1968 30.9914 94.9528C30.8488 94.7043 30.6439 94.5109 30.377 94.3728C30.1146 94.2348 29.8016 94.1657 29.438 94.1657H28.2642V97.4798ZM33.0708 98.2393V93.4062H35.0593C35.4873 93.4062 35.8533 93.4753 36.1571 93.6134C36.4655 93.7515 36.7025 93.9494 36.8682 94.2071C37.0339 94.4649 37.1168 94.771 37.1168 95.1254C37.1168 95.4798 37.0339 95.7859 36.8682 96.0437C36.7025 96.2968 36.4655 96.4925 36.1571 96.6306C35.8533 96.764 35.4873 96.8308 35.0593 96.8308H33.5679L33.9684 96.4234V98.2393H33.0708ZM36.233 98.2393L35.0109 96.4856H35.9706L37.1996 98.2393H36.233ZM33.9684 96.5201L33.5679 96.092H35.0178C35.4137 96.092 35.7106 96.0069 35.9085 95.8366C36.111 95.6663 36.2123 95.4292 36.2123 95.1254C36.2123 94.817 36.111 94.58 35.9085 94.4143C35.7106 94.2486 35.4137 94.1657 35.0178 94.1657H33.5679L33.9684 93.7238V96.5201ZM40.3856 98.3083C40.0081 98.3083 39.6606 98.2462 39.343 98.1219C39.0254 97.9976 38.7492 97.825 38.5145 97.6041C38.2798 97.3785 38.0979 97.1162 37.9691 96.817C37.8402 96.5132 37.7757 96.1818 37.7757 95.8227C37.7757 95.4637 37.8402 95.1346 37.9691 94.8354C38.0979 94.5316 38.2798 94.2693 38.5145 94.0483C38.7492 93.8228 39.0254 93.6479 39.343 93.5236C39.6606 93.3993 40.0058 93.3372 40.3787 93.3372C40.7561 93.3372 41.1013 93.3993 41.4143 93.5236C41.7319 93.6479 42.0081 93.8228 42.2428 94.0483C42.4776 94.2693 42.6594 94.5316 42.7883 94.8354C42.9172 95.1346 42.9816 95.4637 42.9816 95.8227C42.9816 96.1818 42.9172 96.5132 42.7883 96.817C42.6594 97.1208 42.4776 97.3831 42.2428 97.6041C42.0081 97.825 41.7319 97.9976 41.4143 98.1219C41.1013 98.2462 40.7584 98.3083 40.3856 98.3083ZM40.3787 97.5212C40.6226 97.5212 40.8482 97.4798 41.0553 97.3969C41.2624 97.3141 41.4419 97.1967 41.5938 97.0448C41.7457 96.8883 41.8631 96.7088 41.9459 96.5063C42.0334 96.2991 42.0771 96.0713 42.0771 95.8227C42.0771 95.5742 42.0334 95.3487 41.9459 95.1461C41.8631 94.939 41.7457 94.7595 41.5938 94.6076C41.4419 94.4511 41.2624 94.3314 41.0553 94.2486C40.8482 94.1657 40.6226 94.1243 40.3787 94.1243C40.1347 94.1243 39.9092 94.1657 39.702 94.2486C39.4995 94.3314 39.32 94.4511 39.1635 94.6076C39.0116 94.7595 38.8919 94.939 38.8045 95.1461C38.7216 95.3487 38.6802 95.5742 38.6802 95.8227C38.6802 96.0667 38.7216 96.2922 38.8045 96.4994C38.8919 96.7065 39.0116 96.8883 39.1635 97.0448C39.3154 97.1967 39.4949 97.3141 39.702 97.3969C39.9092 97.4798 40.1347 97.5212 40.3787 97.5212ZM43.933 98.2393V93.4062H46.1976C46.7776 93.4062 47.2194 93.5213 47.5232 93.7515C47.827 93.977 47.9789 94.2808 47.9789 94.6628C47.9789 94.9206 47.9191 95.1415 47.7994 95.3256C47.6797 95.5052 47.5186 95.6455 47.3161 95.7468C47.1182 95.8435 46.9018 95.8918 46.6671 95.8918L46.7914 95.6432C47.0629 95.6432 47.3069 95.6939 47.5232 95.7951C47.7396 95.8918 47.9099 96.0345 48.0341 96.2232C48.163 96.4119 48.2275 96.6467 48.2275 96.9274C48.2275 97.3417 48.0687 97.6639 47.7511 97.894C47.4335 98.1242 46.9617 98.2393 46.3357 98.2393H43.933ZM44.8305 97.535H46.2805C46.6165 97.535 46.8742 97.4798 47.0537 97.3693C47.2332 97.2588 47.323 97.0816 47.323 96.8377C47.323 96.5983 47.2332 96.4234 47.0537 96.313C46.8742 96.1979 46.6165 96.1403 46.2805 96.1403H44.7615V95.443H46.1009C46.4139 95.443 46.6533 95.3878 46.819 95.2773C46.9893 95.1668 47.0744 95.0011 47.0744 94.7802C47.0744 94.5547 46.9893 94.3867 46.819 94.2762C46.6533 94.1657 46.4139 94.1105 46.1009 94.1105H44.8305V97.535ZM50.0139 95.4154H52.4166V96.1542H50.0139V95.4154ZM50.0829 97.4867H52.8101V98.2393H49.1854V93.4062H52.7135V94.1588H50.0829V97.4867Z" fill="black"/>
</svg>
