<svg width="152" height="152" viewBox="0 0 152 152" fill="none" xmlns="http://www.w3.org/2000/svg">
    <path d="M60.409 141L58.285 134.591H59.5209L61.416 140.387H60.8026L62.771 134.591H63.8696L65.783 140.387H65.1879L67.1288 134.591H68.264L66.1401 141H64.8766L63.128 135.772H63.4576L61.6815 141H60.409ZM72.1373 141.092C71.649 141.092 71.1943 141.012 70.7732 140.854C70.3582 140.689 69.995 140.46 69.6837 140.167C69.3786 139.868 69.1405 139.517 68.9696 139.114C68.7987 138.711 68.7133 138.272 68.7133 137.796C68.7133 137.32 68.7987 136.88 68.9696 136.477C69.1405 136.075 69.3816 135.727 69.6929 135.434C70.0042 135.135 70.3673 134.906 70.7823 134.747C71.1974 134.582 71.6521 134.5 72.1465 134.5C72.6713 134.5 73.1505 134.591 73.5838 134.775C74.0171 134.952 74.3834 135.217 74.6824 135.571L73.9134 136.294C73.6815 136.044 73.4221 135.858 73.1352 135.736C72.8483 135.608 72.5371 135.544 72.2014 135.544C71.8657 135.544 71.5575 135.598 71.2767 135.708C71.0021 135.818 70.761 135.974 70.5535 136.175C70.3521 136.377 70.1934 136.615 70.0774 136.889C69.9675 137.164 69.9126 137.466 69.9126 137.796C69.9126 138.125 69.9675 138.427 70.0774 138.702C70.1934 138.977 70.3521 139.215 70.5535 139.416C70.761 139.618 71.0021 139.773 71.2767 139.883C71.5575 139.993 71.8657 140.048 72.2014 140.048C72.5371 140.048 72.8483 139.987 73.1352 139.865C73.4221 139.737 73.6815 139.544 73.9134 139.288L74.6824 140.02C74.3834 140.368 74.0171 140.634 73.5838 140.817C73.1505 141 72.6683 141.092 72.1373 141.092Z" fill="black"/>
    <rect x="0.62" y="0.62" width="150.76" height="150.76" rx="1.38" stroke="black" stroke-width="1.24"/>
    <path d="M34 96.5C34.2761 96.5 34.5 96.2761 34.5 96C34.5 95.7239 34.2761 95.5 34 95.5V96.5ZM0 96.5H34V95.5H0V96.5Z" fill="black"/>
    <line x1="34.5" y1="151.5" x2="34.5" y2="96.5" stroke="black" stroke-linecap="round"/>
    <path d="M98.4999 122.991C98.4952 122.715 98.2675 122.495 97.9914 122.5C97.7153 122.505 97.4953 122.733 97.5001 123.009L98.4999 122.991ZM97.5001 123.009L98.0001 152.009L98.9999 151.991L98.4999 122.991L97.5001 123.009Z" fill="black"/>
    <path d="M98 123C98.2761 123 98.5 122.776 98.5 122.5C98.5 122.224 98.2761 122 98 122L98 123ZM98 122L35 122L35 123L98 123L98 122Z" fill="black"/>
</svg>
