<?xml version="1.0" standalone="no"?>
<!DOCTYPE svg PUBLIC "-//W3C//DTD SVG 20010904//EN"
 "http://www.w3.org/TR/2001/REC-SVG-20010904/DTD/svg10.dtd">
<svg version="1.0" xmlns="http://www.w3.org/2000/svg"
 width="187.000000pt" height="234.000000pt" viewBox="0 0 187.000000 234.000000"
 preserveAspectRatio="xMidYMid meet">

<g transform="translate(0.000000,234.000000) scale(0.100000,-0.100000)"
fill="#000000" stroke="none">
<path d="M1085 2311 c-11 -5 -33 -10 -50 -10 -27 -1 -78 -23 -155 -66 -36 -20
-64 -52 -94 -110 l-26 -50 0 -797 c0 -470 4 -807 9 -821 13 -33 80 -101 122
-123 114 -58 146 -128 86 -184 -16 -16 -35 -20 -86 -20 -111 0 -208 49 -283
143 -126 159 -100 287 65 324 52 11 51 26 -3 39 -24 6 -57 23 -73 39 -28 27
-29 31 -23 99 19 212 19 216 0 259 -22 53 -85 113 -144 139 -94 42 -248 7
-350 -78 -54 -44 -84 -84 -73 -95 8 -8 22 -4 49 15 46 31 63 32 105 7 38 -23
66 -67 79 -124 25 -113 93 -214 177 -264 l44 -25 -74 -33 c-111 -48 -143 -71
-178 -128 -59 -96 -39 -213 51 -289 76 -66 225 -114 380 -123 180 -11 298 23
386 112 90 92 84 29 84 923 0 709 -2 790 -16 821 -23 47 -50 74 -108 111 -28
17 -66 45 -83 62 -28 26 -33 37 -33 77 0 44 2 48 37 64 77 37 233 -9 317 -92
170 -169 149 -337 -47 -368 -52 -8 -42 -28 19 -38 34 -5 56 -16 73 -34 23 -26
23 -28 16 -184 l-7 -157 26 -45 c46 -79 147 -137 236 -137 58 0 172 44 227 88
103 82 128 135 42 92 -76 -39 -146 -4 -170 84 -19 68 -48 145 -66 174 -28 46
-86 103 -125 123 -21 11 -38 23 -38 28 0 4 19 14 43 21 187 56 273 184 222
331 -9 24 -26 54 -38 68 -36 38 -124 91 -190 113 -90 29 -327 55 -362 39z"/>
</g>
</svg>
