<svg width="29" height="80" viewBox="0 0 29 80" fill="none" xmlns="http://www.w3.org/2000/svg">
<path d="M7.47611 22.1075H14.4972C14.4994 22.1075 14.5016 22.1075 14.5039 22.1075C14.5061 22.1075 14.5083 22.1075 14.5106 22.1075H21.3346C24.6119 22.1075 27.2511 24.7349 27.2511 27.9545V50.9508H23.0669H22.0542V51.9635V78.3897H6.75654V51.9635V50.9508H5.74381H1.55961V27.9545C1.55961 24.7349 4.19886 22.1075 7.47611 22.1075ZM14.5039 20.0821C14.5018 20.0821 14.4998 20.082 14.4978 20.082C9.30988 20.0788 5.12274 15.9171 5.12274 10.8052C5.12274 5.69135 9.31316 1.52836 14.5039 1.52836C19.6946 1.52836 23.885 5.69135 23.885 10.8052C23.885 15.9171 19.6978 20.0788 14.51 20.082C14.5079 20.082 14.5059 20.0821 14.5039 20.0821Z" stroke="black" stroke-width="2.02547"/>
</svg>
