<svg width="37" height="37" viewBox="0 0 37 37" fill="none" xmlns="http://www.w3.org/2000/svg">
<path d="M27.7406 0H9.25942C4.15366 0 0 4.33816 0 9.67071V27.3293C0 32.6618 4.15366 37 9.25942 37H27.7406C32.8463 37 37 32.6618 37 27.3293V9.67071C37 4.33816 32.8463 0 27.7406 0ZM3.26643 9.67071C3.26643 6.21985 5.95532 3.41149 9.25942 3.41149H27.7406C31.0447 3.41149 33.7336 6.21985 33.7336 9.67071V27.3293C33.7336 30.7801 31.0447 33.5885 27.7406 33.5885H9.25942C5.95532 33.5885 3.26643 30.7801 3.26643 27.3293V9.67071Z" fill="black"/>
<path d="M18.5 27.4932C23.248 27.4932 27.1129 23.4588 27.1129 18.4978C27.1129 13.5368 23.2501 9.50244 18.5 9.50244C13.75 9.50244 9.88721 13.5368 9.88721 18.4978C9.88721 23.4588 13.75 27.4932 18.5 27.4932ZM18.5 12.9161C21.4484 12.9161 23.8464 15.4207 23.8464 18.5C23.8464 21.5793 21.4484 24.0839 18.5 24.0839C15.5517 24.0839 13.1536 21.5793 13.1536 18.5C13.1536 15.4207 15.5517 12.9161 18.5 12.9161Z" fill="black"/>
<path d="M27.9101 10.9558C29.1886 10.9558 30.2307 9.86962 30.2307 8.53211C30.2307 7.1946 29.1907 6.1084 27.9101 6.1084C26.6295 6.1084 25.5895 7.1946 25.5895 8.53211C25.5895 9.86962 26.6295 10.9558 27.9101 10.9558Z" fill="black"/>
</svg>
