<svg width="41" height="41" viewBox="0 0 41 41" fill="none" xmlns="http://www.w3.org/2000/svg">
<g clip-path="url(#clip0_130_79)">
<path fill-rule="evenodd" clip-rule="evenodd" d="M40.0604 10.1611C40.344 9.22838 40.0604 8.54163 38.7023 8.54163H34.2179C33.0768 8.54163 32.5506 9.13442 32.2653 9.78871C32.2653 9.78871 29.9847 15.2485 26.7542 18.795C25.7087 19.8235 25.2338 20.1498 24.6632 20.1498C24.3779 20.1498 23.9491 19.8235 23.9491 18.889V10.1611C23.9491 9.04046 23.6348 8.54163 22.685 8.54163H15.633C14.9206 8.54163 14.4918 9.06096 14.4918 9.55467C14.4918 10.6155 16.1079 10.8615 16.2736 13.8477V20.336C16.2736 21.759 16.0122 22.017 15.4416 22.017C13.9212 22.017 10.2227 16.5315 8.02746 10.2551C7.60208 9.03363 7.17158 8.54163 6.02529 8.54163H1.5375C0.25625 8.54163 0 9.13442 0 9.78871C0 10.9538 1.52042 16.7416 7.08104 24.3967C10.7881 29.6242 16.0071 32.4583 20.7614 32.4583C23.6126 32.4583 23.9645 31.8296 23.9645 30.7448V26.7935C23.9645 25.5344 24.2344 25.2833 25.1381 25.2833C25.8044 25.2833 26.9438 25.6113 29.6054 28.1311C32.6463 31.119 33.1468 32.4583 34.8585 32.4583H39.3429C40.6242 32.4583 41.2665 31.8296 40.8975 30.586C40.4909 29.3491 39.0388 27.5537 37.1135 25.4234C36.068 24.2105 34.4998 22.9036 34.0232 22.2493C33.3586 21.4105 33.5483 21.0364 34.0232 20.2898C34.0232 20.2898 39.4898 12.7288 40.0587 10.1611" fill="black"/>
</g>
<defs>
<clipPath id="clip0_130_79">
<rect width="41" height="41" fill="white"/>
</clipPath>
</defs>
</svg>
