<svg width="68" height="29" viewBox="0 0 68 29" fill="none" xmlns="http://www.w3.org/2000/svg">
<g opacity="0.7">
<path d="M11.167 9.49609H6.04918C2.83694 9.49609 0.23291 12.1001 0.23291 15.3124V17.6757C0.23291 20.8879 2.83694 23.4919 6.04918 23.4919H11.167C14.3793 23.4919 16.9833 20.8879 16.9833 17.6757V15.3124C16.9833 12.1001 14.3793 9.49609 11.167 9.49609Z" fill="#FB0004" stroke="#FB0004" stroke-width="0.465303"/>
<path d="M61.9206 10.1851H20.7148C18.5305 10.1851 16.7598 11.9558 16.7598 14.1401V19.5372C16.7598 21.7215 18.5305 23.4923 20.7148 23.4923H61.9206C64.1049 23.4923 65.8757 21.7215 65.8757 19.5372V14.1401C65.8757 11.9558 64.1049 10.1851 61.9206 10.1851Z" fill="#FB0004" stroke="#FB0004" stroke-width="0.465303"/>
<path d="M66.7969 5.13184V27.8565Z" fill="#FB0004"/>
<path d="M66.7969 5.13184V27.8565" stroke="#FB0004" stroke-width="1.14536" stroke-linecap="round"/>
<path d="M0.688477 1V27.8564Z" fill="#FB0004"/>
<path d="M0.688477 1V27.8564" stroke="#FB0004" stroke-width="1.14536" stroke-linecap="round"/>
<path d="M0.187631 21.8463H65.9205V25.6028H0.187631V21.8463Z" fill="#FB0004" stroke="#FB0004" stroke-width="0.375263"/>
</g>
</svg>
