<svg width="12" height="20" viewBox="0 0 12 20" fill="none" xmlns="http://www.w3.org/2000/svg">
<path d="M2.86738 0.396494L11.4597 8.98882C11.5799 9.10855 11.6752 9.25083 11.7402 9.40749C11.8053 9.56416 11.8388 9.73212 11.8388 9.90175C11.8388 10.0714 11.8053 10.2393 11.7402 10.396C11.6752 10.5527 11.5799 10.6949 11.4597 10.8147L2.86738 19.407C2.62525 19.6491 2.29686 19.7852 1.95444 19.7852C1.61203 19.7852 1.28363 19.6491 1.04151 19.407C0.799383 19.1649 0.663359 18.8365 0.663359 18.4941C0.663359 18.1517 0.799383 17.8233 1.04151 17.5811L8.72197 9.90068L1.04044 2.22021C0.79831 1.97809 0.662285 1.6497 0.662285 1.30728C0.662285 0.964865 0.79831 0.636471 1.04044 0.394346C1.28256 0.152222 1.61095 0.0161934 1.95337 0.0161934C2.29579 0.0161934 2.62418 0.152222 2.8663 0.394346L2.86738 0.396494Z" fill="white"/>
</svg>
