<svg width="50" height="50" viewBox="0 0 50 50" fill="none" xmlns="http://www.w3.org/2000/svg">
<rect x="0.245117" y="49.748" width="49.7333" height="49.7333" rx="24.8667" transform="rotate(-90 0.245117 49.748)" fill="#0F478D"/>
<path d="M19.7642 24.2136C19.395 24.2136 19.0957 24.5129 19.0957 24.8821C19.0957 25.2512 19.395 25.5505 19.7642 25.5505L29.1799 25.5505L25.9761 28.7544C25.715 29.0154 25.715 29.4387 25.9761 29.6997C26.2371 29.9608 26.6604 29.9608 26.9214 29.6997L30.7937 25.8274C31.3158 25.3053 31.3158 24.4588 30.7937 23.9367L26.9214 20.0644C26.6604 19.8034 26.2371 19.8034 25.9761 20.0644C25.715 20.3255 25.715 20.7487 25.9761 21.0098L29.1799 24.2136L19.7642 24.2136Z" fill="white"/>
</svg>
