<svg width="885" height="559" viewBox="0 0 885 559" fill="none" xmlns="http://www.w3.org/2000/svg">
<mask id="mask0_674_922" style="mask-type:alpha" maskUnits="userSpaceOnUse" x="0" y="0" width="907" height="559">
<path d="M628.124 205.152C636.624 228.348 634.915 260.208 634.709 264.041L634.7 264.216C634.362 270.636 633.315 276.976 631.881 283.272C654.458 260.266 680.562 233.799 697.769 217.392C703.932 211.516 708.916 203.782 717.048 200.485C721.36 198.738 713.393 208.493 710.811 212.107C701.391 225.289 691.08 237.923 681.117 250.769C667.384 268.476 653.169 285.874 639.722 303.763C603.716 351.663 614.056 347.972 620.623 322.898C624.086 309.678 628.849 296.575 631.881 283.272C619.203 296.19 607.637 308.018 599.382 316.359C577.331 338.643 529.18 388.395 501.108 411.819C498.369 414.103 495.204 418.102 492.026 421.086C489.959 425.236 488.268 428.867 487.033 431.861C482.011 444.031 473.37 460.566 482.317 470.599C490.491 479.764 508.702 473.37 521.209 470.183C546.638 463.706 570.223 452.128 594.249 442.085C619.441 431.554 644.04 419.861 668.798 408.494C668.828 408.48 668.859 408.466 668.889 408.452C682.543 402.184 695.008 393.33 709.572 389.144C713.678 387.963 705.35 396.161 702.22 398.87C689.832 409.593 676.563 419.44 663.319 429.269L662.571 429.824C661.92 430.307 608.557 472.483 642.918 434.913C650.088 427.073 659.035 417.94 668.798 408.494C644.04 419.861 619.441 431.554 594.249 442.085C570.223 452.128 546.638 463.706 521.209 470.183C508.702 473.37 490.491 479.764 482.317 470.599C473.37 460.566 482.011 444.031 487.033 431.861C488.268 428.867 489.959 425.236 492.026 421.086C488.646 424.261 485.251 426.288 482.341 423.886C476.407 418.988 486.919 409.706 490.679 403.211C500.755 385.812 512.165 369.075 523.559 352.363L524.867 350.445C542.675 324.319 561.106 298.53 579.633 272.79C585.188 263.942 589.631 256.938 592.377 252.656C598.985 242.35 611.937 222.62 626.472 201.056C645.695 172.535 667.685 140.805 681.427 123.418C683.021 121.4 680.259 128.362 678.876 130.505C662.594 155.735 645.525 180.535 628.124 205.152Z" fill="#1E1E1E"/>
<path d="M112.666 120.044C109.164 134.148 101.726 163.99 100.089 171.723C95.7371 192.282 91.0607 212.821 88.1665 233.587C84.9758 256.481 75.8634 309.825 99.5919 301.923C114.571 296.935 123.931 282.859 134.327 271.784C162.929 241.314 183.626 205.033 212.86 175.069C217.445 170.37 225.757 160.141 230.243 164.873C237.347 172.367 232.357 184.771 231.461 194.69C229.51 216.292 225.118 237.664 221.729 259.124C213.608 310.542 208.429 340.697 199.347 390.523C197.176 402.436 194.206 414.243 192.593 426.227C192.39 427.735 193.126 431.923 193.952 430.602C198.862 422.75 201.765 413.989 205.484 405.612C238.501 331.255 271.386 257.133 308.839 184.479C319.293 164.201 329.407 143.725 341.458 124.196C359.809 94.4587 360.142 106.374 355.594 132.483C350.927 159.281 327.389 251.566 321.639 273.488C315.498 296.896 308.963 320.219 302.482 343.551C297.932 359.934 292.567 376.137 288.547 392.633C287.088 398.621 282.135 405.95 286.071 410.888C288.767 414.271 293.888 406.089 296.522 402.637C316.011 377.092 352.557 313.495 364.515 292.038C380.222 263.855 395.179 235.328 410.054 206.773C429.903 168.669 446.851 129.27 468.536 92.0061C470.219 89.1134 475.456 81.2564 475.515 84.5251C475.687 94.0709 471.596 103.318 468.907 112.558C445.97 191.36 413.129 267.387 388.967 345.798C383.853 362.393 376.534 379.182 377.244 396.383C377.444 401.251 386.846 405.845 391.334 403.199C407.772 393.505 419.614 378.301 431.729 364.25C450.751 342.19 466.946 318.213 484.494 295.157C497.539 278.016 553.854 190.102 592.021 181.583C640.199 170.83 634.955 259.369 634.7 264.216C633.649 284.201 625.724 303.422 620.623 322.898C614.056 347.972 603.716 351.663 639.722 303.763C653.169 285.874 667.384 268.476 681.117 250.769C691.08 237.923 701.391 225.289 710.811 212.107C713.393 208.493 721.36 198.738 717.048 200.485C708.916 203.782 703.932 211.516 697.769 217.392C670.9 243.011 622.336 293.163 599.382 316.359C577.331 338.643 529.18 388.395 501.108 411.819C495.457 416.533 487.987 428.546 482.341 423.886C476.407 418.988 486.919 409.706 490.679 403.211C501.14 385.146 513.04 367.795 524.867 350.445C575.197 276.606 630.509 205.454 678.876 130.505C680.259 128.362 683.021 121.4 681.427 123.418C657.295 153.951 607.725 228.719 592.377 252.656C576.225 277.845 501.309 397.266 487.033 431.862C482.011 444.031 473.37 460.566 482.317 470.599C490.491 479.764 508.702 473.37 521.209 470.183C546.638 463.706 570.223 452.128 594.249 442.085C619.472 431.542 644.1 419.832 668.889 408.452C682.543 402.184 695.008 393.331 709.572 389.144C713.678 387.963 705.35 396.161 702.22 398.87C689.598 409.795 676.063 419.811 662.571 429.824C661.92 430.307 608.557 472.483 642.918 434.913C665.535 410.184 705.835 372.588 733.625 352.893C742.436 346.649 751.691 337.489 762.791 337.959C769.007 338.223 768.382 348.663 767.97 354.348C767.058 366.93 762.213 379.035 758.924 391.292C755.177 405.258 750.252 418.962 746.865 433.003C744.682 442.051 741.198 451.265 742.237 460.465C742.506 462.845 748.189 460.201 749.715 458.249C756.906 449.052 761.984 438.596 767.31 428.397C789.787 385.356 801.458 354.941 822.976 310.571" stroke="#C87532" stroke-width="166.971" stroke-linecap="round"/>
</mask>
<g mask="url(#mask0_674_922)">
<path d="M599.847 399.502C600.064 398.363 600.327 397.157 600.639 395.882C602.299 389.082 605.465 381.016 609.503 372.388C621.915 345.865 642.561 314.039 653.03 297.403C654.056 295.772 688.795 241.353 698.539 230.519C707.887 220.124 687.984 254.802 680.74 267.425L680.408 268.004C652.182 317.19 649.739 318.54 619.783 367.657C617.124 372.017 612.835 378.308 608.591 384.898C608.338 389.686 607.942 396.5 612.428 396.627C620.546 396.856 626.321 388.722 632.448 383.81C645.952 372.981 658.041 360.752 671.159 349.534L672.307 348.553C697.511 326.997 728.049 300.881 757.143 283.149C764.992 278.366 773.023 272.009 782.417 271.537C786.207 271.346 783.722 279.082 781.524 281.923C763.208 305.595 714.478 341.297 694.563 356.005C691.631 358.17 622.195 410.353 601.635 414.991C601.54 415.013 601.447 415.033 601.355 415.052C592.786 416.842 594.627 409.374 599.847 399.502Z" fill="#0F478D"/>
<rect x="-111.726" y="-30.9135" width="975.587" height="650.801" transform="rotate(-1.80779 -111.726 -30.9135)" fill="#0F478D" stroke="#CC8A54" stroke-width="0.748749"/>
</g>
</svg>
