<svg width="16" height="18" viewBox="0 0 16 18" fill="none" xmlns="http://www.w3.org/2000/svg">
<path d="M15.0776 11.7473L14.4664 16.0742C14.3306 17.0346 13.506 17.7428 12.5456 17.7428H6.5695C6.05532 17.7428 5.31801 17.5391 4.95906 17.1704L0.544922 12.5234L1.35014 11.7085C1.58297 11.4757 1.91282 11.369 2.24267 11.4369L5.39563 12.1548V1.73548C5.39563 0.930268 6.04562 0.280273 6.85084 0.280273C7.65605 0.280273 8.30605 0.930268 8.30605 1.73548V7.55633H9.18888C9.48962 7.55633 9.79036 7.62424 10.0523 7.76006L14.0202 9.73915C14.7672 10.1175 15.194 10.9227 15.0776 11.7473Z" fill="white"/>
</svg>
