<svg width="988" height="583" viewBox="0 0 988 583" fill="none" xmlns="http://www.w3.org/2000/svg">
<path d="M114.192 133.178C93.9208 168.327 74.5683 203.696 61.5307 242.287C58.5961 250.973 51.2808 276.972 50.1763 287.765C47.6273 312.671 73.5663 277.443 73.6683 277.323C98.1362 248.389 118.609 216.401 145.808 189.782C154.629 181.149 161.552 175.305 171.258 168.409C174.764 165.918 182.71 158.163 182.71 162.455C182.71 168.837 178.293 174.434 176.054 180.413C169.673 197.453 161.052 221.115 155.499 237.797C139.766 285.061 127.552 332.531 125.155 382.431C124.689 392.134 124.763 395.031 124.763 403.608C124.763 404.942 123.434 407.457 124.763 407.61C126.256 407.781 126.557 405.198 127.308 403.901C129.953 399.338 132.358 394.64 134.943 390.043C176.882 315.468 221.607 242.556 270.805 172.508C295.476 137.381 320.319 102.539 343.533 66.4238C357.22 45.1288 345.064 64.0656 353.125 51.004C356.5 45.5365 352.384 63.8914 350.874 70.1323C325.09 176.724 278.472 278.359 224.409 373.55C217.364 385.954 208.938 398.14 203.755 411.513C199.989 421.232 206.236 411.812 215.208 402.144C271.974 340.975 326.135 277.493 381.805 215.351C394.065 201.666 405.687 187.31 419.197 174.85C421.645 172.592 428.467 168.71 428.789 172.02C429.66 180.968 424.029 189.365 421.448 197.979C412.519 227.778 407.148 244.644 395.509 274.102C373.248 330.442 342.74 382.069 312.504 434.35C309.687 439.22 300.903 452.8 305.652 449.77C323.64 438.291 338.275 422.23 353.615 407.414C439.37 324.588 511.972 235.118 568.371 130.152C572.495 122.477 580.054 100.143 582.858 108.389C587.86 123.101 581.41 139.475 579.138 154.843C566.781 238.416 542.45 319.618 510.228 397.655C509.774 398.756 477.204 468.153 478.123 468.703C480.86 470.34 482.453 464.013 484.387 461.481C492.05 451.45 499.506 441.262 506.9 431.032C558.904 359.087 609.447 286.181 657.053 211.252C687.395 163.497 691.132 155.965 715.392 114.244C718.311 109.225 720.116 103.348 724.201 99.2151C726.185 97.2091 723.027 104.737 722.146 107.413C718.783 117.628 715.194 127.77 711.477 137.862C670.844 248.184 625.772 356.769 576.3 463.433C568.292 480.698 558.429 501.218 550.556 519.159C548.645 523.515 545.553 527.603 545.075 532.334C544.933 533.739 548.167 532.617 549.284 531.748C566.628 518.248 600.564 478.829 608.307 469.776C674.551 392.338 735.111 310.584 792.524 226.477C808.544 203.008 822.693 178.304 838.725 154.843C843.952 147.193 831.175 171.765 826.979 180.022C780.481 271.537 726.764 360.079 685.537 454.162C679.171 468.69 677.309 473.019 675.162 486.172C674.044 493.02 672.624 496.017 681.524 489.978C696.479 479.831 730.973 449.516 739.961 441.67C753.87 429.527 767.264 416.797 781.365 404.877C786.367 400.649 810.458 373.178 826.979 379.308C834.533 382.11 830.769 401.162 842.64 381.65C850.354 368.972 855.68 354.988 861.728 341.441C891.124 275.593 881.452 291.889 910.376 229.6C918.722 211.625 924.27 200.368 933.77 185C938.205 177.824 935.961 180.292 937 182.364" stroke="#D3D3D3" stroke-width="100" stroke-linecap="round"/>
</svg>
